<?xml version="1.0" standalone="no"?>
<!DOCTYPE svg PUBLIC "-//W3C//DTD SVG 1.1//EN" "http://www.w3.org/Graphics/SVG/1.1/DTD/svg11.dtd" >
<svg xmlns="http://www.w3.org/2000/svg" xmlns:xlink="http://www.w3.org/1999/xlink" version="1.1">
<metadata>
Created by FontForge 20161013 at Tue Jan 17 20:13:00 2017
 By ,,,
Copyright (c) 1992 Image Club Graphics, Inc.
</metadata>
<defs>
<font id="CenturySchool" horiz-adv-x="660" >
  <font-face 
    font-family="Century Schoolbook"
    font-weight="5"
    font-stretch="normal"
    units-per-em="1154"
    panose-1="0 0 0 0 0 0 0 0 0 0"
    ascent="923"
    descent="-231"
    x-height="567"
    cap-height="898"
    bbox="-70 -263 1397 1226"
    underline-thickness="20"
    underline-position="-178"
    unicode-range="U+0020-2026"
  />
<missing-glyph horiz-adv-x="898" 
d="M56 0v898h786v-898h-786zM786 56v786h-674v-786h674z" />
    <glyph glyph-name=".notdef" horiz-adv-x="898" 
d="M56 0v898h786v-898h-786zM786 56v786h-674v-786h674z" />
    <glyph glyph-name=".null" unicode="&#xd7;" horiz-adv-x="0" 
 />
    <glyph glyph-name=".null" unicode="&#xfd;" horiz-adv-x="0" 
 />
    <glyph glyph-name="nonmarkingreturn" horiz-adv-x="302" 
 />
    <glyph glyph-name="space" unicode=" " horiz-adv-x="302" 
 />
    <glyph glyph-name="exclam" unicode="!" horiz-adv-x="231" 
d="M118 -9q-36 0 -57 23t-21 55q0 30 19 51.5t55 21.5q37 0 57 -22.5t20 -55.5q0 -29 -19 -51t-54 -22zM120 931q36 0 53 -32.5t17 -83.5q0 -37 -10 -91q-6 -31 -12 -61q-3 -23 -10 -59t-10.5 -61.5t-6.5 -52.5t-3 -58v-183h-50v186q0 37 -2 62.5t-4.5 50.5t-9.5 62.5
t-9 55.5q-9 55 -13 85t-4 68q0 50 18 81t56 31z" />
    <glyph glyph-name="quotedbl" unicode="&#x22;" horiz-adv-x="410" 
d="M146 886q3 -5 4 -11q1 -5 1 -12q0 -8 -2 -16l-38 -226h-28l-33 226q-2 12 -3 24q0 6 3 14q14 30 49 30q33 0 47 -29zM367 885q5 -10 5 -25q-1 -11 -1 -15l-39 -226h-27l-34 226q-2 11 -3 23q0 8 4 16q12 30 49 30q32 0 46 -29z" />
    <glyph glyph-name="numbersign" unicode="#" horiz-adv-x="684" 
d="M612 404v-87h-129l-41 -267h-83l43 270h-147l-43 -270h-82l40 270h-125v86h141l22 152h-132v85h144l37 255h82l-41 -255h151l36 255h83l-36 -256h112v-87h-128l-20 -151h116zM289 555l-23 -151h151l19 151h-147z" />
    <glyph glyph-name="dollar" unicode="$" horiz-adv-x="656" 
d="M304 1026h58v-145l20 -2q33 0 57 -7t52 -25q44 -28 68 -63.5t24 -81.5q0 -13 -1 -20q-4 -30 -26.5 -47.5t-52.5 -17.5q-29 0 -48 22t-19 52q3 29 19 44q17 13 34 27q9 12 -19 36q-34 29 -89 29l-20 -1v-303l84 -26q82 -26 128.5 -90.5t46.5 -152.5q0 -95 -67.5 -162.5
t-165.5 -76.5l-30 -3v-144h-60v145l-36 3q-81 7 -147 63t-66 126q0 19 7.5 44.5t27.5 44.5t50 19q33 0 55.5 -22.5t22.5 -56.5q0 -41 -34.5 -62.5t-33.5 -28.5q3 -20 21 -36q14 -12 41.5 -26t63.5 -14l29 -1v346l-46 15q-83 27 -133 87.5t-50 144.5t57 143.5t145 74.5l33 5
v144zM302 827l-25 -4q-51 -8 -86.5 -45.5t-35.5 -90.5q0 -46 28 -78.5t76 -50.5l43 -16v285zM359 394v-328l22 2q65 6 107.5 51.5t42.5 110.5q0 53 -32 91t-88 56z" />
    <glyph glyph-name="percent" unicode="%" horiz-adv-x="995" 
d="M463 766q2 -10 3.5 -22t1.5 -28q0 -44 -15 -90q-11 -32 -36 -81q-33 -64 -93.5 -107.5t-122.5 -43.5q-48 0 -84.5 26.5t-54 63.5t-17.5 82q0 39 13 78t37 74q46 66 106 109q67 48 129 48q43 0 77 -24q11 -7 18.5 -14.5t20.5 -26.5q26 -12 50 -17t53 -5q54 0 94.5 19
t74.5 61l21 26l50 -3l-513 -891h-61l458 795q-30 -22 -58 -32.5t-63 -10.5q-31 0 -48 2.5t-41 11.5zM149 478q13 -24 30.5 -35.5t38.5 -11.5q58 0 126 75q65 71 83 144q4 17 6 30.5t2 29.5q0 33 -13 71q-9 4 -21 11t-24 15q-19 14 -37 32q-23 -8 -35 -14.5t-24 -20.5
q-38 -42 -62 -87l-44 -81q-15 -28 -24.5 -61t-9.5 -59q0 -22 8 -38zM909 165q-38 -67 -97 -108t-123 -41q-51 0 -95 29q-30 19 -44 52.5t-14 73.5t14 84.5t37 81.5q40 65 104.5 110t127.5 45q23 0 43.5 -6t39.5 -20q29 -20 42 -52t13 -73q0 -45 -14.5 -93.5t-33.5 -82.5z
M632 104q12 -28 31 -40.5t43 -12.5q58 0 123 64t82 131q7 24 10.5 48.5t3.5 47.5q0 39 -14 66.5t-46 38.5q-6 2 -13 3t-13 1q-39 0 -74 -36q-29 -29 -55 -79l-43 -80q-17 -32 -28.5 -65.5t-11.5 -58.5q0 -18 5 -28z" />
    <glyph glyph-name="ampersand" unicode="&#x26;" horiz-adv-x="964" 
d="M908 458l-35 -3q-12 0 -35 -8t-37 -22q-24 -24 -43.5 -59t-37.5 -68l-40 -65l-49 -63l53 -45q19 -15 39.5 -24t40.5 -9q23 0 46 11.5t35.5 28t20.5 42.5l12 43l51 -8l-18 -57q-10 -35 -20 -54t-32 -42q-25 -28 -60.5 -41t-76.5 -13q-40 0 -77 12.5t-64 36.5l-39 35
l-34 -25q-41 -31 -93 -47t-104 -16q-77 0 -138.5 32t-95.5 97q-16 30 -23 59.5t-7 59.5q0 70 37.5 130.5t103.5 100.5l69 42l-21 56q-14 38 -20.5 67.5t-6.5 59.5q0 41 14 83q20 62 72 97t120 35q22 0 33 -2q54 -8 91.5 -31.5t59.5 -68.5q15 -30 15 -67q0 -56 -38.5 -108
t-97.5 -79l-83 -37q25 -48 42 -76.5t44.5 -73t54 -82t59.5 -80.5l24 29q30 36 48.5 77t18.5 74q0 16 -6 30q-9 20 -29 27t-49 7l-40 2v51h346v-51zM395 580q25 9 47 25q39 28 58 70t19 80q0 31 -12.5 55.5t-38.5 39.5q-15 8 -28.5 11t-31.5 3q-41 0 -63 -37.5t-22 -89.5
q0 -43 14 -80l34 -85zM258 459q-41 -22 -62 -62.5t-21 -90.5q0 -74 42 -133q30 -42 74.5 -68t90.5 -26q40 0 75 19l52 27q-71 80 -129 168q-36 55 -54 87q-21 36 -46 91z" />
    <glyph glyph-name="quotesingle" unicode="'" horiz-adv-x="188" 
d="M145 886q3 -5 4 -11q1 -5 1 -12q0 -8 -2 -16l-39 -226h-27l-33 226q-2 12 -3 24q0 7 3 15q13 29 49 29q33 0 47 -29z" />
    <glyph glyph-name="parenleft" unicode="(" horiz-adv-x="391" 
d="M353 977v-34q-60 -46 -93 -86q-36 -44 -64 -109q-15 -35 -30 -99q-19 -82 -19 -143v-120q0 -66 9.5 -130t23.5 -101q29 -77 66.5 -126.5t103.5 -99.5v-37q-154 95 -228.5 234.5t-74.5 322.5q0 173 76.5 304.5t229.5 223.5z" />
    <glyph glyph-name="parenright" unicode=")" horiz-adv-x="387" 
d="M351 449q0 -183 -73 -320q-76 -142 -231 -237v36q66 51 104 101.5t66 125.5q12 32 22.5 100t10.5 130v121q0 65 -18 143q-14 59 -31 99q-26 64 -63 108q-33 40 -93 86v35q306 -185 306 -528z" />
    <glyph glyph-name="asterisk" unicode="*" horiz-adv-x="555" 
d="M286 619l2 -77q0 -19 23 -65q11 -22 11 -39q0 -24 -13 -39t-35 -15t-35.5 14.5t-13.5 40.5q0 17 21 61q11 24 13 41l6 78l-10 9l-62 -42q-15 -10 -46 -53q-14 -20 -29 -28t-31 -8q-27 0 -41 25q-7 14 -7 25q0 27 26 44q16 10 54.5 12t58.5 11l68 32l1 13l-68 36
q-54 10 -107 21q-29 19 -29 45q0 14 7 25q14 23 39 23q14 0 30 -8t43 -51q14 -22 30 -32l67 -43l10 9l-7 74q0 18 -22 63q-11 22 -11 39q0 27 13 41t36 14q21 0 34.5 -15.5t13.5 -38.5q0 -20 -16.5 -52t-16.5 -52l-4 -77l9 -7l63 40q12 8 43 53q14 20 31 28t32 8
q25 0 39 -23q7 -11 7 -25q0 -26 -31 -45q-16 -9 -51 -10t-54 -10l-70 -33v-14l67 -35q18 -10 54.5 -11t52.5 -12q29 -21 29 -48q0 -11 -6 -22q-14 -24 -39 -24q-13 0 -31.5 9.5t-37.5 40t-35 41.5l-65 44z" />
    <glyph glyph-name="plus" unicode="+" horiz-adv-x="707" 
d="M664 362v-99h-261v-263h-95v265h-257v97h259v262h96v-262h258z" />
    <glyph glyph-name="comma" unicode="," horiz-adv-x="262" 
d="M102 -121q10 9 26 31q22 30 30 54q2 5 2 15l-3 24q-4 -3 -11.5 -4t-23.5 -1q-15 0 -22 2q-26 7 -40 27t-14 48q0 30 22 49t56 19q57 0 83 -46q18 -32 18 -74q0 -56 -29.5 -106.5t-79.5 -90.5l-54 -44l-28 36z" />
    <glyph glyph-name="hyphen" unicode="-" horiz-adv-x="391" 
d="M47 378h301v-98h-301v98z" />
    <glyph glyph-name="period" unicode="." horiz-adv-x="238" 
d="M123 0q-36 0 -56.5 22.5t-20.5 54.5t19.5 53.5t55.5 21.5t58 -24q19 -21 19 -53t-19.5 -53.5t-55.5 -21.5z" />
    <glyph glyph-name="slash" unicode="/" horiz-adv-x="473" 
d="M364 896h72l-341 -936h-68z" />
    <glyph glyph-name="zero" unicode="0" 
d="M341 896q142 0 218 -150q64 -126 64 -306q0 -173 -70 -296q-81 -142 -223 -142t-220 145q-66 123 -66 300q0 178 70 303q82 146 227 146zM337 843q-91 0 -133 -126q-28 -85 -28 -200v-115q0 -99 7 -155q11 -89 41 -135q37 -57 106 -57q93 0 133 118q28 84 28 229v106
q0 124 -23 204q-37 131 -131 131z" />
    <glyph glyph-name="one" unicode="1" horiz-adv-x="566" 
d="M348 122q0 -19 1.5 -29t9.5 -20t21 -14t29 -4h117v-56h-480v59h117q18 0 30 3.5t21.5 14t12 23.5t2.5 32v552q0 15 -2.5 23.5t-10.5 16t-19 9.5t-24 2h-130v55l48 2q12 0 48.5 7.5t69 20.5t54 25.5t49.5 34.5h36v-757z" />
    <glyph glyph-name="two" unicode="2" horiz-adv-x="648" 
d="M159 116h312q18 0 25.5 1.5t20 12t21 35.5t8.5 54l5 47h57l-24 -266h-537v61l126 154l111 121q69 75 90 102q45 56 72.5 111t27.5 108q0 23 -5.5 45.5t-16.5 43.5q-36 66 -112 78q-8 2 -17.5 2h-14.5q-75 0 -128 -44q-49 -41 -49 -88q0 -11 19 -17q49 -16 65 -49
q8 -18 8 -34q0 -45 -38 -67q-19 -10 -39 -10q-21 0 -39 11q-29 18 -42.5 47t-13.5 65q0 12 1.5 25t5.5 30q20 87 97 136.5t179 49.5q86 0 149 -35.5t101 -109.5q23 -46 23 -95q0 -73 -52 -150q-44 -64 -123 -129l-78 -65q-35 -29 -68.5 -57t-66.5 -61l-30 -30t-30 -33z" />
    <glyph glyph-name="three" unicode="3" horiz-adv-x="633" 
d="M463 22q-66 -35 -150 -35q-90 0 -166 40t-96 105q-10 32 -10 64q0 31 10 53t36 38q17 10 36 10q11 0 22.5 -3.5t25 -11t23 -27t9.5 -40.5q0 -22 -10 -33q-14 -18 -39.5 -32t-25.5 -23q0 -36 49 -59.5t114 -23.5q50 0 86 16q45 20 67 68.5t22 109.5q0 76 -31 133t-101 57
l-108 -3q-10 0 -17.5 9.5t-7.5 21.5t7 21t18 9l107 -2q33 0 56 14.5t41 45.5q24 39 24 107q0 49 -14 87.5t-46 58.5q-16 10 -35.5 14.5t-43.5 4.5q-56 0 -100.5 -22t-40.5 -49q1 -7 27 -29t26 -51q0 -32 -17.5 -53.5t-44.5 -21.5q-33 0 -57.5 17.5t-27 35t-2.5 29.5
q0 66 52 124q33 37 82.5 56t109.5 19q68 0 128 -24t92.5 -75t32.5 -111q0 -47 -20.5 -91t-68.5 -78q-41 -29 -79 -36q118 -22 168 -130q21 -47 21 -95q0 -64 -34.5 -119t-98.5 -90z" />
    <glyph glyph-name="four" unicode="4" horiz-adv-x="703" 
d="M630 0h-367v56h79q15 0 24 3.5t19 15.5t10 30v116h-348v74l426 583h52l-8 -72l-3 -72v-446h152v-69h-153v-112q0 -10 0.5 -19t7.5 -17q13 -15 39 -15h71zM121 289h278v382z" />
    <glyph glyph-name="five" unicode="5" 
d="M478 264q0 79 -34 148t-89 85q-36 11 -67 11q-70 0 -125 -49q1 -5 1 -14q0 -21 -14 -36q-19 -23 -39 -23q-7 0 -16 4t-13.5 13t-7.5 25q-2 14 17 36q11 14 14 24l5 31q2 17 8 67.5t11 109.5q0 39 3 72q9 99 9 116l46 -11q43 -10 87 -20q42 -8 88 -8h49q18 0 35 0.5
t38 4.5t58 17.5t42 10.5t5 -10q0 -4 -3 -11q-2 -6 -6 -12q-30 -59 -83.5 -92.5t-123.5 -33.5q-10 -1 -16 -1q-42 0 -88.5 7t-74.5 20l-25 -216l50 16q27 10 58.5 15t60.5 5q70 0 128 -28.5t101 -87.5q50 -71 50 -163q0 -84 -42 -157.5t-114 -107.5q-37 -18 -79.5 -27
t-80.5 -9q-88 0 -156.5 39.5t-89.5 104.5q-10 32 -10 64q0 31 10 53t36 38q17 10 36 10q11 0 22.5 -3.5t25 -11t23 -26.5t9.5 -40q0 -23 -10 -34q-14 -18 -39.5 -32t-25.5 -23q0 -37 49 -62.5t112 -25.5q43 0 74 14q65 30 93 105q18 49 18 109z" />
    <glyph glyph-name="six" unicode="6" horiz-adv-x="656" 
d="M393 823q-43 0 -87.5 -27.5t-67.5 -69.5q-26 -48 -41.5 -126.5t-15.5 -122.5l-2 -59l33 39q37 43 79 60.5t102 17.5q88 0 148.5 -54.5t79.5 -148.5q2 -7 3.5 -22.5t1.5 -32.5q0 -115 -76 -203q-79 -92 -190 -92q-152 0 -235 124q-75 112 -75 286q0 57 9 116t28 116
q37 111 114 179q84 74 191 74q62 0 106 -15t80 -54q14 -15 20.5 -36t6.5 -42q0 -8 -2 -20q-6 -30 -28 -50t-53 -20q-54 0 -71 47q-4 9 -4 21q0 17 22 60q10 19 7 28q-6 20 -32 23.5t-51 3.5zM191 277q0 -100 34 -162q43 -78 131 -78q66 0 105 65q35 58 35 136q0 103 -35 160
q-38 62 -113 62q-70 0 -113.5 -49t-43.5 -134z" />
    <glyph glyph-name="seven" unicode="7" horiz-adv-x="636" 
d="M387 302q-4 -25 -4.5 -57t-0.5 -47v-20q0 -8 -1 -16t-1 -12v-25t1 -24q0 -25 -2.5 -39.5t-11.5 -35.5q-18 -43 -69 -43q-35 0 -55.5 27t-20.5 67q0 12 1 18q11 73 33 133q33 94 44 121q16 39 46 97l60 116l73 138l25 52l-297 8q-17 1 -24 1q-18 0 -32 -11.5t-26 -53.5
q-3 -12 -12 -46l-20 -81l-49 9l41 297q63 -5 123.5 -9t118.5 -4h218l52 4v-38l-72 -155l-67 -148q-32 -70 -45 -108q-17 -51 -26 -115z" />
    <glyph glyph-name="eight" unicode="8" horiz-adv-x="668" 
d="M448 481q67 -21 118 -79.5t60 -132.5q0 -8 1 -17.5t1 -14.5q0 -112 -87 -185q-83 -70 -200 -70q-124 0 -207 58q-90 63 -90 165q0 71 36.5 123.5t104.5 80.5l41 17q-60 25 -99 77q-42 56 -42 125q0 103 73.5 174.5t179.5 71.5q98 0 170 -48q80 -53 80 -138
q0 -122 -108 -187zM279 405l-39 -22q-97 -55 -97 -167q0 -77 41 -125t109 -56q8 -1 15.5 -1.5t17.5 -0.5q84 0 142 42q62 45 62 118q0 61 -36.5 104.5t-99.5 65.5zM401 495l33 31q35 31 50 66t15 82q0 65 -45 105q-39 34 -98 41q-18 2 -25 2q-66 0 -111 -39t-45 -99
q0 -55 39 -94q32 -32 94 -57z" />
    <glyph glyph-name="nine" unicode="9" 
d="M282 39q42 0 86.5 26.5t69 72t41.5 129.5q14 71 14 115l1 60l-33 -39q-35 -43 -78 -60.5t-103 -17.5q-90 0 -151 53t-79 146q-4 26 -4.5 36.5t-0.5 16.5q0 117 78.5 208.5t189.5 91.5q151 0 235 -124q75 -111 75 -285q0 -58 -9 -117t-28 -116q-36 -110 -114 -179
q-84 -74 -191 -74q-63 0 -106.5 15t-79.5 55q-14 15 -20.5 35.5t-6.5 42.5q0 8 2 20q6 29 28.5 49.5t52.5 20.5q51 0 69 -50q2 -5 3 -12q1 -6 1 -11q0 -17 -13.5 -44.5t-9.5 -38.5q5 -17 27.5 -21t53.5 -4zM483 582q0 100 -35 163q-43 78 -130 78q-66 0 -105 -65
q-35 -58 -35 -137q0 -104 34 -160q38 -62 113 -62q71 0 114.5 49t43.5 134z" />
    <glyph glyph-name="colon" unicode=":" horiz-adv-x="242" 
d="M124 -10q-37 0 -57 22.5t-20 55.5q0 32 19.5 53.5t55.5 21.5q37 0 57 -22.5t20 -55.5q0 -32 -19.5 -53.5t-55.5 -21.5zM122 435q-37 0 -57 22.5t-20 55.5q0 30 19 52t55 22t57 -23t21 -54q0 -32 -19.5 -53.5t-55.5 -21.5z" />
    <glyph glyph-name="semicolon" unicode=";" horiz-adv-x="270" 
d="M123 438q-38 0 -59 23.5t-21 57.5q0 29 19 51t54 22q38 0 59 -23.5t21 -57.5q0 -29 -19 -51t-54 -22zM107 -131q10 9 26 31q22 30 30 54q2 4 2 7v7l-3 24q-4 -3 -11.5 -4t-23.5 -1q-15 0 -22 2q-26 7 -40 27t-14 48q0 29 22 49t56 20q57 0 83 -46q18 -32 18 -75
q0 -56 -29.5 -106.5t-79.5 -90.5l-54 -43l-28 36z" />
    <glyph glyph-name="less" unicode="&#x3c;" horiz-adv-x="640" 
d="M596 560v-79l-440 -205l440 -212v-82l-545 260v72z" />
    <glyph glyph-name="equal" unicode="=" horiz-adv-x="706" 
d="M660 246v-88h-609v88h609zM660 480v-88h-609v88h609z" />
    <glyph glyph-name="greater" unicode="&#x3e;" horiz-adv-x="640" 
d="M596 314v-72l-545 -260v82l440 212l-440 205v79z" />
    <glyph glyph-name="question" unicode="?" horiz-adv-x="555" 
d="M248 -30q-37 0 -57 23t-20 55t19.5 53.5t55.5 21.5q37 0 57 -23t20 -55t-19.5 -53.5t-55.5 -21.5zM276 229h-54v69q0 67 44 138q41 58 83.5 121t42.5 123q0 14 -1 22q-6 59 -44 100t-94 41q-44 0 -78.5 -16.5t-40.5 -50.5q-1 -8 29 -36t27 -61q0 -20 -17 -40t-44 -20
q-28 0 -50.5 16.5t-29 39t-6.5 43.5q0 73 69.5 124.5t161.5 51.5q104 0 171 -56q61 -51 68 -125q0 -7 1 -16t1 -18q0 -89 -61 -153l-114 -98q-62 -59 -62 -131z" />
    <glyph glyph-name="at" unicode="@" horiz-adv-x="900" 
d="M868 503q0 -128 -83 -230t-194 -102q-48 0 -72 47q-7 15 -14 47l-34 -39q-45 -51 -111 -51q-68 0 -112 54.5t-44 127.5q0 107 90 187q81 72 167 72q34 0 57.5 -13t32.5 -40l12 -32l23 71l99 3l-90 -333q-2 -7 -2 -10q-2 -10 -2 -21q0 -16 5.5 -27t17.5 -11q70 0 130.5 94
t60.5 197q0 134 -104 213q-96 73 -233 73q-148 0 -252.5 -104.5t-104.5 -253.5q0 -154 107 -264t260 -110q111 0 191 43q56 30 93 81q12 21 25 43h76l-34 -58q-48 -66 -120 -108q-102 -59 -234 -59q-177 0 -302 125t-125 303q0 174 123 298t297 124q159 0 276 -92
q124 -98 124 -245zM541 485q0 45 -17.5 73t-50.5 28q-56 0 -110.5 -95.5t-54.5 -185.5q0 -41 18.5 -68.5t59.5 -27.5q58 0 109 104q46 94 46 172z" />
    <glyph glyph-name="A" unicode="A" horiz-adv-x="988" 
d="M47 53l17 2q30 3 52.5 17.5t33 31t20.5 44.5l280 759h50l329 -787q6 -15 9.5 -21.5t9.5 -14.5q25 -28 66 -28h31v-57h-374v54l64 2q30 0 35 1q18 4 24 19q3 9 3 16q0 11 -4 19l-74 178h-330l-42 -131q-6 -18 -6 -33q0 -19 12 -36t29.5 -23.5t40.5 -6.5l42 -4v-54h-318v53
zM312 352h281l-149 352z" />
    <glyph glyph-name="B" unicode="B" horiz-adv-x="895" 
d="M63 0v59l70 1q18 0 29.5 3t20 12t10 20.5t1.5 29.5v654q0 20 -3 30t-10.5 17.5t-17 11t-27.5 3.5h-12h-69v58h509q96 0 169 -56.5t73 -146.5q0 -73 -37.5 -128t-105.5 -76l-63 -19l63 -11q76 -14 125 -59.5t64 -123.5q4 -20 4 -44q0 -105 -96.5 -171t-234.5 -66zM539 59
q85 0 129 64q38 55 38 141q-6 73 -51 122q-48 52 -121 52h-203v-313q0 -37 17 -55q6 -5 21 -8.5t37 -3.5h10h1zM400 846q-11 0 -25.5 -1t-27.5 -14q-9 -8 -12 -12q-5 -7 -5 -17v-302h190q66 0 106 50.5t40 119.5q0 9 -2 25q-8 64 -43 105q-38 45 -96 45z" />
    <glyph glyph-name="C" unicode="C" horiz-adv-x="843" 
d="M729 908h49l16 -359h-55l-15 62q-26 110 -96 177q-75 72 -180 72q-130 0 -192 -141q-49 -111 -49 -285q0 -154 47 -254q58 -124 179 -140q23 -3 43 -3q104 0 177.5 64.5t93.5 169.5l9 44l57 -10l-20 -81q-28 -115 -125 -180q-92 -62 -221 -62q-172 0 -288 137
q-112 132 -112 314q0 191 115 333q121 149 299 149q65 0 117 -21q46 -18 103 -63z" />
    <glyph glyph-name="D" unicode="D" horiz-adv-x="960" 
d="M917 472q0 -200 -102 -333q-107 -139 -278 -139h-486v58l82 1q12 0 23.5 3.5t19.5 12.5q5 5 8.5 15.5t3.5 27.5v677q0 18 -15 33q-7 7 -19.5 10t-22.5 3h-74v56h486q156 0 265 -124t109 -301zM514 59q52 0 91.5 19t81 61t58.5 139q10 57 10 131v93q0 79 -15 138
q-22 87 -76 139q-25 24 -66 40q-56 22 -95 22l-112 -1h-25q-13 -2 -23 -10q-18 -15 -18 -36v-691q0 -19 15 -33q7 -7 15 -9t19 -2h14h126z" />
    <glyph glyph-name="E" unicode="E" horiz-adv-x="882" 
d="M826 577h-53l-13 70q-9 56 -24 86q-18 36 -57 66q-31 24 -65.5 32.5t-79.5 8.5h-137q-12 0 -24 -0.5t-22 -8.5q-19 -15 -19 -37l-1 -302l70 -2q26 0 45.5 9t41.5 29t32.5 39.5t14.5 49.5l5 46h52v-410h-52l-7 61q-3 29 -11.5 49t-28.5 39q-37 36 -90 36l-72 -2v-324
q0 -15 3 -24.5t12.5 -18.5t19.5 -10.5t19 -1.5h15h140q53 0 92 14.5t77 50.5q30 29 46 68q10 25 24 82l14 57h51l-24 -329h-761v58h82q14 0 23.5 3.5t20.5 16t11 35.5v691q0 6 -4 12q-3 4 -11 11q-14 13 -33 13h-83v58h743z" />
    <glyph glyph-name="F" unicode="F" horiz-adv-x="831" 
d="M781 898l17 -324h-51l-23 99q-5 26 -26 64q-17 30 -36 47q-32 28 -66 38t-84 10h-124h-15q-15 0 -19 -1q-9 -2 -17 -10q-14 -14 -14 -36v-295l51 -1q35 0 57.5 6.5t45 25.5t33 41t14.5 53l5 42h55v-410h-55l-6 62q-3 30 -11.5 49t-28.5 38.5t-42.5 27.5t-52.5 8h-62v-325
q0 -22 20 -37q9 -8 21 -10t28 -2h80v-58h-420v58h79q19 0 28.5 2.5t18 15t8.5 31.5v677q0 15 -3.5 23t-11.5 16t-18 9.5t-28 1.5h-70v64h723z" />
    <glyph glyph-name="G" unicode="G" horiz-adv-x="980" 
d="M683 211v89q0 24 -17.5 38.5t-34.5 14.5h-84v56l394 1v-58h-61h-19q-16 0 -27 -9t-16.5 -17t-5.5 -20v-315h-50l-45 110q-59 -58 -121 -86.5t-134 -28.5q-16 0 -25.5 1t-30.5 4q-178 29 -270 152q-85 113 -85 286q0 191 115 333q121 149 298 149q70 0 121 -19t110 -65
l49 77h49l16 -348h-55l-15 51q-32 111 -105 178q-78 71 -185 71q-129 0 -190 -142q-48 -111 -48 -284q0 -150 30 -229q43 -112 157 -145q34 -10 73 -10q85 0 146 44q66 47 66 121z" />
    <glyph glyph-name="H" unicode="H" horiz-adv-x="1058" 
d="M736 430h-409v-324q0 -20 10 -32.5t20.5 -14.5t34.5 -2h69v-57h-406v58l87 1q23 0 36.5 14.5t13.5 39.5v691q0 6 -4 12q-3 4 -11 11q-14 13 -33 13h-83v58h405v-58h-73q-12 0 -24 -0.5t-22 -8.5q-18 -15 -18 -40v-296h407v299q0 10 -1.5 17t-11.5 17q-13 13 -34 13h-84
v57h405v-57h-72q-13 0 -25 -0.5t-22 -8.5q-18 -15 -18 -37v-686q0 -14 3 -22.5t12.5 -17t18.5 -10t29 -1.5h70v-57h-407v58h87q24 0 37 15t13 40v316z" />
    <glyph glyph-name="I" unicode="I" horiz-adv-x="573" 
d="M502 898v-58h-68q-12 0 -24 -0.5t-22 -8.5q-18 -15 -18 -37v-691q0 -20 15 -34q10 -9 19 -10.5t29 -1.5h69v-57h-400v58h81q22 0 38 17q12 13 12 38v691q0 6 -4 12q-3 4 -11 11q-14 13 -33 13h-83v58h400z" />
    <glyph glyph-name="J" unicode="J" horiz-adv-x="746" 
d="M568 227q0 -120 -87 -186q-77 -59 -197 -59q-99 0 -167 58q-74 64 -74 174q0 52 34.5 90.5t81.5 38.5q38 0 64 -19t33 -55q2 -16 2 -22q0 -44 -34 -68q-9 -6 -19.5 -8.5t-24.5 -2.5q-13 0 -27 1.5t-26 3.5q-17 0 -17 -12q0 -57 49 -92q45 -32 107 -32q14 0 21 1
q66 7 105 60.5t39 124.5l1 581q0 15 -13 26.5t-38 11.5h-83v56h405v-57h-73q-13 0 -25 -0.5t-21 -8.5q-16 -13 -16 -37v-568z" />
    <glyph glyph-name="K" unicode="K" horiz-adv-x="1058" 
d="M329 110q0 -17 3.5 -25.5t11 -15.5t19.5 -9.5t28 -2.5h74v-57h-406v58h82q15 0 25 3.5t17.5 14t7.5 37.5v674q0 12 -2.5 22t-11.5 18q-14 13 -41 13h-76v58l405 -1v-57h-72q-13 0 -25 -0.5t-22 -8.5q-15 -13 -15 -37v-396l323 332q16 16 27.5 35t11.5 35q0 11 -6 20.5
t-16.5 14t-25.5 4.5h-63v57h381v-56l-18 -1q-32 0 -60 -10q-17 -6 -57 -27q-27 -15 -51 -36q-16 -14 -45 -45l-165 -165l309 -450q5 -8 11 -16q11 -14 24 -21.5t23.5 -10t28.5 -2.5h51v-59h-423v61h80q23 0 32.5 2t13 12t3.5 16q0 8 -6 16l-241 353l-144 -146v-201z" />
    <glyph glyph-name="L" unicode="L" horiz-adv-x="843" 
d="M497 57q54 0 91 10t73.5 40t60.5 92q16 41 22 81l12 63h52l-25 -343h-729v59h87q23 0 38 16q12 15 12 38v678q0 21 -15 36q-9 9 -19.5 11t-29.5 2h-67v58h405v-58h-73q-12 0 -24 -0.5t-22 -8.5q-18 -15 -18 -37v-686q0 -25 15 -39q10 -9 19 -10.5t29 -1.5h106z" />
    <glyph glyph-name="M" unicode="M" horiz-adv-x="1182" 
d="M867 829l-277 -829h-45l-293 832l-1 -658q0 -26 4.5 -43t19.5 -35q32 -37 85 -37l33 -2v-57h-345v58l33 2q49 0 83 38q13 16 18.5 35t5.5 43v615q0 13 -1.5 20.5t-8.5 16.5t-19.5 11.5t-19.5 2.5l-86 -1v59h311l241 -671l224 669h314v-58h-73q-12 0 -24 -0.5t-22 -8.5
q-18 -15 -18 -37v-691q0 -20 15 -34q10 -9 19 -10.5t29 -1.5h69v-57h-406v58h85q23 0 38 18q8 8 10 20t2 17v716z" />
    <glyph glyph-name="N" unicode="N" horiz-adv-x="1061" 
d="M802 720q0 30 -4 46.5t-18 33.5q-30 38 -82 38l-33 2v58h350v-59l-34 -2q-31 -3 -48 -9t-33 -24.5t-21.5 -38t-5.5 -47.5v-739h-56l-556 760v-558q0 -33 6 -53.5t25 -38.5q30 -30 76 -30l40 -2v-58l-357 1v58l33 2q50 0 84 40q17 19 23 36.5t6 44.5v618q-8 14 -26 26
t-36 12h-80v61h256l491 -666v488z" />
    <glyph glyph-name="O" unicode="O" horiz-adv-x="918" 
d="M459 908q176 0 300.5 -129.5t124.5 -308.5q0 -195 -116 -337q-122 -150 -304 -150q-176 0 -298 141q-118 137 -118 322t116 321q120 141 295 141zM459 852q-132 0 -201 -131q-57 -109 -57 -269q0 -172 52 -278q67 -136 211 -136q139 0 208 141q56 115 56 288
q0 161 -56 261q-70 124 -213 124z" />
    <glyph glyph-name="P" unicode="P" horiz-adv-x="855" 
d="M328 110q0 -14 3.5 -23t13 -18t18.5 -10.5t29 -1.5h75v-57h-412v58l87 1q25 0 37.5 14.5t12.5 39.5v691q0 9 -14 22.5t-33 13.5h-84v57h482q113 0 187 -54q83 -60 93 -173q1 -7 1 -21q0 -102 -78.5 -174.5t-182.5 -72.5h-235v-292zM325 456h163q38 0 71 10
q46 14 72.5 44.5t34.5 66.5q5 23 5 77l-3 49q0 36 -15.5 61t-50.5 49q-23 16 -47.5 21.5t-59.5 5.5l-104 1h-29q-13 -2 -25 -14.5t-12 -35.5v-335z" />
    <glyph glyph-name="Q" unicode="Q" horiz-adv-x="917" 
d="M270 132q0 69 33.5 122t93.5 67q10 3 22 4t26 1q64 0 115 -35t77 -97l21 -51q40 72 52 137.5t12 162.5q0 181 -54 285q-66 127 -210 127q-135 0 -204 -131q-59 -112 -59 -281q0 -102 14.5 -168t60.5 -143zM572 65l1 56q0 59 -35 104q-38 49 -96 49q-28 0 -56 -12
t-45 -43.5t-17 -67.5q0 -34 16 -60q20 -31 48.5 -42t70.5 -11q40 0 62 4.5t51 22.5zM580 2q-36 -11 -59 -15t-59 -4q-176 0 -299 141q-119 137 -119 322q0 187 116 323q121 142 298 142q165 0 281 -114t135 -283q4 -35 4 -77q0 -119 -46 -214.5t-145 -169.5l52 -142
q7 -20 21.5 -32.5t32.5 -12.5q7 0 11 1q21 4 30.5 22t9.5 43l3 38h53l-4 -48q-6 -65 -52.5 -108.5t-110.5 -43.5q-67 0 -109.5 56t-42.5 130z" />
    <glyph glyph-name="R" unicode="R" horiz-adv-x="933" 
d="M660 392q22 -22 32.5 -40.5t17.5 -46.5l38 -155q10 -42 23 -58.5t29 -16.5q6 0 9 1q20 4 29.5 22.5t9.5 43.5v57h51v-66q0 -63 -45 -108t-108 -45q-59 0 -98 49q-35 44 -43 111l-20 155q-4 32 -14.5 55t-35.5 46.5t-55.5 33t-71.5 9.5h-79v-334q0 -20 16 -35
q9 -8 18.5 -9.5t28.5 -1.5h70v-59h-407v58h87q22 0 38 19q8 8 10 20t2 17v675q0 10 -2.5 21t-10 19t-17.5 10.5t-24 2.5h-77v56h480q104 0 183 -54q85 -58 85 -148q0 -89 -48 -149t-131 -75l-90 -18q32 -4 62.5 -18.5t57.5 -43.5zM326 497h167q86 0 132 50q42 45 42 119
q0 14 -1 21q-6 67 -39 108q-38 47 -102 47l-131 -1q-13 0 -25.5 -0.5t-22.5 -8.5q-20 -13 -20 -43v-292z" />
    <glyph glyph-name="S" unicode="S" horiz-adv-x="742" 
d="M665 578h-53l-15 49q-31 103 -101 162q-75 63 -176 63q-56 0 -101 -30q-51 -34 -60 -88q-2 -16 -2 -23q0 -50 31 -89t82 -53l264 -74q85 -24 131 -99q42 -69 42 -166t-65 -161q-59 -58 -159 -78q-30 -6 -67 -6q-57 0 -109 13.5t-95 42.5l-59 39l-54 -85h-52v349h54
l13 -59q26 -112 112 -179t202 -67q75 0 130 47.5t55 115.5q0 11 -1 17q-5 53 -38.5 90.5t-87.5 52.5l-232 64q-99 28 -144.5 90.5t-45.5 156.5q0 101 78.5 167t189.5 66q57 0 97.5 -10.5t83.5 -41.5l46 -33l47 76h46z" />
    <glyph glyph-name="T" unicode="T" horiz-adv-x="859" 
d="M288 841q-40 0 -71 -21q-13 -9 -36 -31t-39 -55.5t-29 -78.5l-19 -100h-50l25 342h735l19 -348h-52l-19 98q-3 21 -16 57q-20 54 -46.5 80t-55 41t-52.5 15h-37q-20 0 -31 -13t-11 -34v-690q0 -20 16 -35q8 -8 17.5 -9.5t29.5 -1.5h78v-57h-431v58l103 1q25 0 38 16
q8 8 10 20t2 17v682q0 20 -13.5 33.5t-36.5 13.5h-28z" />
    <glyph glyph-name="U" unicode="U" horiz-adv-x="1048" 
d="M313 253q0 -88 75 -147q71 -56 167 -56h15q10 2 14 2q96 10 158.5 77.5t62.5 162.5v431q0 27 -4.5 44t-20.5 35q-32 36 -82 36h-33v60h347v-58l-33 -2q-28 0 -45.5 -6t-36.5 -25q-15 -16 -22.5 -37t-7.5 -45v-429q0 -137 -92 -223t-237 -86q-146 0 -247 62
q-115 71 -115 192v548q0 15 -3.5 23.5t-10.5 15.5q-14 13 -33 13h-84v57h409v-57h-74q-13 0 -25.5 -0.5t-22.5 -7.5q-19 -15 -19 -39v-541z" />
    <glyph glyph-name="V" unicode="V" horiz-adv-x="1003" 
d="M701 732q9 23 9 43q0 22 -10.5 37t-27.5 21.5t-40 6.5l-44 4v54h377v-55h-53q-28 0 -42.5 -2.5t-34.5 -15t-32 -30t-23 -45.5l-284 -752h-50l-308 778q-6 15 -12 27t-15.5 22.5t-19.5 14t-23 3.5h-21v55h346v-55h-45q-33 0 -50 -3t-21.5 -16t-4.5 -20q0 -12 6 -26
l228 -576z" />
    <glyph glyph-name="W" unicode="W" horiz-adv-x="1385" 
d="M627 832q-10 8 -19.5 9.5t-30.5 1.5h-41v55h351v-55h-45q-27 0 -37.5 -2t-18.5 -14t-8 -26q0 -5 4 -21l178 -547l147 508q6 20 6 36q0 22 -15 40q-11 13 -27.5 18t-36.5 5h-36v56h349v-56h-63q-33 0 -60 -21q-20 -15 -29.5 -32t-18.5 -46l-222 -744h-52l-198 611
l-179 -612h-52l-261 790q-8 24 -8 25q-5 13 -16 21t-24.5 9.5t-23.5 1.5h-92v55h404v-56l-51 -1h-17q-20 0 -29.5 -9t-9.5 -22q0 -9 4.5 -22.5t9.5 -25.5l170 -533l148 487l-32 89q-6 16 -18 27z" />
    <glyph glyph-name="X" unicode="X" horiz-adv-x="1013" 
d="M823 122q11 -19 16 -26q9 -13 22.5 -23t25.5 -15.5t27 -5.5l57 -2v-50h-402v60l86 1q8 0 16 0.5t13 6.5t5 13q0 8 -7.5 19t-11.5 17l-179 262l-143 -201q-22 -30 -22 -60q0 -15 8 -31q16 -28 61 -28l41 -2v-57h-346v57l19 2q40 5 78 29q33 20 54 51l214 296l-237 354
l-10 16q-9 12 -22 22q-23 15 -45 15h-93v56h419v-57h-59q-10 0 -20 -0.5t-17 -6.5t-7 -14q0 -10 8 -24q4 -7 17 -26l148 -218l133 191q11 14 16 24.5t5 23.5q0 12 -6.5 24t-21.5 18t-33 6h-45v59h340v-57l-18 -1q-19 0 -42 -6.5t-43 -18.5t-32 -23t-25 -29l-190 -266z" />
    <glyph glyph-name="Y" unicode="Y" horiz-adv-x="988" 
d="M573 106q0 -24 17 -38q9 -7 20 -8.5t30 -1.5h71v-58h-418v59h92q12 0 20.5 1.5t18 11t12 19t2.5 24.5v243l-271 439q-12 20 -27 30q-23 15 -45 15h-49v56h396v-57h-77h-13q-13 0 -17 -1q-8 -2 -13.5 -10t-5.5 -15q0 -8 2 -13q2 -6 14 -22l210 -337l165 286q6 12 11 25.5
t5 24.5t-1 15q-1 6 -8 18t-27.5 19.5t-45.5 7.5h-44v58h349v-56l-18 -1q-41 0 -85 -30q-32 -22 -54 -63l-216 -379v-262z" />
    <glyph glyph-name="Z" unicode="Z" horiz-adv-x="757" 
d="M714 898v-47l-510 -792h233q43 0 76 9t62 35q26 22 39 46.5t22 63.5l31 125h54l-22 -338h-651v58l503 786h-182q-53 0 -87 -9t-66 -39q-24 -22 -39 -55q-10 -22 -18 -53l-26 -100h-52l25 310h608z" />
    <glyph glyph-name="bracketleft" unicode="[" horiz-adv-x="363" 
d="M326 956v-38h-188v-939h188v-36h-276v1012z" />
    <glyph glyph-name="backslash" unicode="\" horiz-adv-x="469" 
d="M452 -40h-68l-341 936h72z" />
    <glyph glyph-name="bracketright" unicode="]" horiz-adv-x="363" 
d="M319 955v-1012h-276v36h189v939h-189v38z" />
    <glyph glyph-name="asciicircum" unicode="^" horiz-adv-x="461" 
d="M236 783l-154 -124h-42l156 203h80l150 -208h-40z" />
    <glyph glyph-name="underscore" unicode="_" horiz-adv-x="800" 
d="M0 -73h805v-76h-805v76z" />
    <glyph glyph-name="grave" unicode="`" horiz-adv-x="348" 
d="M315 707h-49l-203 133q-19 12 -19 37q0 15 10 27.5t30 12.5q25 0 46 -21z" />
    <glyph glyph-name="a" unicode="a" horiz-adv-x="683" 
d="M422 352v91q0 33 -25 59q-13 15 -34 22.5t-38 7.5l-37 1q-42 0 -73.5 -9.5t-31.5 -30.5q0 -9 12.5 -31t12.5 -43q0 -26 -18.5 -41.5t-44.5 -15.5t-45 14t-22.5 35t-3.5 28q0 68 74 111q67 39 151 39q93 0 157 -34q77 -41 77 -115v-314q0 -23 4 -36t17 -21.5t28 -8.5
q14 0 35 7.5t24 2.5q4 -7 4 -15q0 -25 -39.5 -45.5t-78.5 -20.5q-38 4 -64 28t-33 62l-34 -29q-36 -29 -79 -45q-35 -13 -81 -19q-18 -2 -26 -2q-69 0 -118 35q-55 40 -55 105q0 90 103 149q81 47 213 68zM423 306l-119 -25q-56 -11 -97 -42q-49 -37 -49 -87q0 -46 23 -74
q27 -32 77 -32q18 0 28 2q57 9 97 51t40 99v108z" />
    <glyph glyph-name="b" unicode="b" horiz-adv-x="699" 
d="M48 896l206 12v-410l25 32q17 22 50.5 38.5t55.5 19t28 2.5h12q102 0 173 -81t71 -197q0 -127 -69 -224q-74 -104 -182 -104h-11q-7 0 -19 2q-56 8 -93.5 29.5t-72.5 66.5l-61 -97h-47q11 34 17 66q4 29 6 44.5t2 40.5v674q0 16 -9 24t-27 8h-55v54zM246 300
q0 -107 32 -176q41 -88 123 -88q78 0 115 87q30 70 30 174q0 91 -34 155q-40 76 -114 76t-116 -74q-36 -63 -36 -154z" />
    <glyph glyph-name="c" unicode="c" horiz-adv-x="551" 
d="M312 542q-68 0 -108 -83q-35 -73 -35 -175q0 -96 35 -154q43 -71 129 -71q37 0 69 16t51 53l28 51l46 -18l-32 -63q-30 -60 -93 -88q-53 -24 -123 -24q-107 0 -174 97q-61 88 -61 210t73 208q77 91 199 91q63 0 111 -24q59 -30 81 -91q3 -10 4 -15t1 -15q0 -34 -21 -59
t-54 -25q-31 0 -51.5 19.5t-20.5 51.5q0 22 16.5 42.5t15.5 28.5q-3 19 -30.5 28t-55.5 9z" />
    <glyph glyph-name="d" unicode="d" horiz-adv-x="699" 
d="M310 522q-73 0 -112 -75q-33 -63 -33 -156q0 -101 28 -165q36 -82 111 -82q76 0 115 82q32 67 32 166q0 91 -31 154q-38 76 -110 76zM449 775v14q0 15 -1 19q-2 8 -10 16t-17 10t-23 2h-72v53l237 10v-778v-28q2 -13 11 -24t20.5 -14.5t25.5 -3.5h42l1 -53l-213 -10v99
l-13 -23q-18 -32 -52 -55.5t-78 -27.5q-9 -1 -25 -1q-113 0 -178 100q-59 90 -59 223q0 118 68.5 199.5t170.5 81.5q15 0 38 -2.5t55.5 -19.5t52.5 -41l20 -25z" />
    <glyph glyph-name="e" unicode="e" horiz-adv-x="597" 
d="M559 280h-396v-46q0 -76 45.5 -131t117.5 -55q60 0 102.5 22t69.5 71l20 36l44 -26l-24 -41q-38 -66 -102 -97q-58 -28 -143 -28q-112 0 -183 83t-71 209q0 124 74 215q78 96 197 96q16 0 24 -1q87 0 154 -72t67 -163zM164 329h228q14 0 18 1q8 2 14.5 10.5t6.5 29.5v26
q0 54 -29 94t-79 50q-14 2 -20 2q-57 0 -99 -63q-37 -56 -37 -115z" />
    <glyph glyph-name="f" unicode="f" horiz-adv-x="489" 
d="M44 513v55h107l3 65q0 111 55 184q62 82 174 82q53 0 82 -9q59 -19 82 -73q6 -15 6 -32q0 -30 -19.5 -51.5t-50.5 -21.5q-27 0 -45.5 16.5t-18.5 47.5q0 22 9.5 34.5t8.5 21.5q-2 9 -12.5 14.5t-26.5 5.5q-24 0 -49.5 -12t-40.5 -33q-19 -25 -30.5 -73t-11.5 -81v-87h134
v-56h-133v-423q0 -25 6.5 -33t16 -9.5t25.5 -1.5h69v-45h-332v46h67q17 0 27 13q7 9 7 33v422z" />
    <glyph glyph-name="g" unicode="g" horiz-adv-x="688" 
d="M536 538q-3 4 -11.5 1t-16.5 -9l-24 -19q24 -30 33.5 -61t9.5 -73q0 -79 -59.5 -132.5t-141.5 -53.5l-127 -3q-29 0 -52 -14.5t-23 -40.5q0 -19 9.5 -30.5t26.5 -11.5l268 -7q65 0 104 -31q45 -36 45 -105q0 -104 -84 -157q-69 -44 -176 -44q-119 0 -197 24
q-106 32 -106 101q0 6 2 18q7 36 38 63t77 38q-38 10 -61.5 38t-23.5 66q0 40 17.5 69t54.5 43l42 17q-102 53 -102 168q0 85 67 139t163 54q55 0 89.5 -8.5t75.5 -37.5l34 29q40 34 83 34h10q26 0 46.5 -16.5t24.5 -41.5q4 -26 -13 -46t-43 -20q-30 0 -42 15q-9 22 -17 45z
M172 -27q-27 -16 -42.5 -37t-15.5 -50q0 -45 48 -69q40 -20 98 -20h72q59 0 109 30q55 33 55 80q0 13 -4 24q-11 32 -54 45.5t-99 13.5l-147 -5zM167 393q0 -70 34 -115.5t93 -45.5q58 0 92.5 45t34.5 116q-12 146 -112 146q-11 1 -15 1q-53 0 -90 -42t-37 -105z" />
    <glyph glyph-name="h" unicode="h" horiz-adv-x="785" 
d="M282 506q30 48 90 71q43 16 92 16q16 0 21 -1q71 -11 117.5 -60.5t46.5 -118.5v-326q0 -9 0.5 -18.5t6 -16t15 -8t25.5 -1.5h53v-45h-314v46h66q20 0 30 12q6 6 6 20v14v313q0 44 -25.5 75.5t-68.5 37.5q-16 2 -23 2q-72 0 -117.5 -64t-45.5 -145v-219q0 -27 6 -34.5
t13 -9.5t17 -2h12h50v-44h-311v45h65q20 0 32 16q4 5 5 11q1 4 1 21v695v16q0 19 -3 26q-2 5 -11 12.5t-20.5 9.5t-25.5 2h-44v54l218 7v-444z" />
    <glyph glyph-name="i" unicode="i" horiz-adv-x="452" 
d="M284 87q0 -25 5.5 -32.5t12.5 -9.5t17 -2h12h53v-44h-314v45h66q19 0 31 16q4 5 5 10q1 4 1 21v346v16q0 19 -3 26q-2 5 -11.5 13t-18 9.5t-27.5 1.5h-54v54l225 12v-482zM238 732q-41 0 -63 21t-22 54q0 29 17 50t51 24q37 0 59 -24t22 -55q0 -27 -17 -48.5t-47 -21.5z
" />
    <glyph glyph-name="j" unicode="j" horiz-adv-x="360" 
d="M237 743q-34 0 -54 22t-20 52q0 31 19 52.5t55 21.5q34 0 54 -22t20 -52q0 -31 -19 -52.5t-55 -21.5zM179 -52l1 490q0 26 -3 38t-14.5 20.5t-22 11t-25.5 2.5h-61v52l244 10v-581q0 -96 -49 -165q-53 -75 -141 -84q-18 -2 -29 -2q-50 0 -90 16t-49.5 40.5t-9.5 42.5
q0 32 18.5 52.5t48.5 20.5q27 0 46.5 -12t19.5 -33q0 -13 -4.5 -27.5t-9.5 -31.5q0 -6 4 -11q9 -12 29 -12q25 0 46 17.5t36 59.5t15 86z" />
    <glyph glyph-name="k" unicode="k" horiz-adv-x="796" 
d="M269 220l-1 -132q0 -24 6 -32t13 -10t17 -2h12h48v-44h-309v45h65q20 0 32 16q6 10 6 31v694v16q0 15 -2.5 23t-11.5 16t-18 9.5t-28 1.5h-49v50l219 10l1 -621l194 185q8 8 13 18t2 19q-4 9 -12 12.5t-21 3.5h-69v45h326v-45l-55 -10q-18 -3 -28 -7q-4 -1 -26 -12.5
t-38 -22.5q-12 -8 -33 -28l-87 -82l181 -254q11 -15 21.5 -26.5t24.5 -22t27 -16t29 -5.5h39v-44h-330v45h60q17 0 21 11q3 5 -4 18l-153 220z" />
    <glyph glyph-name="l" unicode="l" horiz-adv-x="492" 
d="M303 88q0 -25 6.5 -33t16 -9.5t25.5 -1.5h53v-45h-315v45h66q20 0 31 16q7 10 7 31v694v16q0 15 -2.5 23t-12 16t-18.5 9.5t-27 1.5h-55v54l225 12v-829z" />
    <glyph glyph-name="m" unicode="m" horiz-adv-x="1104" 
d="M281 514q63 73 155 73h15q10 -2 15 -2q49 -7 83 -39.5t50 -85.5l39 50q57 73 165 73q72 0 120 -60t48 -138v-305q0 -19 6.5 -26.5t14 -9t23.5 -1.5h54v-43h-305v45h53q9 0 18.5 0.5t15.5 8t6 31.5v290q0 48 -12 79q-15 39 -51 53q-18 7 -39 7q-57 0 -99 -56.5t-42 -121.5
v-244q0 -16 1.5 -25t9 -15t15.5 -8q5 -1 18 -1h49v-43h-300v45h55q14 0 18 1q8 2 13.5 8t7.5 13q1 4 1 14v10v302q0 44 -20.5 75t-60.5 43q-12 4 -26 4q-53 0 -94.5 -55.5t-41.5 -119.5v-252q0 -24 6 -32t13 -10t17 -2h12h45v-44h-305v45h63q21 0 31 16q5 8 5 17q-1 9 -1 14
v346v20q0 15 -1 19q-2 9 -11 16.5t-18 9t-27 1.5h-46v51l213 14l-1 -86z" />
    <glyph glyph-name="n" unicode="n" horiz-adv-x="781" 
d="M639 401v-307q0 -18 1.5 -27.5t9.5 -15.5t16 -8q5 -1 18 -1l53 -1v-41h-307v41l57 1q22 0 33 12q6 7 6 23v16v300q0 46 -24 79.5t-48.5 36t-36.5 2.5q-72 0 -114.5 -49.5t-42.5 -120.5v-252q0 -10 0.5 -19.5t6 -16.5t13.5 -9t19 -2h12l46 -1v-41h-309v41l65 2q19 0 29 16
q6 7 6 20q-1 10 -1 16v346v23q0 10 -2 17.5t-8 13t-14.5 7.5t-17.5 2h-12h-46v51l210 13v-100l32 40q61 76 156 76q7 0 15.5 -1t13.5 -1q58 -8 107 -53q58 -54 58 -128z" />
    <glyph glyph-name="o" unicode="o" horiz-adv-x="609" 
d="M307 589q113 0 191 -91q75 -88 75 -207q0 -124 -73 -214q-77 -95 -193 -95q-113 0 -190 93q-73 89 -73 211q0 121 74.5 212t188.5 91zM310 543q-79 0 -115 -84q-28 -65 -28 -169q0 -146 41 -206q35 -51 101 -51q81 0 115 88q25 65 25 176q0 138 -41 197q-34 49 -98 49z
" />
    <glyph glyph-name="p" unicode="p" horiz-adv-x="703" 
d="M401 45q73 0 112 76q33 64 33 155q0 101 -29 166q-37 83 -112 83q-78 0 -118 -82q-33 -67 -33 -168q0 -94 31 -155q38 -75 116 -75zM255 -152v-14q0 -15 1 -19q2 -8 11 -16t18.5 -9.5t19.5 -1.5h52v-44l-314 1v44h38q15 0 25.5 2.5t20 11t12 18.5t2.5 29l1 597v17
q0 13 -1 17q-2 7 -9 15q-15 15 -37 15l-50 1v53l209 8v-89l14 20q25 32 55 54q40 29 64 31.5t30 2.5h12q112 0 178 -103q59 -93 59 -225q0 -118 -68.5 -201.5t-169.5 -83.5q-15 0 -23 1q-40 4 -74.5 23.5t-54.5 43.5l-21 25v-224z" />
    <glyph glyph-name="q" unicode="q" horiz-adv-x="637" 
d="M663 -256l-313 1v43h60q10 0 18 2t15 8.5t9.5 16.5t2.5 22v231l-19 -27q-15 -22 -51 -41.5t-75 -23.5q-6 -1 -12 -1h-12q-102 0 -173 81t-71 197q0 127 69 224q74 104 183 104q7 0 15.5 -1t13.5 -1q55 -7 94.5 -29.5t74.5 -67.5l58 79h47q-8 -24 -11 -34t-7 -33
t-5.5 -33.5t-1.5 -31.5v-600q0 -6 1 -16t9 -17q4 -4 11.5 -6t14.5 -2h55v-44zM461 265q0 107 -31 176q-39 88 -120 88t-117 -87q-27 -65 -27 -174q0 -95 29 -153q37 -74 118 -74q77 0 116 73q32 60 32 151z" />
    <glyph glyph-name="r" unicode="r" horiz-adv-x="593" 
d="M299 356q-12 -29 -19 -80.5t-7 -95.5v-92v-19q2 -9 10 -17t24 -8h17h53v-44h-317v45h65q20 0 32 16q6 10 6 31v346v16q0 15 -2.5 23t-12 16.5t-23.5 9.5t-22 1h-55v54l225 12v-161l22 52q25 58 71.5 92.5t95.5 34.5q18 0 31 -4q34 -9 54.5 -30.5t20.5 -54.5
q0 -35 -19 -63.5t-50 -28.5q-27 0 -48.5 17.5t-21.5 42.5q0 32 5.5 43t19.5 22l-10 -2q-58 -8 -93 -60q-15 -23 -52 -114z" />
    <glyph glyph-name="s" unicode="s" horiz-adv-x="527" 
d="M458 379l-45 2l-15 38q-49 124 -179 124q-32 0 -64 -31t-32 -69q0 -28 15.5 -45t67.5 -29l162 -36q58 -12 91.5 -59.5t33.5 -110.5t-41.5 -112t-106.5 -62q-20 -3 -44 -3q-38 0 -76 8.5t-61 25.5l-33 23l-45 -52h-38v234h43l14 -39q24 -71 75 -111t124 -40
q50 0 83.5 27.5t33.5 70.5q-6 66 -69 82l-153 39q-79 20 -111 55t-32 107q0 80 51.5 127.5t122.5 47.5q37 0 61.5 -5.5t54.5 -22.5l36 -22l38 44h36z" />
    <glyph glyph-name="t" unicode="t" horiz-adv-x="512" 
d="M255 515v-382q0 -35 19 -57.5t56 -22.5q44 0 70.5 39.5t26.5 98.5v31h46l1 -45q0 -83 -50.5 -140.5t-122.5 -57.5q-13 0 -19 1q-58 7 -94 38q-41 34 -41 86v410h-99v54q46 8 75 25q34 20 49 55q35 85 35 140v25h51v-246h180v-52h-183z" />
    <glyph glyph-name="u" unicode="u" horiz-adv-x="781" 
d="M636 119q0 -20 1.5 -28t10 -15.5t19.5 -9.5t23 -2h52v-52l-218 -14v93l-30 -37q-32 -38 -74 -55t-92 -17q-20 0 -40 3q-58 7 -99 49q-48 49 -48 125v294v17q0 16 -7.5 22t-15.5 8q-5 1 -17 1h-55v53l211 10v-397q0 -47 19 -76q23 -35 69 -35q83 0 131.5 50.5t48.5 133.5
v209v18v9q-1 8 -9.5 17t-29.5 9h-13h-67v51l230 14v-448z" />
    <glyph glyph-name="v" unicode="v" horiz-adv-x="726" 
d="M348 -14l-216 498q-8 20 -10 23q-6 10 -18 16t-34 6h-25v43h288v-43h-32q-23 0 -34 -3t-14 -14t-3 -13q0 -10 7 -24l139 -326l119 298q3 8 6 19t3 18q0 14 -7 25.5t-18.5 14.5t-33.5 3h-27v45h243v-45h-16q-14 0 -24 -5t-21.5 -15.5t-25 -31t-19.5 -34.5l-187 -455h-40z
" />
    <glyph glyph-name="w" unicode="w" horiz-adv-x="976" 
d="M434 519q-8 7 -15.5 9t-20.5 2h-31v42h267v-45h-36h-15q-18 0 -26 -10q-5 -10 -5 -17t4 -19l119 -321l112 298q5 10 5 31q0 19 -8.5 27t-19 10.5t-23.5 2.5h-28v43h222v-44h-18q-11 0 -21 -4t-15 -9q-14 -12 -22 -27q-3 -6 -14 -33l-178 -463h-35l-146 387l-146 -385h-36
l-184 487q-6 17 -7 20q-4 10 -13 16q-14 12 -28 12h-32v42h262v-43h-34q-13 0 -20.5 -1.5t-14 -8.5t-6.5 -18q0 -5 3 -14.5t6 -18.5l115 -296l110 286l-14 42q-2 11 -13 20z" />
    <glyph glyph-name="x" unicode="x" horiz-adv-x="710" 
d="M575 88q5 -7 13 -15t16.5 -14t17 -11t18.5 -5l28 -1v-44h-293v44h27q15 -1 22 -1q9 0 16 2t11 13q3 9 0 16t-11 18l-100 136l-91 -109q-14 -16 -19 -23q-10 -14 -10 -24q0 -5 4 -12.5t13 -11t22 -3.5h16l26 -1v-44h-253v46h14q38 0 55 15q36 27 59 57l128 156l-158 211
q-6 7 -11 15q-11 14 -25 21t-33 7h-23v45h292v-45h-27h-19q-9 0 -17.5 -1.5t-11.5 -12.5q-2 -9 1 -16q2 -5 10 -15l96 -126l85 99q9 11 14 20t5 19q0 9 -4 16q-8 14 -20.5 15.5t-24.5 1.5h-26v45h254v-47h-14q-18 0 -34.5 -4t-26 -12t-25 -24.5t-25.5 -28.5l-124 -146z" />
    <glyph glyph-name="y" unicode="y" horiz-adv-x="719" 
d="M380 -17q-47 -110 -106.5 -169.5t-129.5 -59.5q-9 0 -21 2t-25 5q-28 8 -47 27q-25 24 -25 61q0 10 4 28.5t23.5 32t45.5 13.5q25 0 41.5 -12t20.5 -37q1 -4 1 -11q0 -10 -6.5 -24.5t-3.5 -20.5q6 -9 19 -9q19 0 39 15q37 27 70 80q16 25 37 69l20 40l-205 478
q-7 18 -21.5 28.5t-27.5 10.5h-34v42h285v-45h-36h-15q-18 0 -26 -10q-5 -10 -5 -17q0 -6 4 -18l140 -332l126 307q4 8 4 30q0 20 -8 28.5t-18.5 11.5t-22.5 3h-36v42h241v-44l-19 1q-7 0 -23.5 -8.5t-22.5 -13.5q-12 -11 -20 -25q-4 -8 -13 -29z" />
    <glyph glyph-name="z" unicode="z" horiz-adv-x="562" 
d="M523 572v-45l-347 -471h167q27 0 45.5 6t37 23t30 38.5t14.5 40.5l10 56h46l-13 -220h-470v51l338 469h-124q-35 0 -58.5 -8t-43.5 -31q-9 -11 -20 -31.5t-14 -39.5l-5 -41h-45l10 204z" />
    <glyph glyph-name="braceleft" unicode="{" horiz-adv-x="348" 
d="M40 449l36 16q11 4 19 12t17 22.5t12.5 30t3.5 36.5l1 252q0 35 7.5 59t29.5 45t44.5 27.5t57.5 6.5l44 2q-48 -6 -77 -46q-21 -30 -21 -70l-1 -268q0 -30 -5.5 -50.5t-23.5 -39.5q-27 -29 -67 -35q23 -4 37.5 -12t30.5 -26q31 -34 31 -84l1 -269q0 -22 4 -37t18.5 -34.5
t31.5 -30t44 -13.5l-44 2q-34 0 -57.5 6.5t-44 26.5t-29 45.5t-8.5 58.5l-1 247q-1 16 -3 34t-10 33q-19 30 -35 36z" />
    <glyph glyph-name="bar" unicode="|" horiz-adv-x="182" 
d="M139 -255h-87v1153h87v-1153z" />
    <glyph glyph-name="braceright" unicode="}" horiz-adv-x="325" 
d="M255 434q-12 -5 -21 -13t-18.5 -21.5t-13.5 -29t-4 -36.5l1 -252q0 -37 -7 -59.5t-29 -43.5t-45 -27.5t-58 -6.5l-43 -2q48 6 77 46q21 30 21 69v269q0 30 6.5 49.5t25.5 39.5q28 26 62 31q-14 2 -32.5 11t-31.5 24q-16 18 -22.5 39.5t-6.5 50.5l-1 268q0 22 -4 37.5
t-17 32.5q-28 39 -77 46l44 -2q34 0 57 -6.5t44 -27t29.5 -45.5t8.5 -59l-2 -252q0 -24 3.5 -36.5t14.5 -28.5t18 -23t21 -12l34 -15z" />
    <glyph glyph-name="asciitilde" unicode="~" horiz-adv-x="574" 
d="M541 328l-35 -52q-11 -17 -33 -32q-27 -19 -49 -22t-28 -3q-16 0 -33 7l-128 52l-28.5 9.5t-22.5 3.5q-9 0 -23 -3.5t-26.5 -14t-23.5 -26.5l-28 -43l-41 45l26 42q18 29 37 45q23 20 53 26q8 1 15.5 2.5t16.5 1.5q22 0 53 -13l119 -50q21 -9 39 -9q10 0 24 3
q15 5 28.5 16.5t17.5 19.5l28 41z" />
    <glyph glyph-name="nonbreakingspace" unicode="&#xa0;" horiz-adv-x="605" 
 />
    <glyph glyph-name="exclamdown" unicode="&#xa1;" horiz-adv-x="239" 
d="M118 529q-35 0 -54.5 21.5t-19.5 52.5q0 32 21 55t57 23q35 0 54 -21.5t19 -52.5t-20.5 -54.5t-56.5 -23.5zM124 -259q36 0 53 32t17 83q0 33 -7.5 73.5t-14.5 79.5q-3 23 -10 59t-10.5 61.5t-6.5 52.5t-3 58v183h-50v-186q0 -37 -2 -62.5t-4.5 -50.5t-9.5 -62.5
t-9 -55.5q-9 -55 -13 -85t-4 -69q0 -49 18.5 -80t55.5 -31z" />
    <glyph glyph-name="cent" unicode="&#xa2;" horiz-adv-x="590" 
d="M414 677q6 21 -31 30.5t-63 7.5q-74 -8 -115 -86q-37 -70 -37 -169q0 -74 18 -126q13 -38 31 -55l22 -21l158 374q3 7 8 18t9 27zM500 898h53l-69 -177l16 -16q12 -11 21 -30q14 -28 14 -45q1 -4 1 -13q0 -33 -21 -56t-58 -23q-23 0 -45 16l-129 -317q29 -12 65 -12
q26 0 52 8t45 24t36 47l25 43l47 -18l-22 -38q-31 -55 -59 -82q-35 -33 -90 -49q-36 -10 -67 -10q-33 0 -67 11l-64 -161h-54l76 176q-86 47 -124.5 113.5t-38.5 175.5q0 123 73 208q78 91 202 91q53 0 69 -2.5t53 -16.5z" />
    <glyph glyph-name="sterling" unicode="&#xa3;" horiz-adv-x="741" 
d="M574 486v-57h-205l6 -34q3 -19 6 -44.5t3 -40.5q0 -25 -6 -57t-14 -54t-24 -50l75 -30q30 -11 48 -16t39 -5q16 0 24 1t24 7q35 11 57.5 28.5t39.5 49.5l16 29l43 -16l-11 -39q-22 -75 -70 -117q-52 -46 -124 -46q-42 0 -72 8t-65 30l-64 40l-13 -13q-30 -30 -60 -45.5
t-64 -15.5q-52 0 -86 31t-34 78q0 41 31.5 68t76.5 31q39 0 70 -10q9 -3 40 -15l15 -6q4 19 7 39t3 36q0 6 -1 14t-1 13q-5 40 -8.5 56t-16.5 55l-14 42h-168v56h152l-11 39q-12 44 -15.5 79t-3.5 88q0 92 73.5 154.5t171.5 62.5q84 0 148.5 -41.5t76.5 -114.5q2 -16 2 -25
q0 -46 -25.5 -76.5t-68.5 -30.5q-37 0 -55 28q-14 22 -14 51q0 36 39 55.5t40 29.5q4 36 -38 53.5t-96 17.5q-60 0 -97 -46q-20 -25 -29 -52t-9 -57q0 -28 8 -63l32 -153h216zM160 47q27 0 51 16q18 12 30 29l14 20l-21 17q-14 11 -36 19t-43 8q-26 0 -42 -12t-16 -39
q0 -26 19 -42t44 -16z" />
    <glyph glyph-name="yen" unicode="&#xa5;" horiz-adv-x="800" 
d="M763 833l-16 -1q-17 0 -29 -5t-30 -18t-28 -26.5t-21 -37.5l-140 -308h84v-67h-117v-106h114v-70h-113v-93q0 -12 1 -17q2 -8 9.5 -17t28.5 -9h12h62v-59h-336v59h66q17 0 21 1q9 2 18 11.5t9 30.5v93h-111v70h111v105h-111v70h76l-175 343q-5 11 -10.5 23t-16.5 19
q-18 14 -42 14h-28v60h311v-56h-60q-23 0 -30 -10.5t-7 -20.5q0 -4 2 -11t4 -12l172 -347l131 292q12 26 12 47q0 5 -2 14t-5 19q-5 11 -22.5 19.5t-37.5 8.5h-37v57h281v-65z" />
    <glyph glyph-name="section" unicode="&#xa7;" horiz-adv-x="590" 
d="M340 764q0 32 24 52t23 24q-6 19 -28.5 29.5t-52.5 10.5q-38 0 -70.5 -15.5t-40 -39.5t-7.5 -40q0 -39 38 -81q15 -17 45 -43l168 -145q49 -43 78 -94t29 -105q0 -26 -4.5 -44.5t-16.5 -43.5q-19 -40 -58 -63.5t-82 -23.5h-31l39 -33q46 -38 71.5 -80.5t25.5 -91.5
q0 -17 -3 -35q-12 -60 -67.5 -98.5t-126.5 -38.5q-70 0 -124 38q-58 41 -58 101q0 11 2 24t22.5 30.5t45.5 17.5q28 0 48.5 -19.5t20.5 -47.5q0 -25 -23 -45.5t-19 -32.5q4 -14 28 -23t55 -9q30 0 56 9.5t41.5 31.5t15.5 53q0 29 -14.5 55.5t-41.5 49.5l-210 178
q-43 37 -69 88.5t-26 102.5q0 66 42 114q17 19 45 34q33 18 65 18l36 1l-57 56q-33 33 -51.5 71t-18.5 78q0 25 8 55q17 58 66 88.5t115 30.5q75 0 125 -30q59 -36 59 -105q0 -11 -1.5 -26.5t-23.5 -33.5t-50 -18q-27 2 -44.5 19.5t-17.5 44.5zM176 295l82 -73
q24 -21 55.5 -35t60.5 -14q45 0 74 33q22 26 22 59q0 31 -20.5 66t-51.5 62l-77 68q-50 45 -108 45q-41 0 -67 -27t-26 -68q0 -31 15 -62t41 -54z" />
    <glyph glyph-name="dieresis" unicode="&#xa8;" horiz-adv-x="446" 
d="M105 669q-30 0 -46.5 19.5t-16.5 44.5t15 42t44 17q30 0 46.5 -19.5t16.5 -44.5t-15 -42t-44 -17zM351 667q-30 0 -47 19t-17 45q0 25 16 43t45 18q30 0 47 -19t17 -45q0 -25 -16 -43t-45 -18z" />
    <glyph glyph-name="copyright" unicode="&#xa9;" horiz-adv-x="983" 
d="M500 0q-212 0 -337 140q-113 127 -113 310q0 184 112 310q125 141 338 141t338 -140q113 -127 113 -311q0 -183 -112 -309q-125 -141 -339 -141zM500 853q-190 0 -301 -125q-101 -114 -101 -278q0 -163 100 -276q112 -126 302 -126q191 0 302 125q101 113 101 277
t-100 277q-112 126 -303 126zM651 618q0 15 -28 31t-50.5 19.5t-41 5.5t-31.5 2q-17 0 -34 -3q-79 -18 -118 -77q-35 -53 -35 -131v-21t2 -22q10 -84 68.5 -139.5t137.5 -55.5q53 0 85 8t64 25l16 9l6 -7l-13 -31l-16 -8q-24 -11 -67 -22t-79 -11q-118 0 -192.5 60
t-85.5 164q-1 13 -1.5 22.5t-0.5 15.5q0 107 68 176q57 57 141 73q13 3 27.5 4t32.5 1q23 0 45.5 -2.5t37.5 -6t38.5 -9t50.5 -12.5l10 -3l-15 -106h-21v44z" />
    <glyph glyph-name="ordfeminine" unicode="&#xaa;" horiz-adv-x="459" 
d="M281 759v53q0 20 -14 35q-9 9 -20.5 13.5t-22.5 4.5h-21q-22 0 -42 -5.5t-20 -17.5q0 -7 7 -20t8 -24q0 -15 -11 -24t-27 -9q-35 -3 -40 31q-1 5 -1 14q0 39 41.5 63.5t90.5 24.5q57 0 93 -19q45 -23 45 -68v-185q0 -13 2.5 -21t9.5 -13t17 -5q7 0 26 6q6 2 8 0
q3 -5 3 -9q0 -15 -23.5 -27t-46.5 -12q-49 5 -57 53l-20 -17q-22 -18 -44 -26t-50 -12q-5 -1 -15 -1q-41 0 -71.5 22t-30.5 61q0 53 60 87q48 27 126 40zM282 732l-70 -15q-34 -7 -56 -24q-27 -21 -30 -52q0 -28 14 -45.5t44 -17.5q5 0 17 2q34 6 57.5 30t23.5 58v64z
M46 513h361v-53h-361v53z" />
    <glyph glyph-name="guillemotleft" unicode="&#xab;" horiz-adv-x="638" 
d="M297 569v-118l-173 -124l169 -119v-126l-240 187v120zM602 569v-118l-173 -124l169 -119v-126l-239 187v120z" />
    <glyph glyph-name="logicalnot" unicode="&#xac;" horiz-adv-x="1010" 
d="M46 320v71h918v-391h-75v320h-843z" />
    <glyph glyph-name="registered" unicode="&#xae;" horiz-adv-x="986" 
d="M500 0q-212 0 -337 140q-113 127 -113 310q0 184 112 310q125 141 338 141t338 -140q113 -127 113 -311q0 -183 -112 -309q-125 -141 -339 -141zM500 853q-190 0 -301 -125q-101 -114 -101 -278q0 -163 100 -276q112 -126 302 -126q191 0 302 125q101 113 101 277
t-100 277q-112 126 -303 126zM453 469l25 -1q51 0 90 29q43 32 43 79q-4 38 -23 62t-58 30q-18 2 -28 2q-24 0 -35 -1.5t-30 -5.5l-11 -3v-395q0 -18 10 -28q6 -7 20.5 -9t18.5 -2l17 -2v-20h-11q-1 0 -34 2t-54 2q-18 0 -41 -1.5t-47 -2.5h-13v21l20 2q26 0 36 9.5t10 28.5
v370q0 13 -2 19q-2 5 -6.5 11.5t-18.5 9t-31 2.5h-8v21h13l89 -3q31 0 68.5 0.5t62.5 1.5l13 1q44 0 78 -14q44 -18 58 -56q8 -22 8 -41q0 -32 -16.5 -59.5t-49.5 -48.5q-10 -6 -29 -14t-38 -12l-5 -2l158 -209l18 -13q3 -2 14 -5q1 0 5 -1h4v-20h-6l-41 2l-39 -2l-10 -1
l-197 255z" />
    <glyph glyph-name="degree" unicode="&#xb0;" horiz-adv-x="449" 
d="M233 530q-87 0 -140 59q-47 53 -47 128q0 72 43 121q49 55 133 55q88 0 140 -59q47 -53 47 -129q0 -72 -43 -120q-49 -55 -133 -55zM225 845q-62 0 -96.5 -38.5t-34.5 -92.5t34 -93q38 -43 102 -43q62 0 96.5 38.5t34.5 92.5t-34 93q-38 43 -102 43z" />
    <glyph glyph-name="plusminus" unicode="&#xb1;" horiz-adv-x="599" 
d="M273 595h60v-225h224v-64h-226v-224h-58v224h-224l1 64h223v225zM50 48h507v-48h-507v48z" />
    <glyph glyph-name="acute" unicode="&#xb4;" horiz-adv-x="352" 
d="M228 847q20 20 46 20q20 0 30 -13t10 -28q0 -24 -19 -36l-203 -132h-49z" />
    <glyph glyph-name="mu" unicode="&#xb5;" horiz-adv-x="668" 
d="M148 572v-393q0 -50 29 -86.5t75 -36.5q47 0 93 36q51 40 51 86v394h96v-444q0 -39 19.5 -70t50.5 -25q38 8 51 51l8 31h21l-7 -35q-9 -46 -58 -78q-45 -29 -82 -24t-69 39t-32 76l-29 -30q-36 -34 -77 -57.5t-70 -23.5q-30 0 -65 16q-43 19 -67 52v-41q0 -34 12 -69
q28 -82 28 -120q0 -29 -15.5 -52t-42.5 -23q-24 0 -39.5 20.5t-15.5 47.5q0 35 9 65q24 81 25 89l3 32v573h98z" />
    <glyph glyph-name="paragraph" unicode="&#xb6;" horiz-adv-x="711" 
d="M664 897v-46h-41q-12 0 -20 -2t-15.5 -9t-9.5 -15t-2 -19v-13v-881q0 -15 1.5 -23t11 -16t22.5 -8h45v-44h-436v45h55q18 0 32 13t14 36l1 493h-62q-105 0 -164 78q-53 70 -53 175q0 98 55 167.5t142 69.5zM499 -137v991h-104v-991h104zM321 856h-16q-38 0 -68 -30
q-18 -17 -23 -40.5t-5 -54.5v-12v-131q0 -48 7 -74.5t26 -44.5q24 -23 53 -23q16 0 26 2v408z" />
    <glyph glyph-name="periodcentered" unicode="&#xb7;" horiz-adv-x="238" 
d="M123 359q-36 0 -56.5 22.5t-20.5 54.5t19.5 53.5t55.5 21.5t58 -24q19 -21 19 -53t-19.5 -53.5t-55.5 -21.5z" />
    <glyph glyph-name="ordmasculine" unicode="&#xba;" horiz-adv-x="411" 
d="M210 900q69 0 115 -54t46 -126q0 -74 -46 -130.5t-115 -56.5t-114 55t-45 129t45 128.5t114 54.5zM212 872q-48 0 -70 -51q-17 -39 -17 -102q0 -87 25 -124q21 -31 61 -31q49 0 70 53q15 38 15 106q0 84 -25 120q-20 29 -59 29zM50 498h323v-58h-323v58z" />
    <glyph glyph-name="guillemotright" unicode="&#xbb;" horiz-adv-x="641" 
d="M601 389v-120l-240 -187v126l169 119l-173 124v118zM295 389v-120l-240 -187v126l170 119l-173 124v118z" />
    <glyph glyph-name="questiondown" unicode="&#xbf;" horiz-adv-x="555" 
d="M314 672q37 0 57 -22.5t20 -54.5t-19.5 -53.5t-55.5 -21.5q-37 0 -57 22.5t-20 54.5t19.5 53.5t55.5 21.5zM286 414h54v-69q0 -67 -44 -138l-82 -116q-44 -68 -44 -128q0 -14 1 -22q6 -59 44 -100t94 -41q44 0 76 15q37 18 43 51q1 8 -29 36t-27 61q0 21 17 40.5t44 19.5
q28 0 50.5 -16.5t29 -39t6.5 -42.5q0 -73 -69 -125t-162 -52q-104 0 -171 56q-61 51 -68 125q-1 9 -1.5 18.5t-0.5 15.5q0 89 61 153l114 98q62 59 62 131z" />
    <glyph glyph-name="Agrave" unicode="&#xc0;" horiz-adv-x="983" 
d="M47 0zM47 53l17 2q30 3 52.5 17.5t33 31t20.5 44.5l280 759h50l329 -787q6 -15 9.5 -21.5t9.5 -14.5q25 -28 66 -28h31v-57h-374v54l64 2q30 0 35 1q18 4 24 19q3 9 3 16q0 11 -4 19l-74 178h-330l-42 -131q-6 -18 -6 -33q0 -19 12 -36t29.5 -23.5t40.5 -6.5l42 -4v-54
h-318v53zM312 352h281l-149 352zM592 971h-49l-203 133q-19 12 -19 37q0 15 10 27.5t30 12.5q25 0 46 -21z" />
    <glyph glyph-name="Aacute" unicode="&#xc1;" horiz-adv-x="1000" 
d="M47 0zM47 53l17 2q30 3 52.5 17.5t33 31t20.5 44.5l280 759h50l329 -787q6 -15 9.5 -21.5t9.5 -14.5q25 -28 66 -28h31v-57h-374v54l64 2q30 0 35 1q18 4 24 19q3 9 3 16q0 11 -4 19l-74 178h-330l-42 -131q-6 -18 -6 -33q0 -19 12 -36t29.5 -23.5t40.5 -6.5l42 -4v-54
h-318v53zM312 352h281l-149 352zM536 1162q20 20 46 20q20 0 30 -13t10 -28q0 -24 -19 -36l-203 -132h-49z" />
    <glyph glyph-name="Acircumflex" unicode="&#xc2;" horiz-adv-x="1000" 
d="M47 0zM47 53l17 2q30 3 52.5 17.5t33 31t20.5 44.5l280 759h50l329 -787q6 -15 9.5 -21.5t9.5 -14.5q25 -28 66 -28h31v-57h-374v54l64 2q30 0 35 1q18 4 24 19q3 9 3 16q0 11 -4 19l-74 178h-330l-42 -131q-6 -18 -6 -33q0 -19 12 -36t29.5 -23.5t40.5 -6.5l42 -4v-54
h-318v53zM312 352h281l-149 352zM474 1105l-154 -124h-42l156 203h80l150 -208h-40z" />
    <glyph glyph-name="Atilde" unicode="&#xc3;" horiz-adv-x="979" 
d="M47 0zM47 53l17 2q30 3 52.5 17.5t33 31t20.5 44.5l280 759h50l329 -787q6 -15 9.5 -21.5t9.5 -14.5q25 -28 66 -28h31v-57h-374v54l64 2q30 0 35 1q18 4 24 19q3 9 3 16q0 11 -4 19l-74 178h-330l-42 -131q-6 -18 -6 -33q0 -19 12 -36t29.5 -23.5t40.5 -6.5l42 -4v-54
h-318v53zM312 352h281l-149 352zM731 1100l-35 -52q-11 -17 -33 -32q-27 -19 -49 -22t-28 -3q-16 0 -33 7l-128 52l-28.5 9.5t-22.5 3.5q-9 0 -23 -3.5t-26.5 -14t-23.5 -26.5l-28 -43l-41 45l26 42q18 29 37 45q23 20 53 26q8 1 15.5 2.5t16.5 1.5q22 0 53 -13l119 -50
q21 -9 39 -9q10 0 24 3q15 5 28.5 16.5t17.5 19.5l28 41z" />
    <glyph glyph-name="Adieresis" unicode="&#xc4;" horiz-adv-x="979" 
d="M47 0zM47 53l17 2q30 3 52.5 17.5t33 31t20.5 44.5l280 759h50l329 -787q6 -15 9.5 -21.5t9.5 -14.5q25 -28 66 -28h31v-57h-374v54l64 2q30 0 35 1q18 4 24 19q3 9 3 16q0 11 -4 19l-74 178h-330l-42 -131q-6 -18 -6 -33q0 -19 12 -36t29.5 -23.5t40.5 -6.5l42 -4v-54
h-318v53zM312 352h281l-149 352zM348 976q-30 0 -46.5 19.5t-16.5 44.5t15 42t44 17q30 0 46.5 -19.5t16.5 -44.5t-15 -42t-44 -17zM594 974q-30 0 -47 19t-17 45q0 25 16 43t45 18q30 0 47 -19t17 -45q0 -25 -16 -43t-45 -18z" />
    <glyph glyph-name="Aring" unicode="&#xc5;" horiz-adv-x="995" 
d="M490 973q-61 0 -99 42q-34 38 -34 91q0 50 29 83q33 37 92 37q62 0 99 -42q33 -37 33 -91q0 -50 -29 -83q-33 -37 -91 -37zM477 1180q-36 0 -55.5 -21.5t-19.5 -52.5q0 -34 23 -60t62 -26q36 0 55.5 21.5t19.5 52.5q0 34 -23 60t-62 26zM50 49l18 2q30 3 52 17.5t35 33.5
q10 15 20 43l284 769h50l334 -797q6 -14 8 -19q6 -12 11 -18q25 -28 67 -28h31v-58h-379v55l65 2q31 0 36 1q18 4 24 19q3 9 3 17q0 10 -4 19l-75 180h-334l-43 -133q-6 -18 -6 -33q0 -20 12 -37t30 -23.5t41 -6.5l43 -4v-55h-323v54zM319 352h285l-151 356z" />
    <glyph glyph-name="AE" unicode="&#xc6;" horiz-adv-x="1440" 
d="M445 352h281v355zM558 -1l23 54h39h14q30 0 47.5 4t32.5 20q5 5 8.5 16t3.5 28v15v152h-331l-95 -131q-12 -16 -18.5 -30.5t-6.5 -27.5q0 -5 3 -16.5t18.5 -18t38.5 -6.5l40 -4l-22 -54h-317l22 53l17 2q30 3 61 19q23 11 38 23t45 51l520 666l-12 13q-9 8 -20.5 10.5
t-25.5 2.5h-70v58h743l18 -321h-53l-13 70q-9 56 -24 86q-18 36 -57 66q-31 24 -65.5 32.5t-79.5 8.5h-137q-12 0 -24 -0.5t-22 -8.5q-19 -15 -19 -37l-1 -302l70 -2q26 0 45.5 9t41.5 29t32.5 39.5t14.5 49.5l5 46h52v-410h-52l-7 61q-3 29 -11.5 49t-28.5 39
q-37 36 -90 36l-72 -2v-324q0 -15 3 -24.5t12.5 -18.5t19.5 -10.5t19 -1.5h15h140q53 0 92 14.5t77 50.5q30 29 46 68q10 25 24 82l14 57h51l-24 -329z" />
    <glyph glyph-name="Ccedilla" unicode="&#xc7;" horiz-adv-x="839" 
d="M402 -10l-25 -59h50q34 0 60 -22t26 -52q0 -57 -45 -88q-41 -28 -102 -28q-37 0 -73 11l-36 11l17 38l36 -8q16 -4 26 -5t27 -1q22 0 38 9q23 13 23 40q0 26 -17 38t-43 12q-6 0 -20 -2l-21 -4l-7 8l41 109q-147 53 -228 162q-84 112 -84 264q0 192 118 338
q123 152 299 152q64 0 116 -21q46 -18 102 -62l49 75h48l16 -355h-54l-16 62q-26 109 -95 175q-74 71 -178 71q-132 0 -198 -142q-53 -114 -53 -288q0 -155 44 -245q57 -116 191 -138q10 -2 23 -3t25 -1q99 0 170 63.5t92 166.5l10 47l57 -10l-19 -80q-27 -112 -122.5 -177
t-220.5 -65q-23 0 -47 4z" />
    <glyph glyph-name="Egrave" unicode="&#xc8;" horiz-adv-x="896" 
d="M59 0zM826 577h-53l-13 70q-9 56 -24 86q-18 36 -57 66q-31 24 -65.5 32.5t-79.5 8.5h-137q-12 0 -24 -0.5t-22 -8.5q-19 -15 -19 -37l-1 -302l70 -2q26 0 45.5 9t41.5 29t32.5 39.5t14.5 49.5l5 46h52v-410h-52l-7 61q-3 29 -11.5 49t-28.5 39q-37 36 -90 36l-72 -2
v-324q0 -15 3 -24.5t12.5 -18.5t19.5 -10.5t19 -1.5h15h140q53 0 92 14.5t77 50.5q30 29 46 68q10 25 24 82l14 57h51l-24 -329h-761v58h82q14 0 23.5 3.5t20.5 16t11 35.5v691q0 6 -4 12q-3 4 -11 11q-14 13 -33 13h-83v58h743zM609 973h-49l-203 133q-19 12 -19 37
q0 15 10 27.5t30 12.5q25 0 46 -21z" />
    <glyph glyph-name="Eacute" unicode="&#xc9;" horiz-adv-x="869" 
d="M0 0zM764 577h-53l-13 70q-9 56 -24 86q-18 36 -57 66q-31 24 -65.5 32.5t-79.5 8.5h-137q-12 0 -24 -0.5t-22 -8.5q-19 -15 -19 -37l-1 -302l70 -2q26 0 45.5 9t41.5 29t32.5 39.5t14.5 49.5l5 46h52v-410h-52l-7 61q-3 29 -11.5 49t-28.5 39q-37 36 -90 36l-72 -2v-324
q0 -15 3 -24.5t12.5 -18.5t19.5 -10.5t19 -1.5h15h140q53 0 92 14.5t77 50.5q30 29 46 68q10 25 24 82l14 57h51l-24 -329h-761v58h82q14 0 23.5 3.5t20.5 16t11 35.5v691q0 6 -4 12q-3 4 -11 11q-14 13 -33 13h-83v58h743zM474 1164q20 20 46 20q20 0 30 -13t10 -28
q0 -24 -19 -36l-203 -132h-49z" />
    <glyph glyph-name="Ecircumflex" unicode="&#xca;" horiz-adv-x="882" 
d="M59 0zM826 577h-53l-13 70q-9 56 -24 86q-18 36 -57 66q-31 24 -65.5 32.5t-79.5 8.5h-137q-12 0 -24 -0.5t-22 -8.5q-19 -15 -19 -37l-1 -302l70 -2q26 0 45.5 9t41.5 29t32.5 39.5t14.5 49.5l5 46h52v-410h-52l-7 61q-3 29 -11.5 49t-28.5 39q-37 36 -90 36l-72 -2
v-324q0 -15 3 -24.5t12.5 -18.5t19.5 -10.5t19 -1.5h15h140q53 0 92 14.5t77 50.5q30 29 46 68q10 25 24 82l14 57h51l-24 -329h-761v58h82q14 0 23.5 3.5t20.5 16t11 35.5v691q0 6 -4 12q-3 4 -11 11q-14 13 -33 13h-83v58h743zM467 1105l-154 -124h-42l156 203h80
l150 -208h-40z" />
    <glyph glyph-name="Edieresis" unicode="&#xcb;" horiz-adv-x="903" 
d="M59 0zM826 577h-53l-13 70q-9 56 -24 86q-18 36 -57 66q-31 24 -65.5 32.5t-79.5 8.5h-137q-12 0 -24 -0.5t-22 -8.5q-19 -15 -19 -37l-1 -302l70 -2q26 0 45.5 9t41.5 29t32.5 39.5t14.5 49.5l5 46h52v-410h-52l-7 61q-3 29 -11.5 49t-28.5 39q-37 36 -90 36l-72 -2
v-324q0 -15 3 -24.5t12.5 -18.5t19.5 -10.5t19 -1.5h15h140q53 0 92 14.5t77 50.5q30 29 46 68q10 25 24 82l14 57h51l-24 -329h-761v58h82q14 0 23.5 3.5t20.5 16t11 35.5v691q0 6 -4 12q-3 4 -11 11q-14 13 -33 13h-83v58h743zM336 977q-30 0 -46.5 19.5t-16.5 44.5t15 42
t44 17q30 0 46.5 -19.5t16.5 -44.5t-15 -42t-44 -17zM582 975q-30 0 -47 19t-17 45q0 25 16 43t45 18q30 0 47 -19t17 -45q0 -25 -16 -43t-45 -18z" />
    <glyph glyph-name="Igrave" unicode="&#xcc;" horiz-adv-x="595" 
d="M104 0zM469 973h-49l-203 133q-19 12 -19 37q0 15 10 27.5t30 12.5q25 0 46 -21zM504 898v-58h-68q-12 0 -24 -0.5t-22 -8.5q-18 -15 -18 -37v-691q0 -20 15 -34q10 -9 19 -10.5t29 -1.5h69v-57h-400v58h81q22 0 38 17q12 13 12 38v691q0 6 -4 12q-3 4 -11 11
q-14 13 -33 13h-83v58h400z" />
    <glyph glyph-name="Iacute" unicode="&#xcd;" horiz-adv-x="609" 
d="M104 0zM504 898v-58h-68q-12 0 -24 -0.5t-22 -8.5q-18 -15 -18 -37v-691q0 -20 15 -34q10 -9 19 -10.5t29 -1.5h69v-57h-400v58h81q22 0 38 17q12 13 12 38v691q0 6 -4 12q-3 4 -11 11q-14 13 -33 13h-83v58h400zM361 1162q20 20 46 20q20 0 30 -13t10 -28q0 -24 -19 -36
l-203 -132h-49z" />
    <glyph glyph-name="Icircumflex" unicode="&#xce;" horiz-adv-x="595" 
d="M103 0zM299 1105l-154 -124h-42l156 203h80l150 -208h-40zM504 898v-58h-68q-12 0 -24 -0.5t-22 -8.5q-18 -15 -18 -37v-691q0 -20 15 -34q10 -9 19 -10.5t29 -1.5h69v-57h-400v58h81q22 0 38 17q12 13 12 38v691q0 6 -4 12q-3 4 -11 11q-14 13 -33 13h-83v58h400z" />
    <glyph glyph-name="Idieresis" unicode="&#xcf;" horiz-adv-x="611" 
d="M104 0zM182 977q-30 0 -46.5 19.5t-16.5 44.5t15 42t44 17q30 0 46.5 -19.5t16.5 -44.5t-15 -42t-44 -17zM428 975q-30 0 -47 19t-17 45q0 25 16 43t45 18q30 0 47 -19t17 -45q0 -25 -16 -43t-45 -18zM504 898v-58h-68q-12 0 -24 -0.5t-22 -8.5q-18 -15 -18 -37v-691
q0 -20 15 -34q10 -9 19 -10.5t29 -1.5h69v-57h-400v58h81q22 0 38 17q12 13 12 38v691q0 6 -4 12q-3 4 -11 11q-14 13 -33 13h-83v58h400z" />
    <glyph glyph-name="Ntilde" unicode="&#xd1;" horiz-adv-x="1049" 
d="M36 0zM787 720q0 30 -4 46.5t-18 33.5q-30 38 -82 38l-33 2v58h350v-59l-34 -2q-31 -3 -48 -9t-33 -24.5t-21.5 -38t-5.5 -47.5v-739h-56l-556 760v-558q0 -33 6 -53.5t25 -38.5q30 -30 76 -30l40 -2v-58l-357 1v58l33 2q50 0 84 40q17 19 23 36.5t6 44.5v618
q-8 14 -26 26t-36 12h-80v61h256l491 -666v488zM786 1095l-35 -52q-11 -17 -33 -32q-27 -19 -49 -22t-28 -3q-16 0 -33 7l-128 52l-28.5 9.5t-22.5 3.5q-9 0 -23 -3.5t-26.5 -14t-23.5 -26.5l-28 -43l-41 45l26 42q18 29 37 45q23 20 53 26q8 1 15.5 2.5t16.5 1.5
q22 0 53 -13l119 -50q21 -9 39 -9q10 0 24 3q15 5 28.5 16.5t17.5 19.5l28 41z" />
    <glyph glyph-name="Ograve" unicode="&#xd2;" horiz-adv-x="931" 
d="M48 0zM459 908q176 0 300.5 -129.5t124.5 -308.5q0 -195 -116 -337q-122 -150 -304 -150q-176 0 -298 141q-118 137 -118 322t116 321q120 141 295 141zM459 852q-132 0 -201 -131q-57 -109 -57 -269q0 -172 52 -278q67 -136 211 -136q139 0 208 141q56 115 56 288
q0 161 -56 261q-70 124 -213 124zM616 973h-49l-203 133q-19 12 -19 37q0 15 10 27.5t30 12.5q25 0 46 -21z" />
    <glyph glyph-name="Oacute" unicode="&#xd3;" horiz-adv-x="931" 
d="M48 0zM459 908q176 0 300.5 -129.5t124.5 -308.5q0 -195 -116 -337q-122 -150 -304 -150q-176 0 -298 141q-118 137 -118 322t116 321q120 141 295 141zM459 852q-132 0 -201 -131q-57 -109 -57 -269q0 -172 52 -278q67 -136 211 -136q139 0 208 141q56 115 56 288
q0 161 -56 261q-70 124 -213 124zM529 1162q20 20 46 20q20 0 30 -13t10 -28q0 -24 -19 -36l-203 -132h-49z" />
    <glyph glyph-name="Ocircumflex" unicode="&#xd4;" horiz-adv-x="931" 
d="M48 0zM459 908q176 0 300.5 -129.5t124.5 -308.5q0 -195 -116 -337q-122 -150 -304 -150q-176 0 -298 141q-118 137 -118 322t116 321q120 141 295 141zM459 852q-132 0 -201 -131q-57 -109 -57 -269q0 -172 52 -278q67 -136 211 -136q139 0 208 141q56 115 56 288
q0 161 -56 261q-70 124 -213 124zM474 1105l-154 -124h-42l156 203h80l150 -208h-40z" />
    <glyph glyph-name="Otilde" unicode="&#xd5;" horiz-adv-x="917" 
d="M48 0zM459 908q176 0 300.5 -129.5t124.5 -308.5q0 -195 -116 -337q-122 -150 -304 -150q-176 0 -298 141q-118 137 -118 322t116 321q120 141 295 141zM459 852q-132 0 -201 -131q-57 -109 -57 -269q0 -172 52 -278q67 -136 211 -136q139 0 208 141q56 115 56 288
q0 161 -56 261q-70 124 -213 124zM711 1094l-35 -52q-11 -17 -33 -32q-27 -19 -49 -22t-28 -3q-16 0 -33 7l-128 52l-28.5 9.5t-22.5 3.5q-9 0 -23 -3.5t-26.5 -14t-23.5 -26.5l-28 -43l-41 45l26 42q18 29 37 45q23 20 53 26q8 1 15.5 2.5t16.5 1.5q22 0 53 -13l119 -50
q21 -9 39 -9q10 0 24 3q15 5 28.5 16.5t17.5 19.5l28 41z" />
    <glyph glyph-name="Odieresis" unicode="&#xd6;" horiz-adv-x="928" 
d="M48 0zM459 908q176 0 300.5 -129.5t124.5 -308.5q0 -195 -116 -337q-122 -150 -304 -150q-176 0 -298 141q-118 137 -118 322t116 321q120 141 295 141zM459 852q-132 0 -201 -131q-57 -109 -57 -269q0 -172 52 -278q67 -136 211 -136q139 0 208 141q56 115 56 288
q0 161 -56 261q-70 124 -213 124zM346 974q-30 0 -46.5 19.5t-16.5 44.5t15 42t44 17q30 0 46.5 -19.5t16.5 -44.5t-15 -42t-44 -17zM592 972q-30 0 -47 19t-17 45q0 25 16 43t45 18q30 0 47 -19t17 -45q0 -25 -16 -43t-45 -18z" />
    <glyph glyph-name="Oslash" unicode="&#xd8;" horiz-adv-x="924" 
d="M638 772l-261 -717q19 -8 41.5 -12.5t45.5 -4.5q139 0 208 141q56 115 56 288q0 89 -22 169t-68 136zM315 93l262 730q-24 14 -54 21.5t-64 7.5q-132 0 -201 -131q-57 -109 -57 -269q0 -116 23 -200q28 -104 91 -159zM599 884l29 80h80l-41 -113q97 -59 157 -161t60 -220
q0 -195 -116 -337q-122 -150 -304 -150q-54 0 -108 16l-25 -69h-75l35 96q-111 56 -177 170.5t-66 249.5q0 185 116 321q120 141 295 141q75 0 140 -24z" />
    <glyph glyph-name="Ugrave" unicode="&#xd9;" horiz-adv-x="1085" 
d="M59 0zM327 253q0 -88 75 -147q71 -56 167 -56h15q10 2 14 2q96 10 158.5 77.5t62.5 162.5v431q0 27 -4.5 44t-20.5 35q-32 36 -82 36h-33v60h347v-58l-33 -2q-28 0 -45.5 -6t-36.5 -25q-15 -16 -22.5 -37t-7.5 -45v-429q0 -137 -92 -223t-237 -86q-146 0 -247 62
q-115 71 -115 192v548q0 15 -3.5 23.5t-10.5 15.5q-14 13 -33 13h-84v57h409v-57h-74q-13 0 -25.5 -0.5t-22.5 -7.5q-19 -15 -19 -39v-541zM721 973h-49l-203 133q-19 12 -19 37q0 15 10 27.5t30 12.5q25 0 46 -21z" />
    <glyph glyph-name="Uacute" unicode="&#xda;" horiz-adv-x="1057" 
d="M45 0zM313 253q0 -88 75 -147q71 -56 167 -56h15q10 2 14 2q96 10 158.5 77.5t62.5 162.5v431q0 27 -4.5 44t-20.5 35q-32 36 -82 36h-33v60h347v-58l-33 -2q-28 0 -45.5 -6t-36.5 -25q-15 -16 -22.5 -37t-7.5 -45v-429q0 -137 -92 -223t-237 -86q-146 0 -247 62
q-115 71 -115 192v548q0 15 -3.5 23.5t-10.5 15.5q-14 13 -33 13h-84v57h409v-57h-74q-13 0 -25.5 -0.5t-22.5 -7.5q-19 -15 -19 -39v-541zM599 1162q20 20 46 20q20 0 30 -13t10 -28q0 -24 -19 -36l-203 -132h-49z" />
    <glyph glyph-name="Ucircumflex" unicode="&#xdb;" horiz-adv-x="1057" 
d="M45 0zM313 253q0 -88 75 -147q71 -56 167 -56h15q10 2 14 2q96 10 158.5 77.5t62.5 162.5v431q0 27 -4.5 44t-20.5 35q-32 36 -82 36h-33v60h347v-58l-33 -2q-28 0 -45.5 -6t-36.5 -25q-15 -16 -22.5 -37t-7.5 -45v-429q0 -137 -92 -223t-237 -86q-146 0 -247 62
q-115 71 -115 192v548q0 15 -3.5 23.5t-10.5 15.5q-14 13 -33 13h-84v57h409v-57h-74q-13 0 -25.5 -0.5t-22.5 -7.5q-19 -15 -19 -39v-541zM558 1105l-154 -124h-42l156 203h80l150 -208h-40z" />
    <glyph glyph-name="Udieresis" unicode="&#xdc;" horiz-adv-x="1049" 
d="M45 0zM313 253q0 -88 75 -147q71 -56 167 -56h15q10 2 14 2q96 10 158.5 77.5t62.5 162.5v431q0 27 -4.5 44t-20.5 35q-32 36 -82 36h-33v60h347v-58l-33 -2q-28 0 -45.5 -6t-36.5 -25q-15 -16 -22.5 -37t-7.5 -45v-429q0 -137 -92 -223t-237 -86q-146 0 -247 62
q-115 71 -115 192v548q0 15 -3.5 23.5t-10.5 15.5q-14 13 -33 13h-84v57h409v-57h-74q-13 0 -25.5 -0.5t-22.5 -7.5q-19 -15 -19 -39v-541zM430 976q-30 0 -46.5 19.5t-16.5 44.5t15 42t44 17q30 0 46.5 -19.5t16.5 -44.5t-15 -42t-44 -17zM676 974q-30 0 -47 19t-17 45
q0 25 16 43t45 18q30 0 47 -19t17 -45q0 -25 -16 -43t-45 -18z" />
    <glyph glyph-name="germandbls" unicode="&#xdf;" horiz-adv-x="711" 
d="M52 0v59h53q7 0 18 0.5t20 9.5t10.5 20.5t1.5 21.5v574q0 99 67 165t176 66t172.5 -59.5t63.5 -153.5q0 -68 -35.5 -117t-100.5 -74l24 -10q66 -29 103.5 -84t46.5 -144q1 -13 1.5 -22.5t0.5 -16.5q0 -105 -46 -175q-53 -80 -151 -80q-55 0 -97 28q-50 33 -50 87
q0 10 2 27t20 33t45 16q23 0 41 -15t22 -38q1 -4 1 -11q0 -12 -9 -32t-9 -27q0 -8 3 -11q7 -10 21 -10q30 0 54 39q30 49 30 135v81q0 61 -18.5 112t-53.5 74q-23 15 -58 20l-46 6q-20 3 -20 24q0 10 7 17t19 7h51q24 0 40.5 12.5t28.5 35.5t16 40.5t4 41.5v53
q0 58 -34 101.5t-87 43.5q-57 0 -94 -46t-37 -108v-716h-217z" />
    <glyph glyph-name="agrave" unicode="&#xe0;" horiz-adv-x="686" 
d="M53 0zM438 352v91q0 33 -25 59q-13 15 -34 22.5t-38 7.5l-37 1q-42 0 -73.5 -9.5t-31.5 -30.5q0 -9 12.5 -31t12.5 -43q0 -26 -18.5 -41.5t-44.5 -15.5t-45 14t-22.5 35t-3.5 28q0 68 74 111q67 39 151 39q93 0 157 -34q77 -41 77 -115v-314q0 -23 4 -36t17 -21.5
t28 -8.5q14 0 35 7.5t24 2.5q4 -7 4 -15q0 -25 -39.5 -45.5t-78.5 -20.5q-38 4 -64 28t-33 62l-34 -29q-36 -29 -79 -45q-35 -13 -81 -19q-18 -2 -26 -2q-69 0 -118 35q-55 40 -55 105q0 90 103 149q81 47 213 68zM439 306l-119 -25q-56 -11 -97 -42q-49 -37 -49 -87
q0 -46 23 -74q27 -32 77 -32q18 0 28 2q57 9 97 51t40 99v108zM493 680h-49l-203 133q-19 12 -19 37q0 15 10 27.5t30 12.5q25 0 46 -21z" />
    <glyph glyph-name="aacute" unicode="&#xe1;" horiz-adv-x="683" 
d="M52 0zM437 352v91q0 33 -25 59q-13 15 -34 22.5t-38 7.5l-37 1q-42 0 -73.5 -9.5t-31.5 -30.5q0 -9 12.5 -31t12.5 -43q0 -26 -18.5 -41.5t-44.5 -15.5t-45 14t-22.5 35t-3.5 28q0 68 74 111q67 39 151 39q93 0 157 -34q77 -41 77 -115v-314q0 -23 4 -36t17 -21.5
t28 -8.5q14 0 35 7.5t24 2.5q4 -7 4 -15q0 -25 -39.5 -45.5t-78.5 -20.5q-38 4 -64 28t-33 62l-34 -29q-36 -29 -79 -45q-35 -13 -81 -19q-18 -2 -26 -2q-69 0 -118 35q-55 40 -55 105q0 90 103 149q81 47 213 68zM438 306l-119 -25q-56 -11 -97 -42q-49 -37 -49 -87
q0 -46 23 -74q27 -32 77 -32q18 0 28 2q57 9 97 51t40 99v108zM410 866q20 20 46 20q20 0 30 -13t10 -28q0 -24 -19 -36l-203 -132h-49z" />
    <glyph glyph-name="acircumflex" unicode="&#xe2;" horiz-adv-x="686" 
d="M52 0zM437 352v91q0 33 -25 59q-13 15 -34 22.5t-38 7.5l-37 1q-42 0 -73.5 -9.5t-31.5 -30.5q0 -9 12.5 -31t12.5 -43q0 -26 -18.5 -41.5t-44.5 -15.5t-45 14t-22.5 35t-3.5 28q0 68 74 111q67 39 151 39q93 0 157 -34q77 -41 77 -115v-314q0 -23 4 -36t17 -21.5
t28 -8.5q14 0 35 7.5t24 2.5q4 -7 4 -15q0 -25 -39.5 -45.5t-78.5 -20.5q-38 4 -64 28t-33 62l-34 -29q-36 -29 -79 -45q-35 -13 -81 -19q-18 -2 -26 -2q-69 0 -118 35q-55 40 -55 105q0 90 103 149q81 47 213 68zM438 306l-119 -25q-56 -11 -97 -42q-49 -37 -49 -87
q0 -46 23 -74q27 -32 77 -32q18 0 28 2q57 9 97 51t40 99v108zM359 807l-154 -124h-42l156 203h80l150 -208h-40z" />
    <glyph glyph-name="atilde" unicode="&#xe3;" horiz-adv-x="683" 
d="M52 0zM437 352v91q0 33 -25 59q-13 15 -34 22.5t-38 7.5l-37 1q-42 0 -73.5 -9.5t-31.5 -30.5q0 -9 12.5 -31t12.5 -43q0 -26 -18.5 -41.5t-44.5 -15.5t-45 14t-22.5 35t-3.5 28q0 68 74 111q67 39 151 39q93 0 157 -34q77 -41 77 -115v-314q0 -23 4 -36t17 -21.5
t28 -8.5q14 0 35 7.5t24 2.5q4 -7 4 -15q0 -25 -39.5 -45.5t-78.5 -20.5q-38 4 -64 28t-33 62l-34 -29q-36 -29 -79 -45q-35 -13 -81 -19q-18 -2 -26 -2q-69 0 -118 35q-55 40 -55 105q0 90 103 149q81 47 213 68zM438 306l-119 -25q-56 -11 -97 -42q-49 -37 -49 -87
q0 -46 23 -74q27 -32 77 -32q18 0 28 2q57 9 97 51t40 99v108zM599 802l-35 -52q-11 -17 -33 -32q-27 -19 -49 -22t-28 -3q-16 0 -33 7l-128 52l-28.5 9.5t-22.5 3.5q-9 0 -23 -3.5t-26.5 -14t-23.5 -26.5l-28 -43l-41 45l26 42q18 29 37 45q23 20 53 26q8 1 15.5 2.5
t16.5 1.5q22 0 53 -13l119 -50q21 -9 39 -9q10 0 24 3q15 5 28.5 16.5t17.5 19.5l28 41z" />
    <glyph glyph-name="adieresis" unicode="&#xe4;" horiz-adv-x="686" 
d="M52 0zM437 352v91q0 33 -25 59q-13 15 -34 22.5t-38 7.5l-37 1q-42 0 -73.5 -9.5t-31.5 -30.5q0 -9 12.5 -31t12.5 -43q0 -26 -18.5 -41.5t-44.5 -15.5t-45 14t-22.5 35t-3.5 28q0 68 74 111q67 39 151 39q93 0 157 -34q77 -41 77 -115v-314q0 -23 4 -36t17 -21.5
t28 -8.5q14 0 35 7.5t24 2.5q4 -7 4 -15q0 -25 -39.5 -45.5t-78.5 -20.5q-38 4 -64 28t-33 62l-34 -29q-36 -29 -79 -45q-35 -13 -81 -19q-18 -2 -26 -2q-69 0 -118 35q-55 40 -55 105q0 90 103 149q81 47 213 68zM438 306l-119 -25q-56 -11 -97 -42q-49 -37 -49 -87
q0 -46 23 -74q27 -32 77 -32q18 0 28 2q57 9 97 51t40 99v108zM229 681q-30 0 -46.5 19.5t-16.5 44.5t15 42t44 17q30 0 46.5 -19.5t16.5 -44.5t-15 -42t-44 -17zM475 679q-30 0 -47 19t-17 45q0 25 16 43t45 18q30 0 47 -19t17 -45q0 -25 -16 -43t-45 -18z" />
    <glyph glyph-name="aring" unicode="&#xe5;" horiz-adv-x="682" 
d="M334 678q-48 0 -75 31t-27 72q0 37 23.5 63.5t67.5 26.5q48 0 75 -31t27 -72q0 -37 -23.5 -63.5t-67.5 -26.5zM321 835q-28 0 -42.5 -16.5t-14.5 -39.5q0 -26 17.5 -45.5t47.5 -19.5q27 0 41.5 16.5t14.5 39.5q0 25 -17 45t-47 20zM453 352v91q0 33 -25 59
q-13 15 -34 22.5t-38 7.5l-37 1q-42 0 -73.5 -9.5t-31.5 -30.5q0 -9 12.5 -31t12.5 -43q0 -26 -18.5 -41.5t-44.5 -15.5t-45 14t-22.5 35t-3.5 28q0 68 74 111q67 39 151 39q93 0 157 -34q77 -41 77 -115v-314q0 -23 4 -36t17 -21.5t28 -8.5q14 0 35 7.5t24 2.5q4 -7 4 -15
q0 -25 -39.5 -45.5t-78.5 -20.5q-38 4 -64 28t-33 62l-34 -29q-36 -29 -79 -45q-35 -13 -81 -19q-18 -2 -26 -2q-69 0 -118 35q-55 40 -55 105q0 90 103 149q81 47 213 68zM454 306l-119 -25q-56 -11 -97 -42q-49 -37 -49 -87q0 -46 23 -74q27 -32 77 -32q18 0 28 2
q57 9 97 51t40 99v108z" />
    <glyph glyph-name="ae" unicode="&#xe6;" horiz-adv-x="983" 
d="M441 198q0 -57 -40 -99t-97 -51q-7 -1 -16 -1.5t-13 -0.5q-49 0 -74 30t-25 76q0 51 48 87q40 30 98 42l119 25v-108zM556 356l-3 -35h228q14 0 18 1q8 2 14.5 10.5t6.5 29.5v26q0 54 -29 94t-79 50q-14 2 -20 2q-57 0 -99 -63q-37 -56 -37 -115zM414 50l30 27
q27 25 40 39q26 -53 59 -84q59 -55 143 -55q82 0 142.5 29t98.5 96l24 41l-44 26l-20 -36q-26 -46 -79 -69q-46 -20 -103 -20q-60 0 -109 67q-44 61 -44 115v46h396l-4 72q0 91 -67 163t-154 72q-131 0 -206 -79q-26 46 -78.5 67.5t-121.5 21.5q-84 0 -150 -39
q-75 -44 -75 -112q0 -6 3 -26.5t22 -35t46 -14.5q26 0 44.5 15.5t18.5 41.5q0 22 -12.5 44t-12.5 30q0 20 32.5 30t72.5 10l37 -1q18 0 37.5 -7t34.5 -23q25 -26 25 -59v-91l-69 -11q-134 -22 -213 -67q-103 -59 -103 -150q0 -65 54 -104q50 -36 119 -36q6 0 14 1t12 1
q51 7 81 17q46 16 79 47z" />
    <glyph glyph-name="ccedilla" unicode="&#xe7;" horiz-adv-x="558" 
d="M223 -74h49q33 0 60 -21t27 -49q0 -59 -45 -91q-40 -28 -103 -28q-41 0 -72 10l-36 11l17 38l35 -9q25 -5 54 -5q22 0 38 9q23 13 23 40q0 26 -17 38t-43 12q-6 0 -20 -2l-21 -4l-8 8l47 117q-84 46 -124 120t-40 175q0 122 73 208q78 91 200 91q63 0 111 -24
q59 -29 81 -91q3 -10 4 -15t1 -15q0 -34 -21 -59t-54 -25q-31 0 -51.5 19.5t-20.5 51.5q0 22 16 42.5t15 28.5q-2 19 -29.5 28t-55.5 9q-68 0 -108 -83q-35 -73 -35 -175q0 -95 35 -154q42 -71 129 -71q36 0 69 17t51 52l28 51l45 -18l-31 -63q-30 -60 -92 -89
q-53 -25 -123 -25q-6 0 -13 1q-13 4 -20 5z" />
    <glyph glyph-name="egrave" unicode="&#xe8;" horiz-adv-x="593" 
d="M39 0zM559 280h-396v-46q0 -76 45.5 -131t117.5 -55q60 0 102.5 22t69.5 71l20 36l44 -26l-24 -41q-38 -66 -102 -97q-58 -28 -143 -28q-112 0 -183 83t-71 209q0 124 74 215q78 96 197 96q16 0 24 -1q87 0 154 -72t67 -163zM164 329h228q14 0 18 1q8 2 14.5 10.5
t6.5 29.5v26q0 54 -29 94t-79 50q-14 2 -20 2q-57 0 -99 -63q-37 -56 -37 -115zM469 678h-49l-203 133q-19 12 -19 37q0 15 10 27.5t30 12.5q25 0 46 -21z" />
    <glyph glyph-name="eacute" unicode="&#xe9;" horiz-adv-x="589" 
d="M39 0zM382 871q20 20 46 20q20 0 30 -13t10 -28q0 -24 -19 -36l-203 -132h-49zM559 280h-396v-46q0 -76 45.5 -131t117.5 -55q60 0 102.5 22t69.5 71l20 36l44 -26l-24 -41q-38 -66 -102 -97q-58 -28 -143 -28q-112 0 -183 83t-71 209q0 124 74 215q78 96 197 96
q16 0 24 -1q87 0 154 -72t67 -163zM164 329h228q14 0 18 1q8 2 14.5 10.5t6.5 29.5v26q0 54 -29 94t-79 50q-14 2 -20 2q-57 0 -99 -63q-37 -56 -37 -115z" />
    <glyph glyph-name="ecircumflex" unicode="&#xea;" horiz-adv-x="592" 
d="M39 0zM559 280h-396v-46q0 -76 45.5 -131t117.5 -55q60 0 102.5 22t69.5 71l20 36l44 -26l-24 -41q-38 -66 -102 -97q-58 -28 -143 -28q-112 0 -183 83t-71 209q0 124 74 215q78 96 197 96q16 0 24 -1q87 0 154 -72t67 -163zM164 329h228q14 0 18 1q8 2 14.5 10.5
t6.5 29.5v26q0 54 -29 94t-79 50q-14 2 -20 2q-57 0 -99 -63q-37 -56 -37 -115zM326 808l-154 -124h-42l156 203h80l150 -208h-40z" />
    <glyph glyph-name="edieresis" unicode="&#xeb;" horiz-adv-x="589" 
d="M27 0zM547 280h-396v-46q0 -76 45.5 -131t117.5 -55q60 0 102.5 22t69.5 71l20 36l44 -26l-24 -41q-38 -66 -102 -97q-58 -28 -143 -28q-112 0 -183 83t-71 209q0 124 74 215q78 96 197 96q16 0 24 -1q87 0 154 -72t67 -163zM152 329h228q14 0 18 1q8 2 14.5 10.5
t6.5 29.5v26q0 54 -29 94t-79 50q-14 2 -20 2q-57 0 -99 -63q-37 -56 -37 -115zM180 678q-30 0 -46.5 19.5t-16.5 44.5t15 42t44 17q30 0 46.5 -19.5t16.5 -44.5t-15 -42t-44 -17zM426 676q-30 0 -47 19t-17 45q0 25 16 43t45 18q30 0 47 -19t17 -45q0 -25 -16 -43t-45 -18z
" />
    <glyph glyph-name="igrave" unicode="&#xec;" horiz-adv-x="428" 
d="M264 87q0 -24 6 -31.5t13 -10t17 -2.5h12h53v-44h-315v45h66q21 0 31 16q7 9 7 31v346v16q0 19 -3 26q-2 5 -11.5 13t-18 9.5t-27.5 1.5h-55v54l225 12v-482zM322 678h-49l-203 133q-19 12 -19 37q0 15 10 27.5t30 12.5q25 0 46 -21z" />
    <glyph glyph-name="iacute" unicode="&#xed;" horiz-adv-x="424" 
d="M271 87q0 -25 5.5 -32.5t12.5 -9.5t17 -2h12h53v-44h-314v45h66q21 0 31 16q7 9 7 31v346q0 27 -3 37t-12 18t-18 9.5t-27 1.5h-55v54l225 12v-482zM284 870q20 20 46 20q20 0 30 -13t10 -28q0 -24 -19 -36l-203 -132h-49z" />
    <glyph glyph-name="icircumflex" unicode="&#xee;" horiz-adv-x="428" 
d="M268 87q0 -24 6 -31.5t13 -10t17 -2.5h12h53v-44h-315v45h66q21 0 31 16q7 9 7 31v346v16q0 19 -3 26q-2 5 -11.5 13t-18 9.5t-27.5 1.5h-55v54l225 12v-482zM212 805l-154 -124h-42l156 203h80l150 -208h-40z" />
    <glyph glyph-name="idieresis" unicode="&#xef;" horiz-adv-x="428" 
d="M278 87q0 -25 5.5 -32.5t12.5 -9.5t17 -2h12h53v-44h-314v45h66q19 0 31 16q4 5 5 10q1 4 1 21v346v16q0 19 -3 26q-2 5 -11.5 13t-18 9.5t-27.5 1.5h-54v54l225 12v-482zM85 679q-30 0 -46.5 19.5t-16.5 44.5t15 42t44 17q30 0 46.5 -19.5t16.5 -44.5t-15 -42t-44 -17z
M331 677q-30 0 -47 19t-17 45q0 25 16 43t45 18q30 0 47 -19t17 -45q0 -25 -16 -43t-45 -18z" />
    <glyph glyph-name="ntilde" unicode="&#xf1;" horiz-adv-x="780" 
d="M47 0zM639 401v-307q0 -18 1.5 -27.5t9.5 -15.5t16 -8q5 -1 18 -1l53 -1v-41h-307v41l57 1q22 0 33 12q6 7 6 23v16v300q0 46 -24 79.5t-48.5 36t-36.5 2.5q-72 0 -114.5 -49.5t-42.5 -120.5v-252q0 -10 0.5 -19.5t6 -16.5t13.5 -9t19 -2h12l46 -1v-41h-309v41l65 2
q19 0 29 16q6 7 6 20q-1 10 -1 16v346v23q0 10 -2 17.5t-8 13t-14.5 7.5t-17.5 2h-12h-46v51l210 13v-100l32 40q61 76 156 76q7 0 15.5 -1t13.5 -1q58 -8 107 -53q58 -54 58 -128zM654 801l-35 -52q-11 -17 -33 -32q-27 -19 -49 -22t-28 -3q-16 0 -33 7l-128 52l-28.5 9.5
t-22.5 3.5q-9 0 -23 -3.5t-26.5 -14t-23.5 -26.5l-28 -43l-41 45l26 42q18 29 37 45q23 20 53 26q8 1 15.5 2.5t16.5 1.5q22 0 53 -13l119 -50q21 -9 39 -9q10 0 24 3q15 5 28.5 16.5t17.5 19.5l28 41z" />
    <glyph glyph-name="ograve" unicode="&#xf2;" horiz-adv-x="612" 
d="M39 0zM472 681h-49l-203 133q-19 12 -19 37q0 15 10 27.5t30 12.5q25 0 46 -21zM302 588q113 0 191 -91q75 -88 75 -207q0 -124 -73 -214q-77 -95 -193 -95q-113 0 -190 93q-73 89 -73 211q0 121 74.5 212t188.5 91zM305 542q-79 0 -115 -84q-28 -65 -28 -169
q0 -146 41 -206q35 -51 101 -51q81 0 115 88q25 65 25 176q0 138 -41 197q-34 49 -98 49z" />
    <glyph glyph-name="oacute" unicode="&#xf3;" horiz-adv-x="612" 
d="M39 0zM302 588q113 0 191 -91q75 -88 75 -207q0 -124 -73 -214q-77 -95 -193 -95q-113 0 -190 93q-73 89 -73 211q0 121 74.5 212t188.5 91zM305 542q-79 0 -115 -84q-28 -65 -28 -169q0 -146 41 -206q35 -51 101 -51q81 0 115 88q25 65 25 176q0 138 -41 197
q-34 49 -98 49zM369 869q20 20 46 20q20 0 30 -13t10 -28q0 -24 -19 -36l-203 -132h-49z" />
    <glyph glyph-name="ocircumflex" unicode="&#xf4;" horiz-adv-x="608" 
d="M39 0zM325 805l-154 -124h-42l156 203h80l150 -208h-40zM302 588q113 0 191 -91q75 -88 75 -207q0 -124 -73 -214q-77 -95 -193 -95q-113 0 -190 93q-73 89 -73 211q0 121 74.5 212t188.5 91zM305 542q-79 0 -115 -84q-28 -65 -28 -169q0 -146 41 -206q35 -51 101 -51
q81 0 115 88q25 65 25 176q0 138 -41 197q-34 49 -98 49z" />
    <glyph glyph-name="otilde" unicode="&#xf5;" horiz-adv-x="608" 
d="M38 0zM301 589q113 0 191 -91q75 -88 75 -207q0 -124 -73 -214q-77 -95 -193 -95q-113 0 -190 93q-73 89 -73 211q0 121 74.5 212t188.5 91zM304 543q-79 0 -115 -84q-28 -65 -28 -169q0 -146 41 -206q35 -51 101 -51q81 0 115 88q25 65 25 176q0 138 -41 197
q-34 49 -98 49zM558 806l-35 -52q-11 -17 -33 -32q-27 -19 -49 -22t-28 -3q-16 0 -33 7l-128 52l-28.5 9.5t-22.5 3.5q-9 0 -23 -3.5t-26.5 -14t-23.5 -26.5l-28 -43l-41 45l26 42q18 29 37 45q23 20 53 26q8 1 15.5 2.5t16.5 1.5q22 0 53 -13l119 -50q21 -9 39 -9
q10 0 24 3q15 5 28.5 16.5t17.5 19.5l28 41z" />
    <glyph glyph-name="odieresis" unicode="&#xf6;" horiz-adv-x="608" 
d="M39 0zM184 678q-30 0 -46.5 19.5t-16.5 44.5t15 42t44 17q30 0 46.5 -19.5t16.5 -44.5t-15 -42t-44 -17zM430 676q-30 0 -47 19t-17 45q0 25 16 43t45 18q30 0 47 -19t17 -45q0 -25 -16 -43t-45 -18zM302 588q113 0 191 -91q75 -88 75 -207q0 -124 -73 -214
q-77 -95 -193 -95q-113 0 -190 93q-73 89 -73 211q0 121 74.5 212t188.5 91zM305 542q-79 0 -115 -84q-28 -65 -28 -169q0 -146 41 -206q35 -51 101 -51q81 0 115 88q25 65 25 176q0 138 -41 197q-34 49 -98 49z" />
    <glyph glyph-name="divide" unicode="&#xf7;" horiz-adv-x="734" 
d="M367 428q-33 0 -51 20t-18 49q0 28 18.5 48.5t51.5 20.5t51 -20t18 -49q0 -28 -18.5 -48.5t-51.5 -20.5zM369 88q-34 0 -53 21t-19 50t18 49t51 20t52 -21t19 -51q0 -29 -17 -48.5t-51 -19.5zM697 291h-651v72h651v-72z" />
    <glyph glyph-name="oslash" unicode="&#xf8;" horiz-adv-x="615" 
d="M417 475l-157 -432q23 -10 49 -10q81 0 115 88q25 65 25 176q0 55 -7 98.5t-25 79.5zM220 71l162 449q-15 12 -32 17.5t-40 5.5q-79 0 -115 -84q-28 -65 -28 -169q0 -96 15 -148q12 -43 38 -71zM400 571l18 49h52l-27 -73q60 -41 95 -109t35 -147q0 -124 -73 -214
q-77 -95 -193 -95q-36 0 -66 10l-17 -49h-50l23 66q-71 38 -112 113t-41 164q0 121 74.5 212t188.5 91q51 0 93 -18z" />
    <glyph glyph-name="ugrave" unicode="&#xf9;" horiz-adv-x="780" 
d="M46 0zM636 119q0 -20 1.5 -28t10 -15.5t19.5 -9.5t23 -2h52v-52l-218 -14v93l-30 -37q-32 -38 -74 -55t-92 -17q-20 0 -40 3q-58 7 -99 49q-48 49 -48 125v294v17q0 16 -7.5 22t-15.5 8q-5 1 -17 1h-55v53l211 10v-397q0 -47 19 -76q23 -35 69 -35q83 0 131.5 50.5
t48.5 133.5v209v18v9q-1 8 -9.5 17t-29.5 9h-13h-67v51l230 14v-448zM535 676h-49l-203 133q-19 12 -19 37q0 15 10 27.5t30 12.5q25 0 46 -21z" />
    <glyph glyph-name="uacute" unicode="&#xfa;" horiz-adv-x="780" 
d="M46 0zM636 119q0 -20 1.5 -28t10 -15.5t19.5 -9.5t23 -2h52v-52l-218 -14v93l-30 -37q-32 -38 -74 -55t-92 -17q-20 0 -40 3q-58 7 -99 49q-48 49 -48 125v294v17q0 16 -7.5 22t-15.5 8q-5 1 -17 1h-55v53l211 10v-397q0 -47 19 -76q23 -35 69 -35q83 0 131.5 50.5
t48.5 133.5v209v18v9q-1 8 -9.5 17t-29.5 9h-13h-67v51l230 14v-448zM424 870q20 20 46 20q20 0 30 -13t10 -28q0 -24 -19 -36l-203 -132h-49z" />
    <glyph glyph-name="ucircumflex" unicode="&#xfb;" horiz-adv-x="784" 
d="M46 0zM636 119q0 -20 1.5 -28t10 -15.5t19.5 -9.5t23 -2h52v-52l-218 -14v93l-30 -37q-32 -38 -74 -55t-92 -17q-20 0 -40 3q-58 7 -99 49q-48 49 -48 125v294v17q0 16 -7.5 22t-15.5 8q-5 1 -17 1h-55v53l211 10v-397q0 -47 19 -76q23 -35 69 -35q83 0 131.5 50.5
t48.5 133.5v209v18v9q-1 8 -9.5 17t-29.5 9h-13h-67v51l230 14v-448zM416 806l-154 -124h-42l156 203h80l150 -208h-40z" />
    <glyph glyph-name="udieresis" unicode="&#xfc;" horiz-adv-x="784" 
d="M46 0zM636 119q0 -20 1.5 -28t10 -15.5t19.5 -9.5t23 -2h52v-52l-218 -14v93l-30 -37q-32 -38 -74 -55t-92 -17q-20 0 -40 3q-58 7 -99 49q-48 49 -48 125v294v17q0 16 -7.5 22t-15.5 8q-5 1 -17 1h-55v53l211 10v-397q0 -47 19 -76q23 -35 69 -35q83 0 131.5 50.5
t48.5 133.5v209v18v9q-1 8 -9.5 17t-29.5 9h-13h-67v51l230 14v-448zM292 681q-30 0 -46.5 19.5t-16.5 44.5t15 42t44 17q30 0 46.5 -19.5t16.5 -44.5t-15 -42t-44 -17zM538 679q-30 0 -47 19t-17 45q0 25 16 43t45 18q30 0 47 -19t17 -45q0 -25 -16 -43t-45 -18z" />
    <glyph glyph-name="ydieresis" unicode="&#xff;" horiz-adv-x="722" 
d="M26 0zM268 681q-30 0 -46.5 19.5t-16.5 44.5t15 42t44 17q30 0 46.5 -19.5t16.5 -44.5t-15 -42t-44 -17zM514 679q-30 0 -47 19t-17 45q0 25 16 43t45 18q30 0 47 -19t17 -45q0 -25 -16 -43t-45 -18zM380 -17q-47 -110 -106.5 -169.5t-129.5 -59.5q-9 0 -21 2t-25 5
q-28 8 -47 27q-25 24 -25 61q0 10 4 28.5t23.5 32t45.5 13.5q25 0 41.5 -12t20.5 -37q1 -4 1 -11q0 -10 -6.5 -24.5t-3.5 -20.5q6 -9 19 -9q19 0 39 15q37 27 70 80q16 25 37 69l20 40l-205 478q-7 18 -21.5 28.5t-27.5 10.5h-34v42h285v-45h-36h-15q-18 0 -26 -10
q-5 -10 -5 -17q0 -6 4 -18l140 -332l126 307q4 8 4 30q0 20 -8 28.5t-18.5 11.5t-22.5 3h-36v42h241v-44l-19 1q-7 0 -23.5 -8.5t-22.5 -13.5q-12 -11 -20 -25q-4 -8 -13 -29z" />
    <glyph glyph-name="OE" unicode="&#x152;" horiz-adv-x="1456" 
d="M461 852q-132 0 -201 -131q-57 -109 -57 -268q0 -172 52 -278q67 -136 211 -136q139 0 208 140q56 114 56 286q0 162 -56 262q-70 125 -213 125zM559 896h802l18 -322h-53l-12 70q-10 56 -25 86q-18 37 -56 66q-32 24 -66.5 32.5t-79.5 8.5l-137 1h-24q-12 -2 -22 -9
q-19 -17 -19 -37v-303l69 -2q26 0 44.5 9t42 29.5t34 40t13.5 49.5l5 45l52 1v-411h-52l-7 61q-3 26 -6 37q-9 29 -33 51q-37 37 -91 37l-71 -3l-1 -324q0 -14 3.5 -24t11.5 -18t17 -10.5t22 -2.5h15l140 1q56 0 93.5 13.5t75.5 50t54 86.5q4 13 16 64l14 57h51l-24 -329
h-791q-15 -3 -24 -4q-59 -9 -92 -9q-176 0 -298 141q-118 137 -118 322q0 183 116 320q120 142 295 142q30 0 66 -6q12 -2 32 -7z" />
    <glyph glyph-name="oe" unicode="&#x153;" horiz-adv-x="1007" 
d="M306 555q-79 0 -115 -84q-28 -65 -28 -169q0 -146 41 -206q35 -51 101 -51q81 0 115 88q25 65 25 176q0 138 -41 197q-34 49 -98 49zM571 347h228q14 0 18 1q8 2 14.5 10.5t6.5 29.5v26q0 54 -29 94t-79 50q-14 2 -20 2q-57 0 -99 -63q-37 -56 -37 -115zM508 492
q37 53 88 82q56 32 122 32q15 0 23 -1q87 0 154 -72t67 -163l4 -72h-396v-46q0 -76 45.5 -131t117.5 -55q60 0 102.5 22t69.5 71l20 36l44 -26l-24 -41q-38 -66 -102 -97q-58 -28 -143 -28q-58 0 -108 26t-86 72q-36 -49 -89 -78t-114 -29q-113 0 -190 93q-73 89 -73 211
q0 121 74.5 212t188.5 91q64 0 116 -28.5t89 -80.5z" />
    <glyph glyph-name="endash" unicode="&#x2013;" horiz-adv-x="541" 
d="M502 378v-98h-455v98h455z" />
    <glyph glyph-name="emdash" unicode="&#x2014;" horiz-adv-x="988" 
d="M944 281l-897 -1l-1 98h898v-97z" />
    <glyph glyph-name="quoteleft" unicode="&#x2018;" horiz-adv-x="270" 
d="M192 844q-17 -15 -38 -41q-32 -39 -40 -65q-4 -11 -4 -35v-11q10 5 36 5q14 0 21 -2q26 -7 40.5 -26.5t14.5 -48.5t-22 -49t-56 -20q-57 0 -83 47q-18 32 -18 74q0 56 32 110q29 50 79 89l54 43l27 -34z" />
    <glyph glyph-name="quoteright" unicode="&#x2019;" horiz-adv-x="266" 
d="M85 622q17 15 38 41q32 39 40 65q1 4 2 14.5t1 11.5v20q-4 -3 -11.5 -4t-23.5 -1q-15 0 -22 2q-26 7 -40 27t-14 48q0 29 22 49t56 20q57 0 83 -47q18 -32 18 -74q0 -56 -30.5 -108t-80.5 -91l-54 -43l-27 34z" />
    <glyph glyph-name="quotesinglbase" unicode="&#x201a;" horiz-adv-x="266" 
d="M85 -153q17 15 38 41q32 39 40 65q2 4 2 12.5t1 13.5v20q-4 -3 -11.5 -4t-23.5 -1q-15 0 -22 2q-26 7 -40 27t-14 48q0 29 22 49t56 20q57 0 83 -47q18 -32 18 -74q0 -56 -30.5 -108t-80.5 -91l-54 -43l-27 34z" />
    <glyph glyph-name="quotedblleft" unicode="&#x201c;" horiz-adv-x="496" 
d="M399 817q-12 -11 -27 -31q-21 -29 -29 -54q-3 -9 -3 -17q1 -11 3 -21q12 4 36 4q14 0 21 -2q26 -7 40.5 -26.5t14.5 -47.5q0 -31 -22 -50t-56 -19q-57 0 -83 46q-18 32 -18 75q0 55 31 108q28 48 78 88l54 44l28 -36zM170 817q-12 -11 -27 -31q-21 -29 -29 -54
q-3 -9 -3 -16q2 -14 3 -22q2 1 14 3t21 2q11 0 22 -3q55 -13 55 -74q0 -30 -22.5 -49.5t-55.5 -19.5q-57 0 -83 46q-18 32 -18 75q0 55 31 108q28 48 78 89l54 43l27 -36z" />
    <glyph glyph-name="quotedblright" unicode="&#x201d;" horiz-adv-x="492" 
d="M84 624q12 9 38 41q33 40 41 65q1 5 2 19.5t1 15.5v10q-10 -4 -35 -4q-15 0 -22 2q-26 7 -40.5 26.5t-14.5 47.5q0 31 22 50t56 19q57 0 83 -46q18 -32 18 -75q0 -55 -30.5 -107t-79.5 -92l-54 -42l-28 34zM309 623q15 11 38 38q32 37 41 62q2 7 3 22t1 29q-8 -4 -28 -4
q-13 0 -33 3.5t-35.5 24t-15.5 48.5q0 30 22 49t56 19q57 0 83 -46q18 -32 18 -74q0 -55 -34 -112q-30 -51 -77 -87l-52 -42l-28 37z" />
    <glyph glyph-name="quotedblbase" unicode="&#x201e;" horiz-adv-x="492" 
d="M84 -151q12 9 38 41q33 40 41 65q1 5 2 19.5t1 15.5v10q-10 -4 -35 -4q-15 0 -22 2q-26 7 -40.5 26.5t-14.5 47.5q0 31 22 50t56 19q57 0 83 -46q18 -32 18 -75q0 -55 -30.5 -107t-79.5 -92l-54 -42l-28 34zM309 -152q15 11 38 38q32 37 41 62q2 7 3 22t1 29
q-8 -4 -28 -4q-13 0 -33 3.5t-35.5 24t-15.5 48.5q0 30 22 49t56 19q57 0 83 -46q18 -32 18 -74q0 -55 -34 -112q-30 -51 -77 -87l-52 -42l-28 37z" />
    <glyph glyph-name="dagger" unicode="&#x2020;" horiz-adv-x="589" 
d="M314 531q0 -27 4 -46.5t13 -43.5t17.5 -40.5t19.5 -33.5l-16 -43q-10 -29 -15.5 -57.5t-8.5 -48.5q-7 -43 -8.5 -70.5t-1.5 -89.5l-3 -228h-32l-2 230q0 42 -2.5 74t-9 71.5t-10.5 65.5q-4 17 -14 51l-15 47q11 17 20.5 34t17 38.5t11.5 42.5t4 47l1 79l-42 -4
q-29 0 -73 -22t-62 -22q-27 0 -44 18t-17 45q0 23 18 40t43 17q17 0 46 -12q68 -28 93 -31l40 -4l-5 69q0 36 -21.5 91.5t-21.5 70.5q0 28 18 45t45 17q24 0 40.5 -18.5t16.5 -43.5q0 -11 -28 -93q-14 -41 -14 -69l-5 -70l33 3q33 0 83 24t67 24q28 0 45 -18t17 -45
q0 -25 -18 -41t-44 -16q-13 0 -85 28q-36 14 -62 14l-35 2z" />
    <glyph glyph-name="bullet" unicode="&#x2022;" horiz-adv-x="500" 
d="M257 224q-99 0 -158 66q-53 60 -53 145t51 142q57 64 156 64t158 -66q53 -60 53 -145t-51 -142q-57 -64 -156 -64z" />
    <glyph glyph-name="ellipsis" unicode="&#x2026;" horiz-adv-x="796" 
d="M18 0zM697 0q-36 0 -56.5 22.5t-20.5 54.5t19.5 53.5t55.5 21.5t58 -24q19 -21 19 -53t-19.5 -53.5t-55.5 -21.5zM398 0q-36 0 -56.5 22.5t-20.5 54.5t19.5 53.5t55.5 21.5t58 -24q19 -21 19 -53t-19.5 -53.5t-55.5 -21.5zM95 0q-36 0 -56.5 22.5t-20.5 54.5t19.5 53.5
t55.5 21.5t58 -24q19 -21 19 -53t-19.5 -53.5t-55.5 -21.5z" />
    <glyph glyph-name=".ttfautohint" horiz-adv-x="796" 
d="M0 0z" />
    </font>
</defs>
</svg>
