<?xml version="1.0" encoding="UTF-8"?>
<svg width="49px" height="48px" viewBox="0 0 49 48" version="1.1" xmlns="http://www.w3.org/2000/svg" xmlns:xlink="http://www.w3.org/1999/xlink">
    <!-- Generator: sketchtool 60.1 (101010) - https://sketch.com -->
    <title>D6F8A31E-C11D-4CB8-AB2C-554F04E1F3E1</title>
    <desc>Created with sketchtool.</desc>
    <defs>
        <path d="M44.0407,45.6035 C45.3417,44.9125 45.4777,42.5175 44.3367,40.3735 C43.1977,38.2285 41.1347,37.0015 39.8347,37.6945 C38.5347,38.3865 38.3987,40.7815 39.5387,42.9245 C40.6787,45.0685 42.7407,46.2955 44.0407,45.6035 Z M34.937,35.385 L34.937,48 L0.014,48 L0.014,35.385 L34.937,35.385 Z M45.5387,39.7345 C47.0757,42.6255 46.6977,45.7315 44.6797,46.8045 C44.2247,47.0465 43.7297,47.1615 43.2207,47.1615 C41.4687,47.1615 39.5287,45.8025 38.3377,43.5635 C36.8007,40.6725 37.1777,37.5675 39.1967,36.4935 C41.2147,35.4195 44.0007,36.8435 45.5387,39.7345 Z M33.577,36.746 L1.375,36.746 L1.375,46.64 L33.577,46.64 L33.577,36.746 Z M44.5965,-0.0001 C46.5295,-0.0001 48.0455,1.3489 48.0455,3.0709 L48.0455,3.0709 L48.0455,24.2109 C48.0455,25.8759 46.4655,27.2819 44.5965,27.2819 L44.5965,27.2819 L25.6465,27.2819 L25.6465,30.9549 L30.7545,30.9549 L30.7545,32.3149 L18.6745,32.3149 L18.6745,30.9549 L24.2865,30.9549 L24.2865,27.2819 L3.4485,27.2819 C1.5155,27.2819 0.0005,25.9329 0.0005,24.2109 L0.0005,24.2109 L0.0005,3.0709 C0.0005,1.4059 1.5795,-0.0001 3.4485,-0.0001 L3.4485,-0.0001 Z M46.6845,22.2489 L1.3605,22.2489 L1.3605,24.2109 C1.3605,25.1699 2.2775,25.9209 3.4485,25.9209 L3.4485,25.9209 L44.5965,25.9209 C45.6895,25.9209 46.6845,25.1069 46.6845,24.2109 L46.6845,24.2109 L46.6845,22.2489 Z M44.5965,1.3599 L3.4485,1.3599 C2.3555,1.3599 1.3605,2.1749 1.3605,3.0709 L1.3605,3.0709 L1.3605,20.8879 L46.6845,20.8879 L46.6845,3.0709 C46.6845,2.1119 45.7675,1.3599 44.5965,1.3599 L44.5965,1.3599 Z" id="path-1"></path>
    </defs>
    <g id="Asset-Artboard-Page" stroke="none" stroke-width="1" fill="none" fill-rule="evenodd">
        <g id="icons/products/red/A-car-home/a43-IT-assistant" transform="translate(0.382023, 0.000000)">
            <g>
                <polygon id="Rectangle-path" fill-opacity="0" fill="#FFFFFF" fill-rule="nonzero" points="-5.68434189e-14 0 48 0 48 48 -5.68434189e-14 48"></polygon>
                <mask id="mask-2" fill="white">
                    <use xlink:href="#path-1"></use>
                </mask>
                <use id="a43-IT-assistant" fill="#C5281C" xlink:href="#path-1"></use>
                <polygon id="Color-Style" fill="#C5281C" mask="url(#mask-2)" points="0 0 48 0 48 48 0 48"></polygon>
            </g>
        </g>
    </g>
</svg>