<?xml version="1.0" encoding="UTF-8"?>
<svg width="49px" height="48px" viewBox="0 0 49 48" version="1.1" xmlns="http://www.w3.org/2000/svg" xmlns:xlink="http://www.w3.org/1999/xlink">
    <!-- Generator: sketchtool 60.1 (101010) - https://sketch.com -->
    <title>10CF217A-4676-4F5A-B3AC-6708AB2E8F93</title>
    <desc>Created with sketchtool.</desc>
    <defs>
        <path d="M40.6100459,31.19 C40.2580499,30.4452602 39.5317151,29.9482943 38.7100459,29.89 L38.7100459,29.89 C37.8435744,29.8947081 37.0605655,30.4075789 36.7100459,31.2 L36.7100459,31.2 C36.5922821,31.4679566 36.5310075,31.7573088 36.5300448,32.05 C36.5294142,32.6705627 36.7908969,33.2625306 37.2500459,33.68 C37.6385942,34.0507032 38.1640259,34.2427575 38.7000459,34.21 L38.8400459,34.21 C39.316229,34.1914691 39.7701469,34.0035187 40.1200459,33.68 C40.5890884,33.2682052 40.8706293,32.6834665 40.9000459,32.06 C40.8950778,31.7536887 40.8198088,31.4526126 40.6800459,31.18 L40.6100459,31.19 Z M39.7400459,33.31 C39.4513376,33.5951227 39.0550933,33.7441688 38.6500459,33.72 L38.6500459,33.72 C38.2260892,33.7513065 37.8085752,33.6024536 37.5000459,33.31 C37.1348362,32.9800191 36.924492,32.5121847 36.9200459,32.02 C36.9217846,31.7917477 36.9729586,31.5665821 37.0700459,31.36 L36.8600459,31.26 L37.0700459,31.36 C37.3636339,30.7346142 37.9994063,30.3421621 38.6900459,30.36 L38.6900459,30.36 C39.3329422,30.4273956 39.8940362,30.8254691 40.1700459,31.41 L40.4000459,31.31 L40.1900459,31.42 C40.3010016,31.6223268 40.3594508,31.849247 40.3600459,32.08 C40.3246312,32.5559858 40.1016166,32.998418 39.7400459,33.31 L39.7400459,33.31 Z M47.0000459,28.97 L46.8000459,28.97 C46.6600459,24.12 43.8700459,20.63 40.0500459,20.63 L34.0500459,20.63 C34.0542858,20.6001498 34.0542858,20.5698502 34.0500459,20.54 C33.3700459,19.13 29.8200459,12.08 27.3700459,12 L13.7100459,12 C12.7100459,12.08 12.1700459,13 10.5800459,15.28 C10.0600459,16.04 10.0700459,16.05 9.40004594,17.01 L7.00004594,20.31 C6.94122631,20.4061345 6.89739042,20.5106662 6.87004594,20.62 L2.65004594,20.62 C1.98959364,20.6708718 1.37694054,20.9838459 0.948641943,21.4891632 C0.520343342,21.9944804 0.311998565,22.6501397 0.370045936,23.31 L0.370045936,29.31 C0.138051131,29.5157756 0.00369059008,29.8099163 0,30.12 L0,30.8 C-0.00262220136,31.0908147 0.111037797,31.3706364 0.315742354,31.577219 C0.520446911,31.7838016 0.79921898,31.9000122 1.09004594,31.9 L5.09004594,31.9 L5.09004594,31.96 C5.0563684,33.1440656 5.50371179,34.2912849 6.33004594,35.14 C7.16798088,36.0138052 8.31960368,36.5176401 9.53004594,36.54 L9.53004594,36.54 C10.7730103,36.5691629 11.9746337,36.0928437 12.8600459,35.22 C13.7182824,34.3509951 14.1873689,33.1710621 14.1600459,31.95 L14.1600459,31.9 L34.1000459,31.9 C34.1000459,31.96 34.1000459,32.03 34.1000459,32.09 C34.0667083,33.2759193 34.5180824,34.4242148 35.3500459,35.27 C36.1813362,36.1532774 37.3371567,36.6589488 38.5500459,36.67 L38.5500459,36.67 C39.8091976,36.6968358 41.024061,36.2051054 41.9100459,35.31 C42.7657653,34.4434297 43.2346472,33.2676184 43.2100459,32.05 C43.2100459,31.98 43.2100459,31.91 43.2100459,31.85 L47.0000459,31.85 C47.278635,31.8370504 47.5406271,31.7138007 47.7282288,31.5074389 C47.9158304,31.3010772 48.0136272,31.028559 48.0000459,30.75 L48.0000459,30.07 C48.0227816,29.4918663 47.5777241,29.002303 47.0000459,28.97 Z M32.8600459,20.63 L16.7700459,20.63 L16.7700459,13.07 L27.3200459,13.07 C28.5800459,13.12 31.2400459,17.4 32.8600459,20.63 Z M10.2900459,17.63 C10.7500459,16.98 11.1400459,16.4 11.4900459,15.89 C12.6500459,14.19 13.3500459,13.15 13.7900459,13.08 L15.6800459,13.08 L15.6800459,20.64 L8.14004594,20.64 L10.2900459,17.63 Z M2.65004594,21.63 L40.0500459,21.63 C43.2900459,21.63 45.6700459,24.7 45.7900459,28.97 L42.0000459,28.97 C41.123105,28.0235322 39.8903238,27.4869099 38.6000459,27.49 C37.3184045,27.486684 36.0948004,28.0240531 35.2300459,28.97 L13.1100459,28.97 C12.2374831,27.9326723 10.9454352,27.3417072 9.59004594,27.36 C8.25070731,27.363239 6.97959339,27.9513118 6.11004594,28.97 L1.38004594,28.97 L1.38004594,23.31 C1.27300446,22.4969994 1.83866836,21.7487196 2.65004594,21.63 Z M14.0000459,30.74 C13.9448709,30.5176056 13.8712836,30.3001886 13.7800459,30.09 L34.5100459,30.09 C34.4137123,30.300281 34.3334818,30.5175721 34.2700459,30.74 L14.0000459,30.74 Z M1.10004594,30.09 L5.40004594,30.09 C5.31031158,30.3007651 5.23676541,30.5180606 5.18004594,30.74 L1.11004594,30.74 L1.10004594,30.09 Z M12.1000459,34.38 C11.4163314,35.0509982 10.4874658,35.4124245 9.53004594,35.38 L9.53004594,35.38 C8.6057586,35.366694 7.72596886,34.9808846 7.09004594,34.31 C6.46643093,33.6657823 6.13084114,32.7961357 6.16004594,31.9 C6.1466018,31.720251 6.1466018,31.539749 6.16004594,31.36 L6.16004594,31.36 C6.23270317,30.8115329 6.44631975,30.2912732 6.78004594,29.85 L6.78004594,29.85 C7.44735278,28.9680239 8.49416288,28.4557551 9.60004594,28.47 C11.3035069,28.4382237 12.7627263,29.682852 13.0000459,31.37 L13.0000459,31.37 C13.0134901,31.549749 13.0134901,31.730251 13.0000459,31.91 C13.038752,32.8255311 12.7029665,33.7173486 12.0700459,34.38 L12.1000459,34.38 Z M41.1500459,34.52 C40.4619683,35.1905477 39.5302973,35.5516605 38.5700459,35.52 C37.6594531,35.5065147 36.7933369,35.1239801 36.1700459,34.46 C35.5453061,33.8198697 35.2062315,32.9541474 35.2300459,32.06 C35.2301553,31.8386432 35.2502367,31.6177477 35.2900459,31.4 L35.2900459,31.4 C35.3835099,30.8478287 35.6215856,30.330273 35.9800459,29.9 C36.6468989,29.0972034 37.6364103,28.6327884 38.6800459,28.6327884 C39.7236815,28.6327884 40.713193,29.0972034 41.3800459,29.9 C41.6687531,30.3294808 41.8786952,30.8069298 42.0000459,31.31 L42.0000459,31.44 C42.0371448,31.6583215 42.060524,31.8787536 42.0700459,32.1 C42.0853705,33.0004668 41.7438549,33.8704327 41.1200459,34.52 L41.1500459,34.52 Z M46.9100459,30.74 L43.0000459,30.74 C42.9447737,30.5163471 42.8677397,30.2986422 42.7700459,30.09 L46.8700459,30.09 L46.9100459,30.74 Z M11.6600459,31.2 C11.3315371,30.3692823 10.551731,29.8039229 9.66004594,29.75 L9.66004594,29.75 C8.71363204,29.7324318 7.86111941,30.3195396 7.54004594,31.21 C7.4599364,31.438435 7.41607231,31.6780005 7.41004594,31.92 C7.41353915,32.5388913 7.67873542,33.1274091 8.14004594,33.54 C8.52384076,33.9127747 9.0457733,34.1084994 9.58004594,34.08 L9.73004594,34.08 C10.2029843,34.0690421 10.6552294,33.8838709 11.0000459,33.56 C11.4773882,33.1502935 11.7604563,32.5587537 11.7800459,31.93 C11.7762241,31.6794179 11.7253409,31.4317863 11.6300459,31.2 L11.6600459,31.2 Z M11.3500459,31.93 C11.3289071,32.4261529 11.1003101,32.8906041 10.7200459,33.21 C10.4340972,33.4920909 10.0407587,33.6377719 9.64004594,33.61 L9.64004594,33.61 C9.22839125,33.6386897 8.82420908,33.4893972 8.53004594,33.2 C8.16378967,32.8759065 7.95588947,32.4090429 7.96004594,31.92 C7.96084584,31.7322189 7.99469571,31.5460446 8.06004594,31.37 C8.31277005,30.6684132 8.98446301,30.2058701 9.73004594,30.22 L9.73004594,30.22 C10.4182279,30.2865938 11.0101262,30.7353533 11.2600459,31.38 L11.4700459,31.29 L11.2600459,31.38 C11.3154083,31.5577317 11.3357843,31.7445118 11.3200459,31.93 L11.3500459,31.93 Z" id="path-1"></path>
    </defs>
    <g id="Asset-Artboard-Page" stroke="none" stroke-width="1" fill="none" fill-rule="evenodd">
        <g id="icons/products/red/A-car-home/a54-car" transform="translate(0.382023, 0.000000)">
            <g>
                <polygon id="Rectangle-path" fill-opacity="0" fill="#FFFFFF" fill-rule="nonzero" points="0 0 48 0 48 48 0 48"></polygon>
                <mask id="mask-2" fill="white">
                    <use xlink:href="#path-1"></use>
                </mask>
                <use id="Shape" fill="#C5281C" xlink:href="#path-1"></use>
                <polygon id="Color-Style" fill="#C5281C" mask="url(#mask-2)" points="0 0 48 0 48 48 0 48"></polygon>
            </g>
        </g>
    </g>
</svg>