<?xml version="1.0" encoding="UTF-8"?>
<svg width="49px" height="48px" viewBox="0 0 49 48" version="1.1" xmlns="http://www.w3.org/2000/svg" xmlns:xlink="http://www.w3.org/1999/xlink">
    <!-- Generator: sketchtool 60.1 (101010) - https://sketch.com -->
    <title>0C06CECC-8F0A-4EDB-9B15-06B69BA83F71</title>
    <desc>Created with sketchtool.</desc>
    <defs>
        <path d="M20.12,26.95 L17,26.95 L17,30.08 L14.88,30.08 L14.88,26.95 L11.75,26.95 L11.75,24.81 L14.88,24.81 L14.88,21.71 L17,21.71 L17,24.81 L20.13,24.81 L20.12,26.95 Z M23.24,11.81 C23.362664,11.9309348 23.5277475,11.9991215 23.7,12.0000188 C23.8726876,12.0013219 24.0385805,11.9328009 24.16,11.81 C24.4089515,11.5538579 24.4089515,11.1461421 24.16,10.89 L18.84,5.54 C18.585949,5.28594902 18.174051,5.28594902 17.92,5.54000001 C17.665949,5.79405099 17.665949,6.20594901 17.92,6.46 L23.24,11.81 Z M28.61,9.96 C28.9689851,9.96 29.26,9.66898509 29.26,9.31 L29.26,1.81 C29.3267524,1.54716233 29.2233136,1.27050231 29.000498,1.11592956 C28.7776824,0.961356813 28.4823176,0.961356813 28.259502,1.11592956 C28.0366864,1.27050231 27.9332476,1.54716233 28,1.81 L28,9.28 C27.9993482,9.62392709 28.2667241,9.90883584 28.61,9.93 L28.61,9.96 Z M33.52,11.96 C33.6937647,11.9775892 33.8671695,11.9234002 34,11.81 L39.3,6.46 C39.4643422,6.29565783 39.5285251,6.0561239 39.4683717,5.83162831 C39.4082183,5.60713273 39.2328673,5.43178172 39.0083717,5.37162831 C38.7838761,5.3114749 38.5443422,5.37565783 38.38,5.54 L33.06,10.86 C32.8110485,11.1161421 32.8110485,11.5238579 33.06,11.78 C33.1838145,11.8991865 33.3481661,11.9670709 33.52,11.97 L33.52,11.96 Z M48,32.99 L48,38.93 C47.9945166,40.3968001 46.8068001,41.5845166 45.34,41.59 L42.85,41.59 C42.5326862,44.4071718 40.1499858,46.536562 37.315,46.536562 C34.4800142,46.536562 32.0973138,44.4071718 31.78,41.59 L15.45,41.59 C15.1326862,44.4071718 12.7499858,46.536562 9.915,46.536562 C7.08001415,46.536562 4.69731383,44.4071718 4.38,41.59 L2.66,41.59 C1.19319988,41.5845166 0.00548342235,40.3968001 0,38.93 L0,18.22 C0,16.7492961 1.18930646,15.5555083 2.66,15.55 L24.79,15.55 C25.1194573,13.6984241 26.7293417,12.3497058 28.61,12.3497058 C30.4906583,12.3497058 32.1005427,13.6984241 32.43,15.55 L39.57,15.55 C40.6701291,15.5445802 41.658296,16.2219526 42.05,17.25 L43,19.63 L43,19.63 L43.23,20.23 L43.52,20.96 L43.52,20.96 L46.46,28.49 L47.84,32.02 C47.9524661,32.3307596 48.006705,32.6595833 48,32.99 Z M35.75,20.99 C35.0430755,20.99 34.47,21.5630755 34.47,22.27 L34.47,27.35 C34.47,28.0569245 35.0430755,28.63 35.75,28.63 L44.75,28.63 C44.8519644,28.6287267 44.9531342,28.611865 45.05,28.58 L42.05,20.99 L35.75,20.99 Z M26.15,15.58 L31.08,15.58 C30.7837963,14.4616893 29.7718732,13.6828974 28.615,13.6828974 C27.4581268,13.6828974 26.4462037,14.4616893 26.15,15.58 L26.15,15.58 Z M14.15,40.97 C14.1425889,40.7486015 14.1191947,40.5280275 14.08,40.31 C13.7598234,38.2436454 11.9810128,36.7192303 9.89,36.7192303 C7.79898721,36.7192303 6.02017662,38.2436454 5.7,40.31 C5.66422636,40.52828 5.64417478,40.7488473 5.64,40.97 C5.64511311,41.1911002 5.66515876,41.4116023 5.7,41.63 C6.02017662,43.6963546 7.79898721,45.2207697 9.89,45.2207697 C11.9810128,45.2207697 13.7598234,43.6963546 14.08,41.63 C14.1262145,41.4024069 14.1562894,41.1718327 14.17,40.94 L14.15,40.97 Z M41.55,40.97 C41.5458252,40.7488473 41.5257736,40.52828 41.49,40.31 C41.1698234,38.2436454 39.3910128,36.7192303 37.3,36.7192303 C35.2089872,36.7192303 33.4301766,38.2436454 33.11,40.31 C33.0658726,40.5272952 33.0424345,40.7482828 33.04,40.97 C33.0435147,41.1916528 33.0669423,41.4125412 33.11,41.63 C33.4301766,43.6963546 35.2089872,45.2207697 37.3,45.2207697 C39.3910128,45.2207697 41.1698234,43.6963546 41.49,41.63 C41.5333949,41.3988834 41.5601303,41.164948 41.57,40.93 L41.55,40.97 Z M46.66,33.03 C46.6601996,32.8625388 46.6296953,32.6964601 46.57,32.54 L45.53,29.81 L45.3,29.81 L45.14,29.81 C45.0068487,29.8198535 44.8731513,29.8198535 44.74,29.81 L35.74,29.81 C34.2985368,29.81 33.13,28.6414632 33.13,27.2 L33.13,22.24 C33.13,20.7985368 34.2985368,19.63 35.74,19.63 L41.55,19.63 L40.81,17.73 C40.6058886,17.2180842 40.1111049,16.8816313 39.56,16.88 L2.66,16.88 C1.91993844,16.88 1.32,17.4799384 1.32,18.22 L1.32,38.93 C1.32,39.6700616 1.91993844,40.27 2.66,40.27 L4.38,40.27 C4.69731383,37.4528282 7.08001415,35.323438 9.915,35.323438 C12.7499858,35.323438 15.1326862,37.4528282 15.45,40.27 L31.78,40.27 C32.0973138,37.4528282 34.4800142,35.323438 37.315,35.323438 C40.1499858,35.323438 42.5326862,37.4528282 42.85,40.27 L45.34,40.27 C46.0800616,40.27 46.68,39.6700616 46.68,38.93 L46.66,33.03 Z M23.1400001,29.5 L23.1400001,22.28 C23.1400001,20.507166 21.702834,19.07 19.93,19.07 L12,19.07 C10.225541,19.07 8.78551074,20.5055496 8.78,22.28 L8.78,29.5 C8.78551074,31.2744504 10.225541,32.71 12,32.71 L20,32.71 C21.7454382,32.6719285 23.1404152,31.2458533 23.1400001,29.5 L23.1400001,29.5 Z M19.93,20.42 C20.9549767,20.4254667 21.7845333,21.2550233 21.79,22.28 L21.79,29.5 C21.79,30.5288798 20.9588651,31.364498 19.93,31.37 L12,31.37 C11.5040452,31.37 11.0284033,31.1729827 10.6777103,30.8222897 C10.3270173,30.4715967 10.13,29.9959548 10.13,29.5 L10.13,22.28 C10.135502,21.2511349 10.9711202,20.42 12,20.42 L19.93,20.42 Z" id="path-1"></path>
    </defs>
    <g id="Asset-Artboard-Page" stroke="none" stroke-width="1" fill="none" fill-rule="evenodd">
        <g id="icons/products/red/B-life-health/b10-assistance-services" transform="translate(0.382023, 0.000000)">
            <g>
                <polygon id="Rectangle-path" fill-opacity="0" fill="#FFFFFF" fill-rule="nonzero" points="0 0 48 0 48 48 0 48"></polygon>
                <mask id="mask-2" fill="white">
                    <use xlink:href="#path-1"></use>
                </mask>
                <use id="Shape" fill="#C5281C" fill-rule="nonzero" xlink:href="#path-1"></use>
                <polygon id="Color-Style" fill="#C5281C" mask="url(#mask-2)" points="0 0 48 0 48 48 0 48"></polygon>
            </g>
        </g>
    </g>
</svg>