<?xml version="1.0" encoding="UTF-8"?>
<svg width="49px" height="46px" viewBox="0 0 49 46" version="1.1" xmlns="http://www.w3.org/2000/svg" xmlns:xlink="http://www.w3.org/1999/xlink">
    <!-- Generator: sketchtool 60.1 (101010) - https://sketch.com -->
    <title>D0946F4F-94A5-457E-A01F-68529FBFFB85</title>
    <desc>Created with sketchtool.</desc>
    <defs>
        <path d="M46.6779,36.2660163 C46.6779,36.9742246 46.0759,37.550183 45.3369,37.550183 L42.8519,37.550183 C42.5229,34.9013496 40.1679,32.838058 37.3159,32.838058 C34.4649,32.838058 32.1109,34.9013496 31.7819,37.550183 L15.4539,37.550183 C15.1249,34.9013496 12.7699,32.838058 9.9179,32.838058 C7.0669,32.838058 4.7119,34.9013496 4.3829,37.550183 L2.6629,37.550183 C1.9239,37.550183 1.3219,36.9742246 1.3219,36.2660163 L1.3219,33.424558 C1.3219,32.6607663 1.9869,32.038808 2.7879,32.038808 L28.9939,32.038808 L28.9939,32.0349746 C29.8819,32.0349746 30.6039,31.3420996 30.6039,30.4910996 L30.6039,26.0952247 L30.6709,26.0405997 L30.6039,25.9658497 L30.6039,15.3973497 L30.6089,15.3973497 C30.6089,15.2670164 30.7229,15.1577664 30.8589,15.1577664 L39.5699,15.1357247 C40.1179,15.1357247 40.6189,15.4634747 40.8179,15.953183 L41.5609,17.7768913 L35.7499,17.7768913 C34.3139,17.7768913 33.1439,18.897183 33.1439,20.274308 L33.1439,25.1435997 C33.1439,25.754058 33.3829,26.306058 33.7639,26.7411413 C33.9209,26.9193913 34.0929,27.0832663 34.2939,27.2135997 C34.7099,27.4828913 35.2119,27.6410163 35.7499,27.6410163 L44.7349,27.6410163 C44.8719,27.6410163 45.0079,27.6304747 45.1419,27.6093913 C45.1999,27.6007663 45.2559,27.5815997 45.3129,27.5691413 C45.3859,27.5528497 45.4589,27.5413497 45.5299,27.519308 L46.5859,30.109683 C46.6469,30.259183 46.6779,30.4163496 46.6779,30.5773496 L46.6779,36.2660163 Z M37.3159,42.2623087 C34.9699,42.2623087 33.0609,40.4328504 33.0609,38.1836422 C33.0609,35.9353923 34.9699,34.105934 37.3159,34.105934 C39.6629,34.105934 41.5729,35.9353923 41.5729,38.1836422 C41.5729,40.4328504 39.6629,42.2623087 37.3159,42.2623087 L37.3159,42.2623087 Z M9.9179,42.2623087 C7.5719,42.2623087 5.6619,40.4328504 5.6619,38.1836422 C5.6619,35.9353923 7.5719,34.105934 9.9179,34.105934 C12.2649,34.105934 14.1749,35.9353923 14.1749,38.1836422 C14.1749,40.4328504 12.2649,42.2623087 9.9179,42.2623087 L9.9179,42.2623087 Z M4.4439,4.24426665 L4.4439,3.61655831 L4.4439,1.30409994 L6.7949,1.30409994 L29.2449,26.447892 L29.2449,30.4911004 C29.2449,30.6214337 29.1299,30.731642 28.9939,30.731642 L28.9939,30.7354754 L28.0799,30.7354754 L4.4439,4.24426665 Z M45.0439,26.3242657 C44.9419,26.3491824 44.8409,26.3731407 44.7349,26.3731407 L35.7499,26.3731407 C35.0429,26.3731407 34.4669,25.8220991 34.4669,25.1435991 L34.4669,20.2743075 C34.4669,20.1046825 34.5019,19.9427242 34.5679,19.7960992 C34.7629,19.3552659 35.2199,19.0447659 35.7499,19.0447659 L42.0779,19.0447659 L45.0439,26.3242657 Z M47.8189,29.6496836 L46.3879,26.1421835 L43.4979,19.0447668 L43.4989,19.0447668 L43.2429,18.4180168 L42.9819,17.7768918 L42.9819,17.7768918 L42.0509,15.4931834 C41.6499,14.5051418 40.6759,13.8678501 39.5699,13.8678501 L30.7189,13.8678501 C29.9899,13.9291834 29.3999,14.4533918 29.2779,15.1357251 C29.2619,15.2210168 29.2499,15.3072668 29.2499,15.3973501 L29.2449,15.3973501 L29.2449,24.4440168 L7.6249,0.228850002 C7.4959,0.083183334 7.3059,-0.000191666662 7.1079,-0.000191666662 L3.7639,-0.000191666662 C3.3879,-0.000191666662 3.0849,0.292100002 3.0849,0.651475005 L3.0849,3.61655836 L3.0849,4.48480837 L3.0849,19.6916418 L4.4269,19.6916418 C5.9619,19.8928918 7.1529,21.1444752 7.1529,22.6701418 C7.1529,24.3347668 5.7389,25.6898502 4.0019,25.6898502 C2.8929,25.6898502 1.8519,25.1206002 1.2869,24.2044335 C1.0959,23.8948918 0.6789,23.7923502 0.3559,23.9744335 C0.0329,24.1584335 -0.0741,24.5580585 0.1169,24.8676002 C0.9259,26.1786002 2.4149,26.9931835 4.0019,26.9931835 C6.4889,26.9931835 8.5119,25.0535169 8.5119,22.6701418 C8.5119,20.4314752 6.7209,18.6068085 4.4439,18.3902251 L4.4439,6.24910005 L26.2909,30.7354752 L2.7879,30.7354752 C2.2489,30.7354752 1.7499,30.8878502 1.3219,31.1398919 C0.5839,31.5749752 0.0799,32.3224752 -0.0001,33.1916836 L-0.0001,33.4245586 L-0.0001,36.2660169 C-0.0001,37.6728503 1.1949,38.8180586 2.6629,38.8180586 L4.3829,38.8180586 C4.7119,41.4678503 7.0669,43.5301837 9.9179,43.5301837 C12.7699,43.5301837 15.1249,41.4678503 15.4539,38.8180586 L31.7819,38.8180586 C32.1109,41.4678503 34.4649,43.5301837 37.3159,43.5301837 C40.1679,43.5301837 42.5229,41.4678503 42.8519,38.8180586 L45.3369,38.8180586 C46.8049,38.8180586 47.9999,37.6728503 47.9999,36.2660169 L47.9999,30.5773502 C47.9999,30.2591836 47.9389,29.9467669 47.8189,29.6496836 L47.8189,29.6496836 Z" id="path-1"></path>
    </defs>
    <g id="Asset-Artboard-Page" stroke="none" stroke-width="1" fill="none" fill-rule="evenodd">
        <g id="icons/products/red/C-assistance-travel/c03-tow-truck" transform="translate(0.382023, 0.000000)">
            <g transform="translate(0.000000, 0.958333)">
                <mask id="mask-2" fill="white">
                    <use xlink:href="#path-1"></use>
                </mask>
                <use id="c03-tow-truck" fill="#C21B17" xlink:href="#path-1"></use>
                <polygon id="Color-Style" fill="#C5281C" mask="url(#mask-2)" points="0 -0.958333333 48 -0.958333333 48 45.0416667 0 45.0416667"></polygon>
            </g>
        </g>
    </g>
</svg>