<?xml version="1.0" encoding="UTF-8"?>
<svg width="49px" height="48px" viewBox="0 0 49 48" version="1.1" xmlns="http://www.w3.org/2000/svg" xmlns:xlink="http://www.w3.org/1999/xlink">
    <!-- Generator: sketchtool 60.1 (101010) - https://sketch.com -->
    <title>20ACD2EE-39D2-41B8-B943-E37C659EEB25</title>
    <desc>Created with sketchtool.</desc>
    <defs>
        <path d="M23.0372517,0.167168895 C23.3919095,-0.0557229649 23.8429051,-0.0557229649 24.1975629,0.167168895 L24.1975629,0.167168895 L34.8104092,6.41884558 L37.1310316,3.84815613 L37.3321291,3.65547953 C38.426434,2.65589601 39.8632497,2.10717866 41.3521637,2.1276947 C42.0295909,2.12625714 42.7035806,2.22398565 43.3527003,2.4177725 C43.6047176,2.44242329 43.8409504,2.55172503 44.02288,2.72785567 L44.02288,2.72785567 L44.114688,2.81754419 C44.2869028,3.00643884 44.3896097,3.25017808 44.4029819,3.50806492 C45.0981361,5.67663195 44.5447035,8.05177994 42.9625956,9.68972282 L42.9625956,9.68972282 L40.4119115,11.9903398 L46.4835399,22.4431433 C46.7166812,22.8452715 46.6420848,23.3550134 46.3034917,23.6734732 L46.3034917,23.6734732 L45.5832985,24.8037764 L45.5832985,24.8637925 C45.4059323,25.0927063 45.1487517,25.2463003 44.8631053,25.2939078 C44.5266491,25.352736 44.1834337,25.2358165 43.9528612,24.9838247 L43.9528612,24.9838247 L41.9523247,22.923272 C42.5931745,25.7548023 42.6272643,28.6899312 42.0523515,31.5355818 L42.0523515,31.5355818 L42.039557,31.6435565 C42.0251524,31.7144738 41.9991351,31.7827875 41.9623274,31.845665 C41.335119,34.6927438 40.1074483,37.3731581 38.3613616,39.7077736 C38.313434,39.8241507 38.2337041,39.9246799 38.1312999,39.9978514 C34.274231,45.0043067 28.3267563,47.955907 22.0069754,48 L22.0069754,48 L21.8969459,48 C14.160799,48.0037582 7.07768022,43.6636893 3.56822608,36.7693645 C0.0587719493,29.8750397 0.717382277,21.594158 5.27248723,15.3412385 C5.31514919,15.2356832 5.38399878,15.1427362 5.47254088,15.0711661 C9.35345973,9.90709478 15.4371344,6.86896247 21.8969459,6.8689663 L21.8969459,6.8689663 L22.4824666,6.87733666 C23.8478514,6.91627609 25.2064677,7.09096627 26.5381906,7.39910849 L26.5381906,7.39910849 L21.6568815,2.59782079 C21.4108681,2.35921384 21.2953581,2.01640989 21.3467983,1.67757398 C21.3932797,1.36021352 21.5759287,1.07893411 21.8469325,0.907367414 L21.8469325,0.907367414 Z M21.2067608,40.2679238 L14.9650868,40.2679238 C16.5255053,43.8988977 18.7260955,46.2995415 21.2067608,46.6796434 L21.2067608,46.6796434 L21.2067608,40.2679238 Z M28.8188023,40.2679238 L22.5771283,40.2679238 L22.5771283,40.2679238 L22.5763494,46.557 L22.7979767,46.5181133 C25.0986365,46.0447686 27.1602795,43.8285248 28.6697114,40.5946741 L28.8188023,40.2679238 Z M13.5347031,40.167897 L7.53309351,40.167897 C10.1365266,43.1004014 13.5744601,45.1666517 17.385736,46.0894852 C15.6725461,44.4307818 14.3561159,42.4065568 13.5347031,40.167897 L13.5347031,40.167897 Z M36.2708009,40.167897 L30.2691913,40.167897 C29.4473732,42.4034396 28.1308954,44.4243185 26.4181584,46.0794825 C30.2284483,45.1599884 33.6664051,43.0972144 36.2708009,40.167897 L36.2708009,40.167897 Z M30.8593496,32.3157911 L22.5771283,32.3157911 L22.5771283,32.3157911 L22.5771283,38.907559 L29.3389418,38.907559 C30.0828654,36.7718184 30.5926564,34.561606 30.8593496,32.3157911 L30.8593496,32.3157911 Z M21.2067608,32.2657777 L12.9603494,32.265 L13.0370325,32.8930593 C13.2766278,34.6962422 13.6731165,36.4750837 14.2219849,38.2093322 L14.4349446,38.8575456 L21.2067608,38.8575456 L21.2067608,38.8575456 L21.2067608,32.2657777 Z M40.491933,32.2157643 L32.2297171,32.2157643 C31.9743621,34.4570739 31.4883231,36.6660371 30.7793281,38.8075322 L30.7793281,38.8075322 L37.3510906,38.8075322 C38.8114459,36.8322501 39.8778043,34.5942559 40.491933,32.2157643 L40.491933,32.2157643 Z M11.5941827,32.2157643 L3.29195605,32.2157643 C3.90608475,34.5942559 4.97244316,36.8322501 6.43279842,38.8075322 L6.43279842,38.8075322 L12.9545475,38.8075322 C12.2763138,36.6627222 11.8204607,34.4538458 11.5941827,32.2157643 L11.5941827,32.2157643 Z M24.4076192,24.2436261 L22.5571229,24.2436261 L22.5571229,30.9454236 L31.0193925,30.9454236 C31.1194193,29.8351258 31.1694327,28.6848173 31.1694327,27.5145034 L31.1694327,27.5145034 L31.1494274,27.4144766 C31.1494274,26.3341868 31.0894113,25.2839052 30.9593764,24.2536288 L30.9593764,24.2536288 L28.2686547,24.2536288 L28.1886333,25.5139669 C28.1452898,25.9182636 27.8899412,26.2688915 27.5184535,26.4342137 C27.3887894,26.4882155 27.2485799,26.5121537 27.1083436,26.5042324 C26.8223547,26.5033889 26.5485988,26.3881233 26.3481397,26.1841466 L26.3481397,26.1841466 L24.4076192,24.2436261 Z M21.1967581,24.2736342 L12.7544939,24.2736342 C12.624459,25.3139132 12.624459,26.3041788 12.624459,27.46449 C12.624459,28.6248012 12.6744724,29.765107 12.7744992,30.8754048 L12.7744992,30.8754048 L21.2067608,30.8754048 L21.1967581,30.8553994 L21.1967581,30.8553994 L21.1967581,24.2736342 Z M2.95186484,24.2536288 C2.56555332,26.4406247 2.56555332,28.6784062 2.95186484,30.8654021 L2.95186484,30.8654021 L11.4141344,30.8654021 C11.3241103,29.765107 11.2740968,28.6248012 11.2740968,27.4544873 C11.2740968,26.3675291 11.3141076,25.3039105 11.394129,24.2636315 L11.394129,24.2636315 Z M40.8220215,24.2436261 L32.3697547,24.2436261 C32.4597788,25.2839052 32.5097922,26.2441627 32.5097922,27.4144766 C32.5097922,28.5847904 32.4597788,29.735099 32.3697547,30.8453967 L32.3697547,30.8453967 L40.8020162,30.8453967 C41.0078918,29.7133474 41.1116698,28.565094 41.1120993,27.4144766 L41.1120993,27.4144766 L41.1020967,27.4144766 C41.0968277,26.3515886 41.0031463,25.2909811 40.8220215,24.2436261 L40.8220215,24.2436261 Z M23.9574985,19.7924323 L22.0969995,19.9024619 L21.956962,19.9024619 L22.2770478,20.1325236 C22.3618987,20.185947 22.4336807,20.257729 22.4871041,20.3425799 L22.4871041,20.3425799 L26.8382711,24.7937737 L26.9583033,22.7932372 L23.9574985,19.7924323 Z M39.3716325,12.9906081 L36.6108921,15.4712734 L40.9120457,19.8524484 C40.9655007,19.8918207 41.0127109,19.939031 41.0520832,19.992486 L41.0520832,19.992486 L44.7030624,23.7234866 L45.1931939,22.9932908 L39.3716325,12.9906081 Z M30.5992798,20.9727489 L28.3986896,22.9732854 L30.8993603,22.9732854 C30.8193388,22.3064399 30.719312,21.6395944 30.5992798,20.9727489 L30.5992798,20.9727489 Z M14.3749285,16.2814907 C13.6497653,18.4264912 13.1568132,20.6430987 12.9045341,22.893264 L12.9045341,22.893264 L21.2067608,22.893264 L21.2067608,21.0427677 L20.5665891,20.402596 C20.2654382,20.0917869 20.1788414,19.6312491 20.3465301,19.2322821 C20.4819145,18.866323 20.8177472,18.612496 21.2067608,18.5821077 L21.2067608,18.5821077 L21.2067608,16.2914934 Z M35.5606104,16.3615122 L31.759591,19.802435 C31.9663131,20.8027033 32.1296903,21.8263112 32.2497225,22.8732586 L32.2497225,22.8732586 L40.5519491,22.8732586 C40.3934013,22.1760444 40.1963804,21.4881412 39.9617908,20.812706 L39.9617908,20.812706 L35.5606104,16.3615122 Z M12.9545475,16.2614854 L6.29276086,16.2614854 C4.86177363,18.2496906 3.82606528,20.4942913 3.24194264,22.8732586 L3.24194264,22.8732586 L11.554172,22.8732586 C11.7945573,20.6273915 12.2637858,18.4119626 12.9545475,16.2614854 L12.9545475,16.2614854 Z M22.5571229,22.3831272 L22.5571229,22.8732586 L23.0972678,22.8732586 L22.5571229,22.3831272 Z M41.3621664,3.47805687 C40.1460077,3.4576701 38.9733662,3.93033483 38.1112945,4.7884083 L38.1112945,4.7884083 L35.5506078,7.60916482 C35.5291337,7.6555022 35.5022747,7.69914803 35.4705863,7.7391997 L35.4705863,7.7391997 L31.9096313,11.6802567 C31.859653,11.7290073 31.8022579,11.7695215 31.7395856,11.8002889 L31.7395856,11.8002889 L27.9585716,15.9914129 L27.8885528,16.0814371 L25.1978312,19.0822419 L27.7385126,21.6229233 L35.1304951,14.9211259 C35.1889969,14.866332 35.2567232,14.8223099 35.3305487,14.791091 L35.3305487,14.791091 L39.1115628,11.3601708 L39.231595,11.2801494 L42.0923622,8.68945455 C43.301784,7.37199908 43.6863932,5.49510589 43.0926305,3.8081454 L43.0926305,3.8081454 L43.0926305,3.72812394 L43.0226117,3.72812394 C42.485258,3.5599842 41.9252065,3.47563909 41.3621664,3.47805687 Z M25.9180243,16.271488 L22.5771283,16.271488 L22.5771283,16.271488 L22.5771283,18.4920836 L23.9574985,18.4320675 L25.9180243,16.271488 Z M22.5571229,8.28934725 L22.5571229,14.9011205 L27.1483543,14.9011205 L28.2686547,13.6207771 C26.7082362,10.5199455 24.667689,8.62943846 22.5571229,8.28934725 L22.5571229,8.28934725 Z M21.2067608,8.28934725 C18.6860847,8.66944919 16.4454838,11.1601172 14.8850653,14.9011205 L14.8850653,14.9011205 L21.2067608,14.9011205 L21.2067608,14.9011205 Z M17.3457252,8.7794787 C13.4806328,9.74182546 10.0098632,11.8809101 7.41306132,14.9011205 L7.41306132,14.9011205 L13.4146709,14.9011205 C14.2377076,12.585855 15.5828086,10.4911939 17.3457252,8.7794787 Z M26.3781477,8.76947602 C27.5514824,9.85223781 28.5264253,11.1318504 29.2589203,12.5504901 L29.2589203,12.5504901 L30.4392369,11.2401386 L28.5887406,9.39964503 L28.4787111,9.39964503 C27.7911599,9.14956288 27.0898182,8.93916037 26.3781477,8.76947602 Z M23.6074046,1.40750155 L22.8672061,1.87762764 L31.3994944,10.2498731 L33.9101678,7.46912726 L23.6074046,1.40750155 Z M39.9339486,4.28839148 L40.0318096,4.29827685 C40.69108,4.45551581 41.2894534,4.80340733 41.752271,5.29854512 C42.1507021,5.6807143 42.4494818,6.15464079 42.6225044,6.67891533 C42.67519,6.85268501 42.6562076,7.04030685 42.5697842,7.20000237 C42.4833607,7.35969788 42.3366717,7.47820791 42.162381,7.52914336 L42.162381,7.52914336 L41.9623274,7.52914336 C41.660951,7.52784993 41.3963591,7.32838838 41.312153,7.03901191 C41.2023011,6.73066505 41.0205703,6.45292539 40.7820108,6.22879461 C40.5106772,5.94197909 40.1640025,5.73744099 39.7817425,5.63863633 L39.7817425,5.63863633 L39.7517345,5.62863365 C39.3961569,5.54057436 39.1741852,5.18673353 39.2496508,4.82827182 C39.3251164,4.46981012 39.6709097,4.23549877 40.0318096,4.29827685 Z" id="path-1"></path>
    </defs>
    <g id="Asset-Artboard-Page" stroke="none" stroke-width="1" fill="none" fill-rule="evenodd">
        <g id="icons/products/red/C-assistance-travel/c2-holiday-and-journey-2" transform="translate(0.382023, 0.000000)">
            <g>
                <polygon id="Rectangle-path" fill-opacity="0" fill="#FFFFFF" fill-rule="nonzero" points="0 0 48 0 48 48 0 48"></polygon>
                <mask id="mask-2" fill="white">
                    <use xlink:href="#path-1"></use>
                </mask>
                <use id="c02-holiday-and-journey-2" fill="#C5281C" fill-rule="nonzero" xlink:href="#path-1"></use>
                <polygon id="Color-Style" fill="#C5281C" mask="url(#mask-2)" points="0 0 48 0 48 48 0 48"></polygon>
            </g>
        </g>
    </g>
</svg>