<?xml version="1.0" encoding="UTF-8"?>
<svg width="49px" height="48px" viewBox="0 0 49 48" version="1.1" xmlns="http://www.w3.org/2000/svg" xmlns:xlink="http://www.w3.org/1999/xlink">
    <!-- Generator: sketchtool 60.1 (101010) - https://sketch.com -->
    <title>76116E0B-BB03-4D54-B7BA-0D06D4235716</title>
    <desc>Created with sketchtool.</desc>
    <defs>
        <path d="M1.98491064,47.9891832 C1.46252359,48.0119126 0.954124211,47.8100068 0.578832222,47.4307729 C0.203540233,47.051539 -0.00566347643,46.5283043 0.000116674843,45.9836645 L0.000116674843,9.42946929 C0.0129963082,8.57036554 0.534454194,7.80901761 1.31012202,7.51699018 L1.54828271,7.51699018 C4.8130688,6.65895901 32.4198618,0.652740848 34.9999359,0.094503704 C36.0637777,-0.156139979 37.1795407,0.097533178 38.046408,0.787131272 C38.8030327,1.57134628 39.273302,2.6059985 39.3761385,3.71270742 C39.3761385,3.71270742 39.3761385,3.90912419 39.3761385,4.10554096 C39.3761385,4.45702361 39.3761385,4.94289668 39.3761385,5.26336615 C39.4012074,5.45811842 39.3431914,5.6545437 39.2173647,5.80092785 C39.0974075,5.9446156 38.9238364,6.02749086 38.7410434,6.0283578 L38.7410434,6.0283578 C38.3754777,6.03071513 38.0671735,5.74522372 38.0265613,5.3667434 C38.0265613,5.30471705 38.0265613,5.03593621 38.0265613,4.73614218 C38.0265613,4.43634816 38.0265613,3.90912419 38.0265613,3.76439604 C37.9697919,3.05567024 37.653575,2.39682838 37.1433821,1.92428101 C36.7502596,1.63709954 36.2837906,1.47871681 35.8037282,1.46942112 C35.6052003,1.46975409 35.407844,1.50111637 35.2182499,1.56246064 C33.630512,1.89326784 25.3941215,3.74372059 17.4256619,5.532147 L9.42743211,7.33091113 L46.0644845,7.41361293 C46.5793186,7.40802569 47.0746299,7.6186153 47.4386923,7.99787963 C47.8027547,8.37714397 48.0049034,8.89313762 47.9997767,9.42946929 L47.9997767,45.9836645 C48.0076622,46.5208521 47.8064,47.0385239 47.4417312,47.4184199 C47.0770623,47.798316 46.5801402,48.0079821 46.0644845,47.9997674 L1.98491064,47.9891832 Z M1.40935564,45.9733268 C1.40935564,46.3044701 1.66704039,46.5729148 1.98491064,46.5729148 L46.0545611,46.5729148 C46.3724314,46.5729148 46.6301161,46.3044701 46.6301161,45.9733268 L46.6301161,43.1201147 L1.39943228,43.1201147 L1.40935564,45.9733268 Z M1.40935564,41.6108069 L46.600346,41.6108069 L46.600346,36.307554 L38.8105069,36.307554 C37.302463,36.307554 35.8561847,35.6834711 34.7898366,34.5725962 C33.7234886,33.4617214 33.1244205,31.9550519 33.1244205,30.3840377 L33.1244205,25.0187584 C33.1244205,23.4477442 33.7234886,21.9410746 34.7898366,20.8301998 C35.8561847,19.719325 37.302463,19.0952421 38.8105069,19.0952421 L46.5606526,19.0952421 L46.5606526,13.5335461 L1.32996875,13.5335461 L1.40935564,41.6108069 Z M38.8898938,20.5218481 C36.5003864,20.5218481 34.5632608,22.5398118 34.5632608,25.0290962 L34.5632608,30.3426868 C34.552308,32.8165501 36.4656036,34.8328607 38.840277,34.8499348 L46.5904227,34.8499348 L46.5904227,20.563199 L38.8898938,20.5218481 Z M1.98491064,8.82988124 C1.66704039,8.82988124 1.40935564,9.09832595 1.40935564,9.42946929 L1.40935564,12.034576 L46.600346,12.034576 L46.600346,9.38811839 C46.600346,9.05697505 46.3426613,8.78853034 46.0247911,8.78853034 L1.98491064,8.82988124 Z M40.3287813,29.7430987 C39.1011445,29.7430987 38.1059482,28.7063467 38.1059482,27.4274483 C38.0764176,26.8232753 38.2925579,26.2340921 38.7013499,25.8044255 C39.1229646,25.3418261 39.7065621,25.0770063 40.3188579,25.0704471 C41.1466357,25.0127327 41.9363755,25.4400517 42.3670908,26.1787219 C42.7978062,26.9173922 42.7978062,27.8444649 42.3670908,28.5831352 C41.9363755,29.3218055 41.1466357,29.7491244 40.3188579,29.6914101 L40.3287813,29.7430987 Z" id="path-1"></path>
    </defs>
    <g id="Asset-Artboard-Page" stroke="none" stroke-width="1" fill="none" fill-rule="evenodd">
        <g id="icons/products/red/D-investments/d11-wallet" transform="translate(0.382023, 0.000000)">
            <g>
                <polygon id="Rectangle-path" fill-opacity="0" fill="#FFFFFF" fill-rule="nonzero" points="1.13686838e-13 -2.91038305e-11 48 -2.91038305e-11 48 48 1.13686838e-13 48"></polygon>
                <mask id="mask-2" fill="white">
                    <use xlink:href="#path-1"></use>
                </mask>
                <use id="Mask" fill="#FFFFFF" xlink:href="#path-1"></use>
                <polygon id="Color-Style" fill="#C5281C" mask="url(#mask-2)" points="-1.42108547e-14 2.91038305e-11 48 2.91038305e-11 48 48 -1.42108547e-14 48"></polygon>
            </g>
        </g>
    </g>
</svg>