<?xml version="1.0" encoding="UTF-8"?>
<svg width="49px" height="48px" viewBox="0 0 49 48" version="1.1" xmlns="http://www.w3.org/2000/svg" xmlns:xlink="http://www.w3.org/1999/xlink">
    <!-- Generator: sketchtool 60.1 (101010) - https://sketch.com -->
    <title>C9D220F4-CEA9-4143-88E3-0982BD12ACD3</title>
    <desc>Created with sketchtool.</desc>
    <defs>
        <path d="M36.767,24.5205 C36.441,24.4755 36.105,24.4755 35.77,24.4755 C33.496,24.4865 31.281,25.1965 29.434,26.5235 C29.096,26.7625 28.772,27.0195 28.464,27.2945 C27.938,27.7575 27.459,28.2705 27.032,28.8265 C25.031,31.4585 24.328,34.8535 25.119,38.0635 C25.215,38.4595 25.333,38.8585 25.473,39.2415 C27.035,43.5875 31.153,46.4055 35.77,46.4125 C41.442,46.4125 46.179,42.0885 46.694,36.4395 C47.245,30.4075 42.8,25.0705 36.767,24.5205 L36.767,24.5205 Z M39.737,47.0285 C33.36,49.2055 26.426,45.8825 24.248,39.5045 C24.114,39.1185 23.999,38.7155 23.904,38.3175 C22.852,33.9325 24.31,29.3245 27.693,26.3425 C28.003,26.0695 28.327,25.8125 28.663,25.5725 C30.731,24.0845 33.214,23.2915 35.761,23.2875 L36.069,23.2875 C36.582,23.2975 37.094,23.3405 37.601,23.4145 C42.112,24.0895 45.87,27.2235 47.343,31.5405 C49.52,37.9175 46.115,44.8525 39.737,47.0285 L39.737,47.0285 Z M42.179,29.8325 L41.762,29.3065 C41.554,29.0195 41.151,28.9545 40.863,29.1635 C40.808,29.2035 40.76,29.2515 40.72,29.3065 L33.295,38.8065 L31.174,36.0875 L30.767,35.5615 C30.642,35.3965 30.447,35.2995 30.241,35.2985 C30.241,35.2985 30.177,35.2985 30.175,35.3015 C30.006,35.3235 29.844,35.4095 29.737,35.5435 L29.392,35.9785 C29.33,36.0625 29.298,36.1585 29.27,36.2595 C29.184,36.5205 29.22,36.8085 29.37,37.0395 L29.705,37.4655 L33.059,41.7525 C33.133,41.8435 33.243,41.8965 33.359,41.8975 C33.475,41.8975 33.586,41.8445 33.658,41.7525 L42.179,30.8745 C42.399,30.5625 42.399,30.1455 42.179,29.8325 L42.179,29.8325 Z M18.456,9.1105 C18.456,9.5855 18.842,9.9715 19.317,9.9715 C19.793,9.9715 20.179,9.5855 20.179,9.1105 C20.179,8.6345 19.793,8.2495 19.317,8.2495 C18.842,8.2495 18.456,8.6345 18.456,9.1105 L18.456,9.1105 Z M12.065,9.1105 C12.065,9.5855 12.451,9.9715 12.927,9.9715 C13.402,9.9715 13.788,9.5855 13.788,9.1105 C13.788,8.6345 13.402,8.2495 12.927,8.2495 C12.451,8.2495 12.065,8.6345 12.065,9.1105 L12.065,9.1105 Z M7.415,10.7505 C7.415,16.0085 11.322,20.2875 16.126,20.2875 C20.931,20.2875 24.838,16.0085 24.838,10.7505 C24.838,5.4935 20.922,1.2505 16.118,1.2505 C11.313,1.2505 7.406,5.5295 7.406,10.7875 L7.415,10.7505 Z M21.203,38.6805 C21.293,39.0875 21.393,39.4865 21.511,39.8855 C19.704,40.0595 17.888,40.1405 16.072,40.1305 C5.439,40.1305 0,37.7465 0,33.0415 C0,29.4245 3.871,23.4965 10.08,20.1335 L10.334,19.9975 L10.434,19.9425 L10.687,19.8155 C7.79,17.7135 6.099,14.3305 6.155,10.7505 C6.155,4.8225 10.651,-0.000499999995 16.126,-0.000499999995 C21.601,-0.000499999995 26.043,4.8225 26.089,10.7415 C26.135,14.3295 24.426,17.7135 21.511,19.8065 L21.756,19.9425 C23.453,20.8425 25.034,21.9445 26.465,23.2235 C26.582,23.3285 26.699,23.4345 26.814,23.5415 C26.475,23.7955 26.152,24.0615 25.844,24.3395 C25.748,24.2505 25.652,24.1635 25.555,24.0765 C24.046,22.7305 22.359,21.5995 20.541,20.7135 L20.205,20.5685 C17.637,21.8485 14.616,21.8485 12.047,20.5685 L11.422,20.8495 C6.608,23.1875 1.242,28.7905 1.242,33.0415 C1.242,36.9215 6.227,38.8885 16.072,38.8885 C17.952,38.8885 19.662,38.8185 21.203,38.6805 L21.203,38.6805 Z" id="path-1"></path>
    </defs>
    <g id="Asset-Artboard-Page" stroke="none" stroke-width="1" fill="none" fill-rule="evenodd">
        <g id="icons/products/red/E-people/e03-household-content-insurance" transform="translate(0.382023, 0.000000)">
            <polygon id="Rectangle-path" fill-opacity="0" fill="#FFFFFF" fill-rule="nonzero" points="0 0 48 0 48 48 0 48"></polygon>
            <mask id="mask-2" fill="white">
                <use xlink:href="#path-1"></use>
            </mask>
            <use id="e3-household-content-insurance" fill="#C5281C" xlink:href="#path-1"></use>
            <polygon id="Color-Style" fill="#C5281C" mask="url(#mask-2)" points="0 0 48 0 48 48 0 48"></polygon>
        </g>
    </g>
</svg>