<svg xmlns="http://www.w3.org/2000/svg" xmlns:xlink="http://www.w3.org/1999/xlink" viewBox="0 0 38.5 44"><defs><style>.cls-1{fill:none;}.cls-2{clip-path:url(#clip-path);}.cls-3{fill:#d93b3f;}.cls-4{fill:#848484;}</style><clipPath id="clip-path" transform="translate(-4.75 -2)"><rect class="cls-1" width="48" height="48"/></clipPath></defs><title>ico-sucursales</title><g id="Layer_2" data-name="Layer 2"><g id="Layer_1-2" data-name="Layer 1"><g class="cls-2"><rect class="cls-3" x="11" y="22" width="5.5" height="5.5" rx="1.03" ry="1.03"/><path class="cls-4" d="M26.72,33H21.28a1,1,0,0,0-1,1v9.22h7.5V34A1,1,0,0,0,26.72,33Z" transform="translate(-4.75 -2)"/><rect class="cls-3" x="11" y="13.75" width="5.5" height="5.5" rx="1.03" ry="1.03"/><rect class="cls-3" x="11" y="5.5" width="5.5" height="5.5" rx="1.03" ry="1.03"/><rect class="cls-3" x="22" y="22" width="5.5" height="5.5" rx="1.03" ry="1.03"/><rect class="cls-3" x="22" y="13.75" width="5.5" height="5.5" rx="1.03" ry="1.03"/><rect class="cls-3" x="22" y="5.5" width="5.5" height="5.5" rx="1.03" ry="1.03"/><path class="cls-4" d="M37.44,3.5a.56.56,0,0,1,.56.56V43.25a1.5,1.5,0,0,0,.67,1.25H9.33A1.5,1.5,0,0,0,10,43.25V4.06a.56.56,0,0,1,.56-.56H37.44m0-1.5H10.56A2.06,2.06,0,0,0,8.5,4.06V43.25H5.78a1,1,0,0,0-1,1V46h38.5V44.28a1,1,0,0,0-1-1H39.5V4.06A2.06,2.06,0,0,0,37.44,2Z" transform="translate(-4.75 -2)"/><polygon class="cls-4" points="36.25 41.25 3.25 41.25 3.25 44 36.25 44 36.25 41.25 36.25 41.25"/></g></g></g></svg>