<svg xmlns="http://www.w3.org/2000/svg" xmlns:xlink="http://www.w3.org/1999/xlink" viewBox="0 0 37.5 42.64"><defs><style>.cls-1,.cls-3,.cls-4{fill:none;}.cls-2{clip-path:url(#clip-path);}.cls-3,.cls-4{stroke:#848484;stroke-width:1.5px;}.cls-4{stroke-linecap:round;stroke-linejoin:round;}.cls-5{fill:#848484;}.cls-6{fill:#d93b3f;}</style><clipPath id="clip-path" transform="translate(-5.25 -2.68)"><rect class="cls-1" width="48" height="48"/></clipPath></defs><title>ico-enviar</title><g id="Layer_2" data-name="Layer 2"><g id="Layer_1-2" data-name="Layer 1"><g class="cls-2"><path class="cls-3" d="M38.14,3.43H9.86A4,4,0,0,0,6,7.29V40.71a4,4,0,0,0,3.86,3.86H38.14A4,4,0,0,0,42,40.71V7.29A4,4,0,0,0,38.14,3.43Z" transform="translate(-5.25 -2.68)"/><line class="cls-4" x1="13.75" y1="26.32" x2="29.75" y2="26.32"/><line class="cls-4" x1="13.75" y1="34.32" x2="29.75" y2="34.32"/><circle class="cls-5" cx="8.75" cy="34.32" r="2"/><line class="cls-4" x1="13.75" y1="18.32" x2="29.75" y2="18.32"/><circle class="cls-5" cx="8.75" cy="18.32" r="2"/><line class="cls-4" x1="13.75" y1="10.32" x2="29.75" y2="10.32"/><circle class="cls-5" cx="8.75" cy="10.32" r="2"/><circle class="cls-5" cx="8.75" cy="26.32" r="2"/><path class="cls-6" d="M37.15,7.83A3.22,3.22,0,0,0,34.8,7a2.67,2.67,0,0,0-.85.14,3.43,3.43,0,0,0-.8.39q-.37.24-.64.46a6.24,6.24,0,0,0-.51.46A6.15,6.15,0,0,0,31.49,8q-.27-.21-.64-.46a3.43,3.43,0,0,0-.8-.39A2.67,2.67,0,0,0,29.2,7a3.22,3.22,0,0,0-2.35.83,3.07,3.07,0,0,0-.85,2.3,2.94,2.94,0,0,0,.16.92,4.06,4.06,0,0,0,.36.81,5.92,5.92,0,0,0,.46.65q.25.32.37.44l.18.17,4.18,4a.42.42,0,0,0,.59,0l4.17-4a4.38,4.38,0,0,0,1.53-3,3.07,3.07,0,0,0-.85-2.3Zm0,0" transform="translate(-5.25 -2.68)"/></g></g></g></svg>