<svg xmlns="http://www.w3.org/2000/svg" viewBox="0 0 48 48"><defs><style>.cls-1{fill:none;stroke:#adadad;}.cls-2{fill:#d93b3f;}</style></defs><title>ico-medios-pago-2</title><g id="Layer_2" data-name="Layer 2"><g id="Layer_1-2" data-name="Layer 1"><circle class="cls-1" cx="24" cy="24" r="23.5"/><path class="cls-2" d="M33.7,12.3A1,1,0,0,0,33,12H15a1,1,0,0,0-1,1V25a7.17,7.17,0,0,0,.52,2.66A9.91,9.91,0,0,0,15.82,30a14.47,14.47,0,0,0,1.84,2,21.43,21.43,0,0,0,2,1.61q.91.64,1.89,1.21t1.4.77l.66.31a.93.93,0,0,0,.81,0l.66-.31q.41-.2,1.4-.77t1.89-1.21a21.39,21.39,0,0,0,2-1.61,14.46,14.46,0,0,0,1.84-2,10,10,0,0,0,1.3-2.34A7.17,7.17,0,0,0,34,25V13a1,1,0,0,0-.3-.7ZM31,25q0,2.75-3.67,5.63A22.1,22.1,0,0,1,24,32.77V15h7Zm0,0"/></g></g></svg>