<svg xmlns="http://www.w3.org/2000/svg" xmlns:xlink="http://www.w3.org/1999/xlink" viewBox="0 0 37.5 42.64"><defs><style>.cls-1,.cls-3{fill:none;}.cls-2{clip-path:url(#clip-path);}.cls-3{stroke:#848484;}.cls-3,.cls-4{stroke-width:1.5px;}.cls-4{fill:#d93b3f;stroke:#d93b3f;stroke-miterlimit:10;}</style><clipPath id="clip-path" transform="translate(-5.25 -2.68)"><rect class="cls-1" width="48" height="48"/></clipPath></defs><title>ico-cotizar</title><g id="Layer_2" data-name="Layer 2"><g id="Layer_1-2" data-name="Layer 1"><g class="cls-2"><rect class="cls-3" x="16.18" y="31.61" width="5.14" height="5.14" rx="1.03" ry="1.03"/><rect class="cls-3" x="5.89" y="21.32" width="5.14" height="5.14" rx="1.03" ry="1.03"/><rect class="cls-3" x="16.18" y="21.32" width="5.14" height="5.14" rx="1.03" ry="1.03"/><rect class="cls-3" x="5.89" y="31.61" width="5.14" height="5.14" rx="1.03" ry="1.03"/><rect class="cls-4" x="26.46" y="21.32" width="5.14" height="15.43" rx="1.03" ry="1.03"/><rect class="cls-3" x="5.89" y="5.89" width="25.71" height="10.29" rx="1.03" ry="1.03"/><path class="cls-3" d="M38.14,3.43H9.86A4,4,0,0,0,6,7.29V40.71a4,4,0,0,0,3.86,3.86H38.14A4,4,0,0,0,42,40.71V7.29A4,4,0,0,0,38.14,3.43Z" transform="translate(-5.25 -2.68)"/></g></g></g></svg>