<?xml version="1.0" encoding="utf-8"?>
<!-- Generator: Adobe Illustrator 19.0.0, SVG Export Plug-In . SVG Version: 6.00 Build 0)  -->
<svg version="1.1" id="Layer_1" xmlns="http://www.w3.org/2000/svg" xmlns:xlink="http://www.w3.org/1999/xlink" x="0px" y="0px"
	 viewBox="0 0 90 90" style="enable-background:new 0 0 90 90;" xml:space="preserve">
<style type="text/css">
	.st0{fill:#FFFFFF;}
	.st1{fill:#1B4073;}
	.st2{fill-rule:evenodd;clip-rule:evenodd;fill:#FFFFFF;}
	.st3{fill:#D63C3E;}
</style>
<g>
	<polygon class="st0" points="50.8,90 53.8,87.1 87.1,87.1 87.1,53.8 90,50.8 90,0 0,0 0,90 	"/>
	<polygon class="st1" points="86.7,50.6 86.7,3.3 3.3,3.3 3.3,86.7 50.6,86.7 	"/>
	<g>
		<path class="st0" d="M56.9,34.6v-1.1H48v1.1h0.6c0.9,0,1.5,0.2,1.8,0.5c0.3,0.3,0.4,0.6,0.4,1.1v14.6c0,1.6-0.2,2.5-0.8,3.1
			c-0.3,0.3-0.8,0.5-1.4,0.5c-0.6,0-1.3-0.3-2.1-0.7l-0.6-0.3c-0.1-0.1-0.3-0.1-0.6-0.1c-0.4,0-0.7,0.1-1,0.4
			c-0.2,0.2-0.4,0.5-0.4,0.9c0,0.9,1.1,1.5,2.8,1.5c2.1,0,3.8-0.6,5-1.8c1.6-1.6,2.4-4.3,2.4-8.1v-9.9c0-1,0.4-1.6,2.2-1.6H56.9z"/>
		<path class="st2" d="M62.2,41.8l2.4-5.1l2.3,5.1H62.2z M75.5,49.3c-1.4,0-1.8-0.6-2.4-2l-6.2-13.9h-3.7l0.2,0.4
			c0.1,0.2,0.1,0.3,0.1,0.4c0,0.1-0.1,0.4-0.3,0.9l-5.6,12.3c-0.6,1.4-0.9,1.9-2.8,1.9h-0.2v1.2h7.6v-1.3l-0.4,0c-0.3,0-0.6,0-0.9,0
			c-0.8,0-1.3-0.1-1.5-0.4c-0.1-0.1-0.2-0.2-0.2-0.4c0-0.1,0-0.3,0.2-0.8l2.1-4.5h6l2,4.5c0.2,0.5,0.3,0.8,0.3,0.9
			c0,0.2,0,0.3-0.1,0.4c-0.2,0.2-0.8,0.4-1.7,0.4c-0.3,0-0.7,0-1,0l-0.3,0v1.3H76v-1.2H75.5z"/>
		<path class="st2" d="M36,41.7l2.4-5.1l2.3,5.1H36z M41.9,49.4c-0.3,0-0.6,0-1,0l-0.4,0v1.3h9.3v-1.2h-0.6c-1.4,0-1.8-0.6-2.4-2
			l-6.2-13.9H37l0.2,0.4c0.1,0.2,0.1,0.3,0.1,0.4c0,0.1-0.1,0.4-0.3,0.9l-4.9,10.7c-1.1,2.2-3.7,3.5-7.1,3.5c-2.4,0-4.5-0.8-6-2.3
			c-1.4-1.4-2.2-3.4-2.2-5.7c0-1.9,0.8-3.8,2.3-5c1.4-1.1,3.4-1.8,5.4-1.8c3.1,0,5.4,1.3,6.8,4l0.1,0.1l1.2,0l-0.3-4.4l-0.3,0.1
			c-0.2,0-0.4,0.1-0.6,0.1c-0.3,0-0.6,0-0.8-0.1l-0.3-0.1c-2.2-0.5-4.2-0.9-6-1c-3.5-0.1-6.5,1.2-8.8,3.8c-1.4,1.6-2.2,3.4-2.2,5.3
			c0,2.5,1.2,4.6,3.5,6.2c2.1,1.4,4.6,2.1,7.9,2.1H36v-1.3l-0.4,0c-0.3,0-0.6,0-0.9,0c-0.8,0-1.3-0.1-1.5-0.4
			c-0.1-0.1-0.2-0.2-0.2-0.4c0-0.1,0-0.3,0.2-0.8l2.1-4.5h6l2,4.5c0.2,0.5,0.3,0.8,0.3,0.9c0,0.2,0,0.3-0.1,0.4
			C43.4,49.3,42.8,49.4,41.9,49.4z"/>
		<path class="st2" d="M51.5,17.9l2.3,5.1h-4.7L51.5,17.9z M49.1,30.6l-0.4,0c-0.3,0-0.6,0-0.9,0c-0.8,0-1.3-0.1-1.5-0.3
			c-0.1-0.1-0.2-0.2-0.2-0.4c0-0.1,0-0.3,0.2-0.8l2.1-4.5h6l2,4.5c0.2,0.5,0.3,0.8,0.3,0.9c0,0.2,0,0.3-0.1,0.4
			c-0.2,0.2-0.8,0.3-1.7,0.3c-0.3,0-0.6,0-1,0l-0.4,0v1.3h9.3v-1.3h-0.6c-1.4,0-1.8-0.6-2.4-2l-6.2-13.9H50l0.2,0.4
			c0.1,0.2,0.1,0.3,0.1,0.4c0,0.1-0.1,0.4-0.3,0.9L45,27.5c0,0-1.2,3-3.7,3h-4c-0.8,0-1.3-0.1-1.5-0.4c-0.2-0.2-0.3-0.6-0.3-1.3
			V17.8c0-1,0.4-1.7,2.4-1.7c0.3,0,0.5,0,0.8,0l0.3,0v-1.2h-9.7v1.2h0.6c0.9,0,1.5,0.2,1.8,0.5c0.3,0.3,0.4,0.6,0.4,1.2V29
			c0,0.5-0.1,0.9-0.4,1.1c-0.3,0.3-0.9,0.5-1.8,0.5h-0.6v1.3h19.9V30.6z"/>
	</g>
	<polygon class="st3" points="53.3,83.9 83.9,83.9 83.9,53.3 	"/>
	<g>
		<path class="st2" d="M17.1,60.2c-0.2-0.7-0.4-1.1-0.8-1.1c-0.5,0-1.2,1.4-1.2,3.4c0,0.4,0.1,0.7,0.3,0.7c0.3,0,0.8-0.5,1.4-1.5
			L17.1,60.2z M14.5,64.5c-0.6,0-1-0.6-1-1.6c0-1.2,0.5-2.2,1.5-3.3c0.7-0.7,1.3-1.1,1.6-1.1c0.3,0,0.5,0.1,0.7,0.4l0.5-2.4
			c0-0.1,0-0.2,0-0.3c0-0.1-0.1-0.2-0.1-0.2c-0.1,0-0.2,0-0.5,0.1l-0.2-0.4c1.3-0.6,2.1-0.9,2.2-0.9c0.1,0,0.2,0.1,0.2,0.2
			c0,0.1,0,0.2-0.1,0.4L18,63.1c0,0.1,0,0.1,0,0.2c0,0.1,0,0.1,0.1,0.1c0.1,0,0.4-0.2,0.7-0.7l0.3,0.2c-0.8,1.1-1.5,1.6-2,1.6
			c-0.4,0-0.6-0.3-0.6-0.7c0-0.2,0-0.6,0.2-1.2C15.7,63.8,15,64.5,14.5,64.5z"/>
		<path class="st2" d="M23,59.6c0-0.3-0.1-0.5-0.4-0.5c-0.4,0-0.8,0.8-1.2,2.3C22.5,61.1,23,60.4,23,59.6z M21.3,64.5
			c-1,0-1.6-0.6-1.6-1.8c0-1,0.4-2,1.2-2.9c0.7-0.8,1.6-1.3,2.3-1.3c0.7,0,1.2,0.4,1.2,1.1c0,1-1,1.6-3,2.1
			c-0.1,0.3-0.1,0.5-0.1,0.7c0,0.8,0.4,1.2,1,1.2c0.4,0,0.9-0.2,1.5-0.6l0.2,0.2C23,64.1,22.1,64.5,21.3,64.5z"/>
		<path class="st2" d="M31.6,59.4h-0.1c-1.3,0-2.4,1.3-2.4,2.9c0,0.6,0.3,0.9,0.5,0.9c0.3,0,0.5-0.2,0.8-0.5l0.5-0.5L31.6,59.4z
			 M30.2,63.5c-0.7,0.6-1.1,1-1.5,1c-0.5,0-0.9-0.5-0.9-1.3c0-1.4,0.7-2.7,2.1-3.7c0.7-0.6,1.7-0.9,2.7-0.9c0.2,0,0.4,0,0.7,0
			l-1,4.5c0,0.2,0,0.3,0,0.3c0,0.1,0,0.1,0.1,0.1c0.1,0,0.4-0.2,0.9-0.7l0.3,0.2c-1,0.9-1.6,1.5-2.1,1.5c-0.5,0-0.6-0.3-0.6-0.9
			c0-0.2,0-0.4,0.1-0.7L30.2,63.5z"/>
		<path class="st2" d="M38.4,60.1c0-0.2-0.1-0.3-0.2-0.3c-0.3,0-0.8,0.7-1.8,1.9L36,63.6c-0.1,0.7-0.2,0.8-0.7,0.8h-0.5
			c-0.3,0-0.4-0.1-0.4-0.2c0-0.1,0-0.3,0.1-0.5l1.5-7.1c0-0.1,0-0.2,0-0.3c0-0.2,0-0.3-0.1-0.3c-0.1,0-0.3,0-0.5,0.1l-0.1-0.3
			c1.4-0.5,2.2-0.8,2.4-0.8c0.1,0,0.2,0.1,0.2,0.2l0,0.2l-1.2,5.5c1.2-1.5,2.2-2.3,2.9-2.3c0.4,0,0.7,0.3,0.7,0.8
			c0,0.2,0,0.4-0.1,0.6l-0.8,3c0,0.1,0,0.2,0,0.3c0,0.1,0.1,0.2,0.1,0.2c0.1,0,0.5-0.3,0.9-0.9l0.3,0.2c-0.8,1.1-1.5,1.6-2.3,1.6
			c-0.4,0-0.6-0.2-0.6-0.7c0-0.3,0.1-0.6,0.2-1.1l0.5-2.3C38.4,60.3,38.4,60.2,38.4,60.1z"/>
		<path class="st2" d="M43.4,64c0.6,0,1.4-1.3,1.4-3c0-1.2-0.3-1.8-0.8-1.8c-0.6,0-1.3,1.2-1.3,3.1C42.7,63.4,43,64,43.4,64z
			 M42.4,59.6c0.8-0.7,1.7-1,2.4-1c1,0,1.6,0.7,1.6,2c0,0.9-0.3,1.7-0.8,2.4c-0.8,1-1.9,1.6-3,1.6c-1,0-1.5-0.7-1.5-2
			C41.1,61.4,41.5,60.4,42.4,59.6z"/>
		<path class="st2" d="M47.1,60.3c0.9-1.2,1.6-1.8,2.1-1.8c0.3,0,0.4,0.2,0.4,0.6c0,0.4-0.1,1.3-0.3,2.5h0.1c0.8-2,1.4-3.1,2.2-3.1
			c0.3,0,0.5,0.2,0.5,0.6c0,0.7-0.3,1.1-0.7,1.1c-0.1,0-0.2,0-0.3,0c-0.7,0-1.3,1.2-1.8,3.7l-0.1,0.3c0,0.2-0.2,0.3-0.4,0.3h-0.7
			c-0.3,0-0.4-0.1-0.4-0.3c0,0,0-0.1,0-0.1l0.5-2.9c0.1-0.7,0.2-1,0.2-1.1c0-0.1,0-0.2-0.1-0.2c-0.1,0-0.3,0.2-0.7,0.7L47.1,60.3z"
			/>
		<path class="st2" d="M51.8,60.3c0.9-1.2,1.6-1.8,2.1-1.8c0.3,0,0.4,0.2,0.4,0.6c0,0.4-0.1,1.3-0.3,2.5H54c0.8-2,1.4-3.1,2.2-3.1
			c0.3,0,0.5,0.2,0.5,0.6c0,0.7-0.3,1.1-0.7,1.1c-0.1,0-0.2,0-0.3,0c-0.7,0-1.3,1.2-1.8,3.7l-0.1,0.3c0,0.2-0.2,0.3-0.4,0.3h-0.7
			c-0.3,0-0.4-0.1-0.4-0.3c0,0,0-0.1,0-0.1l0.5-2.9c0.1-0.7,0.2-1,0.2-1.1c0-0.1,0-0.2-0.1-0.2c-0.1,0-0.3,0.2-0.7,0.7L51.8,60.3z"
			/>
		<path class="st2" d="M58.2,64c0.6,0,1.4-1.3,1.4-3c0-1.2-0.3-1.8-0.8-1.8c-0.6,0-1.3,1.2-1.3,3.1C57.5,63.4,57.8,64,58.2,64z
			 M57.3,59.6c0.8-0.7,1.7-1,2.4-1c1,0,1.6,0.7,1.6,2c0,0.9-0.3,1.7-0.8,2.4c-0.8,1-1.9,1.6-3,1.6c-1,0-1.5-0.7-1.5-2
			C55.9,61.4,56.4,60.4,57.3,59.6z"/>
		<path class="st2" d="M12.8,76.5c0.7-0.1,1-0.2,1.4-0.6c0.2-0.3,0.5-0.9,0.8-1.8c0.2-0.5,0.2-1.1,0.2-1.8c0-2.1-0.3-3.2-0.7-3.2
			c-0.2,0-0.4,0.2-0.6,0.5l-0.3-0.1c0.6-1,1.3-1.5,1.9-1.5c0.8,0,1.3,1.2,1.3,3.5c0,0.4,0,1.1-0.1,2c0.8-1.8,1.4-3,1.4-3.7
			c0-0.4-0.3-0.6-0.3-0.9c0-0.5,0.4-0.9,0.9-0.9c0.5,0,0.9,0.3,0.9,0.8c0,0.9-0.9,2-2.1,4c-1.2,2.1-1.7,3.3-1.7,3.6
			c0,0.2,0.2,0.3,0.7,0.4l-0.1,0.4h-3.6L12.8,76.5z"/>
		<path class="st2" d="M22.2,72.1c0.4,0,0.7,0.3,1.1,0.6c0.3,0.2,0.5,0.3,0.7,0.3c0.3,0,0.4-0.1,0.4-0.4c0-0.3-0.3-0.6-0.7-1.1
			c-0.7-0.7-1.2-1.2-1.2-2c0-1,1.1-1.9,2.2-1.9c0.7,0,1.2,0.4,1.2,0.9c0,0.5-0.3,0.8-0.7,0.8c-0.3,0-0.5-0.2-0.7-0.5
			c-0.2-0.3-0.2-0.6-0.5-0.6c-0.2,0-0.3,0.1-0.3,0.4c0,0.4,0.4,0.8,1,1.5c0.4,0.5,0.8,0.8,0.8,1.5c0,1.1-1,2-2.5,2
			c-0.9,0-1.4-0.3-1.4-0.9C21.5,72.4,21.8,72.1,22.2,72.1z"/>
		<path class="st2" d="M29.2,68.8c0-0.3-0.1-0.5-0.4-0.5c-0.4,0-0.8,0.8-1.2,2.3C28.6,70.4,29.2,69.7,29.2,68.8z M27.5,73.8
			c-1,0-1.6-0.6-1.6-1.8c0-1,0.4-2,1.2-2.9c0.7-0.8,1.6-1.3,2.3-1.3c0.7,0,1.2,0.4,1.2,1.1c0,1-1,1.6-3,2.1
			c-0.1,0.3-0.1,0.5-0.1,0.7c0,0.8,0.4,1.2,1,1.2c0.4,0,0.9-0.2,1.5-0.6l0.2,0.2C29.2,73.4,28.3,73.8,27.5,73.8z"/>
		<path class="st2" d="M30.3,75.5c0,0.5,0.7,1,1.8,1c1,0,1.5-0.2,1.5-0.5c0-0.4-1-0.6-2.1-1.7C30.7,74.5,30.3,75,30.3,75.5z
			 M33,72.2c0.3,0,0.4-0.2,0.6-0.5c0.3-0.7,0.5-1.5,0.5-2.3c0-0.7-0.2-1.1-0.6-1.1c-0.5,0-1.2,1.1-1.2,2.7
			C32.3,71.7,32.5,72.2,33,72.2z M30.7,70.7c0-0.7,0.4-1.5,1.2-2.2c0.7-0.5,1.5-0.8,2.4-0.8c0.5,0,1.1,0.1,1.7,0.2v0.8
			c-0.2,0-0.4-0.1-0.5-0.1h-0.2c0.2,0.3,0.3,0.7,0.3,1.1c0,1.1-0.7,2-2,2.6c-0.7,0.3-1.2,0.3-1.2,0.6c0,0.2,0.3,0.5,1,0.9
			c0.9,0.6,1.6,0.9,1.6,1.6c0,0.8-1.2,1.4-3.2,1.4c-1.9,0-3-0.5-3-1c0-0.6,0.8-1.2,2.4-1.9c-0.1-0.1-0.1-0.2-0.1-0.3
			c0-0.4,0.3-0.7,0.9-0.9C31.2,72.3,30.7,71.6,30.7,70.7z"/>
		<path class="st2" d="M36.8,73.8c-0.4,0-0.5-0.2-0.5-0.6c0-0.2,0-0.5,0.1-0.9l0.5-2.6c0.1-0.3,0.1-0.4,0.1-0.5
			c0-0.1-0.1-0.2-0.1-0.2c-0.1,0-0.3,0.3-0.7,0.7L36,69.6c0.8-1.1,1.4-1.7,2.1-1.7c0.4,0,0.6,0.2,0.6,0.7c0,0.2-0.1,0.6-0.2,1.1
			l-0.5,2.1c0,0.2-0.1,0.3-0.1,0.4c0,0.2,0.1,0.3,0.2,0.3c0.2,0,1-0.8,1.8-2.6l0.2-1.1c0.2-0.7,0.2-0.8,0.7-0.8h0.5
			c0.3,0,0.4,0.1,0.4,0.2c0,0.1,0,0.3-0.1,0.5L41.1,72c0,0.2-0.1,0.3-0.1,0.3c0,0.1,0.1,0.2,0.1,0.2c0.2,0,0.4-0.3,0.8-0.7l0.3,0.2
			c-0.9,1.2-1.8,1.8-2.3,1.8c-0.3,0-0.5-0.2-0.5-0.6c0-0.2,0-0.4,0.1-0.7l0.3-1.5C38.5,73,37.4,73.8,36.8,73.8z"/>
		<path class="st2" d="M42.4,69.6c0.9-1.2,1.6-1.8,2.1-1.8c0.3,0,0.4,0.2,0.4,0.6c0,0.4-0.1,1.3-0.3,2.6h0.1c0.8-2,1.4-3.1,2.2-3.1
			c0.3,0,0.5,0.2,0.5,0.6c0,0.7-0.3,1.1-0.7,1.1c-0.1,0-0.2,0-0.3,0c-0.7,0-1.3,1.2-1.8,3.7l-0.1,0.3c0,0.2-0.2,0.3-0.4,0.3h-0.7
			c-0.3,0-0.4-0.1-0.4-0.3c0,0,0-0.1,0-0.1l0.5-2.9c0.1-0.7,0.2-1,0.2-1.1c0-0.1,0-0.2-0.1-0.2c-0.1,0-0.3,0.2-0.7,0.7L42.4,69.6z"
			/>
		<path class="st2" d="M48.8,73.3c0.6,0,1.4-1.3,1.4-3c0-1.2-0.3-1.8-0.8-1.8c-0.6,0-1.3,1.2-1.3,3.1C48.1,72.7,48.4,73.3,48.8,73.3
			z M47.9,68.9c0.8-0.7,1.7-1,2.4-1c1,0,1.6,0.7,1.6,2c0,0.9-0.3,1.7-0.8,2.4c-0.8,1-1.9,1.6-3,1.6c-1,0-1.5-0.7-1.5-2
			C46.5,70.7,47,69.6,47.9,68.9z"/>
	</g>
</g>
</svg>
