<svg xmlns="http://www.w3.org/2000/svg" viewBox="0 0 119.66 40"><defs><style>.cls-1{fill:#b1b3b6;}.cls-2{fill:#fff;}</style></defs><title>logo_store_apple</title><g id="Layer_2" data-name="Layer 2"><g id="livetype"><path class="cls-1" d="M110.13,0H7.52a13.21,13.21,0,0,0-2,.18,6.67,6.67,0,0,0-1.9.63A6.44,6.44,0,0,0,2,2,6.26,6.26,0,0,0,.82,3.62a6.6,6.6,0,0,0-.63,1.9,13,13,0,0,0-.18,2c0,.31,0,.61,0,.92V31.56c0,.31,0,.61,0,.92a13,13,0,0,0,.18,2,6.59,6.59,0,0,0,.63,1.9A6.21,6.21,0,0,0,2,38a6.27,6.27,0,0,0,1.62,1.18,6.7,6.7,0,0,0,1.9.63,13.46,13.46,0,0,0,2,.18H112.14a13.28,13.28,0,0,0,2-.18,6.8,6.8,0,0,0,1.91-.63A6.28,6.28,0,0,0,117.67,38a6.39,6.39,0,0,0,1.18-1.61,6.6,6.6,0,0,0,.62-1.9,13.51,13.51,0,0,0,.19-2c0-.31,0-.61,0-.92s0-.72,0-1.09V9.54c0-.37,0-.73,0-1.09s0-.61,0-.92a13.51,13.51,0,0,0-.19-2,6.62,6.62,0,0,0-.62-1.9A6.47,6.47,0,0,0,116,.82a6.77,6.77,0,0,0-1.91-.63,13,13,0,0,0-2-.18h-2Z"/><path d="M8.44,39.13h-.9A12.69,12.69,0,0,1,5.67,39,5.88,5.88,0,0,1,4,38.4a5.41,5.41,0,0,1-1.4-1,5.32,5.32,0,0,1-1-1.4,5.72,5.72,0,0,1-.54-1.66,12.41,12.41,0,0,1-.17-1.87c0-.21,0-.91,0-.91V8.44s0-.69,0-.89a12.37,12.37,0,0,1,.17-1.87A5.76,5.76,0,0,1,1.6,4a5.37,5.37,0,0,1,1-1.4A5.57,5.57,0,0,1,4,1.6a5.82,5.82,0,0,1,1.65-.54A12.59,12.59,0,0,1,7.54.89H112.13a12.38,12.38,0,0,1,1.86.16,5.94,5.94,0,0,1,1.67.55A5.59,5.59,0,0,1,118.07,4a5.76,5.76,0,0,1,.54,1.65,13,13,0,0,1,.17,1.89c0,.28,0,.59,0,.89s0,.73,0,1.09V30.46c0,.36,0,.72,0,1.08s0,.62,0,.93a12.73,12.73,0,0,1-.17,1.85,5.74,5.74,0,0,1-.54,1.67,5.48,5.48,0,0,1-1,1.39,5.41,5.41,0,0,1-1.4,1A5.86,5.86,0,0,1,114,39a12.54,12.54,0,0,1-1.87.16H8.44Z"/><g id="_Group_" data-name="&lt;Group&gt;"><g id="_Group_2" data-name="&lt;Group&gt;"><g id="_Group_3" data-name="&lt;Group&gt;"><path id="_Path_" data-name="&lt;Path&gt;" class="cls-2" d="M24.77,20.3a5,5,0,0,1,2.36-4.15,5.07,5.07,0,0,0-4-2.16c-1.68-.18-3.31,1-4.16,1s-2.19-1-3.61-1a5.32,5.32,0,0,0-4.47,2.73C9,20.11,10.4,25,12.25,27.74c.93,1.33,2,2.81,3.43,2.75s1.91-.88,3.58-.88,2.14.88,3.59.85,2.43-1.33,3.32-2.67a11,11,0,0,0,1.52-3.09A4.78,4.78,0,0,1,24.77,20.3Z"/><path id="_Path_2" data-name="&lt;Path&gt;" class="cls-2" d="M22,12.21a4.87,4.87,0,0,0,1.11-3.49,5,5,0,0,0-3.21,1.66,4.64,4.64,0,0,0-1.14,3.36A4.1,4.1,0,0,0,22,12.21Z"/></g></g><path class="cls-2" d="M42.3,27.14H37.57L36.43,30.5h-2l4.48-12.42H41L45.48,30.5h-2Zm-4.24-1.55h3.75L40,20.14h-.05Z"/><path class="cls-2" d="M55.16,26c0,2.81-1.51,4.62-3.78,4.62A3.07,3.07,0,0,1,48.53,29h0v4.48H46.63v-12h1.8v1.51h0a3.21,3.21,0,0,1,2.88-1.6C53.65,21.35,55.16,23.16,55.16,26Zm-1.91,0c0-1.83-.95-3-2.39-3s-2.37,1.23-2.37,3,1,3,2.38,3S53.25,27.82,53.25,26Z"/><path class="cls-2" d="M65.12,26c0,2.81-1.51,4.62-3.78,4.62A3.07,3.07,0,0,1,58.5,29h0v4.48H56.6v-12h1.8v1.51h0a3.21,3.21,0,0,1,2.88-1.6C63.61,21.35,65.12,23.16,65.12,26Zm-1.91,0c0-1.83-.95-3-2.39-3s-2.37,1.23-2.37,3,1,3,2.38,3S63.21,27.82,63.21,26Z"/><path class="cls-2" d="M71.71,27c.14,1.23,1.33,2,3,2s2.69-.81,2.69-1.92-.68-1.54-2.29-1.94l-1.61-.39c-2.28-.55-3.34-1.62-3.34-3.35,0-2.14,1.87-3.61,4.52-3.61s4.42,1.47,4.48,3.61H77.26c-.11-1.24-1.14-2-2.63-2s-2.52.76-2.52,1.86c0,.88.65,1.39,2.25,1.79l1.37.34c2.55.6,3.61,1.63,3.61,3.44,0,2.32-1.85,3.78-4.79,3.78-2.75,0-4.61-1.42-4.73-3.67Z"/><path class="cls-2" d="M83.35,19.3v2.14h1.72v1.47H83.35v5c0,.78.34,1.14,1.1,1.14a5.81,5.81,0,0,0,.61,0v1.46a5.1,5.1,0,0,1-1,.09c-1.83,0-2.55-.69-2.55-2.44V22.91H80.16V21.44h1.32V19.3Z"/><path class="cls-2" d="M86.06,26c0-2.85,1.68-4.64,4.29-4.64s4.29,1.79,4.29,4.64S93,30.61,90.36,30.61,86.06,28.83,86.06,26Zm6.7,0c0-2-.9-3.11-2.4-3.11S88,24,88,26s.89,3.11,2.4,3.11S92.76,27.93,92.76,26Z"/><path class="cls-2" d="M96.19,21.44H98V23h0a2.16,2.16,0,0,1,2.18-1.64,2.87,2.87,0,0,1,.64.07v1.74A2.6,2.6,0,0,0,100,23,1.87,1.87,0,0,0,98,25.13V30.5H96.19Z"/><path class="cls-2" d="M109.38,27.84c-.25,1.64-1.85,2.77-3.9,2.77-2.63,0-4.27-1.76-4.27-4.6s1.64-4.68,4.19-4.68,4.08,1.72,4.08,4.47v.64h-6.39v.11a2.36,2.36,0,0,0,2.44,2.56,2,2,0,0,0,2.09-1.27Zm-6.28-2.7h4.53a2.18,2.18,0,0,0-2.22-2.3A2.29,2.29,0,0,0,103.1,25.13Z"/></g><g id="_Group_4" data-name="&lt;Group&gt;"><path class="cls-2" d="M37.83,8.73a2.64,2.64,0,0,1,2.81,3c0,1.91-1,3-2.81,3H35.67v-6ZM36.6,13.85h1.13a1.88,1.88,0,0,0,2-2.15,1.88,1.88,0,0,0-2-2.13H36.6Z"/><path class="cls-2" d="M45.71,13.48a1.83,1.83,0,0,1-2,1.3,2,2,0,0,1-2.08-2.32,2.08,2.08,0,0,1,2.08-2.35c1.25,0,2,.86,2,2.27v.31H42.59v0A1.19,1.19,0,0,0,43.79,14a1.08,1.08,0,0,0,1.07-.55ZM42.59,12h2.27a1.09,1.09,0,0,0-1.11-1.17A1.15,1.15,0,0,0,42.59,12Z"/><path class="cls-2" d="M48.6,10.11c1,0,1.67.47,1.76,1.27h-.85c-.08-.33-.41-.54-.91-.54s-.87.24-.87.59.23.44.72.55l.75.17c.86.2,1.26.57,1.26,1.23,0,.85-.79,1.41-1.87,1.41s-1.77-.48-1.85-1.28h.89a.91.91,0,0,0,1,.56c.55,0,.95-.25.95-.61s-.21-.44-.66-.55l-.79-.18c-.86-.2-1.25-.59-1.25-1.26S47.59,10.11,48.6,10.11Z"/><path class="cls-2" d="M54.6,11.67a1,1,0,0,0-1.06-.76c-.74,0-1.2.57-1.2,1.53S52.79,14,53.54,14a1,1,0,0,0,1.06-.74h.86a1.76,1.76,0,0,1-1.92,1.53,2.07,2.07,0,0,1-2.11-2.35,2.05,2.05,0,0,1,2.11-2.32,1.78,1.78,0,0,1,1.93,1.56Z"/><path class="cls-2" d="M56.34,13.42c0-.81.6-1.28,1.67-1.34L59.24,12v-.39c0-.48-.31-.74-.92-.74s-.84.18-.94.5h-.86c.09-.77.82-1.27,1.84-1.27s1.77.56,1.77,1.51V14.7h-.86v-.63H59.2a1.52,1.52,0,0,1-1.35.71A1.36,1.36,0,0,1,56.34,13.42ZM59.24,13v-.38l-1.1.07c-.62,0-.9.25-.9.65s.35.64.83.64A1.06,1.06,0,0,0,59.24,13Zm-1.41-3.6,1-1.42h1L58.74,9.44Z"/><path class="cls-2" d="M61.52,10.19h.86v.69h.07a1.22,1.22,0,0,1,1.22-.77,1.87,1.87,0,0,1,.4,0V11a2.43,2.43,0,0,0-.5-.05A1.06,1.06,0,0,0,62.4,12V14.7h-.89Z"/><path class="cls-2" d="M64.87,15.15h.91c.08.33.45.54,1.05.54S68,15.33,68,14.74v-.86h-.07a1.51,1.51,0,0,1-1.39.76c-1.15,0-1.86-.89-1.86-2.24s.72-2.27,1.87-2.27a1.56,1.56,0,0,1,1.41.79H68v-.72h.85v4.54c0,1-.81,1.68-2.08,1.68S65,15.91,64.87,15.15ZM68,12.39c0-.9-.46-1.47-1.22-1.47s-1.19.57-1.19,1.47.43,1.47,1.19,1.47S68,13.29,68,12.39Z"/><path class="cls-2" d="M70.05,13.42c0-.81.6-1.28,1.67-1.34L72.95,12v-.39c0-.48-.31-.74-.92-.74s-.84.18-.94.5h-.86c.09-.77.82-1.27,1.84-1.27s1.77.56,1.77,1.51V14.7H73v-.63h-.07a1.52,1.52,0,0,1-1.35.71A1.36,1.36,0,0,1,70.05,13.42ZM72.95,13v-.38l-1.1.07c-.62,0-.9.25-.9.65s.35.64.83.64A1.06,1.06,0,0,0,72.95,13Z"/><path class="cls-2" d="M75.27,8.44h.89V14.7h-.89Z"/><path class="cls-2" d="M77.39,12.44a2.13,2.13,0,1,1,4.25,0,2.13,2.13,0,1,1-4.25,0Zm3.33,0c0-1-.44-1.55-1.21-1.55s-1.21.57-1.21,1.55S78.74,14,79.51,14,80.72,13.42,80.72,12.44Z"/><path class="cls-2" d="M89.08,13.48a1.83,1.83,0,0,1-2,1.3A2,2,0,0,1,85,12.46a2.08,2.08,0,0,1,2.08-2.35c1.25,0,2,.86,2,2.27v.31H86v0A1.19,1.19,0,0,0,87.15,14a1.08,1.08,0,0,0,1.07-.55ZM86,12h2.27a1.09,1.09,0,0,0-1.11-1.17A1.15,1.15,0,0,0,86,12Z"/><path class="cls-2" d="M90.33,10.19h.86v.72h.07a1.35,1.35,0,0,1,1.34-.8,1.46,1.46,0,0,1,1.56,1.67V14.7h-.89V12c0-.72-.31-1.08-1-1.08a1,1,0,0,0-1.08,1.14V14.7h-.89Z"/><path class="cls-2" d="M101.78,13.48a1.83,1.83,0,0,1-2,1.3,2,2,0,0,1-2.08-2.32,2.08,2.08,0,0,1,2.08-2.35c1.25,0,2,.86,2,2.27v.31H98.65v0A1.19,1.19,0,0,0,99.85,14a1.08,1.08,0,0,0,1.07-.55ZM98.65,12h2.27a1.09,1.09,0,0,0-1.11-1.17A1.15,1.15,0,0,0,98.65,12Z"/><path class="cls-2" d="M103.06,8.44H104V14.7h-.89Z"/></g></g></g></svg>