<svg xmlns="http://www.w3.org/2000/svg" viewBox="0 0 134.34 35"><defs><style>.cls-1{fill:#253e8a;}.cls-2{fill:#00aeef;}.cls-3{fill:#fff;}</style></defs><title>logo-mercadopago</title><g id="Layer_2" data-name="Layer 2"><g id="Capa_1" data-name="Capa 1"><path class="cls-1" d="M49.19,16.09C49.19,7.22,38.18,0,24.6,0S0,7.22,0,16.09c0,.23,0,.86,0,.94,0,9.4,9.62,17,24.59,17s24.6-7.61,24.6-17Z"/><ellipse class="cls-2" cx="24.6" cy="16.08" rx="23.65" ry="15.13"/><path class="cls-3" d="M16.75,11.31s-.25.27-.1.46a3,3,0,0,0,2.69.49,7.81,7.81,0,0,0,2.45-1.55,9.78,9.78,0,0,1,2.79-1.78,3.19,3.19,0,0,1,2-.05A6.26,6.26,0,0,1,28.47,10c1.62,1.22,8.13,6.9,9.25,7.88a56.12,56.12,0,0,1,10.4-3.35,12.89,12.89,0,0,0-4.94-7.77c-3.75,1.57-8.33,2.4-12.81.21a12.39,12.39,0,0,0-4.84-1.1c-3.55.08-5.09,1.62-6.72,3.25Z"/><path class="cls-3" d="M37.46,18.46c-.08-.07-7.65-6.7-9.37-8a4.2,4.2,0,0,0-2.13-1,2.9,2.9,0,0,0-1,.1,9.15,9.15,0,0,0-2.77,1.65,7.9,7.9,0,0,1-2.7,1.67,4.37,4.37,0,0,1-3-.45,1.32,1.32,0,0,1-.49-.54.92.92,0,0,1,.25-1l2.09-2.26.74-.72a13.56,13.56,0,0,0-1.9.43A8.31,8.31,0,0,1,15,8.76a21.12,21.12,0,0,1-2.27-.36,33.89,33.89,0,0,1-6-2.18,13.37,13.37,0,0,0-5.53,8c.43.11,1.11.32,1.4.38,6.72,1.5,8.82,3,9.2,3.36a2.23,2.23,0,0,1,3.49.21,2.54,2.54,0,0,1,1.6-.56,3,3,0,0,1,1,.17A2.21,2.21,0,0,1,19.14,19a2.24,2.24,0,0,1,.94-.2,2.82,2.82,0,0,1,1.12.25,2.39,2.39,0,0,1,1.32,2.67h.27a2.66,2.66,0,0,1,2.35,3.93,4.23,4.23,0,0,0,2.31.62,1.48,1.48,0,0,0,1.08-.47c.07-.09.14-.21.07-.28l-1.9-2.11s-.31-.3-.21-.41.3.05.44.17c1,.81,2.14,2,2.14,2s.1.17.53.25a2,2,0,0,0,1.5-.35,2.25,2.25,0,0,0,.33-.34l0,0a1,1,0,0,0-.05-1.25L29.15,21s-.32-.29-.21-.41.3.05.44.17c.7.59,1.69,1.58,2.64,2.51a1.81,1.81,0,0,0,2.13-.07,1.52,1.52,0,0,0,.79-1.39,1.58,1.58,0,0,0-.47-.92l-3-3s-.32-.27-.21-.41.3.05.44.17c1,.81,3.57,3.2,3.57,3.2a1.84,1.84,0,0,0,2.05,0A1.37,1.37,0,0,0,38,19.69,1.6,1.6,0,0,0,37.46,18.46Z"/><path class="cls-3" d="M22.78,22.31a6.73,6.73,0,0,0-1,.23s0-.21.07-.32.66-2-.84-2.61a1.77,1.77,0,0,0-2.1.31c-.06.07-.09.06-.1,0a1.66,1.66,0,0,0-1.17-1.54,2.28,2.28,0,0,0-2.57.92,1.64,1.64,0,1,0-.49,1.4s0,0,0,.06a2.17,2.17,0,0,0,1.36,2.5A1.62,1.62,0,0,0,17.5,23c.13-.09.15-.05.13.07a1.55,1.55,0,0,0,1.16,1.66,1.47,1.47,0,0,0,1.72-.32c.15-.13.19-.11.19.09a2.08,2.08,0,1,0,2.07-2.17Z"/><path class="cls-1" d="M37.75,17.66c-2.33-2-7.73-6.72-9.19-7.82a6.42,6.42,0,0,0-1.9-1.11,3.15,3.15,0,0,0-.93-.15,3.94,3.94,0,0,0-1.19.2,9.73,9.73,0,0,0-2.79,1.77l0,0a7.71,7.71,0,0,1-2.39,1.52,4,4,0,0,1-.88.1,2.27,2.27,0,0,1-1.66-.53c0-.05,0-.14.08-.26v0l2.05-2.21C20.53,7.58,22,6.06,25.54,6h.17a12.38,12.38,0,0,1,4.59,1.09,14.23,14.23,0,0,0,6.26,1.5,16.35,16.35,0,0,0,6.88-1.65c-.27-.22-.55-.44-.83-.66a15.13,15.13,0,0,1-6,1.37,13.33,13.33,0,0,1-5.86-1.41,13.19,13.19,0,0,0-5-1.18h-.2a8.68,8.68,0,0,0-5.7,2A11.29,11.29,0,0,0,17,7.59,7.7,7.7,0,0,1,15,8l-.76,0A39,39,0,0,1,7,6c-.29.21-.58.42-.85.64A35.63,35.63,0,0,0,14,8.85c.32,0,.66.06,1,.06a8.55,8.55,0,0,0,2.26-.42c.44-.12.92-.26,1.42-.35l-.4.4L16.16,10.8a1,1,0,0,0-.29,1.15,1.46,1.46,0,0,0,.55.61,4.35,4.35,0,0,0,2.21.56,4,4,0,0,0,.88-.09,8,8,0,0,0,2.76-1.7A9.19,9.19,0,0,1,25,9.7a3.1,3.1,0,0,1,.76-.1H26a4.08,4.08,0,0,1,2.05,1c1.71,1.29,9.29,7.91,9.36,8a1.46,1.46,0,0,1,.45,1.11,1.21,1.21,0,0,1-.61,1,1.84,1.84,0,0,1-1,.31,1.63,1.63,0,0,1-.88-.25s-2.62-2.4-3.58-3.2a.8.8,0,0,0-.45-.24.25.25,0,0,0-.2.09c-.15.19,0,.44.22.61l3,3a1.44,1.44,0,0,1,.42.82,1.38,1.38,0,0,1-.72,1.26,2,2,0,0,1-1.07.36,1.56,1.56,0,0,1-.86-.26l-.43-.43c-.79-.78-1.62-1.59-2.22-2.09a.81.81,0,0,0-.45-.23.26.26,0,0,0-.19.08c-.07.08-.12.21.05.44a1.51,1.51,0,0,0,.15.17l2.21,2.49a.85.85,0,0,1,0,1.06l-.08.1L31,25a1.77,1.77,0,0,1-1.08.34l-.3,0a.75.75,0,0,1-.44-.18l0,0c-.12-.12-1.24-1.26-2.16-2a.76.76,0,0,0-.43-.23.26.26,0,0,0-.2.09c-.18.2.09.5.21.61l1.89,2.08a.44.44,0,0,1-.07.13c-.07.09-.3.32-1,.41l-.25,0a4.31,4.31,0,0,1-1.85-.55,2.81,2.81,0,0,0-2.55-4h-.1a2.5,2.5,0,0,0-1.43-2.64,3,3,0,0,0-1.18-.26,2.39,2.39,0,0,0-.86.16,2.37,2.37,0,0,0-1.38-1.17,3.09,3.09,0,0,0-1-.18,2.66,2.66,0,0,0-1.57.5,2.37,2.37,0,0,0-3.53-.2c-.59-.45-2.92-1.93-9.15-3.34-.3-.07-1-.27-1.42-.39a10.06,10.06,0,0,0-.16,1l1.38.33c6.37,1.41,8.48,2.89,8.83,3.16a2.39,2.39,0,0,0,2.64,3.27,2.78,2.78,0,0,0,1.8,2.08,2.37,2.37,0,0,0,.85.16A2.18,2.18,0,0,0,17,24a2.77,2.77,0,0,0,2.42,1.58,2.11,2.11,0,0,0,.73-.13,2.81,2.81,0,0,0,4.62.89,5.3,5.3,0,0,0,2.38.71l.36,0a2.18,2.18,0,0,0,1.62-.79,1.17,1.17,0,0,0,.1-.16,2.73,2.73,0,0,0,.76.12,2.57,2.57,0,0,0,1.54-.55,2.12,2.12,0,0,0,.91-1.32v0a2.55,2.55,0,0,0,.52.05,2.86,2.86,0,0,0,1.58-.5,2.28,2.28,0,0,0,1.14-2,2.55,2.55,0,0,0,.52.05,2.73,2.73,0,0,0,1.48-.46,2.17,2.17,0,0,0,1-1.68,2.26,2.26,0,0,0-.33-1.35,61.26,61.26,0,0,1,9.83-3.08,10.07,10.07,0,0,0-.14-1A56.35,56.35,0,0,0,37.75,17.66Zm-15,8.65a1.91,1.91,0,0,1-1.92-1.84c0-.09,0-.32-.21-.32a.37.37,0,0,0-.23.12,1.35,1.35,0,0,1-.94.43,1.66,1.66,0,0,1-.62-.14c-1.1-.44-1.11-1.2-1.07-1.5a.28.28,0,0,0,0-.23l-.07-.06H17.6a.34.34,0,0,0-.19.08,1.6,1.6,0,0,1-.93.33,1.45,1.45,0,0,1-.52-.1,2,2,0,0,1-1.26-2.34.2.2,0,0,0-.06-.19l-.1-.08-.1.09a1.5,1.5,0,1,1,.44-1.27l.05.4.22-.34a2.08,2.08,0,0,1,2.4-.85,1.52,1.52,0,0,1,1.06,1.41c0,.2.16.21.18.21A.25.25,0,0,0,19,20a1.52,1.52,0,0,1,1.11-.47,2.13,2.13,0,0,1,.83.19c1.41.61.77,2.4.76,2.42-.12.3-.13.43,0,.5l.06,0h0a1,1,0,0,0,.27-.07,2.41,2.41,0,0,1,.75-.17h0a1.93,1.93,0,1,1,0,3.85Z"/><path class="cls-1" d="M133,5.84a5.73,5.73,0,0,0-8.09,0,6.12,6.12,0,0,0-1.33,3.94,6.09,6.09,0,0,0,1.33,4,5.79,5.79,0,0,0,8.09,0,6.09,6.09,0,0,0,1.33-4A6.12,6.12,0,0,0,133,5.84Zm-2.2,6.38a2.44,2.44,0,0,1-3.71,0,4,4,0,0,1-.65-2.44,3.94,3.94,0,0,1,.65-2.43,2.44,2.44,0,0,1,3.71,0,4,4,0,0,1,.65,2.43A4,4,0,0,1,130.8,12.22Z"/><path class="cls-1" d="M110.31,4.91a6.74,6.74,0,0,0-3.09-.69,4.54,4.54,0,0,0-3.77,1.39,4.05,4.05,0,0,0-.78,2.28h2.66a2,2,0,0,1,.39-1,1.76,1.76,0,0,1,1.4-.48,2.87,2.87,0,0,1,1.34.25.93.93,0,0,1,.46.89.83.83,0,0,1-.6.78,4.36,4.36,0,0,1-1.1.24l-.94.12a6.72,6.72,0,0,0-2.44.68,3,3,0,0,0-1.51,2.82,2.91,2.91,0,0,0,.94,2.32,3.73,3.73,0,0,0,2.38.82c6,.27,6-3.17,6-3.89v-4A2.64,2.64,0,0,0,110.31,4.91Zm-1.4,6a2.21,2.21,0,0,1-.79,1.91,2.88,2.88,0,0,1-1.66.52,1.52,1.52,0,0,1-1-.32,1.23,1.23,0,0,1-.4-1,1.26,1.26,0,0,1,.65-1.17,4.11,4.11,0,0,1,1.27-.38l.63-.12a4.6,4.6,0,0,0,.74-.19,2.78,2.78,0,0,0,.53-.26Z"/><path class="cls-1" d="M96.58,6.58a1.8,1.8,0,0,1,1.52.64,2.36,2.36,0,0,1,.42,1.06h3a4.06,4.06,0,0,0-1.57-3.14,6.06,6.06,0,0,0-3.42-.89,5,5,0,0,0-3.85,1.51A6,6,0,0,0,91.26,10a5.87,5.87,0,0,0,1.26,3.9,4.86,4.86,0,0,0,3.94,1.51,4.75,4.75,0,0,0,4-1.81,4.45,4.45,0,0,0,1-2.37h-3A2.5,2.5,0,0,1,98,12.56a1.78,1.78,0,0,1-1.45.52,1.93,1.93,0,0,1-2-1.31,5,5,0,0,1-.29-1.86A5.49,5.49,0,0,1,94.57,8,2,2,0,0,1,96.58,6.58Z"/><path class="cls-1" d="M90.46,4.25c-6.1,0-5.74,5.4-5.74,5.4v5.49h2.77V10a4.24,4.24,0,0,1,.32-1.87A2.28,2.28,0,0,1,90,7h.33l.46,0V4.28l-.24,0Z"/><path class="cls-1" d="M80.29,12.28a2,2,0,0,1-.38.42,2.36,2.36,0,0,1-1.55.42,2.62,2.62,0,0,1-1.47-.35,2.5,2.5,0,0,1-1.12-2.2h7.66a13.87,13.87,0,0,0-.09-2.09A5.18,5.18,0,0,0,82.5,6.3a4.3,4.3,0,0,0-1.82-1.56,6,6,0,0,0-2.47-.49,5.07,5.07,0,0,0-3.76,1.46A5.7,5.7,0,0,0,73,9.9a5.1,5.1,0,0,0,1.61,4.21,5.74,5.74,0,0,0,3.71,1.29,5.11,5.11,0,0,0,4-1.53,3.72,3.72,0,0,0,1-1.6ZM76.57,7.12a2.19,2.19,0,0,1,1.64-.6,2.41,2.41,0,0,1,1.63.57,2.3,2.3,0,0,1,.73,1.66H75.83A2.86,2.86,0,0,1,76.57,7.12Z"/><path class="cls-1" d="M71.88,15.14H69.36V8.78a1.78,1.78,0,0,0-1.86-2,1.86,1.86,0,0,0-1.92,2v6.37H63V8.78a1.76,1.76,0,0,0-1.84-2,1.85,1.85,0,0,0-1.92,2v6.37H56.76V8.84a4.34,4.34,0,0,1,4.45-4.62,3.89,3.89,0,0,1,3.14,1.47,4,4,0,0,1,3.14-1.47c2.76,0,4.39,1.91,4.39,4.62Z"/><path class="cls-1" d="M122.76.93S120,.63,120,2.87v3a3.33,3.33,0,0,0-1.21-1.16,3.39,3.39,0,0,0-1.7-.42,4,4,0,0,0-3.31,1.54,6.8,6.8,0,0,0-1.24,4.31,5.73,5.73,0,0,0,1.26,3.83,5.34,5.34,0,0,0,3.95,1.43c5.1,0,5-4.37,5-4.37Zm-3.32,11.31a2,2,0,0,1-1.78.87,1.94,1.94,0,0,1-1.74-.87,4.46,4.46,0,0,1-.57-2.4,4.22,4.22,0,0,1,.56-2.26,1.93,1.93,0,0,1,1.77-.91,2.1,2.1,0,0,1,1.39.5A3.62,3.62,0,0,1,120,10,3.84,3.84,0,0,1,119.44,12.24Z"/><path class="cls-2" d="M59.53,32.72a1.3,1.3,0,0,1-.41,1,1.34,1.34,0,0,1-1,.4H56.76V24.46a4.44,4.44,0,0,1,1.67-3.84,5.57,5.57,0,0,1,3.62-1,4.86,4.86,0,0,1,3.62,1.5,5.92,5.92,0,0,1,1.3,4,6.48,6.48,0,0,1-1.22,4.1,3.83,3.83,0,0,1-3.14,1.53,4.2,4.2,0,0,1-1.79-.36,3,3,0,0,1-1.3-1.25Zm4.64-7.49a4.06,4.06,0,0,0-.61-2.41A2,2,0,0,0,61.8,22a2,2,0,0,0-1.71.84,4.08,4.08,0,0,0-.57,2.41,3.61,3.61,0,0,0,.61,2.29,2,2,0,0,0,1.75.84,2,2,0,0,0,1.67-.84,3.82,3.82,0,0,0,.61-2.29"/><path class="cls-2" d="M85.32,29.84v-.68a3.06,3.06,0,0,1-1.94,1.4,4,4,0,0,1-2.42-.2,4.49,4.49,0,0,1-2.06-1.78A6.17,6.17,0,0,1,78,25.15a6.64,6.64,0,0,1,1.14-4,4.37,4.37,0,0,1,3.66-1.55,5.08,5.08,0,0,1,3.56,1A4.47,4.47,0,0,1,88,24.47v5.66A4.73,4.73,0,0,1,82.84,35a4.56,4.56,0,0,1-4.56-3.45H81.2a2.23,2.23,0,0,0,2.3,1,2.19,2.19,0,0,0,1.2-.78,3.29,3.29,0,0,0,.62-1.93m-4.56-4.61q0,2.77,1.6,3.07a2.18,2.18,0,0,0,2.36-.74,3,3,0,0,0,.52-1.38,5.85,5.85,0,0,0,0-1.87,3.71,3.71,0,0,0-.66-1.65,1.75,1.75,0,0,0-1.52-.72,1.84,1.84,0,0,0-1.84,1,5.22,5.22,0,0,0-.48,2.29"/><path class="cls-2" d="M75.68,20.33a6.76,6.76,0,0,0-3.09-.69A4.54,4.54,0,0,0,68.81,21,4.05,4.05,0,0,0,68,23.32H70.7a2,2,0,0,1,.39-1,1.76,1.76,0,0,1,1.4-.48,2.87,2.87,0,0,1,1.34.25.93.93,0,0,1,.46.9.83.83,0,0,1-.6.78,4.38,4.38,0,0,1-1.1.24l-.94.12a6.74,6.74,0,0,0-2.44.68,3,3,0,0,0-1.51,2.82A2.9,2.9,0,0,0,68.64,30a3.73,3.73,0,0,0,2.38.82c6,.27,6-3.17,6-3.89v-4a2.64,2.64,0,0,0-1.35-2.59m-1.4,6a2.21,2.21,0,0,1-.79,1.91,2.88,2.88,0,0,1-1.66.52,1.52,1.52,0,0,1-1-.31,1.22,1.22,0,0,1-.4-1,1.26,1.26,0,0,1,.65-1.17,4.11,4.11,0,0,1,1.27-.38l.63-.12a4.45,4.45,0,0,0,.74-.19,2.73,2.73,0,0,0,.53-.27Z"/><path class="cls-2" d="M98.51,21.21a5.73,5.73,0,0,0-8.09,0,6.12,6.12,0,0,0-1.33,3.94,6.09,6.09,0,0,0,1.33,4,5.8,5.8,0,0,0,8.09,0,6.1,6.1,0,0,0,1.33-4,6.13,6.13,0,0,0-1.33-3.94m-2.2,6.38a2.43,2.43,0,0,1-3.71,0A4,4,0,0,1,92,25.15a3.93,3.93,0,0,1,.65-2.43,2.44,2.44,0,0,1,3.71,0A4,4,0,0,1,97,25.15a4,4,0,0,1-.65,2.44"/></g></g></svg>