<?xml version="1.0" encoding="utf-8"?>
<!-- Generator: Adobe Illustrator 19.0.0, SVG Export Plug-In . SVG Version: 6.00 Build 0)  -->
<svg version="1.1" id="Layer_1" xmlns="http://www.w3.org/2000/svg" xmlns:xlink="http://www.w3.org/1999/xlink" x="0px" y="0px"
	 viewBox="0 0 152.9 50" style="enable-background:new 0 0 152.9 50;" xml:space="preserve">
<style type="text/css">
	.st0{fill:#231F20;}
	.st1{fill:#FFFFFF;}
</style>
<g id="XMLID_1_">
	<path id="XMLID_49_" class="st0" d="M152.9,43.2c0,3.7-3,6.8-6.8,6.8H6.8C3,50,0,47,0,43.2V6.8C0,3,3,0,6.8,0h139.3
		c3.7,0,6.8,3,6.8,6.8V43.2z"/>
	<path id="XMLID_48_" class="st1" d="M39.9,33c-0.8,1.8-1.2,2.6-2.2,4.2c-1.5,2.2-3.5,5-6,5c-2.3,0-2.8-1.5-5.9-1.5
		c-3.1,0-3.7,1.5-6,1.5c-2.5,0-4.5-2.5-5.9-4.7c-4.1-6.2-4.5-13.5-2-17.3c1.8-2.7,4.6-4.4,7.2-4.4c2.7,0,4.4,1.5,6.6,1.5
		c2.2,0,3.5-1.5,6.6-1.5c2.4,0,4.8,1.3,6.6,3.5C33,22.5,34,30.8,39.9,33"/>
	<path id="XMLID_47_" class="st1" d="M29.9,13.4c1.1-1.4,2-3.5,1.7-5.6c-1.8,0.1-4,1.3-5.3,2.8c-1.1,1.4-2.1,3.5-1.7,5.5
		C26.6,16.1,28.7,14.9,29.9,13.4"/>
	<path id="XMLID_44_" class="st1" d="M53.6,22.9c0.2,0.8,0.4,1.6,0.7,2.4l1.6,4.5h-4.5l1.5-4.6C53.2,24.6,53.4,23.8,53.6,22.9
		 M52.2,20.1l-5.8,17.1h2.7l1.7-5.3h5.6l1.8,5.3H61l-5.8-17.1H52.2z"/>
	<path id="XMLID_41_" class="st1" d="M67.9,26.7c2.3,0,3.3,2.1,3.3,4.3c0,2.7-1.3,4.4-3.4,4.4c-1.5,0-2.7-1-3.1-2.4
		c-0.1-0.2-0.1-0.5-0.1-0.8v-2.1c0-0.2,0-0.4,0.1-0.6c0-0.1,0-0.1,0-0.2C65.1,27.7,66.4,26.7,67.9,26.7 M68.5,24.5
		c-1.8,0-3.2,0.7-4.1,2l-0.1-1.7h-2.4l0,0.2c0.1,1.1,0.1,2.2,0.1,3.9v13.2h2.6V36c0.8,1,2.1,1.5,3.5,1.5c1.5,0,2.9-0.6,3.9-1.7
		c1.1-1.2,1.7-2.9,1.7-5c0-1.8-0.5-3.4-1.5-4.6C71.4,25.2,70,24.5,68.5,24.5"/>
	<path id="XMLID_38_" class="st1" d="M81.2,26.7c2.3,0,3.3,2.1,3.3,4.3c0,2.7-1.3,4.4-3.4,4.4c-1.5,0-2.7-1-3.1-2.4
		C78,32.8,78,32.5,78,32.1v-2.1c0-0.2,0-0.4,0.1-0.6c0-0.1,0-0.1,0-0.2C78.5,27.7,79.8,26.7,81.2,26.7 M81.9,24.5
		c-1.8,0-3.2,0.7-4.1,2l-0.1-1.7h-2.4l0,0.2c0.1,1.1,0.1,2.2,0.1,3.9v13.2H78V36c0.8,1,2.1,1.5,3.5,1.5c1.5,0,2.9-0.6,3.9-1.7
		c1.1-1.2,1.7-2.9,1.7-5c0-1.8-0.5-3.4-1.5-4.6C84.7,25.2,83.4,24.5,81.9,24.5"/>
	<path id="XMLID_37_" class="st1" d="M98.6,27.4c-2.4-0.9-3.2-1.7-3.2-3c0-1.1,0.9-2.3,2.9-2.3c1.7,0,2.8,0.6,3,0.8l0.2,0.1l0.7-2.2
		l-0.1-0.1c-0.4-0.3-1.7-0.8-3.8-0.8c-3.3,0-5.6,2-5.6,4.7c0,2.3,1.4,3.8,4.6,5c2.2,0.8,3,1.7,3,3.1c0,1.6-1.3,2.6-3.3,2.6
		c-1.3,0-2.7-0.4-3.7-1.1l-0.2-0.1l-0.7,2.2l0.1,0.1c1,0.7,2.8,1.1,4.4,1.1c4.5,0,6-2.7,6-5C103,30.1,101.7,28.6,98.6,27.4"/>
	<path id="XMLID_36_" class="st1" d="M107.7,21.9l-2.5,0.8v2.2h-1.9v2.1h1.9v6.3c0,1.5,0.3,2.6,0.9,3.3c0.6,0.6,1.5,1,2.5,1
		c1,0,1.7-0.2,2-0.3l0.1-0.1l-0.1-2.1l-0.2,0.1c-0.3,0.1-0.7,0.1-1.2,0.1c-1,0-1.4-0.6-1.4-2.1v-6.3h3.1v-2.1h-3.1V21.9z"/>
	<path id="XMLID_33_" class="st1" d="M117.1,26.6c2.3,0,3.4,2.3,3.4,4.4c0,2.6-1.4,4.5-3.4,4.5h0c-2,0-3.4-1.9-3.4-4.4
		C113.7,28.8,114.7,26.6,117.1,26.6 M117.2,24.5c-3.6,0-6.2,2.7-6.2,6.6c0,3.8,2.5,6.4,6,6.4h0c3,0,6.2-2.1,6.2-6.6
		c0-1.8-0.6-3.4-1.7-4.6C120.5,25.2,119,24.5,117.2,24.5"/>
	<path id="XMLID_32_" class="st1" d="M131.1,24.7l-0.2,0c-0.2-0.1-0.4-0.1-0.6-0.1c-1.4,0-2.6,0.8-3.3,2.1l-0.1-1.8h-2.3l0,0.2
		c0.1,1,0.1,2.2,0.1,3.7l0,8.5h2.6v-6.6c0-0.4,0-0.7,0.1-1c0.3-1.6,1.4-2.6,2.7-2.6c0.3,0,0.5,0,0.7,0l0.3,0V24.7z"/>
	<path id="XMLID_29_" class="st1" d="M136.8,26.5c0.8,0,1.4,0.2,1.9,0.7c0.7,0.8,0.9,1.9,0.9,2.4h-5.9
		C133.9,28.1,134.9,26.5,136.8,26.5 M137,24.5c-3.5,0-5.9,2.8-5.9,6.7c0,3.8,2.4,6.3,6.1,6.3c2,0,3.3-0.4,4.1-0.8l0.2-0.1l-0.5-1.9
		l-0.2,0.1c-0.7,0.3-1.6,0.6-3.2,0.6c-1.1,0-3.7-0.4-3.9-3.8l8.4,0l0-0.2c0.1-0.3,0.1-0.6,0.1-1.1C142.1,27.7,140.8,24.5,137,24.5"
		/>
	<path id="XMLID_26_" class="st1" d="M47.6,15.6c0.3,0,0.7,0,1.2,0c2.5,0,3.8-1.3,3.8-3.4c0-1.9-1.2-3.1-3.7-3.1
		c-0.6,0-1.1,0-1.4,0.1V15.6z M46.4,8.4c0.7-0.1,1.6-0.2,2.5-0.2c1.7,0,2.9,0.3,3.7,1c0.8,0.7,1.3,1.6,1.3,2.9
		c0,1.3-0.5,2.4-1.3,3.2c-0.9,0.8-2.2,1.2-4,1.2c-0.8,0-1.5,0-2.1-0.1V8.4z"/>
	<path id="XMLID_23_" class="st1" d="M58.1,15.7c1.1,0,2-1,2-2.3c0-1-0.5-2.2-1.9-2.2c-1.4,0-2,1.2-2,2.3
		C56.1,14.8,56.9,15.7,58.1,15.7L58.1,15.7z M58,16.5c-1.7,0-3.1-1.2-3.1-3c0-2,1.4-3.1,3.2-3.1c1.9,0,3.1,1.2,3.1,3
		C61.2,15.6,59.6,16.5,58,16.5L58,16.5z"/>
	<path id="XMLID_22_" class="st1" d="M63.1,10.6l0.9,2.9c0.2,0.7,0.3,1.3,0.5,1.9h0c0.1-0.6,0.4-1.2,0.6-1.9l1.1-3h1l1,2.9
		c0.2,0.7,0.4,1.3,0.6,1.9h0c0.1-0.6,0.3-1.2,0.5-1.9l0.9-2.9h1.2l-2.1,5.8h-1.1l-1-2.8c-0.2-0.7-0.4-1.2-0.6-1.9h0
		c-0.2,0.7-0.4,1.3-0.6,1.9l-1,2.8h-1.1l-2-5.8H63.1z"/>
	<path id="XMLID_21_" class="st1" d="M72.5,12.1c0-0.6,0-1.1-0.1-1.6h1l0.1,1h0c0.3-0.5,1.1-1.1,2.1-1.1c0.9,0,2.3,0.5,2.3,2.5v3.5
		h-1.2V13c0-0.9-0.4-1.7-1.5-1.7c-0.8,0-1.4,0.5-1.6,1.1c-0.1,0.1-0.1,0.3-0.1,0.5v3.5h-1.2V12.1z"/>
	<rect id="XMLID_20_" x="79.9" y="7.8" class="st1" width="1.2" height="8.5"/>
	<path id="XMLID_17_" class="st1" d="M85.7,15.7c1.1,0,2-1,2-2.3c0-1-0.5-2.2-1.9-2.2c-1.4,0-2,1.2-2,2.3
		C83.8,14.8,84.6,15.7,85.7,15.7L85.7,15.7z M85.7,16.5c-1.7,0-3.1-1.2-3.1-3c0-2,1.4-3.1,3.2-3.1c1.9,0,3.1,1.2,3.1,3
		C88.9,15.6,87.2,16.5,85.7,16.5L85.7,16.5z"/>
	<path id="XMLID_14_" class="st1" d="M93.8,13.4c-1.3,0-2.7,0.2-2.7,1.3c0,0.7,0.5,1,1.1,1c0.9,0,1.4-0.5,1.6-1
		c0-0.1,0.1-0.2,0.1-0.3V13.4z M94.9,15c0,0.5,0,1,0.1,1.4H94l-0.1-0.7h0c-0.3,0.5-1.1,0.9-2,0.9c-1.3,0-2-0.8-2-1.7
		c0-1.4,1.4-2.2,3.9-2.2v-0.1c0-0.5-0.1-1.4-1.5-1.3c-0.6,0-1.2,0.2-1.7,0.4l-0.3-0.7c0.5-0.3,1.3-0.5,2.1-0.5c2,0,2.5,1.2,2.5,2.4
		V15z"/>
	<path id="XMLID_11_" class="st1" d="M101.2,12.9c0-0.1,0-0.3-0.1-0.5c-0.2-0.7-0.8-1.2-1.7-1.2c-1.2,0-1.9,1-1.9,2.2
		c0,1.2,0.7,2.2,1.9,2.2c0.8,0,1.5-0.5,1.7-1.3c0-0.1,0.1-0.3,0.1-0.5V12.9z M102.4,7.8v7c0,0.5,0,1.1,0.1,1.5h-1.1l-0.1-1h0
		c-0.4,0.7-1.1,1.1-2.2,1.1c-1.6,0-2.8-1.2-2.8-3c0-1.9,1.3-3.1,2.9-3.1c1,0,1.7,0.4,2,0.9h0V7.8H102.4z"/>
	<path id="XMLID_8_" class="st1" d="M109.9,15.7c1.1,0,2-1,2-2.3c0-1-0.5-2.2-1.9-2.2c-1.4,0-2,1.2-2,2.3
		C107.9,14.8,108.7,15.7,109.9,15.7L109.9,15.7z M109.8,16.5c-1.7,0-3.1-1.2-3.1-3c0-2,1.4-3.1,3.2-3.1c1.9,0,3.1,1.2,3.1,3
		C113.1,15.6,111.4,16.5,109.8,16.5L109.8,16.5z"/>
	<path id="XMLID_7_" class="st1" d="M114.5,12.1c0-0.6,0-1.1-0.1-1.6h1l0.1,1h0c0.3-0.5,1.1-1.1,2.1-1.1c0.9,0,2.3,0.5,2.3,2.5v3.5
		h-1.2V13c0-0.9-0.4-1.7-1.5-1.7c-0.8,0-1.4,0.5-1.6,1.1c-0.1,0.1-0.1,0.3-0.1,0.5v3.5h-1.2V12.1z"/>
	<path id="XMLID_6_" class="st1" d="M126.2,9.2v1.4h1.7v0.8h-1.7v3.1c0,0.7,0.2,1.1,0.9,1.1c0.3,0,0.5,0,0.7-0.1l0.1,0.8
		c-0.2,0.1-0.6,0.1-1,0.1c-0.5,0-1-0.2-1.3-0.4c-0.3-0.3-0.5-0.8-0.5-1.5v-3.2h-1v-0.8h1V9.5L126.2,9.2z"/>
	<path id="XMLID_5_" class="st1" d="M129.2,7.8h1.2v3.6h0c0.2-0.3,0.5-0.6,0.8-0.7c0.3-0.2,0.8-0.3,1.2-0.3c0.9,0,2.3,0.5,2.3,2.5
		v3.5h-1.2V13c0-1-0.4-1.7-1.5-1.7c-0.8,0-1.4,0.5-1.6,1.1c-0.1,0.1-0.1,0.3-0.1,0.5v3.5h-1.2V7.8z"/>
	<path id="XMLID_2_" class="st1" d="M140.8,12.9c0-0.7-0.3-1.7-1.6-1.7c-1.2,0-1.7,1-1.8,1.7H140.8z M137.3,13.7c0,1.4,1,2,2.2,2
		c0.8,0,1.4-0.1,1.8-0.3l0.2,0.7c-0.4,0.2-1.1,0.4-2.2,0.4c-2,0-3.2-1.2-3.2-2.9c0-1.8,1.2-3.2,3-3.2c2.1,0,2.7,1.7,2.7,2.7
		c0,0.2,0,0.4,0,0.5L137.3,13.7z"/>
</g>
<g id="XMLID_102_">
</g>
<g id="XMLID_103_">
</g>
<g id="XMLID_104_">
</g>
<g id="XMLID_105_">
</g>
<g id="XMLID_106_">
</g>
<g id="XMLID_107_">
</g>
<g id="XMLID_108_">
</g>
<g id="XMLID_109_">
</g>
<g id="XMLID_110_">
</g>
<g id="XMLID_111_">
</g>
<g id="XMLID_112_">
</g>
<g id="XMLID_113_">
</g>
<g id="XMLID_114_">
</g>
<g id="XMLID_115_">
</g>
<g id="XMLID_116_">
</g>
</svg>
