<svg xmlns="http://www.w3.org/2000/svg" viewBox="0 0 162.72 40"><defs><style>.cls-1{fill:#fff;}</style></defs><title>Logo-ML</title><g id="Layer_2" data-name="Layer 2"><g id="Layer_1-2" data-name="Layer 1"><path class="cls-1" d="M28.35.76C12.7.76,0,9.08,0,19.3c0,.26,0,1,0,1.09C0,31.22,11.09,40,28.35,40S56.7,31.22,56.7,20.39V19.3C56.7,9.08,44,.76,28.35.76Zm0,1.09c8.31,0,15.75,2.38,20.75,6.13a17.43,17.43,0,0,1-6.95,1.58,15.36,15.36,0,0,1-6.76-1.63,15.2,15.2,0,0,0-5.76-1.36h-.23a10,10,0,0,0-6.57,2.33,13,13,0,0,0-3.28.6,8.87,8.87,0,0,1-2.31.44l-.88,0A45,45,0,0,1,8.09,7.63C13.08,4.08,20.31,1.85,28.36,1.85ZM7.12,8.37a41,41,0,0,0,9,2.59c.37,0,.76.07,1.16.07a9.87,9.87,0,0,0,2.61-.48c.5-.14,1.06-.29,1.64-.41L21,10.6l-2.4,2.6a1.21,1.21,0,0,0-.33,1.33,1.69,1.69,0,0,0,.63.7,5,5,0,0,0,2.55.65,4.65,4.65,0,0,0,1-.11,9.21,9.21,0,0,0,3.18-2,10.58,10.58,0,0,1,3.13-1.87,3.54,3.54,0,0,1,.87-.12h.23A4.71,4.71,0,0,1,32.28,13c2,1.48,10.71,9.12,10.79,9.2a1.68,1.68,0,0,1,.52,1.28,1.4,1.4,0,0,1-.7,1.12,2.13,2.13,0,0,1-1.15.36,1.88,1.88,0,0,1-1-.29s-3-2.77-4.12-3.69a.92.92,0,0,0-.52-.28.28.28,0,0,0-.23.11c-.17.21,0,.51.25.7L39.61,25a1.67,1.67,0,0,1,.48.95,1.6,1.6,0,0,1-.83,1.45,2.26,2.26,0,0,1-1.24.41,1.8,1.8,0,0,1-1-.3l-.5-.49c-.92-.9-1.86-1.83-2.55-2.41a.93.93,0,0,0-.52-.27.3.3,0,0,0-.22.09c-.08.09-.13.25.06.51a1.73,1.73,0,0,0,.18.2L36,28a1,1,0,0,1,.06,1.22L36,29.3a2.42,2.42,0,0,1-.24.23,2.14,2.14,0,0,1-1.59.37.86.86,0,0,1-.5-.21l0,0c-.14-.14-1.42-1.46-2.49-2.34a.88.88,0,0,0-.5-.27.3.3,0,0,0-.23.1c-.21.23.11.58.24.7l2.18,2.4a.51.51,0,0,1-.08.15c-.08.11-.34.37-1.13.47l-.29,0a5,5,0,0,1-2.13-.63,3.24,3.24,0,0,0-2.93-4.63h-.12a2.88,2.88,0,0,0-1.65-3,3.41,3.41,0,0,0-1.36-.3,2.76,2.76,0,0,0-1,.18,2.73,2.73,0,0,0-1.59-1.35,3.56,3.56,0,0,0-1.16-.21,3.07,3.07,0,0,0-1.81.58,2.73,2.73,0,0,0-4.07-.23C12.84,20.74,10.15,19,3,17.4c-.34-.08-1.12-.3-1.61-.44A15.18,15.18,0,0,1,7.12,8.37ZM20.45,27.08,20.37,27h-.08a.38.38,0,0,0-.22.09,1.85,1.85,0,0,1-1.07.38,1.68,1.68,0,0,1-.6-.12,2.33,2.33,0,0,1-1.45-2.7.23.23,0,0,0-.07-.22l-.12-.1-.11.11A1.73,1.73,0,1,1,17.16,23l.06.46.26-.39a2.4,2.4,0,0,1,2.76-1,1.75,1.75,0,0,1,1.23,1.63c0,.23.18.24.21.24a.28.28,0,0,0,.2-.1,1.75,1.75,0,0,1,1.27-.54,2.43,2.43,0,0,1,1,.21c1.63.7.89,2.77.88,2.79-.14.34-.15.49,0,.58l.06,0h0a1.14,1.14,0,0,0,.32-.08,2.78,2.78,0,0,1,.87-.19h0a2.22,2.22,0,1,1,0,4.44A2.2,2.2,0,0,1,24,29c0-.1,0-.37-.24-.37a.42.42,0,0,0-.27.14,1.56,1.56,0,0,1-1.09.49,1.9,1.9,0,0,1-.72-.16c-1.27-.51-1.28-1.38-1.23-1.73A.32.32,0,0,0,20.45,27.08Zm35.17-7.79c0,9.63-12.2,17.44-27.26,17.44S1.1,28.92,1.1,19.29a11.35,11.35,0,0,1,.06-1.15l1.57.37c7.34,1.63,9.77,3.33,10.18,3.65a2.76,2.76,0,0,0,3,3.76A3.21,3.21,0,0,0,18,28.32a2.72,2.72,0,0,0,1,.19,2.51,2.51,0,0,0,.63-.08,3.2,3.2,0,0,0,2.79,1.82,2.4,2.4,0,0,0,.84-.15,3.24,3.24,0,0,0,5.32,1,6.11,6.11,0,0,0,2.75.82l.42,0A2.51,2.51,0,0,0,33.61,31a1.43,1.43,0,0,0,.11-.19,3.18,3.18,0,0,0,.88.14,3,3,0,0,0,1.78-.63,2.45,2.45,0,0,0,1-1.52v0a2.94,2.94,0,0,0,.59.06,3.3,3.3,0,0,0,1.82-.58,2.63,2.63,0,0,0,1.31-2.34,2.94,2.94,0,0,0,.6.06,3.15,3.15,0,0,0,1.71-.53,2.5,2.5,0,0,0,1.19-1.93A2.6,2.6,0,0,0,44.28,22a70.57,70.57,0,0,1,11.31-3.54Q55.62,18.85,55.62,19.29Zm-.27-2.44c0,.13.05.26.08.39a65,65,0,0,0-11.91,3.87c-2.69-2.35-8.9-7.75-10.59-9a7.42,7.42,0,0,0-2.19-1.28,3.64,3.64,0,0,0-1.08-.17,4.53,4.53,0,0,0-1.37.23,11.22,11.22,0,0,0-3.22,2L25,13a8.89,8.89,0,0,1-2.75,1.75,4.64,4.64,0,0,1-1,.11,2.61,2.61,0,0,1-1.91-.62c0-.06,0-.16.09-.3v0l2.37-2.55c1.85-1.85,3.6-3.6,7.63-3.7h.2a14.27,14.27,0,0,1,5.3,1.25,16.42,16.42,0,0,0,7.22,1.73,18.84,18.84,0,0,0,7.9-1.89,15,15,0,0,1,5.28,8.07Z"/><path class="cls-1" d="M78.18,4.22a6.26,6.26,0,0,0-3.9,1.06,6.11,6.11,0,0,0-3.9-1.11c-3.73,0-5.6,1.85-5.6,5.58v7.67h3.33V9.08c0-1.36.77-2,2.22-2s2.2.67,2.27,2v8.34h3.31V9.12c0-1.36.76-2,2.22-2s2.2.67,2.27,2v6.71c0,1,.54,1.55,1.63,1.63h1.7V9.79C83.76,6.07,81.91,4.22,78.18,4.22Z"/><path class="cls-1" d="M103.15,10.68c0-1.9.86-3.08,2.69-3.08l1.52,0V4.17h-1c-4.37,0-6.45,2.35-6.55,6.56v6.74h3.33Z"/><path class="cls-1" d="M127.94,9.16c-3.31.32-5.58,1.16-5.65,4.29,0,2.89,2.17,4.34,5.3,4.1,3.53-.25,5.7-1.85,5.7-5.45V7.66c-.07-2.42-1.9-3.6-5.5-3.6s-5,1.68-5.11,4.2h3.06a2,2,0,0,1,2.2-1.52c1.36,0,2,.37,2.12,1.11S129.35,9,127.94,9.16Zm2.17,1.72v1.07a2.7,2.7,0,0,1-2.94,2.94,1.46,1.46,0,0,1-1.65-1.53c0-1,.67-1.58,2-1.83A14.45,14.45,0,0,0,130.11,10.88Z"/><path class="cls-1" d="M144.12,1.66V6.19a4.11,4.11,0,0,0-3.73-2c-3.48.12-5.21,2.39-5.21,6.83s2,6.54,6.07,6.61,6.12-1.92,6.12-5.85V0A4.33,4.33,0,0,0,144.12,1.66ZM141.3,14.82c-1.88,0-2.76-1.33-2.74-4s1-3.75,2.79-3.75,2.69,1.23,2.76,3.75S143.17,14.82,141.3,14.82Z"/><path class="cls-1" d="M86.51,21.57V36.74h3.28V19.45h-.86A2.84,2.84,0,0,0,86.51,21.57Z"/><path class="cls-1" d="M106.81,23.29a4.07,4.07,0,0,0-3.7,2V19.45h-.37a3.22,3.22,0,0,0-2.91,1.61v9.83c0,3.92,2,5.87,6.12,5.85S112,34.47,112,30.13,110.29,23.41,106.81,23.29Zm-1,10.66c-1.88,0-2.76-1.33-2.74-4s1-3.75,2.79-3.75,2.69,1.23,2.76,3.75S107.72,34,105.85,34Z"/><path class="cls-1" d="M97.65,8.85a6.94,6.94,0,0,0-1.12-2.41,5.65,5.65,0,0,0-2-1.68,6,6,0,0,0-2.83-.63,6.59,6.59,0,0,0-2.64.52A6.15,6.15,0,0,0,85.7,8.18a7.42,7.42,0,0,0-.47,2.66,7.73,7.73,0,0,0,.46,2.71A6.14,6.14,0,0,0,87,15.66,5.62,5.62,0,0,0,89,17a7.27,7.27,0,0,0,2.71.48,6.66,6.66,0,0,0,3.69-1,5.84,5.84,0,0,0,2.26-3.27H94.6a2.2,2.2,0,0,1-.93,1.12,3.58,3.58,0,0,1-4.08-.23,3.53,3.53,0,0,1-.86-2.46H97.9A9,9,0,0,0,97.65,8.85Zm-8.93.61a4,4,0,0,1,.16-.84,2.57,2.57,0,0,1,.47-.89,2.65,2.65,0,0,1,.89-.7,3,3,0,0,1,1.39-.28,2.46,2.46,0,0,1,1.91.69,4,4,0,0,1,.87,2Z"/><path class="cls-1" d="M118.9,16.23a5.82,5.82,0,0,0,2-3.9h-3.4a3.35,3.35,0,0,1-.86,1.9,2.59,2.59,0,0,1-2,.71,2.49,2.49,0,0,1-1.39-.37,2.78,2.78,0,0,1-.91-1,4.38,4.38,0,0,1-.48-1.3,7,7,0,0,1-.15-1.42,7.28,7.28,0,0,1,.15-1.45,4.29,4.29,0,0,1,.51-1.34,3.06,3.06,0,0,1,.93-1,2.48,2.48,0,0,1,1.42-.39,2.37,2.37,0,0,1,2.61,2.21h3.45a4.69,4.69,0,0,0-2-3.66A5.88,5.88,0,0,0,117,4.35a8.05,8.05,0,0,0-2.2-.3,7,7,0,0,0-2.78.52A5.85,5.85,0,0,0,109.93,6a6.22,6.22,0,0,0-1.28,2.21,8.55,8.55,0,0,0-.43,2.77,7.19,7.19,0,0,0,.47,2.65A6.16,6.16,0,0,0,110,15.73a5.86,5.86,0,0,0,2,1.35,7,7,0,0,0,2.65.48A6.42,6.42,0,0,0,118.9,16.23Z"/><path class="cls-1" d="M162.24,8a5.85,5.85,0,0,0-3.44-3.5,7.44,7.44,0,0,0-2.75-.48,7.34,7.34,0,0,0-2.73.48A5.88,5.88,0,0,0,149.89,8a7.89,7.89,0,0,0-.47,2.8,7.78,7.78,0,0,0,.47,2.78,6,6,0,0,0,1.34,2.12,5.86,5.86,0,0,0,2.09,1.35,7.51,7.51,0,0,0,2.73.47,7.61,7.61,0,0,0,2.75-.47,5.84,5.84,0,0,0,2.1-1.35,6,6,0,0,0,1.34-2.12,7.79,7.79,0,0,0,.47-2.78A7.89,7.89,0,0,0,162.24,8ZM159,12.34a4,4,0,0,1-.51,1.32,2.68,2.68,0,0,1-1,.93,3,3,0,0,1-1.5.35,2.92,2.92,0,0,1-1.49-.35,2.71,2.71,0,0,1-1-.93,4,4,0,0,1-.51-1.32,7.52,7.52,0,0,1-.15-1.5,7.71,7.71,0,0,1,.15-1.52A3.86,3.86,0,0,1,153.61,8a2.71,2.71,0,0,1,2.45-1.29,2.91,2.91,0,0,1,1.5.36,2.83,2.83,0,0,1,1,.93A3.87,3.87,0,0,1,159,9.32a7.71,7.71,0,0,1,.15,1.52A7.52,7.52,0,0,1,159,12.34Z"/><path class="cls-1" d="M113.95,30V36.7h3.33V29.92c0-1.9.86-3.08,2.69-3.08l1.53,0V23.4h-1C116.13,23.4,114,25.75,113.95,30Z"/><path class="cls-1" d="M134.75,28.08a6.94,6.94,0,0,0-1.12-2.41,5.65,5.65,0,0,0-2-1.68,6,6,0,0,0-2.83-.63,6.58,6.58,0,0,0-2.64.52,6.15,6.15,0,0,0-3.38,3.54,7.42,7.42,0,0,0-.47,2.66,7.73,7.73,0,0,0,.46,2.71,6.14,6.14,0,0,0,1.29,2.12,5.63,5.63,0,0,0,2,1.37,7.26,7.26,0,0,0,2.71.48,6.66,6.66,0,0,0,3.69-1,5.84,5.84,0,0,0,2.26-3.27H131.7a2.2,2.2,0,0,1-.93,1.12,3.58,3.58,0,0,1-4.08-.23,3.53,3.53,0,0,1-.86-2.46H135A9,9,0,0,0,134.75,28.08Zm-8.93.61a4,4,0,0,1,.16-.84,2.57,2.57,0,0,1,.47-.89,2.65,2.65,0,0,1,.89-.7,3,3,0,0,1,1.39-.28,2.46,2.46,0,0,1,1.91.69,4,4,0,0,1,.87,2Z"/><rect class="cls-1" x="93.31" y="19.45" width="3.28" height="2.99"/><rect class="cls-1" x="93.31" y="23.94" width="3.28" height="12.79"/></g></g></svg>