<?xml version="1.0" encoding="utf-8"?>
<!-- Generator: Adobe Illustrator 19.0.0, SVG Export Plug-In . SVG Version: 6.00 Build 0)  -->
<svg version="1.1" id="Layer_1" xmlns="http://www.w3.org/2000/svg" xmlns:xlink="http://www.w3.org/1999/xlink" x="0px" y="0px"
	 viewBox="0 0 43.9 43.3" style="enable-background:new 0 0 43.9 43.3;" xml:space="preserve">
<style type="text/css">
	.st0{fill:#D93B3F;}
</style>
<g>
	<g>
		<g>
			<g>
				<polygon id="XMLID_118_" class="st0" points="26.6,12.8 21.3,4.7 30,-0.3 31,1.4 24.1,5.4 28.3,11.7 26.6,12.8 				"/>
			</g>
			<path id="XMLID_117_" class="st0" d="M26,38.2l-0.6-1.9l1-0.3c6.2-1.9,10.6-8.1,10.6-15c0-7.8-5.3-13.9-12.9-14.8l-1-0.1l0.2-2
				l1,0.1c8.5,1.1,14.7,8.1,14.7,16.8c0,7.8-4.9,14.7-12,16.9L26,38.2L26,38.2z"/>
		</g>
	</g>
	<g>
		<g>
			<g>
				<polygon id="XMLID_116_" class="st0" points="13.9,43.6 12.9,41.9 19.7,37.9 15.6,31.6 17.3,30.5 22.6,38.6 13.9,43.6 				"/>
			</g>
			<path id="XMLID_115_" class="st0" d="M20.6,39.2l-1-0.1C11.1,38.1,5,31,5,22.3C5,14.5,9.9,7.6,17,5.4l1-0.3l0.6,1.9l-1,0.3
				C11.3,9.3,7,15.4,7,22.3c0,7.8,5.3,13.9,12.9,14.8l1,0.1L20.6,39.2L20.6,39.2z"/>
		</g>
	</g>
</g>
</svg>
