<svg xmlns="http://www.w3.org/2000/svg" viewBox="0 0 260 31.22"><defs><style>.cls-1{fill:#609;}.cls-2{fill:#c5281c;}</style></defs><title>logo-VIVO</title><g id="Layer_2" data-name="Layer 2"><g id="cont"><path class="cls-1" d="M207.12,0a4.13,4.13,0,1,0,4.13,4.13A4.13,4.13,0,0,0,207.12,0m42.34,24.84a4.16,4.16,0,1,1,4.16-4.16,4.16,4.16,0,0,1-4.16,4.16m0-14.71A10.54,10.54,0,1,0,260,20.67a10.54,10.54,0,0,0-10.55-10.54m-13,1.14-2.25-1a2.43,2.43,0,0,0-3.21,1.3l-5.31,10.66h-.08l-5.3-10.66a2.43,2.43,0,0,0-3.21-1.29l-2.24,1a2.26,2.26,0,0,0-1.06,3.27l8.45,15a2.87,2.87,0,0,0,2.38,1.5h2a2.87,2.87,0,0,0,2.38-1.5l8.45-15a2.26,2.26,0,0,0-1.06-3.27m-37.12,0-2.25-1a2.43,2.43,0,0,0-3.21,1.29l-5.3,10.66h-.08l-5.3-10.66A2.43,2.43,0,0,0,180,10.27l-2.25,1a2.27,2.27,0,0,0-1.06,3.27l8.45,15a2.88,2.88,0,0,0,2.39,1.5h2a2.86,2.86,0,0,0,2.38-1.5l8.45-15a2.27,2.27,0,0,0-1.06-3.27m8.84-.92h-2.13a2.55,2.55,0,0,0-2.55,2.55V28.46A2.55,2.55,0,0,0,206.07,31h2.13a2.54,2.54,0,0,0,2.54-2.55V12.9a2.54,2.54,0,0,0-2.54-2.55"/><path class="cls-2" d="M62,20V11.59c5.25,0,7.18-.26,8.09,6.17h.55V10.6H56.4v1h2.48V30H56.15v1H70.88V23.46h-.74C69.41,29.15,68,30,63.91,30H62v-9h1.09c1.82,0,2.85,1.1,3.22,4.23H67V16s-.66,0-.66,0S66.22,20,63,20Z"/><path class="cls-2" d="M56.2,20.33H48.13v.91h2.76v6.63c-.47,1.68-2.95,2.39-3.68,2.39-5.15,0-4.78-7.54-4.78-9.56,0-1.84-.18-9.56,4.78-9.56,3.5,0,5.34,3.48,6.08,6.62h.56c0-1.29,0-7.43,0-7.41s-2.4,1.73-2.41,1.7-1.1-1.65-4.24-1.65c-6.08,0-8.31,6.07-8.29,10.3,0,3.87,1.81,10.47,8.29,10.47A4.94,4.94,0,0,0,51.45,29S54,31,54,31V21.24H56.2Z"/><path class="cls-2" d="M150.43,23.46c-.73,5.7-2.18,6.55-6.23,6.55H144V11.58h2.58v-1h-8.47v1h2.58V30h-2l-7.53-20H130s-6.25,18.12-6.27,18.17-.47,1.56-1.51,1.76c-1,0-.88-.45-.88-.63V25.85c0-.92-.07-3-1-4a5.47,5.47,0,0,0-2.85-1.19s4.63-1,4.63-5.35c0-3.08-2.14-4.62-5.73-4.75H106.17v1h2.6V30h-2.6v1h8.34V30h-2.6V21.15h3.47c6,.5-1,9.85,6.86,9.84h5V30c-.28,0-2.1.05-2.21-1.21-.08-.92,1.2-4.22,1.2-4.22H133S135.07,30,135.09,30h-2.36v1h18.44V23.46Zm-35.2-3.34h-3.31V11.58h4.23c2.48.38,2.58,3.25,2.58,4.16,0,2.21-.92,4.38-3.51,4.38m11.42,3.52,2.94-8.81,3.13,8.81Z"/><path class="cls-2" d="M96.14,11.58c5.25,0,7.19-.25,8.1,6.19h.56V10.6H84v1h.54c.74,0,2.48.06,2.58,1.59h0V24.92L77.33,10.6H72v1h.88c1,0,2.51,0,2.58,1.59V28.23c0,1.47-2.2,2-3.12,2h0V31h7.18v-.73c-.92,0-3.13-.56-3.13-2l0-13.26c3.86,5.52,11.15,16,11.21,16H88V13.17c.1-1.54,1.85-1.59,2.58-1.59H93V30H90.25v1H105V23.46h-.74C103.51,29.15,102.07,30,98,30H96.14v-9h1.09c1.82,0,2.85,1.1,3.22,4.23h.67V16s-.66,0-.66,0-.13,4-3.31,3.93h-1Z"/><polygon class="cls-2" points="160.44 11.58 160.44 10.59 152.13 10.59 152.13 11.58 154.73 11.58 154.74 30 152.13 30 152.13 30.99 160.44 30.99 160.44 30 157.83 30 157.83 11.58 160.44 11.58"/><path class="cls-2" d="M29.16,29.15l.75-.28h0c1.07-.44,1.22-.72,1.17-1.43V24.55c.81,2.07,1.59,3.52,3.16,3.52A3.1,3.1,0,0,0,35,28l.62-.14-.42-.47a3.93,3.93,0,0,1-.55-.8l-.2-.35a1.58,1.58,0,0,0-2-.48c-.32-.64-.65-1.48-1-2.51l-.09-.2-.2-.46v0h0a14.78,14.78,0,0,0-.81-1.6,9.14,9.14,0,0,0-.87-1.23,5.25,5.25,0,0,0-3.24-1.79,19.09,19.09,0,0,0-2.39-.22l-.54,0-1.88-.14-1.42-.11a1.5,1.5,0,0,0,0-.35,2.06,2.06,0,0,0,0-.44h5.28a3,3,0,0,0,2.93-1.78A3,3,0,0,0,31,13h.19a3.06,3.06,0,0,0,3-1.91l.24-.52H16.59a2.68,2.68,0,0,0-2.55,2v0a3.8,3.8,0,0,0-1.57-2,4,4,0,0,0-3-.53,3.15,3.15,0,0,0-.83.38,3.05,3.05,0,0,0-.71.62,5.9,5.9,0,0,0-.61,1,1.23,1.23,0,0,0-.24.26l-.21.4v0A5,5,0,0,1,6,14a.84.84,0,0,0-.22.72.93.93,0,0,0,.25.46H6a.8.8,0,0,0-.11.41.87.87,0,0,0,.92.83,1.78,1.78,0,0,0,1-.38,2.72,2.72,0,0,1,.58-.32.28.28,0,0,1,.27.27c0,.39-.5.59-.85.62l-.73.08c-.52,0-.77.33-.77.57a.63.63,0,0,0,.2.47l.05.06.19.16L6,19.19a2.88,2.88,0,0,0-1.76-.83,1.25,1.25,0,0,0-.92.32,1.08,1.08,0,0,0-.18.22h0a1.62,1.62,0,0,0-1.34.69,1.64,1.64,0,0,0,.16,1.62L0,21.71V31H35.65V29.15Zm4.6-2.52.19.33.23.38a1.77,1.77,0,0,1-1.38-.93.84.84,0,0,1,1,.22m-7.72-8a4.52,4.52,0,0,1,2.8,1.54,7,7,0,0,1,.44.57c-1.93-.25-2.61-.54-3.69-2.18l.45.07m-.84-2.77H21.58a3.34,3.34,0,0,0,.78-1h4.93a2.29,2.29,0,0,1-2.09,1m2.89-1.78H24.47a3.4,3.4,0,0,0,.8-1.09h4.94a2.28,2.28,0,0,1-2.11,1.09m.25-2.78h4.92a2.29,2.29,0,0,1-2,1H27.61a3.31,3.31,0,0,0,.74-1m-19.87.19A2.31,2.31,0,0,1,9,11.07a2.39,2.39,0,0,1,.63-.28,2.57,2.57,0,0,1,1.19,0l-1.3.8-.48,0a3.84,3.84,0,0,0-.61,0l0-.05M7,17.28A.11.11,0,0,1,7,17.19l.64,0c.77,0,1.56-.35,1.65-1.15A1,1,0,0,0,8.4,15a2.07,2.07,0,0,0-1,.45,1.35,1.35,0,0,1-.57.28c-.1,0-.18-.06-.18-.12a.07.07,0,0,1,0,0L7.07,15l-.35-.24c-.07,0-.19-.14-.2-.21s0-.09.06-.11a6.38,6.38,0,0,0,.48-.63c.1-.14.16-.22.34-.22a.31.31,0,0,1,.31.31c0,.11.12.2.28.2s.22-.11.32-.2.36-.33.17-.49-1.09.19-.85-.62l.06-.11A1.81,1.81,0,0,1,9,12.27a4.17,4.17,0,0,1,.52,0l.13,0,1.84-1.13a.32.32,0,0,1,0,.07h0a1.59,1.59,0,0,1-.82,1.54l-.22.13.15.83a1.05,1.05,0,0,0-.8,1,3.26,3.26,0,0,0,.08.58,6.09,6.09,0,0,1,.12.86c0,.86-1.19,1.43-2.2,1.4h0A2.55,2.55,0,0,1,7,17.39a.13.13,0,0,1,0-.11M2.4,20a.88.88,0,0,1,.89-.34l.31.05.1-.3a.43.43,0,0,1,.11-.19.53.53,0,0,1,.39-.12,2.31,2.31,0,0,1,1.45.81,4.08,4.08,0,0,1,.44.59l.08.13.08.12a3,3,0,0,1,.22.39l.46-.64s0,0,0-.05-.11-.2-.16-.28l0-.06h0L6.67,20l-.16-.26,1-1.54a2.76,2.76,0,0,0,.54.06H8c1.36,0,2.76-.78,2.76-2.09v0a6.64,6.64,0,0,0-.14-1,2.93,2.93,0,0,1-.07-.43c0-.14.2-.3.49-.3h.44l-.2-1.14a2.36,2.36,0,0,0,1-1.9,3.38,3.38,0,0,1,1.22,2.34,3.8,3.8,0,0,1-.12,1.06l0,.17h0a14.28,14.28,0,0,1-.51,1.65l-.11.3.28.16c.5.28.8.49.8,1.14a1.58,1.58,0,0,1-1.32,1.44l-.89.17.75.5a.85.85,0,0,1,.39.7.87.87,0,0,1-.89.85h-.28l-.08.26c-.28.9-.58,1.34-1.54,1.43a5.29,5.29,0,0,0,.08-.91c0-.09,0-.33,0-.41l0-.84-.59.6a1.89,1.89,0,0,1-.94.44v-.73L4.22,20.62,2.72,21a1.13,1.13,0,0,1-.32-1M1.19,29.15l3-.79,3,.79ZM7.7,28.5l-3.48-.9-3.48.9V22.28l3.48-.9,3.48.9Zm1.62-1.21a2.1,2.1,0,0,0-.12,1.85H8.44v-6a3.25,3.25,0,0,0,.84-.25,6.12,6.12,0,0,1-.1.74l0,.2-.07.43h.44A3.27,3.27,0,0,0,11,24v2.49a.11.11,0,0,1-.11.12H10.8a1.75,1.75,0,0,0-1.49.67m8,.16A1.89,1.89,0,0,0,17,29.15H12.46a1.64,1.64,0,0,0,1.08-.41,1.37,1.37,0,0,0,.31-1s.06-.13.28-.23l.39-.18-.23-.36a4.28,4.28,0,0,1-.07-2.59h0a10.51,10.51,0,0,0,3.57-.65l.85-.27h0s.31-.1.73-.2l1.47,2.43v0c.15.21.17.35-.1.66l-.74.8-1.21-.22h0a1.7,1.7,0,0,0-1.5.55m.4,1.69a1.3,1.3,0,0,1,.16-1.21,1,1,0,0,1,.82-.3l1.4.26h.23l1-1.07h0a1.18,1.18,0,0,0,.16-1.56l-1.32-2.18a4.63,4.63,0,0,1,.64-.05h0a3,3,0,0,1,1.38.41l.38.78c.28.56.62,1.27.72,1.55a.63.63,0,0,1-.21.7l-2.54,2.68Zm8.66,0h-4.8L23.64,27A1.38,1.38,0,0,0,24,25.52c-.1-.29-.37-.85-.65-1.43a13.42,13.42,0,0,0,4.57.92c.3,0,.38.13.44.4l.11,1.09-1.32.29a1.27,1.27,0,0,0-.95.8,1.85,1.85,0,0,0,.16,1.54m.53-1.28a.53.53,0,0,1,.41-.34l2-.44-.18-1.76v0a1.15,1.15,0,0,0-1.11-1c-3.52-.28-4.34-.81-5.2-1.36h0l-.06,0a3.68,3.68,0,0,0-1.91-.59,9.34,9.34,0,0,0-2.36.43l-.87.27a9.58,9.58,0,0,1-3.66.61h-.29l-.07.28A6.15,6.15,0,0,0,13.5,27a.89.89,0,0,0-.39.71c0,.39-.08.48-.11.52a2.41,2.41,0,0,1-1.32.22h-.19l-.11.15A1.46,1.46,0,0,1,9.94,29a1.53,1.53,0,0,1,0-1.31,1.1,1.1,0,0,1,.88-.35h.11a.85.85,0,0,0,.85-.85V23.34a3.47,3.47,0,0,0,.36-.76A1.6,1.6,0,0,0,13.48,21a1.56,1.56,0,0,0-.25-.84,2.22,2.22,0,0,0,1.33-2,1.75,1.75,0,0,0-.9-1.62,14.88,14.88,0,0,0,.47-1.6l.62-2.21a2,2,0,0,1,1.84-1.43h10.9a2.29,2.29,0,0,1-2,1H18.87l-.34.74h5.91a2.28,2.28,0,0,1-2.11,1.09H18l-.34.74h3.82a2.28,2.28,0,0,1-2.08,1H17.1l-.34.74H19.2a.77.77,0,0,1,.08.44.88.88,0,0,1-.89.86,1.39,1.39,0,0,1-.56-.14l-.32-.14-.57.51.32.14a2.7,2.7,0,0,0,1.14.32,1.59,1.59,0,0,0,1.14-.48l1.75.14,1.91.15.54,0,.92.05c1.49,2.41,2.25,2.73,5.13,3.08.21.37.39.76.57,1.16v4.72c0,.22,0,.29,0,.33a2.48,2.48,0,0,1-.7.38l-2.43.91a1.34,1.34,0,0,1-.31-1.22"/><path class="cls-2" d="M1.6,23.68v0H1.52l0,0a.21.21,0,0,1,0-.08v-.22l.19-.07a.38.38,0,0,0,.14-.12A.27.27,0,0,0,1.88,23a.15.15,0,0,0-.08-.15.35.35,0,0,0-.26,0l-.36.09h0v0h.08l0,0a.23.23,0,0,1,0,.08v.54a.28.28,0,0,1,0,.08l0,0-.07,0h0v0l.42-.11Zm-.11-.41v-.34h0a.12.12,0,0,1,.11,0,.15.15,0,0,1,0,.12.25.25,0,0,1,0,.14.19.19,0,0,1-.11.07h0"/><path class="cls-2" d="M1.8,23.58h0v0l.29-.07v0H2a0,0,0,0,1,0,0,.21.21,0,0,1,0-.07l0-.09.28-.07,0,.09,0,0h0s0,0,0,0l-.06,0h0v0l.4-.1h0v0H2.62a.29.29,0,0,1-.06-.1l-.28-.61h0l-.3.74a.62.62,0,0,1-.07.14.15.15,0,0,1-.07.05m.26-.32L2.18,23l.11.23Z"/><path class="cls-2" d="M3.06,23.26H3v0s0,0,.06-.11L3.13,23l.11.14,0,.06h0v0l-.06,0h0v0l.41-.1h0v0H3.56A.3.3,0,0,1,3.48,23l-.22-.28.16-.22.08-.11,0,0,.05,0h0v0l-.32.08v0h.08a0,0,0,0,1,0,0,.32.32,0,0,1-.07.13l-.08.12-.09-.12,0-.05h0a0,0,0,0,1,0,0l0,0h0v0l-.41.11h0v0h0l0,0,.06.07.2.25-.16.24-.11.15-.08,0h0v0l.33-.08Z"/><path class="cls-2" d="M1.71,24.12h.08l.06,0a.26.26,0,0,1,0,.1h0V24l-.74.19h0v.24h0a.32.32,0,0,1,.07-.15.23.23,0,0,1,.12-.06h0v.63a.28.28,0,0,1,0,.08l0,0-.05,0h0v0l.44-.11h0v0H1.67l0,0a.23.23,0,0,1,0-.08v-.64Z"/><path class="cls-2" d="M2.32,24l0,0,.05,0h0v0L2,24H2v0h.09l0,0a.34.34,0,0,1,0,.08v.55a.22.22,0,0,1,0,.08l0,0-.05,0H2v0l.44-.11h0v0H2.34l0,0a.2.2,0,0,1,0-.07V24a.34.34,0,0,1,0-.08"/><path class="cls-2" d="M2.59,24.6l0,0-.07,0h0v0l.42-.11a.55.55,0,0,0,.27-.14.28.28,0,0,0,.08-.18.14.14,0,0,0-.07-.13.28.28,0,0,0-.14,0,.43.43,0,0,0,.13-.1.21.21,0,0,0,0-.12.15.15,0,0,0-.13-.16.53.53,0,0,0-.2,0l-.39.1h0v0h.08l0,0a.23.23,0,0,1,0,.08v.54a.31.31,0,0,1,0,.08m.22-.39.13,0a.1.1,0,0,1,.07,0,.17.17,0,0,1,0,.09.21.21,0,0,1,0,.09.23.23,0,0,1-.06.08l-.09,0h0a0,0,0,0,1,0,0ZM3,24a.21.21,0,0,1-.06.07l-.12,0v-.31h.12a.09.09,0,0,1,.06,0,.14.14,0,0,1,0,.08A.21.21,0,0,1,3,24"/><path class="cls-2" d="M3.65,23.63l0,0,.06,0h0v0l-.44.11h0v0H3.4l0,0a.21.21,0,0,1,0,.07v.55a.34.34,0,0,1,0,.08l0,0-.05,0h0v0l.44-.11h0v0H3.66l0,0a.22.22,0,0,1,0-.07v-.55a.24.24,0,0,1,0-.08"/><path class="cls-2" d="M4,25.53H3.9l-.05-.05-.19-.22a.38.38,0,0,0,.11-.08A.27.27,0,0,0,3.84,25a.17.17,0,0,0,0-.13.16.16,0,0,0-.12-.05.78.78,0,0,0-.22,0l-.38.1h0v0h.08l0,0a.22.22,0,0,1,0,.08v.54a.27.27,0,0,1,0,.08l0,0-.06,0H3a.28.28,0,0,1-.06-.1L2.69,25h0l-.3.74a.73.73,0,0,1-.07.14L2.22,26H2.16l0,0a.22.22,0,0,1,0-.07v-.55a.25.25,0,0,1,0-.08l0,0,.06,0h0v0l-.34.09h0l-.22.59-.22-.48-.34.09h0v0h.09l0,0a.26.26,0,0,1,0,.07v.53a.44.44,0,0,1,0,.06l0,.05,0,0,0,0h0v0l.29-.07h0v0H1.33a.05.05,0,0,1,0,0,.46.46,0,0,1,0-.07v-.55l.29.64h0l.31-.8v.57a.25.25,0,0,1,0,.08l0,0-.06,0h0v0L2.22,26h0l.28-.07h0v0H2.42a0,0,0,0,1,0,0,.22.22,0,0,1,0-.07l0-.09.28-.07,0,.09,0,0h0a0,0,0,0,1,0,0l-.06,0h0v0l.38-.1h0l.4-.1h0v0H3.42l0,0a.22.22,0,0,1,0-.08v-.23h0l.25.31h0L4,25.57H4v0ZM3.63,25a.25.25,0,0,1,0,.11.17.17,0,0,1-.06.07l-.12,0h0v-.35l.06,0a.16.16,0,0,1,.13,0,.15.15,0,0,1,0,.12m-.93.55-.22.06.12-.29"/><path class="cls-2" d="M1.88,26.5a.1.1,0,0,1,0,0l0,0H1.77a.47.47,0,0,0-.18,0,.57.57,0,0,0-.22.12.67.67,0,0,0-.17.21.56.56,0,0,0-.07.25.36.36,0,0,0,.05.2.26.26,0,0,0,.16.12h.1l.14,0a.56.56,0,0,0,.18-.08.69.69,0,0,0,.15-.14h0v-.08a.74.74,0,0,1-.14.15.38.38,0,0,1-.14.07.21.21,0,0,1-.15,0,.18.18,0,0,1-.08-.11.59.59,0,0,1,0-.19.63.63,0,0,1,0-.21.34.34,0,0,1,.09-.14.3.3,0,0,1,.14-.08.2.2,0,0,1,.16,0,.21.21,0,0,1,.09.14h0v-.31h0Z"/><path class="cls-2" d="M2.72,26.87a.41.41,0,0,1-.1.19.38.38,0,0,1-.18.1H2.33a.28.28,0,0,1,0-.08v-.23h.08a.09.09,0,0,1,0,0,.29.29,0,0,1,0,.11h0v-.45h0a.38.38,0,0,1,0,.16.17.17,0,0,1-.11.08h0v-.32l.08,0,.12,0a.12.12,0,0,1,.08,0,.23.23,0,0,1,0,.11h0V26.3L2,26.48H2v0H2.1l0,0a.32.32,0,0,1,0,.07v.55a.31.31,0,0,1,0,.08l0,0-.05,0H2v0l.71-.18h0l0-.29h0Z"/><path class="cls-2" d="M3.85,26.57a.44.44,0,0,1-.1.19.37.37,0,0,1-.18.1h-.1l0,0a.33.33,0,0,1,0-.08v-.23h.08a.08.08,0,0,1,0,0,.27.27,0,0,1,0,.11h0v-.45h0a.39.39,0,0,1,0,.15.17.17,0,0,1-.11.08h0v-.32l.08,0,.12,0a.12.12,0,0,1,.08,0,.22.22,0,0,1,0,.11h0V26l-.69.18h0v0h.09l0,0a.45.45,0,0,1,0,.07v.55a.25.25,0,0,1,0,.08l0,0-.06,0h0v0l.71-.18h0l0-.29h0Z"/><path class="cls-2" d="M4.87,23.2h0l.27-.57a.47.47,0,0,1,.07-.12.09.09,0,0,1,.07,0h0v0L5,22.38v0H5l.07,0,0,0a.06.06,0,0,1,0,0,.14.14,0,0,1,0,0l0,.08L5,22.93l-.18-.44,0-.09v0s0,0,0,0h.09v0l-.41-.11v0h0l.06,0,.07.16Z"/><path class="cls-2" d="M5.22,23.23h0v0l.29.07v0h0l-.08,0a.07.07,0,0,1,0-.05.14.14,0,0,1,0-.06l0-.07.28.07,0,.11,0,0a.06.06,0,0,1,0,0s0,0,0,0H5.68v0l.41.11v0h0l-.06,0A.58.58,0,0,1,6,23.28l-.31-.76h0l-.28.59a.33.33,0,0,1-.06.1.08.08,0,0,1-.07,0m.24-.2.11-.23.12.29Z"/><path class="cls-2" d="M6.13,22.7l.05,0,0,.05,0,0,0,.58s0,.07,0,.08a.11.11,0,0,1-.09,0h0v0l.3.08v0h0l-.07,0a.14.14,0,0,1,0-.1v-.5l.56.82h0l0-.7a.21.21,0,0,1,0-.08l0,0H7v0l-.29-.07v0h0a.15.15,0,0,1,.09.06.23.23,0,0,1,0,.1v.33l-.4-.6h0l-.3-.08v0Z"/><path class="cls-2" d="M4.65,24.27a.69.69,0,0,0,.13.12.58.58,0,0,0,.18.08l.17,0h.16V24.3a.15.15,0,0,1,0-.05l0,0h.06v0L5,24.09v0H5l0,0,0,0a.25.25,0,0,1,0,.06v.17H5a.29.29,0,0,1-.14-.08.33.33,0,0,1-.09-.15.92.92,0,0,1,0-.22.73.73,0,0,1,0-.19.19.19,0,0,1,.07-.12.17.17,0,0,1,.14,0,.36.36,0,0,1,.16.1.55.55,0,0,1,.12.21h0v-.3h0a.06.06,0,0,1,0,0h0l-.06,0-.08,0-.1,0a.33.33,0,0,0-.31.05.34.34,0,0,0-.12.29.53.53,0,0,0,0,.2.57.57,0,0,0,.09.14"/><path class="cls-2" d="M6.05,24.73l0-.27H6A.2.2,0,0,1,6,24.6a.24.24,0,0,1-.18,0h0l0,0,0,0a.39.39,0,0,1,0-.08v-.23l.08,0a.22.22,0,0,1,.05.07.43.43,0,0,1,0,.12h0V24h0a.25.25,0,0,1,0,.13s-.05,0-.1,0h0v-.32l.08,0,.13,0a.27.27,0,0,1,.09.08.39.39,0,0,1,.05.14H6v-.26H6l-.7-.18v0h0l.06,0,0,0a.61.61,0,0,1,0,.07v.55a.21.21,0,0,1,0,.07l0,0H5.33v0l.71.18Z"/><path class="cls-2" d="M6.86,24.64h0a.48.48,0,0,1-.06.13.13.13,0,0,1-.07,0h-.1l-.07,0-.07,0,0,0a.32.32,0,0,1,0-.08v-.53a.22.22,0,0,1,0-.07l0,0h.1v0l-.45-.12v0h0l.05,0,0,0a.49.49,0,0,1,0,.08v.55a.23.23,0,0,1,0,.07l0,0H6.09v0l.73.19h0l0-.29Z"/><path class="cls-2" d="M6.84,24.13h0l.05,0,0,0a.4.4,0,0,1,0,.08v.55a.23.23,0,0,1,0,.07l0,0H6.86v0l.43.11h0v0h0l-.05,0,0,0a.22.22,0,0,1,0-.08v-.55a.22.22,0,0,1,0-.07l0,0h.09v0l-.44-.11Z"/><path class="cls-2" d="M4.87,25.64a.32.32,0,0,1-.16-.11.51.51,0,0,1-.11-.23h0v.32h0l0,0h0l0,0,.09.05.08,0H5a.21.21,0,0,0,.12,0,.19.19,0,0,0,.08-.17.29.29,0,0,0-.06-.16.88.88,0,0,0-.2-.19L4.77,25,4.71,25a.11.11,0,0,1,0,0,.07.07,0,0,1,0-.06.11.11,0,0,1,.09,0A.28.28,0,0,1,5,25a.37.37,0,0,1,.09.19h0v-.29H5a.09.09,0,0,1,0,0H5l-.06,0-.07,0-.08,0a.22.22,0,0,0-.19,0,.18.18,0,0,0-.07.16.31.31,0,0,0,0,.12.48.48,0,0,0,.08.11l.16.14.11.09,0,.06a.12.12,0,0,1,0,.06.08.08,0,0,1,0,.07.12.12,0,0,1-.1,0"/><path class="cls-2" d="M5.81,25.15l.06.07a.54.54,0,0,1,0,.12H6v-.24h0l-.74-.19h0v.24h0A.16.16,0,0,1,5.3,25a.13.13,0,0,1,.11,0h.05l0,.64c0,.05,0,.07,0,.07l0,0H5.37v0l.43.11h0v0h0l-.05,0,0,0a.27.27,0,0,1,0-.08l0-.63h.05l.08,0"/><path class="cls-2" d="M6.52,26.05H6.43v0l.4.1h0v0h0l-.06,0A.54.54,0,0,1,6.71,26l-.31-.76h0l-.28.59a.37.37,0,0,1-.07.1.08.08,0,0,1-.07,0H6v0l.28.07h0v0h0l-.08,0a.07.07,0,0,1,0-.05.16.16,0,0,1,0-.06l0-.07.28.07,0,.11,0,.05v0a0,0,0,0,1,0,0m-.09-.27-.22-.06.11-.23Z"/><path class="cls-2" d="M6.89,26.64v0l-.24-.06h0v0h0l.06,0,0,0a.06.06,0,0,1,0,0,.22.22,0,0,1,0,0l0,.08-.13.31-.16-.44,0-.09v0s0,0,0,0h.08v0l-.35-.09h0l-.6-.16h0l-.26-.07-.18.48-.21-.58h0L4.55,26h0v0h0l0,0,0,0a.31.31,0,0,1,0,.08v.53a.5.5,0,0,1,0,.06v0H4.56v0l.25.07h0v0h0l-.07,0a.11.11,0,0,1,0-.05.61.61,0,0,1,0-.07v-.54L5,27H5l.25-.66v.58a.21.21,0,0,1,0,.07l0,0H5.17v0l.34.09.64.17,0-.26h0a.22.22,0,0,1-.08.14.19.19,0,0,1-.16,0h0l0,0,0,0a.56.56,0,0,1,0-.08v-.22l.07,0a.2.2,0,0,1,0,.07.38.38,0,0,1,0,.12H6v-.45h0a.26.26,0,0,1,0,.13s0,0-.09,0h0v-.32l.07,0,.11,0a.25.25,0,0,1,.08.08.45.45,0,0,1,0,.14h0v-.22l0,0,.06.15.27.73h0l.24-.58a.6.6,0,0,1,.06-.13.08.08,0,0,1,.06,0Zm-1.35.42,0,0,0,0a.34.34,0,0,1,0-.08v-.55a.25.25,0,0,1,0-.07l0,0h.06l.05,0,0,0a.58.58,0,0,1,0,.07V27c0,.05,0,.07,0,.07l0,0H5.54Z"/><path class="cls-2" d="M7.31,27.16A.8.8,0,0,0,7.13,27L7,26.88l0-.07a.12.12,0,0,1,0,0,.07.07,0,0,1,0-.06.08.08,0,0,1,.08,0,.25.25,0,0,1,.13.1.39.39,0,0,1,.08.18h0v-.29h0a.1.1,0,0,1,0,0h0l0,0-.06,0-.07,0a.17.17,0,0,0-.16,0,.19.19,0,0,0-.06.16.31.31,0,0,0,0,.12l.07.11.15.13.1.09,0,.06a.14.14,0,0,1,0,.06.09.09,0,0,1,0,.07.1.1,0,0,1-.09,0,.27.27,0,0,1-.14-.1.49.49,0,0,1-.09-.22h0v.32h0l0,0h0l0,0L7,27.5l.07,0h.07a.17.17,0,0,0,.11,0,.2.2,0,0,0,.07-.17.34.34,0,0,0,0-.16"/></g></g></svg>