<?xml version="1.0" encoding="utf-8"?>
<!-- Generator: Adobe Illustrator 19.0.0, SVG Export Plug-In . SVG Version: 6.00 Build 0)  -->
<svg version="1.1" id="Layer_1" xmlns="http://www.w3.org/2000/svg" xmlns:xlink="http://www.w3.org/1999/xlink" x="0px" y="0px"
	 viewBox="0 0 95.1 40" style="enable-background:new 0 0 95.1 40;" xml:space="preserve">
<style type="text/css">
	.st0{fill:#DFE0E2;}
	.st1{fill:#C1C4C7;}
</style>
<g id="XMLID_2_">
	<path id="XMLID_168_" class="st0" d="M79.1,38.7H17.4c-8.9,0-16.1-7.2-16.1-16.1c0-8.9,7.2-16.1,16.1-16.1h61.7
		c8.9,0,16.1,7.2,16.1,16.1C95.1,31.5,87.9,38.7,79.1,38.7 M17.4,7.9c-8.2,0-14.8,6.6-14.8,14.8c0,8.2,6.6,14.8,14.8,14.8h61.7
		c8.2,0,14.8-6.6,14.8-14.8c0-8.2-6.6-14.8-14.8-14.8H17.4z"/>
	<path id="XMLID_165_" class="st0" d="M71.7,13.7c-2.4,0-4.3,1.9-4.3,4.3c0,2.4,1.9,4.3,4.3,4.3c2.4,0,4.3-1.9,4.3-4.3
		C76,15.6,74.1,13.7,71.7,13.7 M71.7,20.3c-1.2,0-2.2-1-2.2-2.2c0-1.2,1-2.2,2.2-2.2c1.2,0,2.2,1,2.2,2.2
		C73.9,19.3,72.9,20.3,71.7,20.3"/>
	<path id="XMLID_162_" class="st0" d="M51.8,13.7c-2.4,0-4.3,1.9-4.3,4.3c0,2.4,1.9,4.3,4.3,4.3c2.4,0,4.3-1.9,4.3-4.3
		C56.1,15.6,54.2,13.7,51.8,13.7 M51.8,20.3c-1.2,0-2.2-1-2.2-2.2c0-1.2,1-2.2,2.2-2.2c1.2,0,2.2,1,2.2,2.2
		C54,19.3,53,20.3,51.8,20.3"/>
	<path id="XMLID_161_" class="st0" d="M67,20.4c-0.3,0.1-0.7,0.2-0.9,0.2c-0.7,0-0.9-0.3-0.9-1v-4h1.8v-1.7h-1.8v-2.4h-2l-0.4,2.4
		h-1.4v0h-0.1c-1.1,0-2,0.7-2.5,1.8l-0.7-1.8h-1.4v8.3h2.4v-3.6c0-1.8,1.1-3,2.4-3h1.3v4.1c0,1.9,1,2.7,2.6,2.7
		c0.8,0,1.5-0.2,1.9-0.3L67,20.4z"/>
	<polyline id="XMLID_160_" class="st0" points="79,16.5 79,22.2 76.6,22.2 76.6,13.9 78,13.9 78.5,15.2 	"/>
	<path id="XMLID_159_" class="st0" d="M78.5,15.2c0.7-0.8,1.7-1.5,2.9-1.5c2,0,2.8,1.6,2.8,3v5.5h-2.4v-5.4c0-0.7-0.6-1.1-1.2-1.1
		c-0.7,0-1.1,0.4-1.5,0.8"/>
	<polygon id="XMLID_158_" class="st0" points="37.9,10.9 40.6,10.9 44.4,18 44.4,10.9 46.6,10.9 46.6,22.2 44.2,22.2 40.2,14.4 
		40.2,22.2 37.9,22.2 	"/>
	<path id="XMLID_157_" class="st0" d="M37.2,32.3l0.6-0.9c0.5,0.3,1.1,0.7,2,0.7c0.8,0,1.3-0.4,1.3-1c0-0.7-0.6-0.9-1.7-1.3
		c-0.9-0.3-1.9-0.8-1.9-2.1c0-1.2,1-1.9,2.3-1.9c0.9,0,1.5,0.2,2,0.5l-0.5,0.9c-0.4-0.2-1-0.4-1.6-0.4c-0.7,0-1.2,0.3-1.2,0.9
		c0,0.7,0.5,0.9,1.5,1.2c1,0.3,2.1,0.8,2.1,2.3c0,1.2-0.9,2.1-2.5,2.1C38.6,33.1,37.7,32.7,37.2,32.3"/>
	<polygon id="XMLID_156_" class="st0" points="44.4,25.8 48.7,25.8 48.7,26.8 45.7,26.8 45.7,28.7 48.1,28.7 48.1,29.7 45.7,29.7 
		45.7,32 48.9,32 48.9,33 44.4,33 	"/>
	<path id="XMLID_137_" class="st0" d="M50.6,29.4c0-2.1,1-3.7,3-3.7c0.9,0,1.6,0.3,2.1,0.9l-0.7,0.8c-0.4-0.4-0.8-0.6-1.4-0.6
		c-1.2,0-1.7,1-1.7,2.7c0,1.7,0.6,2.5,1.7,2.5c0.6,0,1.1-0.3,1.5-0.8l0.7,0.8c-0.5,0.6-1.2,1-2.2,1C51.6,33.1,50.6,31.5,50.6,29.4"
		/>
	<path id="XMLID_136_" class="st0" d="M57.9,30.2v-4.4h1.2v4.6c0,1,0.2,1.6,1.3,1.6c1,0,1.3-0.6,1.3-1.6v-4.6h1.2v4.4
		c0,1.8-0.7,2.8-2.5,2.8C58.6,33.1,57.9,32,57.9,30.2"/>
	<path id="XMLID_133_" class="st0" d="M70.4,33h-1.3l-1.4-3.1h-1.1V33h-1.2v-7.2h2.3c1.5,0,2.6,0.5,2.6,2.1c0,1.1-0.6,1.6-1.4,1.9
		L70.4,33z M67.7,29c0.9,0,1.4-0.3,1.4-1.1c0-0.8-0.5-1.1-1.3-1.1h-1.2V29H67.7z"/>
	<polygon id="XMLID_132_" class="st0" points="72.5,25.8 76.8,25.8 76.8,26.8 73.8,26.8 73.8,28.7 76.2,28.7 76.2,29.7 73.8,29.7 
		73.8,32 77,32 77,33 72.5,33 	"/>
	<path id="XMLID_129_" class="st0" d="M79.1,25.8h1.8c2.3,0,3.5,1.3,3.5,3.6c0,2.3-1.1,3.6-3.4,3.6h-1.9V25.8z M80.8,32
		c1.7,0,2.3-0.8,2.3-2.6c0-1.6-0.5-2.6-2.1-2.6h-0.7V32H80.8z"/>
	<path id="XMLID_125_" class="st0" d="M17.3,40C7.8,40,0,32.2,0,22.7S7.8,5.4,17.3,5.4c9.5,0,17.3,7.8,17.3,17.3
		C34.6,32.2,26.9,40,17.3,40 M17.2,9.6c-3.4,0-6.7,1.3-9.1,3.8c-2.4,2.4-3.8,5.7-3.8,9.1c0,3.4,1.3,6.7,3.8,9.1
		c2.4,2.4,5.7,3.8,9.1,3.8c3.4,0,6.7-1.3,9.1-3.8c2.4-2.4,3.8-5.7,3.8-9.1c0-3.4-1.3-6.7-3.8-9.1C23.9,11,20.6,9.6,17.2,9.6"/>
	<rect id="XMLID_124_" x="36.2" y="2.7" class="st1" width="1.3" height="1.4"/>
	<rect id="XMLID_123_" x="36.2" class="st1" width="1.3" height="1.4"/>
	<rect id="XMLID_120_" x="32.4" y="4" class="st1" width="1.3" height="1.3"/>
	<rect id="XMLID_27_" x="29.9" y="6.6" class="st1" width="1.3" height="1.3"/>
	<rect id="XMLID_26_" x="33.7" y="5.4" class="st1" width="1.4" height="1.3"/>
	<rect id="XMLID_8_" x="28.6" y="5.4" class="st1" width="1.3" height="1.2"/>
	<rect id="XMLID_7_" x="32.4" y="6.6" class="st1" width="1.3" height="1.3"/>
	<rect id="XMLID_6_" x="34.9" y="1.4" class="st1" width="1.3" height="1.3"/>
	<rect id="XMLID_5_" x="32.4" y="2.7" class="st1" width="2.5" height="1.3"/>
	<rect id="XMLID_4_" x="31.2" y="4" class="st1" width="1.2" height="2.6"/>
	<path id="XMLID_3_" class="st1" d="M31.2,7.9v1.3h-1.3V7.9h-2.1v0.9h-1.1v1.1h1.3v1.3h-1.3V9.9h-1.3v2H24v1.3h-0.8v1.3h-0.9
		c-1,1.5-3.6,6.4-4.4,8.3c-2.8-4-5-5.5-6.8-6.1c-0.9-0.3-2.1,0.7-0.5,2.3c3.6,3.9,4.7,7.2,5.8,9.8c0.6,1.4,3.2,1.6,3.7,0.2
		c1.1-2.9,2.7-6.3,4.6-9v-1.4h1v-1.3h1.1v-1.5h1.3v-1.4h-1.3v-1.3h1.3v1.3h1.3l0-1.3h1v-1.5h1.1v-1.1h1.1V7.9H31.2z"/>
</g>
</svg>
