<?xml version="1.0" standalone="no"?>
<!DOCTYPE svg PUBLIC "-//W3C//DTD SVG 20010904//EN"
 "http://www.w3.org/TR/2001/REC-SVG-20010904/DTD/svg10.dtd">
<svg version="1.0" xmlns="http://www.w3.org/2000/svg"
 width="16.000000pt" height="16.000000pt" viewBox="0 0 16.000000 16.000000"
 preserveAspectRatio="xMidYMid meet">
<metadata>
Created by potrace 1.11, written by Peter Selinger 2001-2013
</metadata>
<g transform="translate(0.000000,16.000000) scale(0.002286,-0.002286)"
fill="#000000" stroke="none">
<path d="M0 3500 l0 -3500 1980 0 c1572 0 1981 3 1987 12 5 7 55 58 113 114
l105 100 1293 0 c1142 -1 1292 1 1293 14 1 8 2 592 3 1297 l1 1283 105 107
c58 59 108 109 113 111 4 2 7 894 7 1983 l0 1979 -3500 0 -3500 0 0 -3500z"/>
</g>
</svg>
