<?xml version="1.0" encoding="utf-8"?>
<!-- Generator: Adobe Illustrator 19.0.0, SVG Export Plug-In . SVG Version: 6.00 Build 0)  -->
<svg version="1.1" id="Layer_1" xmlns="http://www.w3.org/2000/svg" xmlns:xlink="http://www.w3.org/1999/xlink" x="0px" y="0px"
	 viewBox="-283 375.7 43.9 43.3" style="enable-background:new -283 375.7 43.9 43.3;" xml:space="preserve">
<style type="text/css">
	.st0{fill:#D93B3F;}
</style>
<g>
	<path class="st0" d="M-249.3,402.2c-0.8-0.9-1.8-1.3-2.9-1.3c-1,0-2.1,0.5-2.9,1.3l-2.7,2.7c-0.2-0.1-0.4-0.2-0.7-0.3
		c-0.3-0.2-0.6-0.3-0.8-0.5c-2.5-1.6-4.8-3.7-7-6.4c-1.1-1.3-1.8-2.5-2.3-3.6c0.7-0.6,1.3-1.3,2-1.9c0.2-0.2,0.5-0.5,0.7-0.7
		c1.8-1.8,1.8-4.1,0-5.9l-2.3-2.3c-0.3-0.3-0.5-0.5-0.8-0.8c-0.5-0.5-1-1.1-1.6-1.6c-0.8-0.8-1.8-1.3-2.9-1.3s-2,0.4-2.9,1.3
		c0,0,0,0,0,0l-2.9,2.9c-1.1,1.1-1.7,2.4-1.8,4c-0.2,2.5,0.5,4.8,1.1,6.3c1.4,3.7,3.4,7.2,6.5,10.9c3.7,4.5,8.2,8,13.3,10.4
		c2,0.9,4.6,2,7.5,2.2c0.2,0,0.4,0,0.5,0c2,0,3.6-0.7,4.9-2.1c0,0,0,0,0,0c0.4-0.5,1-1,1.5-1.5c0.4-0.3,0.7-0.7,1.1-1.1
		c0.8-0.9,1.3-1.9,1.3-2.9c0-1.1-0.5-2.1-1.3-2.9L-249.3,402.2z M-246.3,411.1C-246.3,411.1-246.3,411.1-246.3,411.1
		c-0.3,0.4-0.7,0.7-1,1c-0.6,0.5-1.1,1.1-1.6,1.7c-0.9,0.9-1.9,1.4-3.2,1.4c-0.1,0-0.3,0-0.4,0c-2.5-0.2-4.9-1.1-6.6-2
		c-4.8-2.3-9-5.6-12.6-9.8c-2.9-3.5-4.8-6.7-6.1-10.2c-0.8-2.1-1.1-3.8-1-5.3c0.1-1,0.5-1.8,1.2-2.5l2.9-2.9
		c0.4-0.4,0.9-0.6,1.3-0.6c0.5,0,1,0.3,1.2,0.6c0,0,0,0,0,0c0.5,0.5,1,1,1.5,1.5c0.3,0.3,0.5,0.5,0.8,0.8l2.3,2.3
		c0.9,0.9,0.9,1.7,0,2.6c-0.2,0.2-0.5,0.5-0.7,0.7c-0.7,0.7-1.4,1.4-2.1,2.1c0,0,0,0,0,0c-0.7,0.7-0.6,1.4-0.4,1.9c0,0,0,0.1,0,0.1
		c0.6,1.5,1.5,2.8,2.7,4.5l0,0c2.3,2.9,4.8,5.1,7.6,6.9c0.3,0.2,0.7,0.4,1,0.6c0.3,0.2,0.6,0.3,0.8,0.5c0,0,0.1,0,0.1,0.1
		c0.3,0.1,0.6,0.2,0.8,0.2c0.7,0,1.1-0.4,1.3-0.6l2.9-2.9c0.3-0.3,0.7-0.6,1.3-0.6c0.5,0,1,0.3,1.2,0.6c0,0,0,0,0,0l4.7,4.7
		C-245.4,409.3-245.4,410.2-246.3,411.1z"/>
	<path class="st0" d="M-259.4,386.8c2.2,0.4,4.3,1.4,5.9,3c1.6,1.6,2.7,3.6,3,5.9c0.1,0.6,0.6,1,1.1,1c0.1,0,0.1,0,0.2,0
		c0.6-0.1,1-0.7,0.9-1.3c-0.5-2.7-1.7-5.2-3.7-7.1c-1.9-1.9-4.4-3.2-7.1-3.7c-0.6-0.1-1.2,0.3-1.3,0.9
		C-260.5,386.1-260,386.7-259.4,386.8z"/>
	<path class="st0" d="M-240.9,395c-0.8-4.4-2.9-8.5-6.1-11.7s-7.3-5.3-11.7-6.1c-0.6-0.1-1.2,0.3-1.3,0.9c-0.1,0.6,0.3,1.2,0.9,1.3
		c4,0.7,7.6,2.6,10.5,5.4c2.9,2.9,4.7,6.5,5.4,10.5c0.1,0.6,0.6,1,1.1,1c0.1,0,0.1,0,0.2,0C-241.2,396.2-240.8,395.6-240.9,395z"/>
</g>
</svg>
