<svg xmlns="http://www.w3.org/2000/svg" viewBox="0 0 90 90"><defs><style>.cls-1{fill:#215096;}.cls-2,.cls-3{fill:none;}.cls-2{stroke:#215096;stroke-linecap:round;stroke-linejoin:round;stroke-width:2.5px;}</style></defs><title>icon4</title><g id="Layer_2" data-name="Layer 2"><g id="Icons_-_60px" data-name="Icons - 60px"><path class="cls-1" d="M89.44,36.9,73.17,27.11s0,0,0,0v-13a3,3,0,0,0-3-3H64.18a3,3,0,0,0-3,3v5.83L45.86,10.67a1.15,1.15,0,0,0-1.18,0L.56,36.89a1.15,1.15,0,1,0,1.18,2l8-4.77v39.7a5.69,5.69,0,0,0,5.69,5.69h58.7a5.69,5.69,0,0,0,5.69-5.69v-40l8.42,5.07a1.15,1.15,0,1,0,1.19-2ZM63.54,14.09a.65.65,0,0,1,.64-.64h6.05a.65.65,0,0,1,.64.64V25.73l-7.34-4.42Zm14,18.57V73.81a3.38,3.38,0,0,1-3.38,3.38H15.44a3.38,3.38,0,0,1-3.38-3.38V32.74L45.26,13,77.57,32.44A1.09,1.09,0,0,0,77.52,32.66Z"/><rect class="cls-2" x="26.5" y="34.03" width="37" height="24"/><line class="cls-2" x1="45" y1="35.03" x2="45" y2="53.03"/><line class="cls-2" x1="27.97" y1="54.03" x2="61.97" y2="54.03"/><rect class="cls-3" width="90" height="90"/><rect class="cls-3" width="90" height="90"/></g></g></svg>