<svg xmlns="http://www.w3.org/2000/svg" viewBox="0 0 90 90"><defs><style>.cls-1{fill:#215096;}.cls-2{fill:none;}</style></defs><title>icon7</title><g id="Layer_2" data-name="Layer 2"><g id="Icons_-_60px" data-name="Icons - 60px"><path class="cls-1" d="M75.15,42H68.69a2.83,2.83,0,0,0-2.83,2.83v.54H43.32c-4,0-4-3.87-4-4V22.12h.54a2.83,2.83,0,0,0,2.83-2.83V12.83A2.83,2.83,0,0,0,39.82,10h-25A2.83,2.83,0,0,0,12,12.83V19.3a2.83,2.83,0,0,0,2.83,2.83h.54V49.71c0,5.71,1.71,10.31,5.08,13.68a1,1,0,0,0,.83.77,20.38,20.38,0,0,0,7.64,4.06c-2.29,2.14-4.12,4.29-4.12,7S26.65,80,28.93,80s4.12-2.16,4.12-4.82-1.83-4.81-4.11-6.95a23.83,23.83,0,0,0,6,1h31v.54a2.83,2.83,0,0,0,2.83,2.83h6.47A2.83,2.83,0,0,0,78,69.77v-25A2.83,2.83,0,0,0,75.15,42Zm.8,27.8a.8.8,0,0,1-.8.8H68.69a.8.8,0,0,1-.8-.8V68.22a1,1,0,0,0-1-1h-32c-.3,0-7.4-.05-12.45-4.62V59.14h5.72a1,1,0,0,0,1-1v-4H34.9a1,1,0,1,0,0-2H28.17a1,1,0,0,0-1,1v4H21.44a1,1,0,0,0-1,1v2.19a17.81,17.81,0,0,1-3-10.6V21.11a1,1,0,0,0-1-1H14.85a.8.8,0,0,1-.8-.8V12.83a.8.8,0,0,1,.8-.8h25a.8.8,0,0,1,.8.8V19.3a.8.8,0,0,1-.8.8H38.27a1,1,0,0,0-1,1V41.3a5.84,5.84,0,0,0,6.06,6.06H66.87a1,1,0,0,0,1-1V44.8a.8.8,0,0,1,.8-.8h6.47a.8.8,0,0,1,.8.8Z"/><path class="cls-1" d="M20.52,66.3c-1.36,1.27-2.44,2.54-2.44,4.12a2.67,2.67,0,0,0,2.44,2.85A2.67,2.67,0,0,0,23,70.42C23,68.84,21.87,67.57,20.52,66.3Z"/><path class="cls-1" d="M35.66,56.2c-1.36,1.27-2.44,2.54-2.44,4.12a2.67,2.67,0,0,0,2.44,2.85,2.67,2.67,0,0,0,2.44-2.85C38.1,58.75,37,57.47,35.66,56.2Z"/><rect class="cls-2" width="90" height="90"/></g></g></svg>