<svg xmlns="http://www.w3.org/2000/svg" viewBox="0 0 90.5 90"><defs><style>.cls-1{fill:none;}.cls-2{fill:#215096;}</style></defs><title>icon8</title><g id="Layer_2" data-name="Layer 2"><g id="Icons_-_60px" data-name="Icons - 60px"><rect class="cls-1" x="0.25" width="90" height="90"/><path class="cls-2" d="M72.77,34.48a17.43,17.43,0,0,0-5.84,1L62.35,24.66l4.28-2.76A1.24,1.24,0,0,0,67,20.2a1.21,1.21,0,0,0-.77-.54,1.19,1.19,0,0,0-.92.17l-5,3.24a1.24,1.24,0,0,0-.55,1.22,1.24,1.24,0,0,0,.08.67l.47,1.11-27,.92-.85-2h1.77a1.73,1.73,0,0,0,0-3.45H25.76a1.73,1.73,0,0,0,0,3.45h4.06l1.34,3.16L26,36.55a17.57,17.57,0,0,0-8.25-2.08,17.95,17.95,0,0,0,0,35.89A17.92,17.92,0,0,0,34.58,58l7.81.38a6,6,0,0,0,5.92-6,6,6,0,0,0-1.22-3.64l14.6-19.4,3,7.07a17.69,17.69,0,1,0,8.09-2Zm-7.12,4.26,4.57,10.79A4.25,4.25,0,1,0,77,52.91a4.25,4.25,0,0,0-4.22-4.26h-.26L67.89,37.75a15,15,0,0,1,4.88-.81,15.37,15.37,0,1,1-7.12,1.79Zm7.12,12.39A1.8,1.8,0,1,1,71,52.91,1.79,1.79,0,0,1,72.77,51.12ZM32.16,47.33l-10.52.93L26.76,40A15.31,15.31,0,0,1,32.16,47.33Zm2.51-.22a18,18,0,0,0-6.61-9.26l4.27-6.93L39,46.73Zm7.72-.68-.81.07L34.35,29.43l24.88-.85-14,18.6A5.84,5.84,0,0,0,42.39,46.44ZM18.6,48.53l-1.36.12a4.27,4.27,0,0,0,0,8.53L32,57.91a15.32,15.32,0,0,1-14.29,10,15.48,15.48,0,0,1,0-31,15.14,15.14,0,0,1,7,1.71Zm-1.31,2.59h.11l25-2.21a3.52,3.52,0,0,1,0,7L17.29,54.71a1.8,1.8,0,0,1,0-3.6Z"/></g></g></svg>