<svg xmlns="http://www.w3.org/2000/svg" viewBox="0 0 90 90"><defs><style>.cls-1{fill:#215096;}.cls-2{fill:none;}</style></defs><title>icon5</title><g id="Layer_2" data-name="Layer 2"><g id="Icons_-_60px" data-name="Icons - 60px"><path class="cls-1" d="M89.75,49,78.43,35.72l0,0,3.76-11.29A2.71,2.71,0,0,0,80.5,21l-5.27-1.76a2.71,2.71,0,0,0-3.42,1.71L70.12,26,59.43,13.49a1.06,1.06,0,0,0-1-.35l-46,10a1.06,1.06,0,1,0,.45,2.07l8.36-1.82L9.71,58a5.22,5.22,0,0,0,3.3,6.6l29.42,9.8H1.26a1.26,1.26,0,0,0,0,2.52H84.82a1.26,1.26,0,1,0,0-2.52H72L82.28,43.48h0l.25-.75-.25.75,5.86,6.85A1.06,1.06,0,1,0,89.75,49ZM73.82,21.59a.6.6,0,0,1,.75-.37L79.83,23a.6.6,0,0,1,.37.75L76.83,33.85h0l-.26.77.26-.77-5.1-6ZM76.5,35.82a1,1,0,0,1-.09-.53A1.06,1.06,0,0,0,76.5,35.82Zm-5.1-7.45a1,1,0,0,1-.6.27A1,1,0,0,0,71.4,28.36ZM35.19,69.72l7.27-21.81a.6.6,0,0,1,.75-.37L51,50.12a.6.6,0,0,1,.37.75L44.06,72.68Zm9.63,5.12a1.06,1.06,0,0,0,.85-.48A1.06,1.06,0,0,1,44.82,74.84Zm35.78-33L69.75,74.36h-8.5l7.44-7.8L60.77,64,73.29,52.38,53.14,65.26l7.7,2.49-8,6.61H49.12l-3-1,7.27-21.81a2.71,2.71,0,0,0-1.71-3.42l-7.75-2.58a2.71,2.71,0,0,0-3.42,1.71L33.18,69.05l-19.51-6.5a3.1,3.1,0,0,1-2-3.92L23.63,22.89l34.6-7.55L80.7,41.63A1,1,0,0,0,80.6,41.81Z"/><rect class="cls-2" width="90" height="90"/></g></g></svg>