<svg xmlns="http://www.w3.org/2000/svg" viewBox="0 0 90 90"><defs><style>.cls-1{fill:none;}.cls-2{fill:#215096;}</style></defs><title>icon8_1</title><g id="Layer_2" data-name="Layer 2"><g id="Icons_-_60px" data-name="Icons - 60px"><rect class="cls-1" width="90" height="90"/><path class="cls-2" d="M71.29,34.17a16.43,16.43,0,0,0-5.71,1L61,24.46l4.26-2.74a1,1,0,0,0,.29-1.3.92.92,0,0,0-1.28-.29l-4.81,3.1a1,1,0,0,0-.41,1,1,1,0,0,0,.06.55l.58,1.38L33.45,27l-1-2.4h2a1.41,1.41,0,0,0,0-2.82H26.37a1.41,1.41,0,0,0,0,2.82h4.05a.85.85,0,0,0,0,.12L31.8,27.9l-5.13,8.33a16.49,16.49,0,0,0-8-2.06,16.91,16.91,0,0,0,0,33.82,16.81,16.81,0,0,0,15.92-11.8l7.59.37h0a5.49,5.49,0,0,0,4.19-9l14.31-19,3.11,7.34a16.66,16.66,0,1,0,7.42-1.77M32.69,30l6.7,15.83-4.67.41a16.89,16.89,0,0,0-6.47-9Zm-5.43,8.81a15,15,0,0,1,5.55,7.6L22,47.38ZM18.71,66.11a15,15,0,0,1,0-30.06,14.64,14.64,0,0,1,7,1.78l-6,9.74v0l-1.43.13a3.84,3.84,0,0,0,0,7.68h0l14.45.71a14.93,14.93,0,0,1-14,10M42.29,54.68l-24-1.18a2,2,0,0,1,0-3.91h.08l23.94-2.11a3.6,3.6,0,0,1,0,7.21M45,46.38a5.32,5.32,0,0,0-2.78-.78h-.08l-.85.08-7.11-16.8L58.85,28ZM71.29,66.11a15.06,15.06,0,0,1-6.69-28.45l4.54,10.72a3.78,3.78,0,1,0,2.15-.68l-.4,0L66.31,36.92a14.58,14.58,0,0,1,5-.88,15,15,0,0,1,0,30.06M69.36,51.55a1.93,1.93,0,1,1,1.93,2,1.95,1.95,0,0,1-1.93-2"/></g></g></svg>