<svg xmlns="http://www.w3.org/2000/svg" viewBox="0 0 90 90"><defs><style>.cls-1{fill:#215096;}.cls-2{fill:none;}</style></defs><title>icon9</title><g id="Layer_2" data-name="Layer 2"><g id="Icons_-_60px" data-name="Icons - 60px"><path class="cls-1" d="M63.48,62.68H43.33a1.1,1.1,0,0,0,0,2.2H63.48a1.1,1.1,0,0,0,0-2.2Z"/><path class="cls-1" d="M63.48,30.64H43.33a1.1,1.1,0,0,0,0,2.2H63.48a1.1,1.1,0,0,0,0-2.2Z"/><path class="cls-1" d="M63.48,41.32H43.33a1.1,1.1,0,0,0,0,2.2H63.48a1.1,1.1,0,0,0,0-2.2Z"/><path class="cls-1" d="M34.77,52H30.13a1.1,1.1,0,1,0,0,2.2h4.64a1.1,1.1,0,0,0,0-2.2Z"/><path class="cls-1" d="M63.48,52H43.33a1.1,1.1,0,0,0,0,2.2H63.48a1.1,1.1,0,0,0,0-2.2Z"/><path class="cls-1" d="M35,29l-2.87,3.18-1.49-2a1.1,1.1,0,0,0-1.75,1.33l2.3,3A1.1,1.1,0,0,0,32,35h0a1.1,1.1,0,0,0,.82-.36l3.76-4.16A1.1,1.1,0,0,0,35,29Z"/><path class="cls-1" d="M35,39.65l-2.87,3.18-1.49-2a1.1,1.1,0,1,0-1.75,1.33l2.3,3a1.1,1.1,0,0,0,.83.43h0a1.1,1.1,0,0,0,.82-.36l3.76-4.16A1.1,1.1,0,0,0,35,39.65Z"/><path class="cls-1" d="M62.81,17.78H58.32a4.12,4.12,0,0,0-3.73-2.4H53.07c0-.56,0-1.08,0-1.25A4.12,4.12,0,0,0,49,10H44.16A4.12,4.12,0,0,0,40,14.11c0,.23,0,.73,0,1.26h-1.5a4.12,4.12,0,0,0-3.73,2.4H30.34A8.23,8.23,0,0,0,22.12,26V44L14.53,31.61a2.88,2.88,0,0,0-4-.95L8.34,32a2.88,2.88,0,0,0-.95,4L22.12,60h0V71.78A8.23,8.23,0,0,0,30.34,80H62.81A8.23,8.23,0,0,0,71,71.78V26A8.23,8.23,0,0,0,62.81,17.78ZM36.64,20v-.48a1.94,1.94,0,0,1,1.92-1.92h2.72a1.1,1.1,0,0,0,1.06-1.4,12.31,12.31,0,0,1-.11-2,1.92,1.92,0,0,1,1.92-1.92H49a1.92,1.92,0,0,1,1.92,1.91,17.21,17.21,0,0,1-.12,2.12,1.1,1.1,0,0,0,1.07,1.34h2.72a1.94,1.94,0,0,1,1.92,1.92v1.43H36.64ZM9.27,34.85a.69.69,0,0,1,.22-.94l2.23-1.37a.68.68,0,0,1,.94.22l9.46,15.39h0l2.2,3.58L31.87,64l.87-.53h0l-.87.53L28.48,66.1l-4.16-6.77-2.2-3.58Zm22.55,30.9c-.05.49-.13,1.05-.22,1.62C31.69,66.79,31.76,66.24,31.82,65.74Zm-9.7-7.89h0l1.25,2ZM68.83,71.78a6,6,0,0,1-6,6H30.34a6,6,0,0,1-6-6V63.53l2.32,3.78c.49.8,2.35,1.65,5.52,2.53a1.08,1.08,0,0,0,.29,0A1.1,1.1,0,0,0,33.53,69c.65-3.23.73-5.27.24-6.07L24.32,47.53V26a6,6,0,0,1,6-6h4.1v2a1.1,1.1,0,0,0,1.1,1.1H57.61a1.1,1.1,0,0,0,1.1-1.1V20h4.1a6,6,0,0,1,6,6Z"/><rect class="cls-2" width="90" height="90"/></g></g></svg>