<svg xmlns="http://www.w3.org/2000/svg" viewBox="0 0 90 90"><defs><style>.cls-1{fill:none;}.cls-2{fill:#215096;}</style></defs><title>icon2</title><g id="Layer_2" data-name="Layer 2"><g id="Icons_-_60px" data-name="Icons - 60px"><rect class="cls-1" width="90" height="90"/><path class="cls-2" d="M89.44,36.9,73.17,27.11s0,0,0,0v-13a3,3,0,0,0-3-3H64.18a3,3,0,0,0-3,3v5.83L45.86,10.67a1.15,1.15,0,0,0-1.18,0L.56,36.89a1.15,1.15,0,1,0,1.18,2l8-4.77v39.7a5.69,5.69,0,0,0,5.69,5.69h58.7a5.69,5.69,0,0,0,5.69-5.69v-40l8.42,5.07a1.15,1.15,0,1,0,1.19-2ZM63.54,14.09a.65.65,0,0,1,.64-.64h6.05a.65.65,0,0,1,.64.64V25.73l-7.34-4.42Zm14,18.57V73.81a3.38,3.38,0,0,1-3.38,3.38H15.44a3.38,3.38,0,0,1-3.38-3.38V32.74L45.26,13,77.57,32.44A1.09,1.09,0,0,0,77.52,32.66Z"/><path class="cls-2" d="M45,48.71a3.07,3.07,0,0,0-.95,6v4.9a.95.95,0,1,0,1.89,0V54.7a3.07,3.07,0,0,0-.95-6ZM45,53a1.18,1.18,0,1,1,1.18-1.18A1.19,1.19,0,0,1,45,53Z"/><path class="cls-2" d="M34.11,36.87v3.31H30.48A3.48,3.48,0,0,0,27,43.66V65.6a3.48,3.48,0,0,0,3.47,3.47h29A3.48,3.48,0,0,0,63,65.6V43.66a3.48,3.48,0,0,0-3.47-3.47H55.89V36.87a10.89,10.89,0,0,0-21.78,0Zm27,6.79V65.6a1.58,1.58,0,0,1-1.58,1.58h-29A1.58,1.58,0,0,1,28.9,65.6V43.66a1.58,1.58,0,0,1,1.58-1.58h29A1.58,1.58,0,0,1,61.1,43.66ZM54,36.87v3.31H36V36.87a9,9,0,0,1,18,0Z"/></g></g></svg>