<svg xmlns="http://www.w3.org/2000/svg" viewBox="0 0 90 90"><defs><style>.cls-1{fill:none;}.cls-2{fill:#215096;}</style></defs><title>icon1</title><g id="Layer_2" data-name="Layer 2"><g id="Icons_-_60px" data-name="Icons - 60px"><rect class="cls-1" width="90" height="90"/><path class="cls-2" d="M41.27,39.12c-.07,4.84-2,10.53-3.51,12.06,4.48.92,11.37-.43,14.1-5.14,3.2-5.53-3.09-10.17,3.13-12.55-3.71-.38-8.1-.21-10.66,6.23A4.57,4.57,0,0,1,45.64,35C44.19,35.21,41.16,36.54,41.27,39.12Z"/><path class="cls-2" d="M89.44,43,73.18,33.19s0,0,0,0v-13a3,3,0,0,0-3-3H64.18a3,3,0,0,0-3,3V26L45.86,16.76a1.16,1.16,0,0,0-1.19,0L33.93,23.14a35.16,35.16,0,0,0-6.08-4.62c-4.92-3.17-8.17-5.26-4.72-12.44a1.16,1.16,0,0,0-1.78-1.41c-7.61,6.15-14,13.66-9.93,26.69a10,10,0,0,1-3.17-6.59,1.16,1.16,0,0,0-2.07-.61c-3,3.78-2.86,11.51-1.63,15.63.07.24.16.45.24.68L.57,43a1.16,1.16,0,1,0,1.19,2l4-2.37a16.33,16.33,0,0,0,4,4.57V79.89a5.7,5.7,0,0,0,5.69,5.69H74.14a5.7,5.7,0,0,0,5.69-5.69v-40L88.24,45a1.16,1.16,0,1,0,1.2-2ZM63.55,20.18a.64.64,0,0,1,.63-.63h6.05a.64.64,0,0,1,.63.63V31.8l-7.32-4.4ZM6.77,39.13a21.81,21.81,0,0,1-.08-10.77,12,12,0,0,0,6.52,6.88,1.16,1.16,0,0,0,1.54-1.51c-5-12.09-.8-19.13,4.83-24.44-1.13,5.95,3,8.61,7,11.2,3.84,2.47,8.19,5.28,9.66,11.31,1.88,7.75-.12,19.51-11.6,27.91-1.6-6.18-6-9.12-9.85-11.75-.93-.63-1.84-1.25-2.71-1.9a20.74,20.74,0,0,1-2.33-2A11.58,11.58,0,0,1,6.77,39.13ZM50.36,83.26H40.18V58.21a.64.64,0,0,1,.63-.63h8.91a.64.64,0,0,1,.63.63ZM77.51,38.75V79.89a3.37,3.37,0,0,1-3.37,3.37H52.68V58.21a3,3,0,0,0-3-3H40.82a3,3,0,0,0-3,3V83.26H15.45a3.37,3.37,0,0,1-3.37-3.37v-31l1.41,1c4.22,2.85,8.21,5.54,9.22,12a1.16,1.16,0,0,0,1.79.79,34.63,34.63,0,0,0,11.81-13.2A26.47,26.47,0,0,0,38.5,31.24a16.64,16.64,0,0,0-3-6.33l9.77-5.81L77.55,38.54A1.1,1.1,0,0,0,77.51,38.75Z"/></g></g></svg>