<svg xmlns="http://www.w3.org/2000/svg" viewBox="0 0 90 90"><defs><style>.cls-1{fill:#215096;}.cls-2{fill:#fff;}.cls-3{fill:none;}</style></defs><title>icon6</title><g id="Layer_2" data-name="Layer 2"><g id="Icons_-_60px" data-name="Icons - 60px"><path class="cls-1" d="M32.69,27.7c-.06,3.83-1.61,8.34-2.78,9.55,3.55.73,9-.34,11.17-4.07,2.54-4.38-2.45-8.06,2.48-9.94-2.94-.3-6.41-.17-8.44,4.94a3.62,3.62,0,0,1,1-3.71C35,24.6,32.6,25.66,32.69,27.7Z"/><path class="cls-1" d="M70.84,30.75,58,23s0,0,0,0V12.7a2.35,2.35,0,0,0-2.34-2.34H50.83a2.35,2.35,0,0,0-2.34,2.34v4.61L36.32,10a.92.92,0,0,0-.95,0L26.87,15a27.84,27.84,0,0,0-4.82-3.66c-3.89-2.51-6.47-4.17-3.74-9.85A.92.92,0,0,0,16.9.42C10.88,5.29,5.85,11.24,9,21.56a7.92,7.92,0,0,1-2.51-5.22.92.92,0,0,0-1.64-.48c-2.36,3-2.27,9.11-1.29,12.38.06.19.12.36.19.54l-3.33,2a.92.92,0,1,0,.94,1.58l3.16-1.88a12.93,12.93,0,0,0,3.18,3.62V60a4.52,4.52,0,0,0,4.51,4.51H58.72A4.52,4.52,0,0,0,63.23,60V28.33l6.66,4a.92.92,0,1,0,1-1.58ZM50.33,12.7a.51.51,0,0,1,.5-.5h4.79a.51.51,0,0,1,.5.5v9.2l-5.8-3.49Zm-45,15a17.27,17.27,0,0,1-.06-8.53,9.46,9.46,0,0,0,5.16,5.45.92.92,0,0,0,1.22-1.2C7.73,13.85,11,8.27,15.5,4.07c-.9,4.71,2.38,6.82,5.56,8.87s6.49,4.18,7.65,9C30.19,28,28.61,37.35,19.52,44c-1.27-4.9-4.72-7.23-7.8-9.31-.74-.5-1.46-1-2.15-1.51A16.46,16.46,0,0,1,7.73,31.6,9.17,9.17,0,0,1,5.36,27.71ZM30,62.66H12.24A2.67,2.67,0,0,1,9.57,60V35.46l1.12.76c3.34,2.26,6.5,4.39,7.3,9.48a.92.92,0,0,0,1.42.62,27.43,27.43,0,0,0,9.35-10.45A21,21,0,0,0,30.5,21.46a13.18,13.18,0,0,0-2.38-5l7.73-4.6L61.42,27.24a.88.88,0,0,0,0,.17V60a2.67,2.67,0,0,1-2.67,2.67h-17"/><path class="cls-2" d="M90,56.24a1.2,1.2,0,0,0-.55-.74L76.68,47.83V37.69A2.64,2.64,0,0,0,74,35.05H69.25a2.64,2.64,0,0,0-2.63,2.63v4.09L54.89,34.72a1.21,1.21,0,0,0-1.24,0L18.71,55.49a1.21,1.21,0,0,0-.42,1.66,1.24,1.24,0,0,0,1.66.42l5.9-3.51V85a4.81,4.81,0,0,0,4.8,4.8H77.14a4.81,4.81,0,0,0,4.8-4.8V53.83l6.22,3.74A1.21,1.21,0,0,0,90,56.24Z"/><path class="cls-1" d="M89.26,55.75,76.38,48s0,0,0,0V37.69A2.34,2.34,0,0,0,74,35.35H69.25a2.34,2.34,0,0,0-2.34,2.34v4.62L54.74,35a.91.91,0,0,0-.94,0L18.86,55.75a.91.91,0,1,0,.93,1.57l6.35-3.77V85a4.51,4.51,0,0,0,4.5,4.5H77.14a4.51,4.51,0,0,0,4.5-4.5V53.3l6.67,4a.91.91,0,1,0,.94-1.57ZM68.74,37.69a.52.52,0,0,1,.51-.51H74a.52.52,0,0,1,.51.51V46.9l-5.81-3.5Zm-10.43,50H50.24V67.81a.52.52,0,0,1,.51-.51H57.8a.52.52,0,0,1,.51.51ZM79.82,52.39V85a2.68,2.68,0,0,1-2.68,2.68h-17V67.81a2.34,2.34,0,0,0-2.34-2.34H50.75a2.34,2.34,0,0,0-2.34,2.34V87.66H30.65A2.68,2.68,0,0,1,28,85V52.46L54.26,36.83l25.59,15.4A.86.86,0,0,0,79.82,52.39Z"/><rect class="cls-3" width="90" height="90"/></g></g></svg>