<?xml version="1.0" encoding="UTF-8"?>
<svg width="49px" height="48px" viewBox="0 0 49 48" version="1.1" xmlns="http://www.w3.org/2000/svg" xmlns:xlink="http://www.w3.org/1999/xlink">
    <!-- Generator: sketchtool 60.1 (101010) - https://sketch.com -->
    <title>7EF12E3E-5320-4085-95E2-A3E0DD1B847D</title>
    <desc>Created with sketchtool.</desc>
    <defs>
        <path d="M39.5419,20.8088 C37.7289,20.8088 36.2539,22.2838 36.2539,24.0968 C36.2539,25.9108 37.7289,27.3848 39.5419,27.3848 C41.3549,27.3848 42.8299,25.9108 42.8299,24.0968 C42.8299,22.2838 41.3549,20.8088 39.5419,20.8088 L39.5419,20.8088 Z M39.5419,28.7488 C36.9769,28.7488 34.8899,26.6628 34.8899,24.0968 C34.8899,21.5318 36.9769,19.4448 39.5419,19.4448 C42.1069,19.4448 44.1939,21.5318 44.1939,24.0968 C44.1939,26.6628 42.1069,28.7488 39.5419,28.7488 L39.5419,28.7488 Z M8.4359,20.8088 C6.6219,20.8088 5.1469,22.2838 5.1469,24.0968 C5.1469,25.9108 6.6219,27.3848 8.4359,27.3848 C10.2479,27.3848 11.7239,25.9108 11.7239,24.0968 C11.7239,22.2838 10.2479,20.8088 8.4359,20.8088 L8.4359,20.8088 Z M8.4359,28.7488 C5.8699,28.7488 3.7829,26.6628 3.7829,24.0968 C3.7829,21.5318 5.8699,19.4448 8.4359,19.4448 C10.9999,19.4448 13.0869,21.5318 13.0869,24.0968 C13.0869,26.6628 10.9999,28.7488 8.4359,28.7488 L8.4359,28.7488 Z M14.3199,6.2128 C13.0449,6.2128 11.9439,7.0918 11.6439,8.3518 L9.4619,15.6748 C9.4519,15.7168 9.4749,15.8038 9.5279,15.8708 C9.5879,15.9458 9.6749,15.9888 9.7669,15.9888 L38.2339,15.9888 C38.3259,15.9888 38.4129,15.9458 38.4729,15.8708 C38.5259,15.8038 38.5479,15.7168 38.5299,15.6448 L36.3899,8.3858 C36.0969,7.0888 34.9969,6.2128 33.7039,6.2128 L14.3199,6.2128 Z M38.2339,17.3518 L9.7669,17.3518 C9.2589,17.3518 8.7829,17.1228 8.4629,16.7228 C8.1449,16.3248 8.0259,15.7978 8.1469,15.3138 L10.3269,7.9978 C10.7659,6.1588 12.4109,4.8488 14.3199,4.8488 L33.7039,4.8488 C35.6409,4.8488 37.2869,6.1628 37.7079,8.0438 L39.8459,15.2868 C39.9749,15.7978 39.8559,16.3248 39.5369,16.7228 C39.2169,17.1228 38.7419,17.3518 38.2339,17.3518 L38.2339,17.3518 Z M34.1049,30.6358 C34.1049,30.2598 33.7999,29.9538 33.4239,29.9538 L14.5539,29.9538 C14.1779,29.9538 13.8719,30.2598 13.8719,30.6358 C13.8719,31.0128 14.1779,31.3178 14.5539,31.3178 L33.4239,31.3178 C33.7999,31.3178 34.1049,31.0128 34.1049,30.6358 L34.1049,30.6358 Z M30.1069,37.2408 L35.1509,37.2408 C35.5279,37.2408 35.8329,37.5458 35.8329,37.9218 L35.8329,42.3588 C35.8329,43.2198 36.5329,43.9198 37.3939,43.9198 L42.2039,43.9198 C43.0639,43.9198 43.7649,43.2198 43.7649,42.3588 L43.7649,37.9218 C43.7649,37.5458 44.0689,37.2408 44.4459,37.2408 L44.7729,37.2408 C45.8009,37.2408 46.6369,36.4038 46.6369,35.3768 L46.6369,22.2288 C46.6369,20.1088 45.5959,18.1278 43.8509,16.9288 L41.6529,15.4098 C41.5259,15.3228 41.4339,15.1948 41.3889,15.0478 L39.1699,7.7618 C38.5739,5.1528 36.3309,3.3638 33.7039,3.3638 L14.2969,3.3638 C11.6689,3.3638 9.4269,5.1528 8.8429,7.7138 L6.6119,15.0478 C6.5669,15.1948 6.4739,15.3228 6.3479,15.4098 L4.1519,16.9278 C2.4059,18.1418 1.3629,20.1228 1.3629,22.2288 L1.3629,35.3768 C1.3629,36.4038 2.1999,37.2408 3.2279,37.2408 L3.5549,37.2408 C3.9309,37.2408 4.2359,37.5458 4.2359,37.9218 L4.2359,42.3588 C4.2359,43.2198 4.9369,43.9198 5.7969,43.9198 L10.6309,43.9198 C11.4899,43.9198 12.1899,43.2198 12.1899,42.3588 L12.1899,37.9218 C12.1899,37.5458 12.4959,37.2408 12.8719,37.2408 L19.8549,37.2408 C20.2309,37.2408 20.5369,37.5458 20.5369,37.9218 C20.5369,38.6438 20.8079,38.8908 21.2139,39.0398 C21.7839,39.2488 22.6419,39.2548 23.5709,39.2488 L26.3919,39.2488 C27.3169,39.2478 28.1789,39.2488 28.7489,39.0398 C29.1539,38.8908 29.4259,38.6438 29.4259,37.9218 C29.4259,37.5458 29.7299,37.2408 30.1069,37.2408 L30.1069,37.2408 Z M42.2039,45.2828 L37.3939,45.2828 C35.7809,45.2828 34.4699,43.9718 34.4699,42.3588 L34.4699,38.6038 L30.7219,38.6038 C30.5479,39.4328 30.0369,40.0198 29.2189,40.3198 C28.4209,40.6128 27.4399,40.6128 26.3919,40.6128 L23.5709,40.6128 C22.5309,40.6128 21.5419,40.6128 20.7439,40.3198 C19.9259,40.0198 19.4139,39.4328 19.2399,38.6038 L13.5549,38.6038 L13.5549,42.3588 C13.5549,43.9718 12.2419,45.2828 10.6309,45.2828 L5.7969,45.2828 C4.1849,45.2828 2.8719,43.9718 2.8719,42.3588 L2.8719,38.5848 C1.2599,38.4078 -0.0001,37.0368 -0.0001,35.3768 L-0.0001,22.2288 C-0.0001,19.6768 1.2619,17.2768 3.3749,15.8078 L5.3769,14.4238 L7.5259,7.3638 C8.2389,4.2258 11.0279,1.9998 14.2969,1.9998 L33.7039,1.9998 C36.9729,1.9998 39.7619,4.2258 40.4869,7.4118 L42.6239,14.4228 L44.6239,15.8068 C46.7369,17.2578 48.0009,19.6588 48.0009,22.2288 L48.0009,35.3768 C48.0009,37.0368 46.7409,38.4078 45.1279,38.5848 L45.1279,42.3588 C45.1279,43.9718 43.8159,45.2828 42.2039,45.2828 L42.2039,45.2828 Z" id="path-1"></path>
    </defs>
    <g id="Asset-Artboard-Page" stroke="none" stroke-width="1" fill="none" fill-rule="evenodd">
        <g id="icons/products/red/A-car-home/a09-car-insurance" transform="translate(0.382023, 0.000000)">
            <g>
                <polygon id="Rectangle-path" fill-opacity="0" fill="#FFFFFF" fill-rule="nonzero" points="0 0 48 0 48 48 0 48"></polygon>
                <mask id="mask-2" fill="white">
                    <use xlink:href="#path-1"></use>
                </mask>
                <use id="a09-car-insurance" fill="#C5281C" xlink:href="#path-1"></use>
                <polygon id="Color-Style" fill="#C5281C" mask="url(#mask-2)" points="0 0 48 0 48 48 0 48"></polygon>
            </g>
        </g>
    </g>
</svg>