<?xml version="1.0" encoding="UTF-8"?>
<svg width="49px" height="48px" viewBox="0 0 49 48" version="1.1" xmlns="http://www.w3.org/2000/svg" xmlns:xlink="http://www.w3.org/1999/xlink">
    <!-- Generator: sketchtool 60.1 (101010) - https://sketch.com -->
    <title>942A2F1F-EC6E-4729-B02D-23D1023D5303</title>
    <desc>Created with sketchtool.</desc>
    <defs>
        <path d="M47.5374468,19.9963427 L38.894603,14.7944437 L38.894603,7.87207231 C38.894603,7.00572199 38.1922873,6.30340628 37.325937,6.30340628 L34.117762,6.30340628 C33.2514116,6.30340628 32.5490959,7.00572199 32.5490959,7.87207231 L32.5490959,10.9790431 L24.3717917,6.09087734 C24.1801855,5.96970755 23.9359315,5.96970755 23.7443253,6.09087734 L0.295298289,19.9963427 C0.0559215574,20.1427471 -0.0546100678,20.4321705 0.0262374286,20.7008695 C0.107084925,20.9695685 0.358972385,21.1499455 0.639392773,21.1399508 C0.750404278,21.1393443 0.859048685,21.1078024 0.953125979,21.048867 L5.21382532,18.5187605 L5.21382532,39.6198487 C5.21382532,41.2966557 6.57314604,42.6559765 8.24995312,42.6559765 L39.4107448,42.6559765 C41.0875518,42.6559765 42.4468726,41.2966557 42.4468726,39.6198487 L42.4468726,18.3669541 L46.9302213,21.0589874 C47.1073887,21.2498187 47.385245,21.3089664 47.6247751,21.2068381 C47.8643052,21.1047098 48.0139993,20.8632677 47.9989635,20.6033085 C47.9839276,20.3433493 47.8073952,20.1207759 47.5576877,20.0469448 L47.5374468,19.9963427 Z M33.7736675,7.85183146 C33.7791426,7.66575697 33.931607,7.51777687 34.117762,7.51785737 L37.325937,7.51785737 C37.512092,7.51777687 37.6645564,7.66575697 37.6700315,7.85183146 L37.6700315,14.0455322 L33.7736675,11.6975933 L33.7736675,7.85183146 Z M26.7703327,41.4212845 L21.3457844,41.4212845 L21.3457844,28.0926835 C21.3510777,27.9048816 21.502077,27.7538823 21.6898788,27.748589 L26.4262382,27.748589 C26.6140401,27.7538823 26.7650394,27.9048816 26.7703327,28.0926835 L26.7703327,41.4212845 Z M41.2020602,17.7496081 L41.2020602,39.6198487 C41.2020758,40.6108153 40.4016957,41.4157173 39.4107448,41.4212845 L27.964543,41.4212845 L27.964543,28.0926835 C27.964543,27.2263331 27.2622273,26.5240174 26.3958769,26.5240174 L21.6898788,26.5240174 C20.8258258,26.5295387 20.1267341,27.2286304 20.1212128,28.0926835 L20.1212128,41.4212845 L8.20947142,41.4212845 C7.21456588,41.4212845 6.40803559,40.6147542 6.40803559,39.6198487 L6.40803559,17.7900898 L24.0580585,7.29520803 L41.2627827,17.628163 C41.2374791,17.665909 41.2170748,17.7067176 41.2020602,17.7496081 Z" id="path-1"></path>
    </defs>
    <g id="Asset-Artboard-Page" stroke="none" stroke-width="1" fill="none" fill-rule="evenodd">
        <g id="icons/products/red/A-car-home/a74-house" transform="translate(0.382023, 0.000000)">
            <g>
                <polygon id="Rectangle-path" fill-opacity="0" fill="#FFFFFF" fill-rule="nonzero" points="0 0 48 0 48 48 0 48"></polygon>
                <mask id="mask-2" fill="white">
                    <use xlink:href="#path-1"></use>
                </mask>
                <use id="Shape" fill="#C5281C" xlink:href="#path-1"></use>
                <polygon id="Color-Style" fill="#C5281C" mask="url(#mask-2)" points="0 0 48 0 48 48 0 48"></polygon>
            </g>
        </g>
    </g>
</svg>