<?xml version="1.0" encoding="UTF-8"?>
<svg width="49px" height="48px" viewBox="0 0 49 48" version="1.1" xmlns="http://www.w3.org/2000/svg" xmlns:xlink="http://www.w3.org/1999/xlink">
    <!-- Generator: sketchtool 60.1 (101010) - https://sketch.com -->
    <title>E01B98C3-ADA9-4353-AC73-3CFC0251AD88</title>
    <desc>Created with sketchtool.</desc>
    <defs>
        <path d="M42.6672255,36.5029338 L32.2967309,30.326907 C35.5586725,27.8148874 37.4719101,23.932687 37.4769489,19.8155909 L37.4769489,13.4685666 C37.4769489,6.03008268 31.4468662,0 24.0083822,0 C16.5698983,0 10.5398156,6.03008268 10.5398156,13.4685666 L10.5398156,19.8155909 C10.5448544,23.932687 12.4580919,27.8148874 15.7200335,30.326907 L5.36965633,36.4928751 C3.28597241,37.7360711 2.00696487,39.9810156 2,42.4073764 L2,45.3545683 C2,46.8155999 3.18440011,48 4.64543168,48 L43.3713328,48 C44.8323644,48 46.0167645,46.8155999 46.0167645,45.3545683 L46.0167645,42.3973177 C46.0089867,39.981665 44.7385307,37.7459676 42.6672255,36.5029338 L42.6672255,36.5029338 Z M24.0083822,1.41827326 C27.2235739,1.39683817 30.3144432,2.65906947 32.5955183,4.92503802 C34.8765933,7.19100658 36.1592624,10.2734209 36.1592624,13.488684 L11.8575021,13.488684 C11.8575021,10.2734209 13.1401712,7.19100658 15.4212462,4.92503802 C17.7023212,2.65906947 20.7931906,1.39683817 24.0083822,1.41827326 L24.0083822,1.41827326 Z M11.8575021,19.4233026 L11.8575021,14.6554904 L36.1592624,14.6554904 L36.1592624,19.4233026 C36.2319096,26.2097659 30.7947286,31.7729743 24.0083822,31.8558256 C17.2220358,31.7729743 11.7848548,26.2097659 11.8575021,19.4233026 Z M24.0083822,38.7057836 C24.8469183,38.7060332 25.6017944,39.2140468 25.9177848,39.9907661 C26.2337752,40.7674855 26.0479415,41.6582051 25.4477325,42.2437749 C24.8475235,42.8293447 23.9524875,42.993132 23.1838059,42.6580626 C22.4151243,42.3229932 21.9259017,41.5558056 21.9463537,40.7175189 C21.9736579,39.5983801 22.8889105,38.7054507 24.0083822,38.7057836 Z M44.699078,45.3545683 C44.699078,46.0878617 44.1046262,46.6823135 43.3713328,46.6823135 L4.64543168,46.6823135 C3.91213827,46.6823135 3.3176865,46.0878617 3.3176865,45.3545683 L3.3176865,42.4073764 C3.32416632,40.4465482 4.35891236,38.632879 6.04358759,37.6295054 L16.9673093,31.1517184 C18.8713403,32.3404737 21.0433443,33.0321947 23.2841576,33.1634535 L23.2841576,37.2472758 C21.4778243,37.6427832 20.2596555,39.3357216 20.4585634,41.1741181 C20.6574712,43.0125145 22.2095499,44.4057222 24.0586756,44.4057222 C25.9078013,44.4057222 27.45988,43.0125145 27.6587879,41.1741181 C27.8576957,39.3357216 26.6395269,37.6427832 24.8331936,37.2472758 L24.8331936,33.1533948 C27.074007,33.022136 29.2460109,32.330415 31.1500419,31.1416597 L42.0335289,37.6295054 C43.7141195,38.6258807 44.7459584,40.4335097 44.7493713,42.387259 L44.699078,45.3545683 Z M27.8206892,7.80553227 C27.8233523,8.01177262 27.7426291,8.21036565 27.5967824,8.3562124 C27.4509356,8.50205914 27.2523426,8.58278231 27.0461023,8.58005029 L24.7829003,8.58005029 L24.7829003,10.8432523 C24.7829003,11.2710068 24.4361367,11.6177703 24.0083822,11.6177703 C23.5806277,11.6177703 23.2338642,11.2710068 23.2338642,10.8432523 L23.2338642,8.58005029 L20.9907795,8.58005029 C20.7836274,8.58274081 20.5840317,8.50232934 20.4365986,8.3567864 C20.2891655,8.21124346 20.2062028,8.01270194 20.2062028,7.80553227 C20.2062028,7.37222253 20.5574698,7.02095557 20.9907795,7.02095557 L23.2539816,7.02095557 L23.2539816,4.76781224 C23.2539816,4.34005775 23.6007451,3.99329422 24.0284996,3.99329422 C24.4562541,3.99329422 24.8030176,4.34005775 24.8030176,4.76781224 L24.8030176,7.02095557 L27.0259849,7.02095557 C27.2366198,7.01546397 27.4404007,7.09602644 27.5903386,7.24406641 C27.7402765,7.39210638 27.8234283,7.59484453 27.8206892,7.80553227 L27.8206892,7.80553227 Z" id="path-1"></path>
    </defs>
    <g id="Asset-Artboard-Page" stroke="none" stroke-width="1" fill="none" fill-rule="evenodd">
        <g id="icons/products/red/B-life-health/b19-medical-assistance" transform="translate(0.382023, 0.000000)">
            <g>
                <polygon id="Rectangle-path" fill-opacity="0" fill="#FFFFFF" fill-rule="nonzero" points="0 0 48 0 48 48 0 48"></polygon>
                <mask id="mask-2" fill="white">
                    <use xlink:href="#path-1"></use>
                </mask>
                <use id="Shape" fill="#C5281C" xlink:href="#path-1"></use>
                <polygon id="Color-Style" fill="#C5281C" mask="url(#mask-2)" points="0 0 48 0 48 48 0 48"></polygon>
            </g>
        </g>
    </g>
</svg>