<?xml version="1.0" encoding="UTF-8"?>
<svg width="49px" height="48px" viewBox="0 0 49 48" version="1.1" xmlns="http://www.w3.org/2000/svg" xmlns:xlink="http://www.w3.org/1999/xlink">
    <!-- Generator: sketchtool 60.1 (101010) - https://sketch.com -->
    <title>786D16AF-E52E-45C6-98FC-4868B8D40A10</title>
    <desc>Created with sketchtool.</desc>
    <defs>
        <path d="M27.1018,0.0002 C28.9998,0.0002 30.5548,1.5552 30.5548,3.4542 L30.5548,11.8242 L44.8579,11.8249 C46.5589,11.8249 47.9429,13.2089 47.9429,14.9089 L47.9429,31.5189 C47.9429,33.2199 46.5589,34.6039 44.8579,34.6039 L30.5548,34.6032 L30.5548,42.9882 C30.5548,44.8862 28.9998,46.4422 27.1018,46.4422 L4.4538,46.4422 C2.5558,46.4422 0.9998,44.8862 0.9998,42.9882 L0.9998,3.4542 C0.9998,1.5552 2.5558,0.0002 4.4538,0.0002 L27.1018,0.0002 Z M27.1018,1.3182 L4.4538,1.3182 C3.2808,1.3182 2.3178,2.2802 2.3178,3.4542 L2.3178,42.9882 C2.3178,44.1612 3.2808,45.1232 4.4538,45.1232 L27.1018,45.1232 C28.2748,45.1232 29.2368,44.1612 29.2368,42.9882 L29.2368,34.6172 L27.6418,34.6172 L27.6418,38.9142 C27.6418,39.2842 27.3518,39.5742 26.9828,39.5742 L4.5728,39.5742 C4.2038,39.5742 3.9138,39.2842 3.9138,38.9142 L3.9138,7.5272 C3.9138,7.1582 4.2038,6.8682 4.5728,6.8682 L26.9828,6.8682 C27.3518,6.8682 27.6418,7.1582 27.6418,7.5272 L27.6418,11.8242 L29.2368,11.8242 L29.2368,3.4542 C29.2368,2.2802 28.2748,1.3182 27.1018,1.3182 Z M15.7776,40.22 C16.8586,40.22 17.7416,41.103 17.7416,42.184 C17.7416,43.265 16.8586,44.148 15.7776,44.148 C14.6966,44.148 13.8136,43.265 13.8136,42.184 C13.8136,41.103 14.6966,40.22 15.7776,40.22 Z M15.7776,41.538 C15.4216,41.538 15.1316,41.828 15.1316,42.184 C15.1316,42.54 15.4216,42.83 15.7776,42.83 C16.1336,42.83 16.4236,42.54 16.4236,42.184 C16.4236,41.828 16.1336,41.538 15.7776,41.538 Z M26.3238,8.1862 L5.2318,8.1862 L5.2318,38.2552 L26.3238,38.2552 L26.3238,34.6032 L17.8209,34.6039 C16.1199,34.6039 14.7359,33.2199 14.7359,31.5189 L14.7359,14.9089 C14.7359,13.2089 16.1199,11.8249 17.8209,11.8249 L26.3238,11.8242 L26.3238,8.1862 Z M46.6248,17.8092 L16.0548,17.8092 L16.0549,31.5189 C16.0549,32.4949 16.8449,33.2859 17.8209,33.2859 L44.8579,33.2859 C45.8339,33.2859 46.6249,32.4949 46.6249,31.5189 L46.6248,17.8092 Z M38.254,25.4423 C38.517,25.6923 38.517,26.1143 38.254,26.3783 L37.8068,26.8242 L38.2541,27.2743 C38.5041,27.5383 38.5041,27.9473 38.2541,28.2103 C38.1091,28.3423 37.9501,28.4083 37.7791,28.4083 C37.6081,28.4083 37.4361,28.3423 37.3181,28.2103 L36.8708,27.7602 L36.421,28.2103 C36.303,28.3423 36.131,28.4083 35.96,28.4083 C35.789,28.4083 35.63,28.3423 35.499,28.2103 C35.235,27.9603 35.235,27.5383 35.499,27.2743 L35.9428,26.8262 L35.4981,26.3783 C35.2481,26.1143 35.2481,25.7063 35.4981,25.4423 C35.7621,25.1913 36.1711,25.1913 36.4341,25.4423 L36.8758,25.8872 L37.318,25.4423 C37.568,25.1783 37.99,25.1783 38.254,25.4423 Z M42.6569,25.4423 C42.9199,25.6923 42.9199,26.1143 42.6569,26.3783 L42.2118,26.8262 L42.6571,27.2743 C42.9071,27.5383 42.9071,27.9473 42.6571,28.2103 C42.5121,28.3423 42.3531,28.4083 42.1821,28.4083 C42.0111,28.4083 41.8391,28.3423 41.7211,28.2103 L41.2788,27.7652 L40.8379,28.2103 C40.7059,28.3423 40.5339,28.4083 40.3629,28.4083 C40.1919,28.4083 40.0329,28.3423 39.9019,28.2103 C39.6379,27.9603 39.6379,27.5383 39.9019,27.2743 L40.3458,26.8262 L39.9011,26.3783 C39.6511,26.1143 39.6511,25.7063 39.9011,25.4423 C40.1651,25.1913 40.5741,25.1913 40.8371,25.4423 L41.2788,25.8872 L41.7209,25.4423 C41.9709,25.1783 42.3929,25.1783 42.6569,25.4423 Z M23.0941,25.4423 C23.3571,25.6923 23.3571,26.1143 23.0941,26.3783 L22.6468,26.8242 L23.0943,27.2743 C23.3443,27.5383 23.3443,27.9473 23.0943,28.2103 C22.9493,28.3423 22.7903,28.4083 22.6193,28.4083 C22.4483,28.4083 22.2763,28.3423 22.1583,28.2103 L21.7108,27.7602 L21.2611,28.2103 C21.1431,28.3423 20.9711,28.4083 20.8001,28.4083 C20.6291,28.4083 20.4701,28.3423 20.3391,28.2103 C20.0751,27.9603 20.0751,27.5383 20.3391,27.2743 L20.7828,26.8262 L20.3383,26.3783 C20.0883,26.1143 20.0883,25.7063 20.3383,25.4423 C20.6023,25.1913 21.0113,25.1913 21.2743,25.4423 L21.7158,25.8872 L22.1581,25.4423 C22.4081,25.1783 22.8301,25.1783 23.0941,25.4423 Z M27.497,25.4423 C27.76,25.6923 27.76,26.1143 27.497,26.3783 L27.0518,26.8262 L27.4972,27.2743 C27.7472,27.5383 27.7472,27.9473 27.4972,28.2103 C27.3522,28.3423 27.1932,28.4083 27.0222,28.4083 C26.8512,28.4083 26.6792,28.3423 26.5612,28.2103 L26.1188,27.7652 L25.678,28.2103 C25.546,28.3423 25.374,28.4083 25.203,28.4083 C25.032,28.4083 24.873,28.3423 24.742,28.2103 C24.478,27.9603 24.478,27.5383 24.742,27.2743 L25.1858,26.8262 L24.7412,26.3783 C24.4912,26.1143 24.4912,25.7063 24.7412,25.4423 C25.0052,25.1913 25.4142,25.1913 25.6772,25.4423 L26.1188,25.8872 L26.561,25.4423 C26.811,25.1783 27.233,25.1783 27.497,25.4423 Z M31.9,25.4423 C32.163,25.6923 32.163,26.1143 31.9,26.3783 L31.4548,26.8262 L31.9002,27.2743 C32.1502,27.5383 32.1502,27.9473 31.9002,28.2103 C31.7552,28.3423 31.5962,28.4083 31.4252,28.4083 C31.2542,28.4083 31.0822,28.3423 30.9642,28.2103 L30.5218,27.7652 L30.081,28.2103 C29.949,28.3423 29.777,28.4083 29.606,28.4083 C29.435,28.4083 29.276,28.3423 29.145,28.2103 C28.881,27.9603 28.881,27.5383 29.145,27.2743 L29.5888,26.8262 L29.1442,26.3783 C28.8942,26.1143 28.8942,25.7063 29.1442,25.4423 C29.4082,25.1913 29.8172,25.1913 30.0802,25.4423 L30.5218,25.8872 L30.964,25.4423 C31.214,25.1783 31.636,25.1783 31.9,25.4423 Z M44.8579,13.1429 L17.8209,13.1429 C16.8449,13.1429 16.0549,13.9339 16.0549,14.9089 L16.0548,16.4912 L46.6248,16.4912 L46.6249,14.9089 C46.6249,13.9339 45.8339,13.1429 44.8579,13.1429 Z M19.4028,3.4145 C19.7718,3.4145 20.0618,3.7045 20.0618,4.0735 C20.0618,4.4425 19.7718,4.7325 19.4028,4.7325 L12.1388,4.7325 C11.7698,4.7325 11.4798,4.4425 11.4798,4.0735 C11.4798,3.7045 11.7698,3.4145 12.1388,3.4145 L19.4028,3.4145 Z" id="path-1"></path>
    </defs>
    <g id="Asset-Artboard-Page" stroke="none" stroke-width="1" fill="none" fill-rule="evenodd">
        <g id="icons/products/red/D-investments/d12-net-baking" transform="translate(0.382023, 0.000000)">
            <g>
                <polygon id="Rectangle-path" fill-opacity="0" fill="#FFFFFF" fill-rule="nonzero" points="0 0 48 0 48 48 0 48"></polygon>
                <mask id="mask-2" fill="white">
                    <use xlink:href="#path-1"></use>
                </mask>
                <use id="Mask" fill="#C5281C" xlink:href="#path-1"></use>
                <polygon id="Color-Style" fill="#C5281C" mask="url(#mask-2)" points="0 0 48 0 48 48 0 48"></polygon>
            </g>
        </g>
    </g>
</svg>