<?xml version="1.0" encoding="UTF-8"?>
<svg width="49px" height="48px" viewBox="0 0 49 48" version="1.1" xmlns="http://www.w3.org/2000/svg" xmlns:xlink="http://www.w3.org/1999/xlink">
    <!-- Generator: sketchtool 60.1 (101010) - https://sketch.com -->
    <title>010EBAA8-F4F8-4A2A-B2DB-A3006F947E5D</title>
    <desc>Created with sketchtool.</desc>
    <defs>
        <path d="M28.7526,40.6235 C28.5916,40.8965 28.1876,41.0445 27.6436,41.040579 L21.1886,41.040579 C20.6276,41.040579 20.2136,40.8815 20.0526,40.6035 C19.8906,40.3245 19.9576,39.8835 20.2346,39.3975 L23.4626,33.8075 C23.4726,33.7905 23.4816,33.7735 23.4896,33.7555 C23.5446,33.6515 23.5776,33.5325 23.5776,33.4195 C23.5776,33.1715 23.4416,32.9425 23.2246,32.8225 C22.4646,32.4045 22.0106,31.6395 22.0106,30.7765 C22.0106,29.5015 23.0476,28.4645 24.3216,28.4645 C25.5966,28.4645 26.6336,29.5015 26.6336,30.7765 C26.6336,31.5855 26.2116,32.3315 25.5056,32.7705 C25.2066,32.9565 25.0986,33.3395 25.2556,33.6545 C25.2816,33.7065 25.3076,33.7475 25.3456,33.8075 L28.5716,39.3955 C28.8546,39.8905 28.9206,40.3385 28.7526,40.6235 L28.7526,40.6235 Z M29.7536,38.7155 L26.7586,33.5305 C27.5436,32.8295 27.9976,31.8395 27.9976,30.7765 C27.9976,28.7495 26.3496,27.1015 24.3216,27.1015 C22.2956,27.1015 20.6476,28.7495 20.6476,30.7765 C20.6476,31.8905 21.1486,32.9325 21.9916,33.6265 L19.0536,38.7185 C18.5186,39.6535 18.4536,40.5665 18.8726,41.2885 C19.2906,42.0085 20.1116,42.4045 21.1886,42.4045 L27.6336,42.4045 C27.6516,42.4045 27.6706,42.4045 27.6886,42.4045 C28.7046,42.4045 29.5186,42.0095 29.9266,41.3165 C30.3516,40.5975 30.2886,39.6505 29.7556,38.7185 C29.7546,38.7175 29.7546,38.7165 29.7536,38.7155 L29.7536,38.7155 Z M42.3516,44.6235 C42.3516,46.2525 41.0166,47.5935 39.3836,47.6125 L9.3296,47.6365 C7.6936,47.6365 6.3636,46.3055 6.3636,44.6695 L6.3636,24.0405 C6.3636,22.4115 7.6976,21.0695 9.3306,21.0505 L12.5466,21.0485 C12.6236,21.0785 12.7046,21.0975 12.7916,21.0975 C12.8796,21.0975 12.9616,21.0785 13.0386,21.0475 L35.7536,21.0305 C35.8416,21.0715 35.9366,21.0975 36.0396,21.0975 C36.1436,21.0975 36.2386,21.0705 36.3266,21.0295 L39.3846,21.0275 C41.0206,21.0275 42.3516,22.3585 42.3516,23.9945 L42.3516,44.6235 Z M13.4736,13.2825 C13.4736,7.2615 18.3826,2.3635 24.4156,2.3635 C30.4486,2.3635 35.3576,7.2615 35.3576,13.2825 L35.3576,19.6665 L13.4736,19.6845 L13.4736,13.2825 Z M39.3836,19.6635 L36.7216,19.6655 L36.7216,13.2825 C36.7216,6.5095 31.2006,0.9995 24.4156,0.9995 C17.6306,0.9995 12.1096,6.5095 12.1096,13.2825 L12.1096,19.6855 L9.3216,19.6865 C6.9396,19.7145 4.9996,21.6675 4.9996,24.0405 L4.9996,44.6695 C4.9996,47.0575 6.9426,48.9995 9.3306,48.9995 L39.3926,48.9765 C41.7746,48.9485 43.7146,46.9955 43.7146,44.6235 L43.7146,23.9945 C43.7146,21.6065 41.7726,19.6635 39.3836,19.6635 L39.3836,19.6635 Z" id="path-1"></path>
    </defs>
    <g id="Asset-Artboard-Page" stroke="none" stroke-width="1" fill="none" fill-rule="evenodd">
        <g id="icons/products/red/F-action-navigation/f19-lock-symbol" transform="translate(0.382023, 0.000000)">
            <g transform="translate(0.000000, -1.000000)">
                <polygon id="Rectangle-path" fill-opacity="0" fill="#FFFFFF" fill-rule="nonzero" points="0 1 48 1 48 49 0 49"></polygon>
                <mask id="mask-2" fill="white">
                    <use xlink:href="#path-1"></use>
                </mask>
                <use id="f19-lock-symbol" fill="#C5281C" xlink:href="#path-1"></use>
            </g>
        </g>
    </g>
</svg>