<?xml version="1.0" encoding="UTF-8"?>
<svg width="49px" height="48px" viewBox="0 0 49 48" version="1.1" xmlns="http://www.w3.org/2000/svg" xmlns:xlink="http://www.w3.org/1999/xlink">
    <!-- Generator: sketchtool 60.1 (101010) - https://sketch.com -->
    <title>6493D49D-AC0C-4461-8580-7B5ABA632382</title>
    <desc>Created with sketchtool.</desc>
    <defs>
        <path d="M44.0892632,8 L3.91073684,8 C1.74926294,8.00557083 0,9.75936102 0,11.9208421 L0,36.416 C0,38.5774811 1.74926294,40.3312713 3.91073684,40.3368421 L44.0892632,40.3368421 C46.2507371,40.3312713 48,38.5774811 48,36.416 L48,11.9208421 C48,9.75936102 46.2507371,8.00557083 44.0892632,8 Z M3.91073684,9.32378947 L44.0892632,9.32378947 C45.5212748,9.32932923 46.680776,10.4888305 46.6863158,11.9208421 L46.6863158,14.528 L1.31368421,14.528 L1.31368421,11.9208421 C1.31922397,10.4888305 2.4787252,9.32932923 3.91073684,9.32378947 L3.91073684,9.32378947 Z M44.0892632,39.0130526 L3.91073684,39.0130526 C2.4787252,39.0075129 1.31922397,37.8480116 1.31368421,36.416 L1.31368421,18.9945263 L46.6863158,18.9945263 L46.6863158,36.416 C46.680776,37.8480116 45.5212748,39.0075129 44.0892632,39.0130526 L44.0892632,39.0130526 Z M42.3309474,28.544 L31.8517895,28.544 C31.0911441,28.5495523 30.4774737,29.1677554 30.4774737,29.9284211 L30.4774737,34.4555789 C30.4774737,35.2145926 31.0927758,35.8298947 31.8517895,35.8298947 L42.3309474,35.8298947 C43.089961,35.8298947 43.7052632,35.2145926 43.7052632,34.4555789 L43.7052632,29.9284211 C43.7052632,29.1677554 43.0915927,28.5495523 42.3309474,28.544 L42.3309474,28.544 Z M42.3915789,34.4555789 C42.3915789,34.4716594 42.385191,34.4870813 42.3738204,34.4984519 C42.3624497,34.5098226 42.3470279,34.5162105 42.3309474,34.5162105 L31.7911579,34.4555789 L31.8517895,29.8677895 L42.3915789,29.9284211 L42.3915789,34.4555789 Z M19.6446328,30.2315789 C19.6446328,30.5960133 19.352182,30.8930046 18.9877895,30.8985263 L5.08294737,30.8985263 C4.71855487,30.8930046 4.42610526,30.5960133 4.42610526,30.2315789 C4.42610526,29.8688151 4.72018349,29.5747368 5.08294737,29.5747368 L18.9473684,29.5747368 C19.1284652,29.5635709 19.3061143,29.6278123 19.4381831,29.752225 C19.570252,29.8766377 19.6449755,30.0501386 19.6446328,30.2315789 L19.6446328,30.2315789 Z M12.6922105,34.2736842 C12.6922105,34.6364481 12.3981323,34.9305263 12.0353684,34.9305263 L5.08294737,34.9305263 C4.72018351,34.9305263 4.42610532,34.6364481 4.42610532,34.2736842 C4.42610532,33.9109204 4.72018351,33.6168421 5.08294737,33.6168421 L12.0353684,33.6168421 C12.3981323,33.6168421 12.6922105,33.9109203 12.6922105,34.2736842 L12.6922105,34.2736842 Z" id="path-1"></path>
    </defs>
    <g id="Asset-Artboard-Page" stroke="none" stroke-width="1" fill="none" fill-rule="evenodd">
        <g id="icons/products/red/F-action-navigation/f47-credit-card" transform="translate(0.382023, 0.000000)">
            <g>
                <polygon id="Rectangle-path" fill-opacity="0" fill="#FFFFFF" fill-rule="nonzero" points="-8.17e-14 0 48 0 48 48 -8.17e-14 48"></polygon>
                <mask id="mask-2" fill="white">
                    <use xlink:href="#path-1"></use>
                </mask>
                <use id="Shape" fill="#C5281C" fill-rule="nonzero" xlink:href="#path-1"></use>
            </g>
        </g>
    </g>
</svg>