<svg xmlns="http://www.w3.org/2000/svg" viewBox="0 0 48 48"><defs><style>.cls-1{fill:none;stroke:#adadad;}.cls-2{fill:#d93b3f;}</style></defs><title>ico-medios-pago-1</title><g id="Layer_2" data-name="Layer 2"><g id="Layer_1-2" data-name="Layer 1"><circle class="cls-1" cx="24" cy="24" r="23.5"/><path class="cls-2" d="M34.39,18A12,12,0,0,0,30,13.61a12.07,12.07,0,0,0-12,0A11.94,11.94,0,0,0,13.61,18a12.07,12.07,0,0,0,0,12A11.94,11.94,0,0,0,18,34.39a12.07,12.07,0,0,0,12,0A12,12,0,0,0,34.39,30a12.08,12.08,0,0,0,0-12ZM31,25a1,1,0,0,1-1,1H26v4a1,1,0,0,1-1,1H23a1,1,0,0,1-1-1V26H18a1,1,0,0,1-1-1V23a1,1,0,0,1,1-1h4V18a1,1,0,0,1,1-1h2a1,1,0,0,1,1,1v4h4a1,1,0,0,1,1,1Zm0,0"/></g></g></svg>