<svg xmlns="http://www.w3.org/2000/svg" viewBox="0 0 48 48"><defs><style>.cls-1{fill:none;stroke:#adadad;}.cls-2{fill:#d93b3f;}</style></defs><title>ico-medios-pago</title><g id="Layer_2" data-name="Layer 2"><g id="Layer_1-2" data-name="Layer 1"><circle class="cls-1" cx="24" cy="24" r="23.5"/><path class="cls-2" d="M35.41,15A1.92,1.92,0,0,0,34,14.4H14a2,2,0,0,0-2,2V31.6a2,2,0,0,0,2,2H34a2,2,0,0,0,2-2V16.4A1.93,1.93,0,0,0,35.41,15Zm-1,16.61a.41.41,0,0,1-.4.4H14a.4.4,0,0,1-.4-.4V24H34.4Zm0-12.4H13.6V16.4A.4.4,0,0,1,14,16H34a.41.41,0,0,1,.4.4Zm0,0"/><rect class="cls-2" x="15.2" y="28.8" width="3.2" height="1.6"/><rect class="cls-2" x="20" y="28.8" width="4.8" height="1.6"/></g></g></svg>