<?xml version="1.0" encoding="utf-8"?>
<!-- Generator: Adobe Illustrator 19.0.0, SVG Export Plug-In . SVG Version: 6.00 Build 0)  -->
<svg version="1.1" id="Layer_1" xmlns="http://www.w3.org/2000/svg" xmlns:xlink="http://www.w3.org/1999/xlink" x="0px" y="0px"
	 viewBox="0 0 25.5 25.5" style="enable-background:new 0 0 25.5 25.5;" xml:space="preserve">
<style type="text/css">
	.st0{fill:none;stroke:#D93A3E;stroke-width:1.5;}
	.st1{fill:#D93A3E;}
</style>
<g id="XMLID_1_">
	<circle class="st0" cx="12.8" cy="12.8" r="12"/>
	<path id="XMLID_2_" class="st1" d="M17.1,12.5l-5.6-5.6c-0.1-0.1-0.2-0.1-0.3-0.1s-0.2,0-0.3,0.1l-0.6,0.6
		c-0.1,0.1-0.1,0.2-0.1,0.3c0,0.1,0,0.2,0.1,0.3l4.7,4.7l-4.7,4.7c-0.1,0.1-0.1,0.2-0.1,0.3s0,0.2,0.1,0.3l0.6,0.6
		c0.1,0.1,0.2,0.1,0.3,0.1s0.2,0,0.3-0.1l5.6-5.6c0.1-0.1,0.1-0.2,0.1-0.3C17.2,12.6,17.2,12.6,17.1,12.5"/>
</g>
<g id="XMLID_55_">
</g>
<g id="XMLID_56_">
</g>
<g id="XMLID_57_">
</g>
<g id="XMLID_58_">
</g>
<g id="XMLID_59_">
</g>
<g id="XMLID_60_">
</g>
<g id="XMLID_61_">
</g>
<g id="XMLID_62_">
</g>
<g id="XMLID_63_">
</g>
<g id="XMLID_64_">
</g>
<g id="XMLID_65_">
</g>
<g id="XMLID_66_">
</g>
<g id="XMLID_67_">
</g>
<g id="XMLID_68_">
</g>
<g id="XMLID_69_">
</g>
</svg>
