<svg xmlns="http://www.w3.org/2000/svg" viewBox="0 0 182.97 90"><defs><style>.cls-1{fill:#f0e91c;}.cls-2{fill:#24408f;}.cls-3{fill:#1b4073;}.cls-4{fill:#fff;}.cls-5{fill:#d53c3e;}.cls-6{fill:#c02428;}.cls-7{fill:#f3f3f5;}</style></defs><title>logo</title><g id="Layer_2" data-name="Layer 2"><g id="Capa_1" data-name="Capa 1"><path class="cls-1" d="M137.12,64.73c0,2.85,2.26,5.73,6.43,5.73a7.53,7.53,0,0,0,5.86-2.41h.06L150.1,70h4.75V58.92c0-4.51-2.21-8.21-8.66-8.21a15.67,15.67,0,0,0-7.68,1.77l1.09,3.69a11.87,11.87,0,0,1,5.62-1.51c3.41,0,4.13,1.72,4.13,2.6v.2C141.79,57.44,137.12,59.89,137.12,64.73Zm12.4-3.62v2a4.16,4.16,0,0,1-.1.94,1.7,1.7,0,0,1,0,.2l0,.09a4,4,0,0,1-3.73,2.37c-1.6,0-2.7-.82-2.7-2.4,0-1.77,1.51-2.67,3.75-3a15.46,15.46,0,0,1,1.73-.15C148.73,61.11,149.12,61.09,149.51,61.11Z"/><path class="cls-1" d="M125.52,63.15c0,2.52.51,4.42,1.6,5.57a6.29,6.29,0,0,0,4.58,1.75,7.48,7.48,0,0,0,3.17-.55V65.56a3.44,3.44,0,0,1-1.2.17c-2,0-2.49-1.26-2.49-3.56V55.53h3.62V51.25h-3.62V45h-5.66v6.25h-2.66v4.27h2.66Z"/><path class="cls-1" d="M160.11,68.5a5.54,5.54,0,0,0,2.2,1.47,8.3,8.3,0,0,0,2.83.46,7.7,7.7,0,0,0,2.38-.33,7.8,7.8,0,0,0,1.79-.78,6.43,6.43,0,0,0,1.26-1,7.22,7.22,0,0,0,.79-1l.74,2.66h4.61V51.27H171v11a3.12,3.12,0,0,1-.2,1.19,3.77,3.77,0,0,1-3.51,2.41c-2.39,0-3.42-1.75-3.42-4.68V51.25h-5.69v11a11.57,11.57,0,0,0,.53,3.74A7.18,7.18,0,0,0,160.11,68.5Z"/><polygon class="cls-1" points="174.31 45 168.8 45 165.28 50.05 169.36 50.05 174.31 45"/><rect class="cls-1" x="114.22" y="45" width="5.84" height="25"/><path class="cls-2" d="M170.48,7.5h-50A12.51,12.51,0,0,0,108,20V70a12.49,12.49,0,0,0,12.5,12.49h50A12.48,12.48,0,0,0,183,70V20A12.51,12.51,0,0,0,170.48,7.5ZM114.22,70V45h5.84V70Zm20.59-18.75v4.27h-3.62v6.64c0,2.3.47,3.56,2.49,3.56a3.44,3.44,0,0,0,1.2-.17v4.36a7.48,7.48,0,0,1-3.17.55,6.29,6.29,0,0,1-4.58-1.75c-1.09-1.15-1.6-3.05-1.6-5.57V55.53h-2.66V51.25h2.66V45h5.66v6.25Zm10.41,3.41a11.87,11.87,0,0,0-5.62,1.51l-1.09-3.69a15.67,15.67,0,0,1,7.68-1.77c6.46,0,8.66,3.7,8.66,8.21V70H150.1l-.64-1.95h-.06a7.53,7.53,0,0,1-5.86,2.41c-4.17,0-6.43-2.88-6.43-5.73,0-4.84,4.67-7.3,12.23-7.27v-.2C149.35,56.39,148.62,54.65,145.22,54.67ZM176.73,70h-4.61l-.74-2.66a7.22,7.22,0,0,1-.79,1,6.43,6.43,0,0,1-1.26,1,7.8,7.8,0,0,1-1.79.78,7.7,7.7,0,0,1-2.38.33,8.3,8.3,0,0,1-2.83-.46,5.54,5.54,0,0,1-2.2-1.47A7.18,7.18,0,0,1,158.66,66a11.57,11.57,0,0,1-.53-3.74v-11h5.69v9.91c0,2.94,1,4.68,3.42,4.68a3.77,3.77,0,0,0,3.51-2.41,3.12,3.12,0,0,0,.2-1.19v-11h5.77ZM165.29,50l3.52-5h5.51l-5,5Z"/><path class="cls-2" d="M148.36,61.11a15.46,15.46,0,0,0-1.73.15c-2.24.35-3.75,1.26-3.75,3,0,1.58,1.1,2.4,2.7,2.4a4,4,0,0,0,3.73-2.37l0-.09a1.7,1.7,0,0,0,0-.2,4.16,4.16,0,0,0,.1-.94v-2C149.12,61.09,148.73,61.11,148.36,61.11Z"/><g id="Layer_2-2" data-name="Layer 2"><g id="Layer_1-2" data-name="Layer 1-2"><polygon class="cls-3" points="75.02 42.51 75.02 0 0.02 0 0.02 75 42.52 75 75.02 42.51"/><path class="cls-4" d="M48.24,28.12v-1h-8v1h.51a2.34,2.34,0,0,1,1.65.44,1.41,1.41,0,0,1,.34,1V42.72A3.86,3.86,0,0,1,42,45.48a1.73,1.73,0,0,1-1.29.45,4.26,4.26,0,0,1-1.87-.65L38.33,45a1.16,1.16,0,0,0-.55-.09,1.23,1.23,0,0,0-.88.34,1.08,1.08,0,0,0-.31.77c0,.82,1,1.39,2.49,1.39a6,6,0,0,0,4.46-1.61C45,44.36,45.71,42,45.71,38.52V29.62c0-.88.34-1.47,2-1.47Z"/><path class="cls-4" d="M53,34.57,55.15,30l2.05,4.57Zm11.91,6.82c-1.27,0-1.57-.55-2.16-1.8L57.21,27.11H53.85l.21.33a.79.79,0,0,1,.12.37,2,2,0,0,1-.27.8l-5,11.09c-.55,1.22-.77,1.67-2.5,1.7h-.22V42.5H53V41.37H51.84a2.08,2.08,0,0,1-1.38-.31.47.47,0,0,1-.13-.36,2.08,2.08,0,0,1,.22-.73l1.87-4h5.44l1.83,4a2.71,2.71,0,0,1,.24.78.42.42,0,0,1-.12.32,2.43,2.43,0,0,1-1.55.31H57V42.5h8.44V41.39Z"/><path class="cls-4" d="M29.47,34.57l2.12-4.62,2.1,4.62Zm5.24,6.87H33.43v1.12h8.44V41.39h-.51c-1.27,0-1.58-.55-2.16-1.8L33.58,27.11h-3.3l.2.33a.8.8,0,0,1,.12.37,2,2,0,0,1-.27.8L26,38.24c-1,2-3.31,3.1-6.41,3.1a7.42,7.42,0,0,1-5.39-2,7,7,0,0,1-2-5.15,5.86,5.86,0,0,1,2.07-4.51A7.72,7.72,0,0,1,19.13,28a6.56,6.56,0,0,1,6.14,3.59l.07.11h1.09l-.29-3.92-.24.06a2.67,2.67,0,0,1-.52.06,4.12,4.12,0,0,1-.76-.09l-.28,0a32.24,32.24,0,0,0-5.44-.85A9.93,9.93,0,0,0,11,30.31,7.2,7.2,0,0,0,9,35.12a6.56,6.56,0,0,0,3.16,5.55,12.32,12.32,0,0,0,7.13,1.87H29.43V41.42H28.28a2.09,2.09,0,0,1-1.38-.31.48.48,0,0,1-.13-.36A2.14,2.14,0,0,1,27,40l1.87-4H34.3l1.83,4a2.71,2.71,0,0,1,.24.79.43.43,0,0,1-.11.31,2.45,2.45,0,0,1-1.56.32"/><path class="cls-4" d="M43.34,13.12l2.1,4.62H41.22ZM41.17,24.52H40a2.07,2.07,0,0,1-1.38-.31.47.47,0,0,1-.14-.36,2.15,2.15,0,0,1,.22-.73l1.87-4h5.45l1.82,4a2.68,2.68,0,0,1,.24.79.41.41,0,0,1-.12.31,2.41,2.41,0,0,1-1.55.31H45.19v1.12h8.44V24.52h-.51c-1.27,0-1.58-.55-2.17-1.8L45.33,10.24H42l.21.33a.75.75,0,0,1,.12.37,2,2,0,0,1-.27.8l-4.57,10s-1,2.72-3.37,2.72H30.58a2,2,0,0,1-1.38-.32A1.63,1.63,0,0,1,28.91,23V13c0-.94.36-1.49,2.14-1.49h1V10.42H23.29V11.5h.51a2.31,2.31,0,0,1,1.65.44,1.38,1.38,0,0,1,.33,1v10.1a1.37,1.37,0,0,1-.33,1,2.3,2.3,0,0,1-1.66.43h-.51v1.12h17.9Z"/><polygon class="cls-5" points="45.03 72.5 72.52 72.5 72.52 45 45.03 72.5"/><path class="cls-4" d="M12.4,51.22c-.2-.65-.4-.94-.68-.94-.49,0-1.12,1.27-1.12,3,0,.39.09.59.25.59s.69-.45,1.27-1.32ZM10.07,55c-.52,0-.94-.53-.94-1.48a4.32,4.32,0,0,1,1.37-2.94A2.44,2.44,0,0,1,12,49.69a.79.79,0,0,1,.67.37l.46-2.16a1.93,1.93,0,0,0,0-.22c0-.1,0-.18-.12-.18a1.71,1.71,0,0,0-.41.1l-.14-.32a14.06,14.06,0,0,1,2-.77.2.2,0,0,1,.22.18h0a1.63,1.63,0,0,1,0,.37l-1.4,6.77a.66.66,0,0,0,0,.13c0,.08,0,.1.08.1s.37-.2.67-.63l.22.19c-.7.94-1.33,1.44-1.83,1.44s-.54-.22-.54-.67A6.4,6.4,0,0,1,12,53.34c-.85,1.13-1.47,1.72-1.87,1.72"/><path class="cls-4" d="M17.76,50.62c0-.3-.13-.46-.35-.46-.4,0-.73.68-1,2.07a1.67,1.67,0,0,0,1.39-1.61M16.18,55.1c-.94,0-1.42-.55-1.42-1.65a4,4,0,0,1,1-2.61,2.93,2.93,0,0,1,2-1.15.94.94,0,0,1,1.1.94c0,.89-.94,1.47-2.7,1.93a3.52,3.52,0,0,0-.06.65c0,.7.32,1.08.94,1.08a2.7,2.7,0,0,0,1.36-.54l.17.22a4.33,4.33,0,0,1-2.47,1.12"/><path class="cls-4" d="M25.48,50.47h-.09A2.42,2.42,0,0,0,23.24,53c0,.51.24.82.5.82s.43-.18.71-.43l.49-.43Zm-1.27,3.69c-.6.55-1,.85-1.35.85s-.78-.41-.78-1.2A4.19,4.19,0,0,1,24,50.44a4.11,4.11,0,0,1,2.48-.75H27l-.88,4a1.23,1.23,0,0,0,0,.28c0,.08,0,.13.09.13s.37-.19.79-.6l.22.22c-.94.82-1.45,1.31-1.87,1.31s-.58-.24-.58-.78a4.43,4.43,0,0,1,.07-.67Z"/><path class="cls-4" d="M31.57,51.08c0-.15-.06-.22-.18-.22-.27,0-.74.6-1.6,1.72l-.35,1.64c-.13.63-.14.74-.64.74h-.46c-.25,0-.38-.08-.38-.18a1.87,1.87,0,0,1,.06-.46L29.36,48a1.22,1.22,0,0,0,0-.25c0-.15,0-.23-.13-.23a1.44,1.44,0,0,0-.41.08l-.1-.31a14.91,14.91,0,0,1,2.16-.76.16.16,0,0,1,.14.17v.2l-1,4.91c1-1.38,1.93-2.09,2.58-2.09.38,0,.59.25.59.75A2.74,2.74,0,0,1,33,51l-.71,2.72a1.08,1.08,0,0,0,0,.25c0,.09,0,.15.1.15a2.45,2.45,0,0,0,.82-.77l.25.22c-.73.94-1.36,1.48-2,1.48-.4,0-.57-.19-.57-.64a4.69,4.69,0,0,1,.15-.94l.5-2.07a1.52,1.52,0,0,0,0-.35"/><path class="cls-4" d="M36.09,54.57c.51,0,1.24-1.13,1.24-2.7,0-1-.26-1.61-.69-1.61s-1.2,1.11-1.2,2.81c0,.94.25,1.49.66,1.49m-.87-3.94a3.44,3.44,0,0,1,2.14-.94c.94,0,1.42.63,1.42,1.77A3.42,3.42,0,0,1,38,53.63a3.52,3.52,0,0,1-2.67,1.48c-.94,0-1.39-.63-1.39-1.81a3.5,3.5,0,0,1,1.24-2.68"/><path class="cls-4" d="M39.39,51.3c.8-1.12,1.46-1.64,1.87-1.64s.35.15.35.52a16.42,16.42,0,0,1-.35,2.32h0c.73-1.87,1.23-2.81,1.95-2.81.3,0,.45.18.45.5,0,.65-.23,1-.67,1h-.31c-.67,0-1.15,1.1-1.61,3.29l-.07.3c0,.17-.14.23-.37.23h-.63c-.27,0-.37-.06-.37-.22v-.09l.44-2.61a10.13,10.13,0,0,0,.15-1c0-.13,0-.21-.06-.21a2,2,0,0,0-.62.63Z"/><path class="cls-4" d="M43.65,51.3c.8-1.12,1.47-1.64,1.87-1.64s.35.15.35.52a16.14,16.14,0,0,1-.32,2.32h0c.73-1.87,1.23-2.81,1.95-2.81.3,0,.45.18.45.5,0,.65-.23,1-.67,1H47c-.67,0-1.14,1.1-1.61,3.29l-.07.3c0,.17-.14.23-.37.23H44.3c-.27,0-.37-.06-.37-.22v-.09l.44-2.61a9.75,9.75,0,0,0,.15-1c0-.13,0-.21-.06-.21a1.94,1.94,0,0,0-.61.63Z"/><path class="cls-4" d="M49.42,54.57c.51,0,1.24-1.13,1.24-2.7,0-1-.26-1.61-.69-1.61s-1.2,1.11-1.2,2.82c0,.94.25,1.49.65,1.49m-.86-3.95a3.44,3.44,0,0,1,2.14-.94c.94,0,1.42.63,1.42,1.77a3.42,3.42,0,0,1-.73,2.17,3.52,3.52,0,0,1-2.67,1.48c-.94,0-1.39-.63-1.39-1.81a3.5,3.5,0,0,1,1.24-2.68"/><path class="cls-4" d="M8.46,65.81c.65-.08.94-.15,1.22-.58a7.92,7.92,0,0,0,.69-1.64A5.11,5.11,0,0,0,10.56,62c0-1.87-.27-2.91-.59-2.91-.16,0-.35.18-.56.46l-.3-.13c.51-.94,1.17-1.39,1.7-1.39.69,0,1.12,1.08,1.12,3.11a16.71,16.71,0,0,1-.08,1.83,11.62,11.62,0,0,0,1.3-3.34c0-.4-.24-.52-.24-.82a.78.78,0,0,1,.76-.8h.07a.72.72,0,0,1,.78.66s0,0,0,0c0,.78-.82,1.8-1.87,3.56a12.34,12.34,0,0,0-1.5,3.22c0,.22.19.24.62.33l-.06.33H8.46Z"/><path class="cls-4" d="M17,61.87c.37,0,.61.27.94.58a1.11,1.11,0,0,0,.67.3.31.31,0,0,0,.36-.34c0-.27-.26-.53-.67-.94-.62-.65-1-1.12-1-1.76a1.92,1.92,0,0,1,2-1.67c.64,0,1,.33,1,.82a.66.66,0,0,1-.6.71h-.07a.68.68,0,0,1-.64-.41c-.14-.25-.18-.53-.47-.53s-.3.13-.3.36c0,.39.37.73.87,1.31a2,2,0,0,1,.71,1.37c0,.94-.94,1.77-2.3,1.77-.8,0-1.22-.31-1.22-.81a.67.67,0,0,1,.6-.73H17"/><path class="cls-4" d="M23.32,58.95c0-.3-.13-.46-.36-.46-.4,0-.73.68-1,2.07a1.67,1.67,0,0,0,1.4-1.61m-1.57,4.47c-.94,0-1.42-.55-1.42-1.65a4,4,0,0,1,1-2.61A2.92,2.92,0,0,1,23.46,58a.94.94,0,0,1,1.11.94c0,.89-.94,1.46-2.7,1.93a3.58,3.58,0,0,0-.06.65c0,.7.32,1.08.94,1.08a2.73,2.73,0,0,0,1.36-.54l.16.22a4.31,4.31,0,0,1-2.47,1.12"/><path class="cls-4" d="M24.3,64.92c0,.49.61.87,1.63.87s1.35-.2,1.35-.44-.88-.53-1.93-1.51c-.68.21-1,.64-1,1.08m2.38-3c.22,0,.37-.17.52-.49a4.94,4.94,0,0,0,.46-2c0-.67-.15-1-.52-1s-1.08,1-1.08,2.44c0,.71.25,1.09.61,1.09m-2-1.27a2.62,2.62,0,0,1,1.08-1.95A3.44,3.44,0,0,1,27.88,58a8.59,8.59,0,0,1,1.53.17v.73a2.14,2.14,0,0,0-.49,0h-.15a2.22,2.22,0,0,1,.24,1,2.6,2.6,0,0,1-1.81,2.32c-.63.27-1.08.27-1.08.52s.31.41.94.79c.85.52,1.48.82,1.48,1.44s-1.09,1.27-2.81,1.27S23,65.71,23,65.22s.73-1,2.18-1.67a.74.74,0,0,1-.07-.31c0-.37.26-.67.77-.84a1.82,1.82,0,0,1-1.19-1.72"/><path class="cls-4" d="M30.16,63.46c-.33,0-.49-.19-.49-.56a4.47,4.47,0,0,1,.12-.82l.47-2.35a3.15,3.15,0,0,0,.07-.44c0-.11,0-.15-.1-.15s-.27.22-.59.66l-.23-.18c.72-1,1.22-1.55,1.87-1.55a.53.53,0,0,1,.57.6,7.28,7.28,0,0,1-.18,1l-.4,1.87a1.75,1.75,0,0,0,0,.35c0,.14.06.22.14.22A5.61,5.61,0,0,0,33,59.82l.22-.94c.14-.62.14-.75.65-.75h.42c.25,0,.38.08.38.17a3.19,3.19,0,0,1-.08.49L34,61.87a1.66,1.66,0,0,1,0,.28s0,.18.1.18a2.19,2.19,0,0,0,.73-.66l.22.22c-.85,1.08-1.61,1.59-2.12,1.59-.3,0-.45-.18-.45-.51a3,3,0,0,1,.08-.6l.3-1.43c-1.14,1.7-2.13,2.49-2.65,2.49"/><path class="cls-4" d="M35.21,59.64C36,58.53,36.67,58,37.09,58s.35.15.35.52a16.45,16.45,0,0,1-.3,2.3h0c.73-1.87,1.23-2.81,1.95-2.81.3,0,.45.18.45.5,0,.65-.23,1-.67,1h-.31c-.67,0-1.14,1.1-1.61,3.29l-.08.3c0,.17-.14.23-.37.23h-.63c-.27,0-.37-.06-.37-.22V63l.44-2.61a10,10,0,0,0,.16-1c0-.13,0-.21-.06-.21a2,2,0,0,0-.62.63Z"/><path class="cls-4" d="M41,62.92c.51,0,1.25-1.13,1.25-2.7,0-1-.26-1.61-.7-1.61s-1.2,1.11-1.2,2.82c0,.94.25,1.49.66,1.49M40.12,59A3.45,3.45,0,0,1,42.25,58c.94,0,1.42.63,1.42,1.77A3.45,3.45,0,0,1,42.95,62a3.52,3.52,0,0,1-2.68,1.48c-.94,0-1.39-.63-1.39-1.81A3.49,3.49,0,0,1,40.11,59"/><path class="cls-6" d="M29,84.79V80.87c2.46,0,3.36-.12,3.75,2.89H33V80.4H26.33v.46H27.5v8.62H26.21v.46h6.9V86.42h-.35c-.35,2.66-1,3.07-2.92,3.07H29V85.31h.51c.85,0,1.33.52,1.51,2h.31V82.95H31s-.06,1.87-1.55,1.87Z"/><path class="cls-6" d="M26.27,85H22.52v.43h1.29v3.1c-.22.79-1.38,1.12-1.72,1.12-2.41,0-2.24-3.52-2.24-4.47s-.14-4.51,2.18-4.51c1.64,0,2.5,1.63,2.81,3.09h.26V80.25L24,81a2.27,2.27,0,0,0-2-.77c-2.81,0-3.89,2.81-3.88,4.82,0,1.81.85,4.9,3.88,4.9a2.32,2.32,0,0,0,2-1l1.21.94V85.39h1.08Z"/><path class="cls-6" d="M70.33,86.42c-.35,2.66-1,3.07-2.92,3.07H67.3V80.86h1.2v-.47h-4v.47h1.21v8.62h-.94l-3.52-9.37h-.52s-2.92,8.44-2.93,8.5-.22.73-.7.82-.41-.22-.41-.29v-1.6a2.92,2.92,0,0,0-.48-1.87,2.56,2.56,0,0,0-1.33-.56,2.69,2.69,0,0,0,2.17-2.5c0-1.44-1-2.16-2.68-2.22H49.62v.47h1.22v8.62H49.62v.46h3.9v-.46H52.3V85.31h1.62c2.81.23-.49,4.61,3.21,4.6h2.32v-.46c-.13,0-.94,0-1-.57a9,9,0,0,1,.56-2h3.17s.94,2.54,1,2.54h-1.1v.46h8.63v-3.5ZM53.87,84.86H52.31v-4h2c1.16.18,1.21,1.52,1.21,1.95,0,1-.43,2.05-1.64,2.05m5.34,1.65,1.38-4.12,1.46,4.12Z"/><path class="cls-6" d="M44.93,80.86c2.46,0,3.37-.12,3.75,2.9h.26V80.4H39.22v.46h.25c.35,0,1.16,0,1.21.74h0v5.5l-4.56-6.7H33.65v.46h.41c.49,0,1.17,0,1.21.74v7c0,.68-1,.94-1.46.94h0v.34h3.37v-.34c-.43,0-1.46-.26-1.46-.94v-6.2C37.52,85,40.92,90,41,90h.17V81.56c0-.72.86-.74,1.21-.74h1.12v8.62H42.21v.46H49.1V86.42h-.35c-.35,2.66-1,3.07-2.92,3.07H45V85.31h.51c.85,0,1.33.52,1.51,2h.31V82.95H47s-.06,1.87-1.55,1.87H45Z"/><polygon class="cls-6" points="75.02 80.86 75.02 80.4 71.13 80.4 71.13 80.86 72.35 80.86 72.36 89.48 71.13 89.48 71.13 89.94 75.02 89.94 75.02 89.48 73.8 89.48 73.8 80.86 75.02 80.86"/><path class="cls-6" d="M13.65,89.06l.36-.13h0c.5-.21.57-.34.54-.67V86.92c.38.94.74,1.65,1.48,1.65a1.47,1.47,0,0,0,.32,0l.29-.07-.2-.22a1.78,1.78,0,0,1-.26-.37l-.09-.17a.74.74,0,0,0-.94-.22c-.15-.3-.3-.69-.49-1.17v-.09L14.57,86h0a6.84,6.84,0,0,0-.37-.75,4.26,4.26,0,0,0-.41-.57,2.45,2.45,0,0,0-1.57-.88,8.75,8.75,0,0,0-1.12-.1h-.25L10,83.67l-.67-.06a.71.71,0,0,0,.1-.18,1,1,0,0,0,0-.21h2.47a1.42,1.42,0,0,0,1.28-.83,1.42,1.42,0,0,0,1.39-.83h.08a1.42,1.42,0,0,0,1.4-.94l.11-.24H7.77a1.25,1.25,0,0,0-1.19.94h0a1.77,1.77,0,0,0-.74-.94,1.87,1.87,0,0,0-1.41-.24,1.47,1.47,0,0,0-.72.47,2.71,2.71,0,0,0-.28.46.53.53,0,0,0-.11.12l-.1.19h0a2.38,2.38,0,0,1-.38.59.39.39,0,0,0-.1.34.45.45,0,0,0,.1.2h0a.39.39,0,0,0,0,.19.4.4,0,0,0,.42.38h0a.83.83,0,0,0,.46-.18,1.25,1.25,0,0,1,.27-.15.13.13,0,0,1,.13.12c0,.18-.23.28-.4.29H3.34c-.24,0-.37.15-.37.27a.29.29,0,0,0,.09.22h0l.08.08-.32.7A1.34,1.34,0,0,0,2,84a.57.57,0,0,0-.43.15l-.08.1h0a.75.75,0,0,0-.63.32.76.76,0,0,0,.07.76L0,85.59v4.34H16.69v-.87Zm2.15-1.18.08.15.1.18a.82.82,0,0,1-.65-.43.39.39,0,0,1,.45.1m-3.61-3.75a2.12,2.12,0,0,1,1.3.72l.21.26a1.87,1.87,0,0,1-1.72-1h.21m-.39-1.29H10.11a1.59,1.59,0,0,0,.37-.49h2.31a1.07,1.07,0,0,1-.94.49m1.3-.76H11.46a1.58,1.58,0,0,0,.37-.51h2.31a1.07,1.07,0,0,1-1,.51m.11-1.3h2.3a1.07,1.07,0,0,1-.94.45h-1.7a1.54,1.54,0,0,0,.35-.45M4,80.83a1.06,1.06,0,0,1,.23-.21,1.13,1.13,0,0,1,.29-.13,1.22,1.22,0,0,1,.55,0l-.61.37H4m-.68,2.66h.3c.37,0,.73-.16.77-.53a.48.48,0,0,0-.39-.5.94.94,0,0,0-.46.21.64.64,0,0,1-.27.13s-.08,0-.08-.06h0l.19-.25-.16-.11s-.09-.07-.09-.09v0a3.17,3.17,0,0,0,.22-.3c0-.07.07-.1.16-.1A.14.14,0,0,1,3.6,82h0c0,.06.06.09.13.09s.1,0,.15-.09.17-.16.07-.22-.52.08-.39-.29v-.06a.84.84,0,0,1,.65-.21h.3l.86-.53h0a.75.75,0,0,1-.38.72l-.1.06.07.38a.5.5,0,0,0-.37.46,1.64,1.64,0,0,0,0,.27,2.88,2.88,0,0,1,.06.4c0,.4-.55.67-1,.66h0a1.21,1.21,0,0,1-.39-.08.06.06,0,0,1,0-.06M1.14,84.8a.41.41,0,0,1,.41-.16h.15V84.5a.21.21,0,0,1,.06-.08.25.25,0,0,1,.22,0,1.09,1.09,0,0,1,.67.37,1.76,1.76,0,0,1,.17.28v.12a1.14,1.14,0,0,1,.1.18l.22-.3h0l-.07-.13h0L3,84.78l.45-.72h.32c.64,0,1.29-.37,1.29-.94h0A3.08,3.08,0,0,0,5,82.5a1.47,1.47,0,0,1,0-.21c0-.07.09-.14.23-.14h.21l-.09-.53a1.11,1.11,0,0,0,.46-.89,1.57,1.57,0,0,1,.57,1.1,1.77,1.77,0,0,1-.06.5v.08h0a6.48,6.48,0,0,1-.24.77l0,.14.13.08c.23.13.37.22.37.53a.74.74,0,0,1-.62.67l-.41.08.36.23a.39.39,0,0,1,.18.33.41.41,0,0,1-.41.39H5.43v.12c-.13.42-.27.63-.72.67a2.36,2.36,0,0,0,0-.42V85.4l-.28.28a.86.86,0,0,1-.44.21v-.34L2,85l-.72.28a.52.52,0,0,1-.15-.48M.57,89.06,2,88.7l1.42.37Zm3-.3L2,88.35l-1.62.43V85.87L2,85.45l1.62.42Zm.76-.56a.94.94,0,0,0-.06.87H4V86.25a1.48,1.48,0,0,0,.39-.11,2.81,2.81,0,0,1,0,.35v.3h.21a1.53,1.53,0,0,0,.71-.14v1.2a.06.06,0,0,1-.06.06H5.07a.82.82,0,0,0-.69.31m3.75.08a.88.88,0,0,0-.17.8H5.84a.77.77,0,0,0,.51-.2.65.65,0,0,0,.15-.48s0-.06.13-.1l.19-.08L6.7,88a2,2,0,0,1,0-1.21h0a4.87,4.87,0,0,0,1.67-.31l.4-.12h0l.34-.09.68,1.13h0c.07.09.07.16,0,.31l-.4.37L8.83,88h0a.8.8,0,0,0-.7.25m.19.8a.61.61,0,0,1,.07-.56.45.45,0,0,1,.38-.14l.66.12h.11L10,88h0a.55.55,0,0,0,.07-.73l-.63-1h.3a1.38,1.38,0,0,1,.65.19l.18.37c.13.26.29.59.34.72a.29.29,0,0,1-.09.33L9.64,89.06Zm4,0H10.12l.94-1a.65.65,0,0,0,.18-.67,7,7,0,0,0-.31-.67,6.22,6.22,0,0,0,2.14.43c.14,0,.18.06.21.19l0,.51-.62.14a.59.59,0,0,0-.44.37.87.87,0,0,0,.07.72m.24-.6a.24.24,0,0,1,.19-.16l.94-.21-.08-.82h0a.53.53,0,0,0-.52-.47,4.33,4.33,0,0,1-2.43-.64h0a1.73,1.73,0,0,0-.94-.28,4.48,4.48,0,0,0-1.11.2l-.4.13a4.46,4.46,0,0,1-1.71.29H6.39v.13a2.81,2.81,0,0,0,0,1.46.41.41,0,0,0-.18.33c0,.18,0,.22,0,.24a1.13,1.13,0,0,1-.62.1H5.46l-.06.08a.67.67,0,0,1-.69.2.72.72,0,0,1,0-.61.52.52,0,0,1,.41-.16h0a.4.4,0,0,0,.39-.4V86.36A1.66,1.66,0,0,0,5.64,86a.75.75,0,0,0,.67-.69.73.73,0,0,0-.11-.39A1,1,0,0,0,6.82,84a.82.82,0,0,0-.42-.76,6.75,6.75,0,0,0,.18-.72l.29-1a.94.94,0,0,1,.86-.67h5.13a1.07,1.07,0,0,1-.94.45H8.84l-.16.31h2.77a1.07,1.07,0,0,1-1,.51h-2l-.16.35h1.79a1.07,1.07,0,0,1-.94.49H8l-.16.35H9a.36.36,0,0,1,0,.21.41.41,0,0,1-.41.4.67.67,0,0,1-.26-.07l-.15-.07L7.9,84l.15.07h0a1.27,1.27,0,0,0,.53.15A.74.74,0,0,0,9.12,84l.82.07.94.07h.68A2.45,2.45,0,0,0,14,85.52a5.8,5.8,0,0,1,.26.54v2.19h0v.15a1.17,1.17,0,0,1-.33.18l-1.15.48a.63.63,0,0,1-.14-.57"/><polygon class="cls-6" points="3.26 86.31 2.17 86.03 2.17 86.39 3.26 86.67 3.26 86.31"/><polygon class="cls-6" points="0.72 86.67 1.81 86.39 1.81 86.03 0.72 86.31 0.72 86.67"/><polygon class="cls-6" points="0.72 87.38 1.81 87.1 1.81 86.75 0.72 87.03 0.72 87.38"/><polygon class="cls-6" points="3.26 87.03 2.17 86.75 2.17 87.1 3.26 87.38 3.26 87.03"/><polygon class="cls-6" points="3.26 87.75 2.17 87.47 2.17 87.81 3.26 88.11 3.26 87.75"/><polygon class="cls-6" points="0.72 88.11 1.81 87.81 1.81 87.47 0.72 87.75 0.72 88.11"/></g></g><rect class="cls-7" x="88.28" width="2" height="90"/></g></g></svg>