<?xml version="1.0" encoding="utf-8"?>
<!-- Generator: Adobe Illustrator 19.0.0, SVG Export Plug-In . SVG Version: 6.00 Build 0)  -->
<svg version="1.1" id="Layer_1" xmlns="http://www.w3.org/2000/svg" xmlns:xlink="http://www.w3.org/1999/xlink" x="0px" y="0px"
	 viewBox="0 0 186.6 102.6" style="enable-background:new 0 0 186.6 102.6;" xml:space="preserve">
<style type="text/css">
	.st0{fill-rule:evenodd;clip-rule:evenodd;fill:#FFFFFF;}
</style>
<g>
	<path class="st0" d="M52.5,80H98l0.3-0.3l2.3-2.3H130V48l2.5-2.6V0h-80V80z M54.4,1.8h76.3v42.8l-2.5,2.6v0L99.8,75.6h0l-2.6,2.5
		H54.4V1.8z"/>
	<path class="st0" d="M98.7,48.4c1.5-1.5,2.2-3.9,2.2-7.4v-9c0-0.9,0.3-1.5,2-1.5h0.5v-1h-8.1v1h0.5c0.8,0,1.4,0.2,1.7,0.4
		c0.2,0.2,0.3,0.6,0.3,1v13.3c0,1.4-0.2,2.3-0.7,2.8c-0.3,0.3-0.7,0.5-1.3,0.5c-0.6,0-1.2-0.3-1.9-0.7c-0.2-0.1-0.3-0.2-0.5-0.3
		c-0.1-0.1-0.3-0.1-0.6-0.1c-0.4,0-0.7,0.1-0.9,0.3c-0.2,0.2-0.3,0.5-0.3,0.8c0,0.8,1,1.4,2.5,1.4C96.1,50.1,97.6,49.5,98.7,48.4z"
		/>
	<path class="st0" d="M109.4,30.2c0,0.1,0,0.3-0.3,0.8L104,42.2c-0.6,1.2-0.8,1.7-2.5,1.7h-0.2V45h6.9v-1.1l-0.3,0
		c-0.3,0-0.6,0-0.8,0c-0.7,0-1.2-0.1-1.4-0.3c-0.1-0.1-0.1-0.2-0.1-0.4c0-0.1,0-0.3,0.2-0.7l1.9-4.1h5.5l1.8,4.1
		c0.2,0.4,0.3,0.7,0.3,0.8c0,0.1,0,0.2-0.1,0.3c-0.2,0.2-0.7,0.3-1.6,0.3c-0.3,0-0.6,0-0.9,0l-0.3,0V45h8.5v-1.1h-0.5
		c-1.3,0-1.6-0.6-2.2-1.8l-5.6-12.6H109l0.2,0.3C109.3,30,109.4,30.1,109.4,30.2z M112.5,37h-4.3l2.1-4.7L112.5,37z"/>
	<path class="st0" d="M66.9,43.1c1.9,1.3,4.2,1.9,7.2,1.9h10.2v-1.1l-0.3,0c-0.3,0-0.6,0-0.8,0c-0.7,0-1.2-0.1-1.4-0.3
		c-0.1-0.1-0.1-0.2-0.1-0.4c0-0.1,0-0.3,0.2-0.7l1.9-4.1h5.5l1.8,4.1c0.2,0.5,0.2,0.7,0.2,0.8c0,0.1,0,0.2-0.1,0.3
		c-0.2,0.2-0.7,0.3-1.6,0.3c-0.3,0-0.6,0-0.9,0l-0.3,0V45h8.5v-1.1h-0.5c-1.3,0-1.6-0.6-2.2-1.8l-5.7-12.6h-3.4l0.2,0.3
		c0.1,0.2,0.1,0.3,0.1,0.4c0,0.1,0,0.3-0.3,0.8l-4.4,9.7c-1,2-3.3,3.1-6.5,3.1c-2.2,0-4.1-0.7-5.4-2.1c-1.3-1.3-2-3.1-2-5.2
		c0-1.8,0.8-3.4,2.1-4.6c1.3-1,3-1.6,4.9-1.6c2.8,0,4.9,1.2,6.2,3.6l0.1,0.1l1.1,0l-0.3-3.9l-0.3,0c-0.2,0-0.4,0.1-0.5,0.1
		c-0.3,0-0.5,0-0.8-0.1l-0.3-0.1c-2-0.4-3.8-0.8-5.5-0.9c-3.2-0.1-5.9,1.1-8,3.4c-1.3,1.4-2,3.1-2,4.9
		C63.7,39.8,64.9,41.8,66.9,43.1z M86.6,32.4l2.1,4.7h-4.3L86.6,32.4z"/>
	<path class="st0" d="M96.2,26.9l-0.3,0c-0.3,0-0.6,0-0.8,0c-0.7,0-1.2-0.1-1.4-0.3c-0.1-0.1-0.1-0.2-0.1-0.4c0-0.1,0-0.3,0.2-0.7
		l1.9-4.1h5.5l1.8,4c0.2,0.5,0.3,0.7,0.3,0.8c0,0.1,0,0.2-0.1,0.3c-0.2,0.2-0.7,0.3-1.6,0.3c-0.3,0-0.6,0-0.9,0l-0.3,0V28h8.5v-1.1
		h-0.5c-1.3,0-1.6-0.6-2.2-1.8l-5.7-12.6h-3.4l0.2,0.3c0.1,0.2,0.1,0.3,0.1,0.4c0,0.1,0,0.4-0.3,0.8l-4.6,10.1c0,0-1,2.8-3.4,2.8
		h-3.6c-0.7,0-1.2-0.1-1.4-0.3c-0.2-0.2-0.3-0.6-0.3-1.2V15.2c0-0.9,0.4-1.5,2.2-1.5c0.2,0,0.5,0,0.8,0l0.2,0v-1.1h-8.8v1.1h0.5
		c0.8,0,1.4,0.1,1.7,0.5c0.2,0.2,0.3,0.6,0.3,1v10.2c0,0.5-0.1,0.8-0.3,1c-0.3,0.3-0.8,0.4-1.7,0.4h-0.5V28h18.1V26.9z M98.4,15.3
		l2.1,4.7h-4.3L98.4,15.3z"/>
	<path class="st0" d="M69.3,49c-0.2,0-0.8,0.3-2,0.8l0.1,0.3c0.2-0.1,0.4-0.1,0.4-0.1c0.1,0,0.1,0.1,0.1,0.2c0,0.1,0,0.2,0,0.2
		l-0.5,2.2c-0.2-0.3-0.4-0.4-0.7-0.4c-0.4,0-0.9,0.3-1.5,1c-0.9,1-1.4,1.9-1.4,3c0,1,0.4,1.5,0.9,1.5c0.4,0,1.1-0.6,1.9-1.7
		c-0.1,0.5-0.2,0.9-0.2,1.1c0,0.4,0.2,0.7,0.6,0.7c0.5,0,1.1-0.5,1.8-1.5L68.8,56c-0.3,0.4-0.6,0.6-0.7,0.6c-0.1,0-0.1,0-0.1-0.1
		c0,0,0-0.1,0-0.1l1.4-6.8c0-0.2,0.1-0.3,0.1-0.4C69.5,49.1,69.4,49,69.3,49z M66.9,55.2c-0.6,0.9-1,1.3-1.3,1.3
		c-0.2,0-0.3-0.2-0.3-0.6c0-1.8,0.7-3.1,1.1-3.1c0.3,0,0.5,0.3,0.7,1L66.9,55.2z"/>
	<path class="st0" d="M73.3,56.4c-0.6,0.4-1,0.5-1.4,0.5c-0.6,0-0.9-0.4-0.9-1.1c0-0.2,0-0.4,0.1-0.7c1.8-0.5,2.7-1.1,2.7-1.9
		c0-0.6-0.4-1-1.1-1c-0.7,0-1.4,0.4-2.1,1.2c-0.7,0.8-1.1,1.7-1.1,2.6c0,1.1,0.5,1.7,1.4,1.7c0.8,0,1.5-0.4,2.5-1.1L73.3,56.4z
		 M72.2,52.7c0.2,0,0.4,0.2,0.4,0.5c0,0.8-0.5,1.4-1.4,1.6C71.5,53.4,71.8,52.7,72.2,52.7z"/>
	<path class="st0" d="M80.2,57.7c0.5,0,1-0.5,1.9-1.3l-0.2-0.2c-0.4,0.4-0.7,0.6-0.8,0.6c-0.1,0-0.1,0-0.1-0.1c0,0,0-0.1,0-0.3
		l0.9-4.1c-0.2,0-0.4,0-0.6,0c-0.9,0-1.8,0.3-2.5,0.8C77.6,54,77,55.2,77,56.5c0,0.8,0.3,1.2,0.8,1.2c0.3,0,0.8-0.3,1.4-0.9l0.6-0.6
		c0,0.3-0.1,0.5-0.1,0.7C79.6,57.5,79.8,57.7,80.2,57.7z M79.4,56.1c-0.3,0.3-0.5,0.4-0.7,0.4c-0.3,0-0.5-0.3-0.5-0.8
		c0-1.4,1-2.6,2.2-2.6h0.1l-0.5,2.6L79.4,56.1z"/>
	<path class="st0" d="M86,56.1c-0.1,0.4-0.2,0.7-0.2,0.9c0,0.5,0.2,0.7,0.6,0.7c0.7,0,1.3-0.5,2.1-1.5L88.2,56
		c-0.4,0.5-0.7,0.8-0.8,0.8c-0.1,0-0.1-0.1-0.1-0.2c0-0.1,0-0.2,0-0.3l0.7-2.8c0.1-0.2,0.1-0.4,0.1-0.6c0-0.5-0.2-0.8-0.6-0.8
		c-0.6,0-1.5,0.7-2.6,2.1l1.1-5l0-0.2c0-0.1-0.1-0.2-0.1-0.2c-0.2,0-0.9,0.3-2.2,0.8l0.1,0.3c0.2-0.1,0.3-0.1,0.4-0.1
		c0.1,0,0.1,0.1,0.1,0.2c0,0.1,0,0.1,0,0.3L83,57c0,0.2-0.1,0.3-0.1,0.5c0,0.1,0.1,0.2,0.4,0.2h0.5c0.5,0,0.5-0.1,0.6-0.8l0.3-1.7
		c0.9-1.1,1.3-1.8,1.6-1.8c0.1,0,0.2,0.1,0.2,0.2c0,0.1,0,0.2,0,0.3L86,56.1z"/>
	<path class="st0" d="M90.2,53.2C89.4,53.9,89,54.9,89,56c0,1.2,0.5,1.8,1.4,1.8c0.9,0,2-0.6,2.7-1.5c0.5-0.7,0.7-1.4,0.7-2.2
		c0-1.2-0.5-1.8-1.4-1.8C91.7,52.3,90.9,52.6,90.2,53.2z M91.1,57.2c-0.4,0-0.7-0.5-0.7-1.5c0-1.7,0.7-2.8,1.2-2.8
		c0.4,0,0.7,0.6,0.7,1.6C92.4,56.1,91.6,57.2,91.1,57.2z"/>
	<path class="st0" d="M94.8,57.3C94.8,57.4,94.7,57.4,94.8,57.3c0,0.3,0.1,0.3,0.4,0.3h0.6c0.2,0,0.3-0.1,0.4-0.2l0.1-0.3
		c0.5-2.2,1-3.3,1.6-3.3l0.3,0c0.4,0,0.7-0.4,0.7-1c0-0.3-0.2-0.5-0.5-0.5c-0.7,0-1.2,1-2,2.8h0c0.2-1.1,0.3-1.9,0.3-2.3
		c0-0.4-0.1-0.5-0.3-0.5c-0.4,0-1.1,0.5-1.9,1.7l0.3,0.2c0.3-0.4,0.5-0.6,0.6-0.6c0.1,0,0.1,0.1,0.1,0.2c0,0.1,0,0.5-0.2,1
		L94.8,57.3z"/>
	<path class="st0" d="M103.2,52.8c0-0.3-0.2-0.5-0.5-0.5c-0.7,0-1.2,1-2,2.8h-0.1c0.2-1.1,0.3-1.9,0.3-2.3c0-0.4-0.1-0.5-0.4-0.5
		c-0.4,0-1.1,0.5-1.9,1.7l0.3,0.2c0.3-0.4,0.5-0.6,0.6-0.6c0.1,0,0.1,0.1,0.1,0.2c0,0.1-0.1,0.5-0.2,1l-0.4,2.6c0,0,0,0.1,0,0.1
		c0,0.2,0.1,0.2,0.4,0.2h0.6c0.2,0,0.3-0.1,0.4-0.2l0.1-0.3c0.5-2.2,1-3.3,1.6-3.3l0.3,0C102.9,53.8,103.2,53.4,103.2,52.8z"/>
	<path class="st0" d="M105.9,52.3c-0.7,0-1.4,0.3-2.2,0.9c-0.8,0.7-1.3,1.7-1.3,2.7c0,1.2,0.5,1.8,1.4,1.8c0.9,0,2-0.6,2.7-1.5
		c0.5-0.7,0.8-1.4,0.8-2.2C107.3,52.9,106.8,52.3,105.9,52.3z M104.6,57.2c-0.4,0-0.7-0.5-0.7-1.5c0-1.7,0.7-2.8,1.2-2.8
		c0.4,0,0.7,0.6,0.7,1.6C105.8,56.1,105.1,57.2,104.6,57.2z"/>
	<path class="st0" d="M68.5,60.7c-0.5,0-0.8,0.3-0.8,0.8c0,0.3,0.3,0.4,0.3,0.8c0,0.6-0.5,1.7-1.2,3.4c0.1-0.8,0.1-1.4,0.1-1.8
		c0-2.1-0.4-3.2-1.1-3.2c-0.5,0-1.2,0.5-1.7,1.4l0.3,0.1c0.2-0.3,0.4-0.5,0.6-0.5c0.3,0,0.6,1,0.6,2.9c0,0.6,0,1.1-0.2,1.7
		c-0.3,0.9-0.6,1.4-0.7,1.7c-0.3,0.4-0.6,0.5-1.2,0.6l-0.1,0.3h3.3l0.1-0.3c-0.4-0.1-0.6-0.1-0.6-0.3c0-0.2,0.4-1.4,1.5-3.3
		c1-1.8,1.9-2.8,1.9-3.6C69.3,61,69,60.7,68.5,60.7z"/>
	<path class="st0" d="M73.4,61.3c0.3,0,0.3,0.3,0.5,0.5c0.1,0.3,0.3,0.4,0.6,0.4c0.4,0,0.7-0.3,0.7-0.7c0-0.5-0.4-0.8-1-0.8
		c-1.1,0-2,0.8-2,1.7c0,0.7,0.5,1.1,1.1,1.8c0.4,0.4,0.7,0.7,0.7,1c0,0.2-0.1,0.3-0.4,0.3c-0.2,0-0.4-0.1-0.7-0.3
		c-0.4-0.3-0.6-0.6-1-0.6c-0.4,0-0.7,0.3-0.7,0.7c0,0.5,0.4,0.8,1.2,0.8c1.4,0,2.3-0.8,2.3-1.8c0-0.6-0.4-0.9-0.7-1.4
		c-0.5-0.6-0.9-0.9-0.9-1.3C73.1,61.4,73.2,61.3,73.4,61.3z"/>
	<path class="st0" d="M79,64.8c-0.5,0.4-1,0.6-1.4,0.6c-0.6,0-0.9-0.4-0.9-1.1c0-0.2,0-0.4,0.1-0.7c1.8-0.5,2.7-1,2.7-1.9
		c0-0.6-0.4-1-1.1-1c-0.7,0-1.4,0.4-2.1,1.2c-0.7,0.8-1.1,1.7-1.1,2.6c0,1.1,0.5,1.7,1.4,1.7c0.8,0,1.5-0.4,2.5-1.1L79,64.8z
		 M77.9,61.2c0.2,0,0.4,0.2,0.4,0.5c0,0.8-0.5,1.4-1.4,1.6C77.1,61.9,77.4,61.2,77.9,61.2z"/>
	<path class="st0" d="M80.6,61.4c-0.7,0.6-1.1,1.3-1.1,2c0,0.8,0.4,1.4,1.2,1.7C80.2,65.3,80,65.6,80,66c0,0.1,0,0.2,0.1,0.3
		c-1.5,0.6-2.2,1.2-2.2,1.7c0,0.5,1,1,2.8,1c1.8,0,2.9-0.6,2.9-1.3c0-0.6-0.6-0.9-1.5-1.5c-0.6-0.4-1-0.6-1-0.8
		c0-0.3,0.5-0.3,1.1-0.5c1.2-0.5,1.8-1.4,1.8-2.3c0-0.4-0.1-0.7-0.3-1h0.2c0.2,0,0.3,0,0.5,0.1v-0.7c-0.6-0.1-1.1-0.2-1.5-0.2
		C82,60.6,81.2,60.9,80.6,61.4z M82.2,68.1c0,0.2-0.5,0.4-1.4,0.4c-1,0-1.7-0.4-1.7-0.9c0-0.4,0.4-0.9,1.1-1.1
		C81.3,67.6,82.2,67.7,82.2,68.1z M82.1,64.2c-0.2,0.3-0.3,0.5-0.5,0.5c-0.4,0-0.6-0.4-0.6-1.1c0-1.4,0.6-2.4,1.1-2.4
		c0.4,0,0.5,0.3,0.5,1C82.6,62.8,82.4,63.5,82.1,64.2z"/>
	<path class="st0" d="M89.1,65C89,65,89,64.9,89,64.8c0,0,0-0.1,0-0.3l0.6-3.1c0-0.2,0.1-0.4,0.1-0.5c0-0.1-0.1-0.2-0.4-0.2h-0.4
		c-0.5,0-0.5,0.1-0.7,0.8l-0.2,1c-0.8,1.6-1.5,2.3-1.7,2.3c-0.1,0-0.1-0.1-0.1-0.2c0-0.1,0-0.2,0.1-0.4l0.4-1.9
		c0.1-0.5,0.2-0.8,0.2-1c0-0.4-0.2-0.6-0.6-0.6c-0.7,0-1.2,0.5-1.9,1.6l0.2,0.2c0.3-0.4,0.5-0.7,0.6-0.7c0.1,0,0.1,0.1,0.1,0.2
		c0,0.1,0,0.2-0.1,0.4l-0.5,2.4c-0.1,0.4-0.1,0.7-0.1,0.8c0,0.4,0.2,0.6,0.5,0.6c0.5,0,1.5-0.8,2.7-2.5L87.5,65
		c0,0.2-0.1,0.4-0.1,0.6c0,0.3,0.2,0.5,0.5,0.5c0.5,0,1.3-0.5,2.1-1.6l-0.2-0.2C89.5,64.8,89.3,65,89.1,65z"/>
	<path class="st0" d="M94.6,61.2c0-0.3-0.2-0.5-0.4-0.5c-0.7,0-1.2,1-2,2.8h0c0.2-1.2,0.3-1.9,0.3-2.3c0-0.4-0.1-0.5-0.3-0.5
		c-0.4,0-1.1,0.5-1.9,1.6l0.3,0.2c0.3-0.4,0.5-0.6,0.6-0.6c0,0,0,0.1,0,0.2c0,0.1,0,0.4-0.2,1l-0.4,2.6l0,0.1c0,0.2,0.1,0.2,0.4,0.2
		h0.6c0.2,0,0.3-0.1,0.4-0.2l0.1-0.3c0.5-2.2,1-3.3,1.6-3.3c0.1,0,0.2,0,0.3,0C94.4,62.2,94.6,61.9,94.6,61.2z"/>
	<path class="st0" d="M98,64.7c0.5-0.7,0.7-1.4,0.7-2.2c0-1.2-0.5-1.8-1.4-1.8c-0.7,0-1.4,0.3-2.2,0.9c-0.8,0.7-1.2,1.7-1.2,2.7
		c0,1.2,0.5,1.8,1.4,1.8C96.3,66.2,97.3,65.7,98,64.7z M96,65.6c-0.4,0-0.6-0.5-0.6-1.5c0-1.7,0.6-2.8,1.2-2.8
		c0.4,0,0.7,0.6,0.7,1.6C97.3,64.5,96.6,65.6,96,65.6z"/>
	<path class="st0" d="M7.2,96c0-1.2-0.5-2.9-3.2-2.9H0v9.3h1.6v-3.6h2.5C6.7,98.8,7.2,97.1,7.2,96z M4,97.5H1.6v-3.1H4
		c0.9,0,1.6,0.3,1.6,1.5C5.6,97.1,4.7,97.5,4,97.5z"/>
	<path class="st0" d="M10.2,93.1l-3.6,9.3h1.7l0.9-2.5h3.7l0.9,2.5h1.8l-3.6-9.3H10.2z M9.6,98.7l1.4-4h0l1.4,4H9.6z"/>
	<path class="st0" d="M22.3,98L22.3,98c0.3-0.1,1.5-0.6,1.5-2.4c0-1.6-1-2.5-3.1-2.5h-4.4v9.3H18v-3.8h2.4c1.5,0,1.8,0.8,1.8,2.5
		c0,0.4,0,1,0.3,1.4h1.7c-0.4-0.4-0.5-1.4-0.5-2.4C23.7,98.5,22.9,98.1,22.3,98z M20.7,97.3H18v-2.9h2.6c0.9,0,1.6,0.2,1.6,1.4
		C22.3,96.8,21.7,97.3,20.7,97.3z"/>
	<polygon class="st0" points="24.4,94.5 27.3,94.5 27.3,102.4 29,102.4 29,94.5 31.9,94.5 31.9,93.1 24.4,93.1 	"/>
	<polygon class="st0" points="34.6,98.3 39.3,98.3 39.3,96.9 34.6,96.9 34.6,94.5 39.7,94.5 39.7,93.1 33,93.1 33,102.4 39.8,102.4 
		39.8,101 34.6,101 	"/>
	<path class="st0" d="M48.7,93.1h-3.9v9.3h3.9c2.9,0,4.1-2.1,4.1-4.6C52.7,95.2,51.5,93.1,48.7,93.1z M48,101.1h-1.6v-6.6H48
		c2.6,0,3.1,1.5,3.1,3.3C51.1,99.6,50.6,101.1,48,101.1z"/>
	<polygon class="st0" points="55.8,98.3 60.5,98.3 60.5,96.9 55.8,96.9 55.8,94.5 60.9,94.5 60.9,93.1 54.2,93.1 54.2,102.4 
		61,102.4 61,101 55.8,101 	"/>
	<polygon class="st0" points="64,93.1 62.4,93.1 62.4,102.4 68.7,102.4 68.7,101 64,101 	"/>
	<path class="st0" d="M77.6,98.7h2.5c0,1.6-0.9,2.6-2.6,2.6c-2,0-2.8-1.8-2.8-3.5c0-1.8,0.8-3.5,2.8-3.5c1.2,0,2.2,0.6,2.4,1.8h1.6
		c-0.3-2.1-1.9-3.2-4-3.2c-2.8,0-4.5,2.2-4.5,4.9c0,2.7,1.7,4.9,4.5,4.9c1.1,0,1.9-0.3,2.8-1.3l0.3,1.1h1v-4.9h-4V98.7z"/>
	<path class="st0" d="M89.3,98L89.3,98c0.3-0.1,1.5-0.6,1.5-2.4c0-1.6-1-2.5-3.1-2.5h-4.4v9.3h1.6v-3.8h2.4c1.5,0,1.8,0.8,1.8,2.5
		c0,0.4,0,1,0.3,1.4h1.7c-0.3-0.4-0.5-1.4-0.5-2.4C90.7,98.5,89.9,98.1,89.3,98z M87.6,97.3h-2.7v-2.9h2.6c0.8,0,1.6,0.2,1.6,1.4
		C89.2,96.8,88.6,97.3,87.6,97.3z"/>
	<path class="st0" d="M98.4,98.5c0,1.2-0.1,2.7-2.2,2.7c-2.1,0-2.2-1.4-2.2-2.7v-5.4h-1.6V99c0,2.4,1.5,3.6,3.8,3.6
		c2.3,0,3.8-1.2,3.8-3.6v-5.9h-1.6V98.5z"/>
	<path class="st0" d="M106,93.1h-4.1v9.3h1.6v-3.6h2.5c2.7,0,3.2-1.7,3.2-2.8C109.1,94.8,108.6,93.1,106,93.1z M105.9,97.5h-2.4
		v-3.1h2.4c0.8,0,1.6,0.3,1.6,1.5C107.5,97.1,106.6,97.5,105.9,97.5z"/>
	<path class="st0" d="M114.5,92.9c-2.8,0-4.5,2.2-4.5,4.9c0,2.7,1.7,4.9,4.5,4.9c2.8,0,4.4-2.2,4.4-4.9
		C118.9,95.1,117.3,92.9,114.5,92.9z M114.5,101.3c-2,0-2.8-1.8-2.8-3.5c0-1.8,0.8-3.5,2.8-3.5c2,0,2.8,1.8,2.8,3.5
		C117.3,99.5,116.5,101.3,114.5,101.3z"/>
	<path class="st0" d="M128.2,98.7h2.5c0,1.6-0.9,2.6-2.6,2.6c-2,0-2.8-1.8-2.8-3.5c0-1.8,0.8-3.5,2.8-3.5c1.2,0,2.2,0.6,2.4,1.8h1.6
		c-0.3-2.1-1.9-3.2-4-3.2c-2.8,0-4.4,2.2-4.4,4.9c0,2.7,1.7,4.9,4.4,4.9c1.1,0,1.9-0.3,2.8-1.3l0.3,1.1h1v-4.9h-3.9V98.7z"/>
	<polygon class="st0" points="135.5,98.3 140.2,98.3 140.2,96.9 135.5,96.9 135.5,94.5 140.6,94.5 140.6,93.1 133.9,93.1 
		133.9,102.4 140.7,102.4 140.7,101 135.5,101 	"/>
	<polygon class="st0" points="148,100 148,100 143.7,93.1 142,93.1 142,102.4 143.6,102.4 143.6,95.6 143.6,95.6 147.8,102.4 
		149.5,102.4 149.5,93.1 148,93.1 	"/>
	<polygon class="st0" points="153.1,98.3 157.8,98.3 157.8,96.9 153.1,96.9 153.1,94.5 158.2,94.5 158.2,93.1 151.5,93.1 
		151.5,102.4 158.3,102.4 158.3,101 153.1,101 	"/>
	<path class="st0" d="M165.6,98L165.6,98c0.3-0.1,1.5-0.6,1.5-2.4c0-1.6-1-2.5-3.1-2.5h-4.4v9.3h1.6v-3.8h2.4c1.5,0,1.8,0.8,1.8,2.5
		c0,0.4,0,1,0.2,1.4h1.8c-0.4-0.4-0.5-1.4-0.5-2.4C167,98.5,166.2,98.1,165.6,98z M163.9,97.3h-2.7v-2.9h2.6c0.8,0,1.6,0.2,1.6,1.4
		C165.5,96.8,165,97.3,163.9,97.3z"/>
	<path class="st0" d="M171.3,93.1l-3.6,9.3h1.7l0.9-2.5h3.7l0.9,2.5h1.7l-3.6-9.3H171.3z M170.7,98.7l1.4-4h0l1.4,4H170.7z"/>
	<polygon class="st0" points="179.1,93.1 177.5,93.1 177.5,102.4 183.8,102.4 183.8,101 179.1,101 	"/>
	<rect x="184.9" y="93.1" class="st0" width="1.6" height="9.3"/>
</g>
</svg>
