<svg xmlns="http://www.w3.org/2000/svg" viewBox="0 0 194.71 90"><defs><style>.cls-1{fill:#193e73;}.cls-2{fill:#fff;}.cls-3{fill:#d53a3e;}.cls-4{fill:#c02126;}.cls-5{fill:#002e6d;}.cls-6{fill:#ffe900;}.cls-7{fill:none;}.cls-8{fill:#f3f3f5;}</style></defs><title>logo-continuar</title><g id="Layer_2" data-name="Layer 2"><g id="Layer_1-2" data-name="Layer 1"><g id="Layer_1-2-2" data-name="Layer 1-2"><polygon class="cls-1" points="194.71 42.51 194.71 0 119.71 0 119.71 75 162.22 75 194.71 42.51"/><path class="cls-2" d="M167.94,28.12v-1h-8v1h.51a2.34,2.34,0,0,1,1.65.44,1.41,1.41,0,0,1,.34,1V42.72a3.86,3.86,0,0,1-.69,2.76,1.73,1.73,0,0,1-1.29.45,4.26,4.26,0,0,1-1.87-.65L158,45a1.16,1.16,0,0,0-.55-.09,1.23,1.23,0,0,0-.88.34,1.08,1.08,0,0,0-.31.77c0,.82,1,1.39,2.49,1.39a6,6,0,0,0,4.46-1.61c1.45-1.45,2.17-3.84,2.17-7.29V29.62c0-.88.34-1.47,2-1.47Z"/><path class="cls-2" d="M172.73,34.57,174.85,30l2.05,4.57Zm11.91,6.82c-1.27,0-1.57-.55-2.16-1.8L176.9,27.11h-3.36l.21.33a.79.79,0,0,1,.12.37,2,2,0,0,1-.27.8l-5,11.09c-.55,1.22-.77,1.67-2.5,1.7h-.22V42.5h6.83V41.37h-1.14a2.08,2.08,0,0,1-1.38-.31.47.47,0,0,1-.13-.36,2.08,2.08,0,0,1,.22-.73l1.87-4h5.44l1.83,4a2.71,2.71,0,0,1,.24.78.42.42,0,0,1-.12.32,2.43,2.43,0,0,1-1.55.31h-1.23V42.5h8.44V41.39Z"/><path class="cls-2" d="M149.16,34.57l2.12-4.62,2.1,4.62Zm5.24,6.87h-1.27v1.12h8.44V41.39h-.51c-1.27,0-1.58-.55-2.16-1.8l-5.62-12.48H150l.2.33a.8.8,0,0,1,.12.37,2,2,0,0,1-.27.8l-4.36,9.64c-1,2-3.31,3.1-6.41,3.1a7.42,7.42,0,0,1-5.39-2,7,7,0,0,1-2-5.15A5.86,5.86,0,0,1,134,29.65,7.72,7.72,0,0,1,138.83,28,6.56,6.56,0,0,1,145,31.62l.07.11h1.09l-.29-3.92-.24.06a2.67,2.67,0,0,1-.52.06,4.12,4.12,0,0,1-.76-.09l-.28,0a32.24,32.24,0,0,0-5.44-.85,9.93,9.93,0,0,0-7.93,3.37,7.2,7.2,0,0,0-1.95,4.81,6.56,6.56,0,0,0,3.16,5.55A12.32,12.32,0,0,0,139,42.54h10.12V41.42H148a2.09,2.09,0,0,1-1.38-.31.48.48,0,0,1-.13-.36,2.14,2.14,0,0,1,.22-.73l1.87-4H154l1.83,4a2.71,2.71,0,0,1,.24.79.43.43,0,0,1-.11.31,2.45,2.45,0,0,1-1.56.32"/><path class="cls-2" d="M163,13.12l2.1,4.62h-4.22Zm-2.17,11.39h-1.13a2.07,2.07,0,0,1-1.38-.31.47.47,0,0,1-.14-.36,2.15,2.15,0,0,1,.22-.73l1.87-4h5.45l1.82,4a2.68,2.68,0,0,1,.24.79.41.41,0,0,1-.12.31,2.41,2.41,0,0,1-1.55.31h-1.27v1.12h8.44V24.52h-.51c-1.27,0-1.58-.55-2.17-1.8L165,10.24h-3.29l.21.33a.75.75,0,0,1,.12.37,2,2,0,0,1-.27.8l-4.57,10s-1,2.72-3.37,2.72h-3.57a2,2,0,0,1-1.38-.32,1.63,1.63,0,0,1-.29-1.19V13c0-.94.36-1.49,2.14-1.49h1V10.42H143V11.5h.51a2.31,2.31,0,0,1,1.65.44,1.38,1.38,0,0,1,.33,1v10.1a1.37,1.37,0,0,1-.33,1,2.3,2.3,0,0,1-1.66.43H143v1.12h17.9Z"/><polygon class="cls-3" points="164.72 72.5 192.21 72.5 192.21 45 164.72 72.5"/><path class="cls-2" d="M132.1,51.22c-.2-.65-.4-.94-.68-.94-.49,0-1.12,1.27-1.12,3,0,.39.09.59.25.59s.69-.45,1.27-1.32ZM129.76,55c-.52,0-.94-.53-.94-1.48a4.32,4.32,0,0,1,1.37-2.94,2.44,2.44,0,0,1,1.48-.94.79.79,0,0,1,.67.37l.46-2.16a1.93,1.93,0,0,0,0-.22c0-.1,0-.18-.12-.18a1.71,1.71,0,0,0-.41.1l-.14-.32a14.06,14.06,0,0,1,2-.77.2.2,0,0,1,.22.18h0a1.63,1.63,0,0,1,0,.37l-1.4,6.77a.66.66,0,0,0,0,.13c0,.08,0,.1.08.1s.37-.2.67-.63l.22.19c-.7.94-1.33,1.44-1.83,1.44s-.54-.22-.54-.67a6.4,6.4,0,0,1,.14-1.06c-.85,1.13-1.47,1.72-1.87,1.72"/><path class="cls-2" d="M137.45,50.62c0-.3-.13-.46-.35-.46-.4,0-.73.68-1,2.07a1.67,1.67,0,0,0,1.39-1.61m-1.57,4.47c-.94,0-1.42-.55-1.42-1.65a4,4,0,0,1,1-2.61,2.93,2.93,0,0,1,2-1.15.94.94,0,0,1,1.1.94c0,.89-.94,1.47-2.7,1.93a3.52,3.52,0,0,0-.06.65c0,.7.32,1.08.94,1.08a2.7,2.7,0,0,0,1.36-.54l.17.22a4.33,4.33,0,0,1-2.47,1.12"/><path class="cls-2" d="M145.18,50.47h-.09A2.42,2.42,0,0,0,142.94,53c0,.51.24.82.5.82s.43-.18.71-.43l.49-.43Zm-1.27,3.69c-.6.55-1,.85-1.35.85s-.78-.41-.78-1.2a4.19,4.19,0,0,1,1.87-3.37,4.11,4.11,0,0,1,2.48-.75h.6l-.88,4a1.23,1.23,0,0,0,0,.28c0,.08,0,.13.09.13s.37-.19.79-.6l.22.22c-.94.82-1.45,1.31-1.87,1.31s-.58-.24-.58-.78a4.43,4.43,0,0,1,.07-.67Z"/><path class="cls-2" d="M151.27,51.08c0-.15-.06-.22-.18-.22-.27,0-.74.6-1.6,1.72l-.35,1.64c-.13.63-.14.74-.64.74H148c-.25,0-.38-.08-.38-.18a1.87,1.87,0,0,1,.06-.46L149.06,48a1.22,1.22,0,0,0,0-.25c0-.15,0-.23-.13-.23a1.44,1.44,0,0,0-.41.08l-.1-.31a14.91,14.91,0,0,1,2.16-.76.16.16,0,0,1,.14.17v.2l-1,4.91c1-1.38,1.93-2.09,2.58-2.09.38,0,.59.25.59.75a2.74,2.74,0,0,1-.08.58L152,53.74a1.08,1.08,0,0,0,0,.25c0,.09,0,.15.1.15a2.45,2.45,0,0,0,.82-.77l.25.22c-.73.94-1.36,1.48-2,1.48-.4,0-.57-.19-.57-.64a4.69,4.69,0,0,1,.15-.94l.5-2.07a1.52,1.52,0,0,0,0-.35"/><path class="cls-2" d="M155.79,54.57c.51,0,1.24-1.13,1.24-2.7,0-1-.26-1.61-.69-1.61s-1.2,1.11-1.2,2.81c0,.94.25,1.49.66,1.49m-.87-3.94a3.44,3.44,0,0,1,2.14-.94c.94,0,1.42.63,1.42,1.77a3.42,3.42,0,0,1-.73,2.17,3.52,3.52,0,0,1-2.67,1.48c-.94,0-1.39-.63-1.39-1.81a3.5,3.5,0,0,1,1.24-2.68"/><path class="cls-2" d="M159.09,51.3c.8-1.12,1.46-1.64,1.87-1.64s.35.15.35.52A16.42,16.42,0,0,1,161,52.5h0c.73-1.87,1.23-2.81,1.95-2.81.3,0,.45.18.45.5,0,.65-.23,1-.67,1h-.31c-.67,0-1.15,1.1-1.61,3.29l-.07.3c0,.17-.14.23-.37.23h-.63c-.27,0-.37-.06-.37-.22v-.09l.44-2.61a10.13,10.13,0,0,0,.15-1c0-.13,0-.21-.06-.21a2,2,0,0,0-.62.63Z"/><path class="cls-2" d="M163.34,51.3c.8-1.12,1.47-1.64,1.87-1.64s.35.15.35.52a16.14,16.14,0,0,1-.32,2.32h0c.73-1.87,1.23-2.81,1.95-2.81.3,0,.45.18.45.5,0,.65-.23,1-.67,1h-.31c-.67,0-1.14,1.1-1.61,3.29l-.07.3c0,.17-.14.23-.37.23H164c-.27,0-.37-.06-.37-.22v-.09l.44-2.61a9.75,9.75,0,0,0,.15-1c0-.13,0-.21-.06-.21a1.94,1.94,0,0,0-.61.63Z"/><path class="cls-2" d="M169.12,54.57c.51,0,1.24-1.13,1.24-2.7,0-1-.26-1.61-.69-1.61s-1.2,1.11-1.2,2.82c0,.94.25,1.49.65,1.49m-.86-3.95a3.44,3.44,0,0,1,2.14-.94c.94,0,1.42.63,1.42,1.77a3.42,3.42,0,0,1-.73,2.17,3.52,3.52,0,0,1-2.67,1.48c-.94,0-1.39-.63-1.39-1.81a3.5,3.5,0,0,1,1.24-2.68"/><path class="cls-2" d="M128.15,65.81c.65-.08.94-.15,1.22-.58a7.92,7.92,0,0,0,.69-1.64,5.11,5.11,0,0,0,.19-1.63c0-1.87-.27-2.91-.59-2.91-.16,0-.35.18-.56.46l-.3-.13c.51-.94,1.17-1.39,1.7-1.39.69,0,1.12,1.08,1.12,3.11a16.71,16.71,0,0,1-.08,1.83,11.62,11.62,0,0,0,1.3-3.34c0-.4-.24-.52-.24-.82a.78.78,0,0,1,.76-.8h.07a.72.72,0,0,1,.78.66s0,0,0,0c0,.78-.82,1.8-1.87,3.56a12.34,12.34,0,0,0-1.5,3.22c0,.22.19.24.62.33l-.06.33h-3.23Z"/><path class="cls-2" d="M136.73,61.87c.37,0,.61.27.94.58a1.11,1.11,0,0,0,.67.3.31.31,0,0,0,.36-.34c0-.27-.26-.53-.67-.94-.62-.65-1-1.12-1-1.76A1.92,1.92,0,0,1,139,58c.64,0,1,.33,1,.82a.66.66,0,0,1-.6.71h-.07a.68.68,0,0,1-.64-.41c-.14-.25-.18-.53-.47-.53s-.3.13-.3.36c0,.39.37.73.87,1.31a2,2,0,0,1,.71,1.37c0,.94-.94,1.77-2.3,1.77-.8,0-1.22-.31-1.22-.81a.67.67,0,0,1,.6-.73h.07"/><path class="cls-2" d="M143,58.95c0-.3-.13-.46-.36-.46-.4,0-.73.68-1,2.07a1.67,1.67,0,0,0,1.4-1.61m-1.57,4.47c-.94,0-1.42-.55-1.42-1.65a4,4,0,0,1,1-2.61A2.92,2.92,0,0,1,143.15,58a.94.94,0,0,1,1.11.94c0,.89-.94,1.46-2.7,1.93a3.58,3.58,0,0,0-.06.65c0,.7.32,1.08.94,1.08a2.73,2.73,0,0,0,1.36-.54l.16.22a4.31,4.31,0,0,1-2.47,1.12"/><path class="cls-2" d="M144,64.92c0,.49.61.87,1.63.87s1.35-.2,1.35-.44-.88-.53-1.93-1.51c-.68.21-1,.64-1,1.08m2.38-3c.22,0,.37-.17.52-.49a4.94,4.94,0,0,0,.46-2c0-.67-.15-1-.52-1s-1.08,1-1.08,2.44c0,.71.25,1.09.61,1.09m-2-1.27a2.62,2.62,0,0,1,1.08-1.95,3.44,3.44,0,0,1,2.16-.75,8.59,8.59,0,0,1,1.53.17v.73a2.14,2.14,0,0,0-.49,0h-.15a2.22,2.22,0,0,1,.24,1,2.6,2.6,0,0,1-1.81,2.32c-.63.27-1.08.27-1.08.52s.31.41.94.79c.85.52,1.48.82,1.48,1.44s-1.09,1.27-2.81,1.27-2.74-.45-2.74-.94.73-1,2.18-1.67a.74.74,0,0,1-.07-.31c0-.37.26-.67.77-.84a1.82,1.82,0,0,1-1.19-1.72"/><path class="cls-2" d="M149.85,63.46c-.33,0-.49-.19-.49-.56a4.47,4.47,0,0,1,.12-.82l.47-2.35a3.15,3.15,0,0,0,.07-.44c0-.11,0-.15-.1-.15s-.27.22-.59.66l-.23-.18c.72-1,1.22-1.55,1.87-1.55a.53.53,0,0,1,.57.6,7.28,7.28,0,0,1-.18,1l-.4,1.87a1.75,1.75,0,0,0,0,.35c0,.14.06.22.14.22a5.61,5.61,0,0,0,1.66-2.31l.22-.94c.14-.62.14-.75.65-.75H154c.25,0,.38.08.38.17a3.19,3.19,0,0,1-.08.49l-.6,3.07a1.66,1.66,0,0,1,0,.28s0,.18.1.18a2.19,2.19,0,0,0,.73-.66l.22.22c-.85,1.08-1.61,1.59-2.12,1.59-.3,0-.45-.18-.45-.51a3,3,0,0,1,.08-.6l.3-1.43c-1.14,1.7-2.13,2.49-2.65,2.49"/><path class="cls-2" d="M154.91,59.64c.79-1.12,1.46-1.64,1.87-1.64s.35.15.35.52a16.45,16.45,0,0,1-.3,2.3h0c.73-1.87,1.23-2.81,1.95-2.81.3,0,.45.18.45.5,0,.65-.23,1-.67,1h-.31c-.67,0-1.14,1.1-1.61,3.29l-.08.3c0,.17-.14.23-.37.23h-.63c-.27,0-.37-.06-.37-.22V63l.44-2.61a10,10,0,0,0,.16-1c0-.13,0-.21-.06-.21a2,2,0,0,0-.62.63Z"/><path class="cls-2" d="M160.68,62.92c.51,0,1.25-1.13,1.25-2.7,0-1-.26-1.61-.7-1.61s-1.2,1.11-1.2,2.82c0,.94.25,1.49.66,1.49M159.81,59a3.45,3.45,0,0,1,2.14-.94c.94,0,1.42.63,1.42,1.77a3.45,3.45,0,0,1-.73,2.17A3.52,3.52,0,0,1,160,63.48c-.94,0-1.39-.63-1.39-1.81A3.49,3.49,0,0,1,159.8,59"/><path class="cls-4" d="M148.66,84.79V80.87c2.46,0,3.36-.12,3.75,2.89h.26V80.4H146v.46h1.16v8.62h-1.28v.46h6.9V86.42h-.35c-.35,2.66-1,3.07-2.92,3.07h-.88V85.31h.51c.85,0,1.33.52,1.51,2H151V82.95h-.34s-.06,1.87-1.55,1.87Z"/><path class="cls-4" d="M146,85h-3.75v.43h1.29v3.1c-.22.79-1.38,1.12-1.72,1.12-2.41,0-2.24-3.52-2.24-4.47s-.14-4.51,2.18-4.51c1.64,0,2.5,1.63,2.81,3.09h.26V80.25l-1.12.8a2.27,2.27,0,0,0-2-.77c-2.81,0-3.89,2.81-3.88,4.82,0,1.81.85,4.9,3.88,4.9a2.32,2.32,0,0,0,2-1l1.21.94V85.39H146Z"/><path class="cls-4" d="M190,86.42c-.35,2.66-1,3.07-2.92,3.07H187V80.86h1.2v-.47h-4v.47h1.21v8.62h-.94L181,80.11h-.52s-2.92,8.44-2.93,8.5-.22.73-.7.82-.41-.22-.41-.29v-1.6a2.92,2.92,0,0,0-.48-1.87,2.56,2.56,0,0,0-1.33-.56,2.69,2.69,0,0,0,2.17-2.5c0-1.44-1-2.16-2.68-2.22h-4.78v.47h1.22v8.62h-1.22v.46h3.9v-.46H172V85.31h1.62c2.81.23-.49,4.61,3.21,4.6h2.32v-.46c-.13,0-.94,0-1-.57a9,9,0,0,1,.56-2h3.17s.94,2.54,1,2.54h-1.1v.46h8.63v-3.5Zm-16.46-1.56H172v-4h2c1.16.18,1.21,1.52,1.21,1.95,0,1-.43,2.05-1.64,2.05m5.34,1.65,1.38-4.12,1.46,4.12Z"/><path class="cls-4" d="M164.63,80.86c2.46,0,3.37-.12,3.75,2.9h.26V80.4h-9.72v.46h.25c.35,0,1.16,0,1.21.74h0v5.5l-4.56-6.7h-2.48v.46h.41c.49,0,1.17,0,1.21.74v7c0,.68-1,.94-1.46.94h0v.34h3.37v-.34c-.43,0-1.46-.26-1.46-.94v-6.2c1.81,2.58,5.21,7.5,5.25,7.5h.17V81.56c0-.72.86-.74,1.21-.74h1.12v8.62H161.9v.46h6.89V86.42h-.35c-.35,2.66-1,3.07-2.92,3.07h-.88V85.31h.51c.85,0,1.33.52,1.51,2H167V82.95h-.31s-.06,1.87-1.55,1.87h-.47Z"/><polygon class="cls-4" points="194.71 80.86 194.71 80.4 190.82 80.4 190.82 80.86 192.04 80.86 192.05 89.48 190.82 89.48 190.82 89.94 194.71 89.94 194.71 89.48 193.49 89.48 193.49 80.86 194.71 80.86"/><path class="cls-4" d="M133.34,89.06l.36-.13h0c.5-.21.57-.34.54-.67V86.92c.38.94.74,1.65,1.48,1.65a1.47,1.47,0,0,0,.32,0l.29-.07-.2-.22a1.78,1.78,0,0,1-.26-.37l-.09-.17a.74.74,0,0,0-.94-.22c-.15-.3-.3-.69-.49-1.17v-.09l-.09-.22h0a6.84,6.84,0,0,0-.37-.75,4.26,4.26,0,0,0-.41-.57,2.45,2.45,0,0,0-1.57-.88,8.75,8.75,0,0,0-1.12-.1h-.25l-.88-.07-.67-.06a.71.71,0,0,0,.1-.18,1,1,0,0,0,0-.21h2.47a1.42,1.42,0,0,0,1.28-.83,1.42,1.42,0,0,0,1.39-.83h.08a1.42,1.42,0,0,0,1.4-.94l.11-.24h-8.35a1.25,1.25,0,0,0-1.19.94h0a1.77,1.77,0,0,0-.74-.94,1.87,1.87,0,0,0-1.41-.24,1.47,1.47,0,0,0-.72.47,2.71,2.71,0,0,0-.28.46.53.53,0,0,0-.11.12l-.1.19h0a2.38,2.38,0,0,1-.38.59.39.39,0,0,0-.1.34.45.45,0,0,0,.1.2h0a.39.39,0,0,0,0,.19.4.4,0,0,0,.42.38h0a.83.83,0,0,0,.46-.18,1.25,1.25,0,0,1,.27-.15.13.13,0,0,1,.13.12c0,.18-.23.28-.4.29H123c-.24,0-.37.15-.37.27a.29.29,0,0,0,.09.22h0l.08.08-.32.7a1.34,1.34,0,0,0-.82-.39.57.57,0,0,0-.43.15l-.08.1h0a.75.75,0,0,0-.63.32.76.76,0,0,0,.07.76l-.94.23v4.34h16.69v-.87Zm2.15-1.18.08.15.1.18a.82.82,0,0,1-.65-.43.39.39,0,0,1,.45.1m-3.61-3.75a2.12,2.12,0,0,1,1.3.72l.21.26a1.87,1.87,0,0,1-1.72-1h.21m-.39-1.29H129.8a1.59,1.59,0,0,0,.37-.49h2.31a1.07,1.07,0,0,1-.94.49m1.3-.76h-1.69a1.58,1.58,0,0,0,.37-.51h2.31a1.07,1.07,0,0,1-1,.51m.11-1.3h2.3a1.07,1.07,0,0,1-.94.45h-1.7a1.54,1.54,0,0,0,.35-.45m-9.28.08a1.06,1.06,0,0,1,.23-.21,1.13,1.13,0,0,1,.29-.13,1.22,1.22,0,0,1,.55,0l-.61.37h-.51M123,83.53h.3c.37,0,.73-.16.77-.53a.48.48,0,0,0-.39-.5.94.94,0,0,0-.46.21.64.64,0,0,1-.27.13s-.08,0-.08-.06h0l.19-.25-.16-.11s-.09-.07-.09-.09v0A3.17,3.17,0,0,0,123,82c0-.07.07-.1.16-.1a.14.14,0,0,1,.15.13h0c0,.06.06.09.13.09s.1,0,.15-.09.17-.16.07-.22-.52.08-.39-.29v-.06a.84.84,0,0,1,.65-.21h.3l.86-.53h0a.75.75,0,0,1-.38.72l-.1.06.07.38a.5.5,0,0,0-.37.46,1.64,1.64,0,0,0,0,.27,2.88,2.88,0,0,1,.06.4c0,.4-.55.67-1,.66h0a1.21,1.21,0,0,1-.39-.08.06.06,0,0,1,0-.06m-2.06,1.28a.41.41,0,0,1,.41-.16h.15V84.5a.21.21,0,0,1,.06-.08.25.25,0,0,1,.22,0,1.09,1.09,0,0,1,.67.37,1.76,1.76,0,0,1,.17.28v.12a1.14,1.14,0,0,1,.1.18l.22-.3h0l-.07-.13h0l-.07-.12.45-.72h.32c.64,0,1.29-.37,1.29-.94h0a3.08,3.08,0,0,0-.06-.62,1.47,1.47,0,0,1,0-.21c0-.07.09-.14.23-.14h.21l-.09-.53a1.11,1.11,0,0,0,.46-.89,1.57,1.57,0,0,1,.57,1.1,1.77,1.77,0,0,1-.06.5v.08h0a6.48,6.48,0,0,1-.24.77l0,.14.13.08c.23.13.37.22.37.53a.74.74,0,0,1-.62.67l-.41.08.36.23a.39.39,0,0,1,.18.33.41.41,0,0,1-.41.39h-.21v.12c-.13.42-.27.63-.72.67a2.36,2.36,0,0,0,0-.42V85.4l-.28.28a.86.86,0,0,1-.44.21v-.34l-2-.52-.72.28a.52.52,0,0,1-.15-.48m-.57,4.23,1.42-.37,1.42.37Zm3-.3-1.63-.41-1.62.43V85.87l1.62-.42,1.62.42Zm.76-.56a.94.94,0,0,0-.06.87h-.36V86.25a1.48,1.48,0,0,0,.39-.11,2.81,2.81,0,0,1,0,.35v.3h.21a1.53,1.53,0,0,0,.71-.14v1.2a.06.06,0,0,1-.06.06h-.15a.82.82,0,0,0-.69.31m3.75.08a.88.88,0,0,0-.17.8h-2.12a.77.77,0,0,0,.51-.2.65.65,0,0,0,.15-.48s0-.06.13-.1l.19-.08L126.4,88a2,2,0,0,1,0-1.21h0a4.87,4.87,0,0,0,1.67-.31l.4-.12h0l.34-.09.68,1.13h0c.07.09.07.16,0,.31l-.4.37-.56-.1h0a.8.8,0,0,0-.7.25m.19.8a.61.61,0,0,1,.07-.56.45.45,0,0,1,.38-.14l.66.12h.11l.46-.5h0a.55.55,0,0,0,.07-.73l-.63-1h.3a1.38,1.38,0,0,1,.65.19l.18.37c.13.26.29.59.34.72a.29.29,0,0,1-.09.33l-1.18,1.21Zm4,0h-2.25l.94-1a.65.65,0,0,0,.18-.67,7,7,0,0,0-.31-.67,6.22,6.22,0,0,0,2.14.43c.14,0,.18.06.21.19l0,.51-.62.14a.59.59,0,0,0-.44.37.87.87,0,0,0,.07.72m.24-.6a.24.24,0,0,1,.19-.16l.94-.21-.08-.82h0a.53.53,0,0,0-.52-.47,4.33,4.33,0,0,1-2.43-.64h0a1.73,1.73,0,0,0-.94-.28,4.48,4.48,0,0,0-1.11.2l-.4.13a4.46,4.46,0,0,1-1.71.29h-.12v.13a2.81,2.81,0,0,0,0,1.46.41.41,0,0,0-.18.33c0,.18,0,.22,0,.24a1.13,1.13,0,0,1-.62.1h-.09l-.06.08a.67.67,0,0,1-.69.2.72.72,0,0,1,0-.61.52.52,0,0,1,.41-.16h0a.4.4,0,0,0,.39-.4V86.36a1.66,1.66,0,0,0,.08-.36.75.75,0,0,0,.67-.69.73.73,0,0,0-.11-.39,1,1,0,0,0,.62-.94.82.82,0,0,0-.42-.76,6.75,6.75,0,0,0,.18-.72l.29-1a.94.94,0,0,1,.86-.67h5.13a1.07,1.07,0,0,1-.94.45h-3.08l-.16.31h2.77a1.07,1.07,0,0,1-1,.51h-2l-.16.35h1.79a1.07,1.07,0,0,1-.94.49h-1.13l-.16.35h1.13a.36.36,0,0,1,0,.21.41.41,0,0,1-.41.4.67.67,0,0,1-.26-.07l-.15-.07-.26.23.15.07h0a1.27,1.27,0,0,0,.53.15.74.74,0,0,0,.53-.22l.82.07.94.07h.68a2.45,2.45,0,0,0,2.4,1.43,5.8,5.8,0,0,1,.26.54v2.19h0v.15a1.17,1.17,0,0,1-.33.18l-1.15.48a.63.63,0,0,1-.14-.57"/><polygon class="cls-4" points="122.96 86.31 121.87 86.03 121.87 86.39 122.96 86.67 122.96 86.31"/><polygon class="cls-4" points="120.42 86.67 121.5 86.39 121.5 86.03 120.42 86.31 120.42 86.67"/><polygon class="cls-4" points="120.42 87.38 121.5 87.1 121.5 86.75 120.42 87.03 120.42 87.38"/><polygon class="cls-4" points="122.96 87.03 121.87 86.75 121.87 87.1 122.96 87.38 122.96 87.03"/><polygon class="cls-4" points="122.96 87.75 121.87 87.47 121.87 87.81 122.96 88.11 122.96 87.75"/><polygon class="cls-4" points="120.42 88.11 121.5 87.81 121.5 87.47 120.42 87.75 120.42 88.11"/></g><path class="cls-5" d="M43.37,7.5c-14.91,0-27,7.93-27,17.66,0,.25,0,.95,0,1,0,10.32,10.57,18.69,27,18.69s27-8.36,27-18.68v-1C70.37,15.43,58.28,7.5,43.37,7.5Zm26,16.82h0q0,.41,0,.83c0,9.17-11.63,16.61-26,16.61s-26-7.44-26-16.61a10.81,10.81,0,0,1,.06-1.1h0a11.06,11.06,0,0,1,.18-1.12h0a14.48,14.48,0,0,1,5.49-8.18h0c.3-.24.61-.48.93-.7h0c4.75-3.38,11.64-5.5,19.3-5.5,7.92,0,15,2.27,19.77,5.84h0c.31.24.62.48.91.72h0a14.28,14.28,0,0,1,5,7.69v0q0,.19.07.37h0A11,11,0,0,1,69.33,24.32Z"/><path class="cls-6" d="M69.08,22.8a14.28,14.28,0,0,0-5-7.69h0A14.29,14.29,0,0,1,69.08,22.8Z"/><path class="cls-6" d="M32.79,16.26a8.45,8.45,0,0,0,2.2-.42,12.38,12.38,0,0,1,3.12-.57A9.53,9.53,0,0,1,44.38,13h.22a14.48,14.48,0,0,1,5.49,1.3,14.63,14.63,0,0,0,6.44,1.55,16.6,16.6,0,0,0,6.62-1.5c-4.76-3.57-11.85-5.84-19.77-5.84-7.66,0-14.55,2.12-19.3,5.5A42.86,42.86,0,0,0,32,16.23Z"/><path class="cls-6" d="M69.16,23.21q0-.19-.07-.37c0,.12,0,.25.07.37Z"/><path class="cls-6" d="M23.14,14.75h0a14.48,14.48,0,0,0-5.49,8.18h0A14.47,14.47,0,0,1,23.14,14.75Z"/><path class="cls-6" d="M58.89,29.19A2.38,2.38,0,0,1,57.76,31a3,3,0,0,1-1.63.5,2.8,2.8,0,0,1-.57-.06,2.51,2.51,0,0,1-1.25,2.23,3.15,3.15,0,0,1-1.74.55A2.8,2.8,0,0,1,52,34.2v0a2.33,2.33,0,0,1-1,1.45,2.83,2.83,0,0,1-1.69.6,3,3,0,0,1-.84-.13,1.36,1.36,0,0,1-.11.18,2.4,2.4,0,0,1-1.78.87l-.4,0a5.82,5.82,0,0,1-2.62-.78,3.08,3.08,0,0,1-5.07-1,2.29,2.29,0,0,1-.8.14,3,3,0,0,1-2.66-1.73,2.39,2.39,0,0,1-.6.07,2.59,2.59,0,0,1-.93-.18,3.05,3.05,0,0,1-2-2.28,2.62,2.62,0,0,1-2.9-3.59c-.39-.3-2.7-1.92-9.7-3.47l-1.49-.35a10.81,10.81,0,0,0-.06,1.1c0,9.17,11.62,16.61,26,16.61s26-7.44,26-16.61q0-.42,0-.83A67.22,67.22,0,0,0,58.54,27.7,2.48,2.48,0,0,1,58.89,29.19Z"/><path class="cls-2" d="M69.08,22.8v0Z"/><path class="cls-2" d="M64,15.11a17.94,17.94,0,0,1-7.53,1.8,15.64,15.64,0,0,1-6.88-1.65,13.59,13.59,0,0,0-5-1.19H44.4c-3.84.09-5.5,1.76-7.27,3.52L34.88,20v0c-.11.13-.14.23-.09.29a2.49,2.49,0,0,0,1.82.59,4.42,4.42,0,0,0,1-.11,8.47,8.47,0,0,0,2.62-1.67l.05,0a10.69,10.69,0,0,1,3.07-1.94,4.32,4.32,0,0,1,1.3-.22,3.46,3.46,0,0,1,1,.16,7.06,7.06,0,0,1,2.09,1.22c1.6,1.2,7.52,6.35,10.09,8.59a61.87,61.87,0,0,1,11.35-3.69c0-.12,0-.25-.07-.37v0A14.29,14.29,0,0,0,64,15.11Z"/><path class="cls-2" d="M17.65,22.94c.47.14,1.21.35,1.53.42,6.85,1.55,9.41,3.18,10,3.67a2.6,2.6,0,0,1,3.88.22,2.92,2.92,0,0,1,1.73-.55,3.39,3.39,0,0,1,1.11.2,2.6,2.6,0,0,1,1.51,1.28,2.63,2.63,0,0,1,.95-.17,3.25,3.25,0,0,1,1.29.28,2.74,2.74,0,0,1,1.57,2.9h.11a3.09,3.09,0,0,1,2.79,4.41,4.74,4.74,0,0,0,2,.6l.27,0c.75-.1,1-.35,1.08-.45a.48.48,0,0,0,.08-.14l-2.07-2.28c-.13-.12-.43-.45-.23-.67a.29.29,0,0,1,.22-.1.84.84,0,0,1,.47.25c1,.85,2.24,2.1,2.37,2.23l0,0a.82.82,0,0,0,.48.2l.33,0a1.94,1.94,0,0,0,1.19-.38,2.31,2.31,0,0,0,.23-.22l.09-.11a.93.93,0,0,0-.05-1.16l-2.43-2.73a1.65,1.65,0,0,1-.17-.19c-.19-.25-.14-.4-.06-.48a.28.28,0,0,1,.21-.09.88.88,0,0,1,.5.26c.66.55,1.56,1.44,2.43,2.3l.48.47a1.72,1.72,0,0,0,.95.29,2.15,2.15,0,0,0,1.18-.39,1.52,1.52,0,0,0,.79-1.38,1.59,1.59,0,0,0-.46-.9l-3.33-3.35c-.22-.19-.4-.47-.24-.67a.27.27,0,0,1,.22-.1.88.88,0,0,1,.49.26c1,.88,3.9,3.49,3.93,3.52a1.79,1.79,0,0,0,1,.28,2,2,0,0,0,1.09-.34,1.33,1.33,0,0,0,.66-1.06,1.6,1.6,0,0,0-.5-1.22c-.08-.07-8.4-7.35-10.28-8.76a4.48,4.48,0,0,0-2.26-1.08h-.22a3.38,3.38,0,0,0-.83.11,10.08,10.08,0,0,0-3,1.78,8.78,8.78,0,0,1-3,1.87,4.42,4.42,0,0,1-1,.1,4.78,4.78,0,0,1-2.43-.62,1.61,1.61,0,0,1-.6-.67,1.15,1.15,0,0,1,.31-1.27l2.29-2.48.44-.44c-.55.11-1.08.25-1.56.39a9.4,9.4,0,0,1-2.48.46c-.38,0-.75,0-1.1-.06a39.1,39.1,0,0,1-8.55-2.47A14.47,14.47,0,0,0,17.65,22.94Z"/><path class="cls-2" d="M41.37,32.16h0a2.65,2.65,0,0,0-.83.18,1.09,1.09,0,0,1-.3.08h0l-.06,0c-.13-.08-.12-.23,0-.55,0,0,.71-2-.84-2.66a2.31,2.31,0,0,0-.91-.2,1.66,1.66,0,0,0-1.21.51.27.27,0,0,1-.19.1s-.18,0-.2-.22a1.67,1.67,0,0,0-1.17-1.55,2.29,2.29,0,0,0-2.63.94l-.24.37-.06-.44a1.64,1.64,0,1,0-.49,1.4l.1-.1.11.09a.22.22,0,0,1,.07.21,2.22,2.22,0,0,0,1.38,2.57,1.6,1.6,0,0,0,.57.11,1.77,1.77,0,0,0,1-.36.37.37,0,0,1,.21-.09h.08l.07.07a.31.31,0,0,1,0,.25c0,.33,0,1.16,1.17,1.65a1.81,1.81,0,0,0,.68.15,1.48,1.48,0,0,0,1-.47A.4.4,0,0,1,39,34c.22,0,.23.26.23.36a2.12,2.12,0,0,0,4.23-.1A2.14,2.14,0,0,0,41.37,32.16Z"/><path class="cls-5" d="M24,14c-.32.23-.63.46-.93.7h0q.45-.36.94-.7Z"/><path class="cls-5" d="M69.31,24.33h0a11,11,0,0,0-.15-1.12h0A10.86,10.86,0,0,1,69.31,24.33Z"/><path class="cls-5" d="M64.07,15.1c-.29-.25-.6-.49-.91-.72h0q.47.35.91.72Z"/><path class="cls-5" d="M69.16,23.21c0,.07,0,.14,0,.21a61.6,61.6,0,0,0-11.42,3.68C56.55,26,49.4,19.77,47.62,18.44a6.87,6.87,0,0,0-2-1.19,3.5,3.5,0,0,0-2.23.06,10.74,10.74,0,0,0-3.07,2A8.58,8.58,0,0,1,37.6,21a3.25,3.25,0,0,1-3-.54c-.17-.22.09-.48.11-.51L37,17.47c1.79-1.79,3.48-3.48,7.38-3.57a13.6,13.6,0,0,1,5.31,1.21c4.92,2.4,9.95,1.5,14.06-.23l.27.23h0q-.44-.37-.91-.72a16.6,16.6,0,0,1-6.62,1.5,14.63,14.63,0,0,1-6.44-1.55A14.48,14.48,0,0,0,44.6,13h-.22a9.53,9.53,0,0,0-6.26,2.22,12.38,12.38,0,0,0-3.12.57,8.45,8.45,0,0,1-2.2.42l-.84,0A42.86,42.86,0,0,1,24.07,14q-.48.34-.94.7h0l.54-.42a37.24,37.24,0,0,0,6.62,2.39,23.18,23.18,0,0,0,2.49.39,9.13,9.13,0,0,0,2.44-.46,14.84,14.84,0,0,1,2.09-.47l-.81.8-2.3,2.48a1,1,0,0,0-.28,1.09,1.45,1.45,0,0,0,.54.6,4.8,4.8,0,0,0,3.27.49,8.68,8.68,0,0,0,3-1.84,10,10,0,0,1,3-1.81,3.18,3.18,0,0,1,1.11-.11A4.61,4.61,0,0,1,47.2,19c1.88,1.42,10.2,8.69,10.28,8.77A1.76,1.76,0,0,1,58,29.12a1.5,1.5,0,0,1-.74,1.19,2,2,0,0,1-2.25,0s-2.87-2.63-3.92-3.51c-.15-.13-.38-.31-.48-.18s.23.45.23.45l3.32,3.34a1.74,1.74,0,0,1,.51,1A1.67,1.67,0,0,1,53.85,33a2,2,0,0,1-2.33.08c-1-1-2.13-2.11-2.9-2.76-.15-.13-.38-.3-.48-.18s.23.45.23.45l2.43,2.73a1.11,1.11,0,0,1,.06,1.37l0,0a2.54,2.54,0,0,1-.36.37,2.17,2.17,0,0,1-1.65.38c-.48-.09-.56-.25-.59-.27S47,33.82,45.93,32.93c-.15-.13-.36-.31-.48-.18s.23.45.23.45l2.08,2.31c.07.09,0,.21-.08.31a1.63,1.63,0,0,1-1.19.52A4.65,4.65,0,0,1,44,35.66a2.92,2.92,0,0,0-2.58-4.31l-.29,0a2.62,2.62,0,0,0-1.45-2.93,3.09,3.09,0,0,0-1.23-.27,2.46,2.46,0,0,0-1,.22A2.43,2.43,0,0,0,35.89,27a3.29,3.29,0,0,0-1.06-.19,2.79,2.79,0,0,0-1.76.62,2.44,2.44,0,0,0-3.83-.23c-.42-.35-2.72-2-10.1-3.69-.32-.07-1.07-.3-1.54-.42l0-.21h0a10.9,10.9,0,0,0-.17,1.12l1.49.35c7,1.55,9.31,3.17,9.7,3.47a2.62,2.62,0,0,0,2.9,3.59,3.05,3.05,0,0,0,2,2.28,2.59,2.59,0,0,0,.93.18,2.39,2.39,0,0,0,.6-.07,3,3,0,0,0,2.66,1.73,2.29,2.29,0,0,0,.8-.14,3.08,3.08,0,0,0,5.07,1,5.82,5.82,0,0,0,2.62.78l.4,0a2.4,2.4,0,0,0,1.78-.87,1.36,1.36,0,0,0,.11-.18,3,3,0,0,0,.84.13,2.83,2.83,0,0,0,1.69-.6,2.33,2.33,0,0,0,1-1.45v0a2.8,2.8,0,0,0,.57.06,3.15,3.15,0,0,0,1.74-.55,2.51,2.51,0,0,0,1.25-2.23,2.8,2.8,0,0,0,.57.06,3,3,0,0,0,1.63-.5,2.38,2.38,0,0,0,1.13-1.84,2.48,2.48,0,0,0-.36-1.49,67.22,67.22,0,0,1,10.77-3.37,10.86,10.86,0,0,0-.15-1.12ZM41.37,36.56a2.27,2.27,0,0,1-2.28-2.18c0-.23-.05-.25-.21-.1a1.62,1.62,0,0,1-1.89.35,1.7,1.7,0,0,1-1.27-1.83c0-.14,0-.18-.15-.08a1.78,1.78,0,0,1-1.75.27,2.38,2.38,0,0,1-1.49-2.74s0-.05,0-.06a1.81,1.81,0,1,1,.54-1.54,2.5,2.5,0,0,1,2.82-1A1.82,1.82,0,0,1,37,29.35c0,.09,0,.1.11,0a2,2,0,0,1,2.3-.34c1.65.71,1,2.75.93,2.87s-.12.33-.08.35A7.39,7.39,0,0,1,41.37,32a2.28,2.28,0,1,1,0,4.56Z"/><path class="cls-5" d="M47.72,18.31a7.06,7.06,0,0,0-2.09-1.22,3.46,3.46,0,0,0-1-.16,4.32,4.32,0,0,0-1.3.22,10.69,10.69,0,0,0-3.07,1.94l-.05,0a8.47,8.47,0,0,1-2.62,1.67,4.42,4.42,0,0,1-1,.11,2.49,2.49,0,0,1-1.82-.59c0-.06,0-.15.09-.29v0l2.25-2.43c1.77-1.77,3.43-3.43,7.27-3.52h.19a13.59,13.59,0,0,1,5,1.19,15.64,15.64,0,0,0,6.88,1.65A17.94,17.94,0,0,0,64,15.11l-.27-.23c-4.12,1.73-9.15,2.63-14.06.23a13.6,13.6,0,0,0-5.31-1.21c-3.9.09-5.59,1.78-7.38,3.57l-2.27,2.44s-.27.29-.11.51a3.25,3.25,0,0,0,3,.54,8.58,8.58,0,0,0,2.69-1.7,10.74,10.74,0,0,1,3.07-2,3.5,3.5,0,0,1,2.23-.06,6.87,6.87,0,0,1,2,1.19c1.78,1.34,8.92,7.57,10.16,8.65A61.6,61.6,0,0,1,69.2,23.41c0-.07,0-.14,0-.21a61.87,61.87,0,0,0-11.35,3.69C55.25,24.66,49.33,19.51,47.72,18.31Z"/><path class="cls-5" d="M32.79,17.28a9.4,9.4,0,0,0,2.48-.46c.48-.13,1-.28,1.56-.39l-.44.44L34.1,19.35a1.15,1.15,0,0,0-.31,1.27,1.61,1.61,0,0,0,.6.67,4.78,4.78,0,0,0,2.43.62,4.42,4.42,0,0,0,1-.1,8.78,8.78,0,0,0,3-1.87,10.08,10.08,0,0,1,3-1.78,3.38,3.38,0,0,1,.83-.11h.22a4.48,4.48,0,0,1,2.26,1.08c1.88,1.41,10.2,8.69,10.28,8.76a1.6,1.6,0,0,1,.5,1.22,1.33,1.33,0,0,1-.66,1.06,2,2,0,0,1-1.09.34,1.79,1.79,0,0,1-1-.28s-2.88-2.64-3.93-3.52a.88.88,0,0,0-.49-.26.27.27,0,0,0-.22.1c-.17.2,0,.48.24.67l3.33,3.35a1.59,1.59,0,0,1,.46.9,1.52,1.52,0,0,1-.79,1.38,2.15,2.15,0,0,1-1.18.39,1.72,1.72,0,0,1-.95-.29l-.48-.47c-.87-.86-1.77-1.75-2.43-2.3a.88.88,0,0,0-.5-.26A.28.28,0,0,0,48,30c-.08.08-.13.23.06.48a1.65,1.65,0,0,0,.17.19l2.43,2.73a.93.93,0,0,1,.05,1.16l-.09.11a2.31,2.31,0,0,1-.23.22,1.94,1.94,0,0,1-1.19.38l-.33,0a.82.82,0,0,1-.48-.2l0,0C48.26,34.89,47,33.64,46,32.8a.84.84,0,0,0-.47-.25.29.29,0,0,0-.22.1c-.2.22.1.55.23.67l2.07,2.28a.48.48,0,0,1-.08.14c-.07.1-.33.35-1.08.45l-.27,0a4.74,4.74,0,0,1-2-.6,3.09,3.09,0,0,0-2.79-4.41h-.11a2.74,2.74,0,0,0-1.57-2.9A3.25,3.25,0,0,0,38.41,28a2.63,2.63,0,0,0-.95.17,2.6,2.6,0,0,0-1.51-1.28,3.39,3.39,0,0,0-1.11-.2,2.92,2.92,0,0,0-1.73.55A2.6,2.6,0,0,0,29.23,27c-.64-.49-3.2-2.12-10-3.67-.33-.07-1.07-.29-1.53-.42l0,.21c.47.12,1.22.35,1.54.42,7.38,1.64,9.68,3.33,10.1,3.69a2.44,2.44,0,0,1,3.83.23,2.79,2.79,0,0,1,1.76-.62,3.29,3.29,0,0,1,1.06.19,2.43,2.43,0,0,1,1.49,1.34,2.46,2.46,0,0,1,1-.22,3.09,3.09,0,0,1,1.23.27,2.62,2.62,0,0,1,1.45,2.93l.29,0A2.92,2.92,0,0,1,44,35.66a4.65,4.65,0,0,0,2.54.68,1.63,1.63,0,0,0,1.19-.52c.07-.1.15-.22.08-.31L45.68,33.2s-.34-.32-.23-.45.33.06.48.18c1.06.89,2.36,2.22,2.36,2.22s.11.18.59.27A2.17,2.17,0,0,0,50.52,35a2.54,2.54,0,0,0,.36-.37l0,0a1.11,1.11,0,0,0-.06-1.37l-2.43-2.73s-.35-.32-.23-.45.33.06.48.18c.77.64,1.86,1.74,2.9,2.76A2,2,0,0,0,53.85,33a1.67,1.67,0,0,0,.86-1.52,1.74,1.74,0,0,0-.51-1l-3.32-3.34s-.35-.3-.23-.45.33.06.48.18c1.06.89,3.92,3.51,3.92,3.51a2,2,0,0,0,2.25,0A1.5,1.5,0,0,0,58,29.12a1.76,1.76,0,0,0-.56-1.35c-.08-.07-8.4-7.35-10.28-8.77a4.61,4.61,0,0,0-2.33-1.11,3.18,3.18,0,0,0-1.11.11,10,10,0,0,0-3,1.81,8.68,8.68,0,0,1-3,1.84,4.8,4.8,0,0,1-3.27-.49,1.45,1.45,0,0,1-.54-.6,1,1,0,0,1,.28-1.09L36.51,17l.81-.8a14.84,14.84,0,0,0-2.09.47,9.13,9.13,0,0,1-2.44.46,23.18,23.18,0,0,1-2.49-.39,37.24,37.24,0,0,1-6.62-2.39l-.54.42a39.1,39.1,0,0,0,8.55,2.47C32,17.24,32.42,17.28,32.79,17.28Z"/><path class="cls-5" d="M41.37,32a7.39,7.39,0,0,0-1.15.26s0-.23.08-.35S41,29.74,39.38,29a2,2,0,0,0-2.3.34c-.07.07-.1.07-.11,0a1.82,1.82,0,0,0-1.28-1.69,2.5,2.5,0,0,0-2.82,1,1.81,1.81,0,1,0-.54,1.54s0,0,0,.06A2.38,2.38,0,0,0,33.82,33a1.78,1.78,0,0,0,1.75-.27c.14-.1.17-.06.15.08A1.7,1.7,0,0,0,37,34.63a1.62,1.62,0,0,0,1.89-.35c.16-.15.21-.12.21.1A2.28,2.28,0,1,0,41.37,32Zm0,4.4a2.1,2.1,0,0,1-2.11-2c0-.1,0-.36-.23-.36a.4.4,0,0,0-.26.13,1.48,1.48,0,0,1-1,.47,1.81,1.81,0,0,1-.68-.15c-1.21-.49-1.22-1.32-1.17-1.65a.31.31,0,0,0,0-.25l-.07-.07h-.08a.37.37,0,0,0-.21.09,1.77,1.77,0,0,1-1,.36,1.6,1.6,0,0,1-.57-.11,2.22,2.22,0,0,1-1.38-2.57.22.22,0,0,0-.07-.21L32.32,30l-.1.1a1.65,1.65,0,1,1,.49-1.4l.06.44.24-.37a2.29,2.29,0,0,1,2.63-.94,1.67,1.67,0,0,1,1.17,1.55c0,.22.17.22.2.22a.27.27,0,0,0,.19-.1A1.66,1.66,0,0,1,38.4,29a2.31,2.31,0,0,1,.91.2c1.55.67.85,2.64.84,2.66-.13.33-.14.47,0,.55l.06,0h0a1.09,1.09,0,0,0,.3-.08,2.65,2.65,0,0,1,.83-.18h0a2.12,2.12,0,1,1,0,4.23Z"/><path class="cls-7" d="M67.81,56.25c-1.57,0-2.38,1.09-2.47,3.32s.76,3.52,2.43,3.52,2.49-1.18,2.49-3.52S69.38,56.25,67.81,56.25Z"/><path class="cls-7" d="M53.79,61.79a1.29,1.29,0,0,0,1.46,1.35,2.39,2.39,0,0,0,2.6-2.6V59.6a12.8,12.8,0,0,1-2.32.57C54.38,60.39,53.79,60.94,53.79,61.79Z"/><path class="cls-7" d="M56.63,73a2.69,2.69,0,0,0-1.23.25,2.35,2.35,0,0,0-.78.62,2.27,2.27,0,0,0-.41.78,3.53,3.53,0,0,0-.14.74h5a3.58,3.58,0,0,0-.77-1.79A2.17,2.17,0,0,0,56.63,73Z"/><path class="cls-7" d="M23.77,55.94a2.69,2.69,0,0,0-1.23.25,2.34,2.34,0,0,0-.78.62,2.27,2.27,0,0,0-.41.78,3.53,3.53,0,0,0-.14.74h5a3.58,3.58,0,0,0-.77-1.79A2.17,2.17,0,0,0,23.77,55.94Z"/><path class="cls-7" d="M36.41,73.19c-1.57,0-2.38,1.09-2.47,3.32S34.71,80,36.37,80s2.49-1.18,2.49-3.52S38,73.19,36.41,73.19Z"/><path class="cls-7" d="M83,57.05a2.51,2.51,0,0,0-.86-.83,2.58,2.58,0,0,0-1.33-.32,2.4,2.4,0,0,0-2.17,1.14,3.42,3.42,0,0,0-.45,1.17,6.83,6.83,0,0,0-.13,1.34,6.66,6.66,0,0,0,.13,1.33,3.54,3.54,0,0,0,.45,1.17,2.4,2.4,0,0,0,.85.83,2.58,2.58,0,0,0,1.32.31,2.64,2.64,0,0,0,1.33-.31,2.37,2.37,0,0,0,.86-.83,3.55,3.55,0,0,0,.45-1.17,6.66,6.66,0,0,0,.13-1.33,6.83,6.83,0,0,0-.13-1.34A3.43,3.43,0,0,0,83,57.05Z"/><path class="cls-5" d="M11.86,53.69a5.55,5.55,0,0,0-3.45.94,5.41,5.41,0,0,0-3.45-1c-3.3,0-5,1.64-5,4.94v6.8H2.95V58c0-1.2.68-1.79,2-1.79s1.94.59,2,1.79v7.39H9.85V58c0-1.2.68-1.79,2-1.79s1.94.59,2,1.79V64c0,.92.48,1.38,1.44,1.44h1.51v-6.8C16.8,55.33,15.16,53.69,11.86,53.69Z"/><path class="cls-5" d="M34,59.42c0-1.68.76-2.73,2.38-2.73l1.35,0v-3h-.88c-3.87,0-5.71,2.08-5.8,5.81v6H34Z"/><path class="cls-5" d="M55.93,58.07c-2.93.28-4.94,1-5,3.8,0,2.56,1.92,3.85,4.7,3.63,3.13-.22,5-1.64,5-4.83V56.74c-.07-2.14-1.68-3.19-4.87-3.19S51.38,55,51.27,57.27H54a1.79,1.79,0,0,1,2-1.34c1.2,0,1.81.33,1.88,1S57.18,57.92,55.93,58.07Zm1.92,1.52v.95a2.39,2.39,0,0,1-2.6,2.6,1.29,1.29,0,0,1-1.46-1.35c0-.85.59-1.4,1.75-1.62A12.8,12.8,0,0,0,57.86,59.6Z"/><path class="cls-5" d="M70.26,51.43v4A3.64,3.64,0,0,0,67,53.65c-3.08.11-4.61,2.12-4.61,6.05s1.79,5.79,5.38,5.86,5.42-1.7,5.42-5.18V50A3.84,3.84,0,0,0,70.26,51.43Zm-2.5,11.66c-1.66,0-2.45-1.18-2.43-3.52s.9-3.32,2.47-3.32,2.38,1.09,2.45,3.32S69.42,63.09,67.76,63.09Z"/><path class="cls-5" d="M19.24,69.06V82.5h2.91V67.19h-.76A2.52,2.52,0,0,0,19.24,69.06Z"/><path class="cls-5" d="M37.22,70.59a3.61,3.61,0,0,0-3.28,1.79V67.19h-.33A2.85,2.85,0,0,0,31,68.61v8.71c0,3.47,1.81,5.2,5.42,5.18s5.38-2,5.38-5.86S40.3,70.7,37.22,70.59ZM36.37,80c-1.66,0-2.45-1.18-2.43-3.52s.9-3.32,2.47-3.32,2.38,1.09,2.45,3.32S38,80,36.37,80Z"/><path class="cls-5" d="M28.12,55.66a5,5,0,0,0-1.75-1.49,5.36,5.36,0,0,0-2.51-.56,5.83,5.83,0,0,0-2.34.46,5.45,5.45,0,0,0-3,3.14,6.57,6.57,0,0,0-.41,2.35,6.85,6.85,0,0,0,.4,2.4,5.43,5.43,0,0,0,1.14,1.87A5,5,0,0,0,21.46,65a6.43,6.43,0,0,0,2.4.42,5.9,5.9,0,0,0,3.27-.87,5.17,5.17,0,0,0,2-2.9H26.41a1.94,1.94,0,0,1-.83,1,2.76,2.76,0,0,1-1.61.47,2.76,2.76,0,0,1-2-.68,3.12,3.12,0,0,1-.76-2.18h8.13a8,8,0,0,0-.22-2.51A6.14,6.14,0,0,0,28.12,55.66ZM21.2,58.34a3.53,3.53,0,0,1,.14-.74,2.27,2.27,0,0,1,.41-.78,2.34,2.34,0,0,1,.78-.62,2.69,2.69,0,0,1,1.23-.25,2.17,2.17,0,0,1,1.69.61,3.58,3.58,0,0,1,.77,1.79Z"/><path class="cls-5" d="M47.93,64.34a5.16,5.16,0,0,0,1.76-3.45h-3a3,3,0,0,1-.76,1.68,2.29,2.29,0,0,1-1.73.63A2.21,2.21,0,0,1,43,62.86a2.46,2.46,0,0,1-.8-.85,3.88,3.88,0,0,1-.43-1.16,6.18,6.18,0,0,1-.13-1.25,6.45,6.45,0,0,1,.13-1.29,3.8,3.8,0,0,1,.45-1.19,2.71,2.71,0,0,1,.82-.88,2.2,2.2,0,0,1,1.25-.34,2.1,2.1,0,0,1,2.31,2h3.06a4.15,4.15,0,0,0-1.73-3.25,5.2,5.2,0,0,0-1.67-.8,7.13,7.13,0,0,0-1.95-.26,6.21,6.21,0,0,0-2.46.46A5.18,5.18,0,0,0,40,55.3a5.51,5.51,0,0,0-1.13,2,7.57,7.57,0,0,0-.39,2.45,6.37,6.37,0,0,0,.42,2.34A5.45,5.45,0,0,0,40,63.9a5.19,5.19,0,0,0,1.82,1.2,6.23,6.23,0,0,0,2.34.43A5.68,5.68,0,0,0,47.93,64.34Z"/><path class="cls-5" d="M86.31,57.08a5.18,5.18,0,0,0-3-3.1,6.58,6.58,0,0,0-2.43-.43,6.5,6.5,0,0,0-2.42.43,5.2,5.2,0,0,0-3,3.1A7,7,0,0,0,75,59.56,6.89,6.89,0,0,0,75.38,62a5.34,5.34,0,0,0,1.19,1.88,5.19,5.19,0,0,0,1.85,1.2,6.65,6.65,0,0,0,2.42.42,6.74,6.74,0,0,0,2.43-.42,5.17,5.17,0,0,0,1.86-1.2A5.35,5.35,0,0,0,86.31,62a6.9,6.9,0,0,0,.42-2.46A7,7,0,0,0,86.31,57.08Zm-2.84,3.81A3.55,3.55,0,0,1,83,62.06a2.37,2.37,0,0,1-.86.83,2.64,2.64,0,0,1-1.33.31,2.58,2.58,0,0,1-1.32-.31,2.4,2.4,0,0,1-.85-.83,3.54,3.54,0,0,1-.45-1.17,6.66,6.66,0,0,1-.13-1.33,6.83,6.83,0,0,1,.13-1.34,3.42,3.42,0,0,1,.45-1.17,2.4,2.4,0,0,1,2.17-1.14,2.58,2.58,0,0,1,1.33.32,2.51,2.51,0,0,1,.86.83,3.43,3.43,0,0,1,.45,1.17,6.83,6.83,0,0,1,.13,1.34A6.66,6.66,0,0,1,83.47,60.89Z"/><path class="cls-5" d="M43.54,76.5v6h2.95v-6c0-1.68.76-2.73,2.38-2.73l1.35,0v-3h-.88C45.47,70.69,43.63,72.76,43.54,76.5Z"/><path class="cls-5" d="M61,72.7a5,5,0,0,0-1.75-1.49,5.36,5.36,0,0,0-2.51-.56,5.83,5.83,0,0,0-2.34.46,5.44,5.44,0,0,0-3,3.14A6.57,6.57,0,0,0,51,76.6a6.85,6.85,0,0,0,.4,2.4,5.44,5.44,0,0,0,1.14,1.87,5,5,0,0,0,1.81,1.21,6.43,6.43,0,0,0,2.4.42A5.9,5.9,0,0,0,60,81.63a5.17,5.17,0,0,0,2-2.9H59.26a1.94,1.94,0,0,1-.83,1,3.17,3.17,0,0,1-3.62-.21,3.12,3.12,0,0,1-.76-2.18h8.13A8,8,0,0,0,62,74.83,6.14,6.14,0,0,0,61,72.7Zm-6.92,2.68a3.53,3.53,0,0,1,.14-.74,2.27,2.27,0,0,1,.41-.78,2.35,2.35,0,0,1,.78-.62A2.69,2.69,0,0,1,56.63,73a2.17,2.17,0,0,1,1.69.61,3.58,3.58,0,0,1,.77,1.79Z"/><rect class="cls-5" x="25.27" y="67.19" width="2.91" height="2.65"/><rect class="cls-5" x="25.27" y="71.17" width="2.91" height="11.33"/><rect class="cls-8" x="101.21" width="2" height="90"/></g></g></svg>