<svg xmlns="http://www.w3.org/2000/svg" viewBox="0 0 183.35 90"><defs><style>.cls-1{fill:#f3f3f5;opacity:0.25;}.cls-2{fill:#fff;}</style></defs><title>logo-2</title><g id="Layer_2" data-name="Layer 2"><g id="Capa_1" data-name="Capa 1"><rect class="cls-1" x="91.05" width="2" height="90"/><path class="cls-2" d="M0,0V76.09H43.88l2.37-2.37H73.72V46.24l2.37-2.37V0ZM73.24,43,42.8,73.41H2.85V3H73.24Z"/><path class="cls-2" d="M41,46.24a4,4,0,0,1-1.74-.58l-.48-.24a1.09,1.09,0,0,0-.51-.09,1.15,1.15,0,0,0-.83.31,1,1,0,0,0-.29.72c0,.77,1,1.3,2.34,1.3a5.71,5.71,0,0,0,4.18-1.51c1.37-1.37,2-3.6,2-6.84V30.88c0-.83.31-1.38,1.9-1.38h.48v-1H40.54v1H41a2.2,2.2,0,0,1,1.55.41,1.32,1.32,0,0,1,.31,1V43.21a3.64,3.64,0,0,1-.65,2.61A1.63,1.63,0,0,1,41,46.24Z"/><path class="cls-2" d="M53.64,29.18a1.9,1.9,0,0,1-.26.75L48.63,40.34c-.52,1.14-.72,1.57-2.35,1.59h-.2v1h6.41V41.91H51.43a1.9,1.9,0,0,1-1.29-.29.45.45,0,0,1-.12-.33,2,2,0,0,1,.2-.68L52,36.79h5.1l1.71,3.8a2.54,2.54,0,0,1,.23.73.39.39,0,0,1-.11.29,2.27,2.27,0,0,1-1.46.29H56.29V43h7.88v-1h-.44c-1.19,0-1.48-.51-2-1.69l-5.23-11.7H53.33l.19.31A.74.74,0,0,1,53.64,29.18Zm2.85,6.35H52.57l2-4.34Z"/><path class="cls-2" d="M14.27,41.21A11.56,11.56,0,0,0,20.93,43h9.51v-1H29.37a2,2,0,0,1-1.29-.29.45.45,0,0,1-.12-.33,2,2,0,0,1,.2-.68l1.76-3.8H35l1.71,3.8a2.54,2.54,0,0,1,.23.73.4.4,0,0,1-.1.29,2.29,2.29,0,0,1-1.46.29H34.24V43h7.88v-1h-.48c-1.2,0-1.48-.51-2-1.69L34.36,28.53H31.23l.19.31a.74.74,0,0,1,.11.34,1.9,1.9,0,0,1-.26.75L27.17,39c-1,1.9-3.1,2.91-6,2.91A7,7,0,0,1,16.09,40a6.66,6.66,0,0,1-1.83-4.81A5.5,5.5,0,0,1,16.17,31a7.24,7.24,0,0,1,4.56-1.52,6.14,6.14,0,0,1,5.76,3.37l.06.11h1l-.28-3.67-.23,0a2.5,2.5,0,0,1-.49.06,3.86,3.86,0,0,1-.71-.1h-.27a30.23,30.23,0,0,0-5.1-.81A9.31,9.31,0,0,0,13,31.63a6.75,6.75,0,0,0-1.84,4.51A6.16,6.16,0,0,0,14.27,41.21Zm18.18-10,2,4.34h-4Z"/><path class="cls-2" d="M41.44,26.09H40.38a1.9,1.9,0,0,1-1.29-.29.45.45,0,0,1-.12-.33,2,2,0,0,1,.2-.68L40.93,21H46l1.71,3.8a2.52,2.52,0,0,1,.23.73.38.38,0,0,1-.11.29,2.26,2.26,0,0,1-1.46.29H45.26v1.06h7.88v-1h-.48c-1.19,0-1.48-.52-2-1.68L45.38,12.71H42.25l.19.31a.7.7,0,0,1,.11.34,1.83,1.83,0,0,1-.26.75L38,23.51s-1,2.56-3.16,2.56H31.51a1.85,1.85,0,0,1-1.29-.3,1.54,1.54,0,0,1-.28-1.12V15.27c0-.87.33-1.4,2-1.4h.91v-1h-8.2v1h.48a2.16,2.16,0,0,1,1.55.42,1.29,1.29,0,0,1,.31,1v9.47a1.28,1.28,0,0,1-.3,1,2.16,2.16,0,0,1-1.56.41h-.48v1H41.44Zm2-10.72,2,4.34h-4Z"/><path class="cls-2" d="M16.39,46.71a13.17,13.17,0,0,0-1.9.72l.13.29a1.6,1.6,0,0,1,.39-.1c.07,0,.11.07.11.16a1.81,1.81,0,0,1,0,.21l-.44,2a.74.74,0,0,0-.62-.35,2.28,2.28,0,0,0-1.39.89,4.05,4.05,0,0,0-1.27,2.79c0,.88.39,1.39.88,1.39s1-.55,1.78-1.62a6,6,0,0,0-.13,1c0,.41.18.62.51.62a3,3,0,0,0,1.71-1.35L16,53.16c-.29.4-.52.59-.63.59s-.08,0-.08-.1a.62.62,0,0,1,0-.12l1.31-6.35a1.53,1.53,0,0,0,0-.34A.19.19,0,0,0,16.39,46.71Zm-2.2,5.71c-.54.82-1,1.25-1.2,1.25s-.24-.19-.24-.55c0-1.66.6-2.85,1.06-2.85.27,0,.46.29.65,1Z"/><path class="cls-2" d="M20.16,53.51a2.53,2.53,0,0,1-1.27.51c-.55,0-.86-.35-.86-1a3.3,3.3,0,0,1,0-.61c1.68-.44,2.53-1,2.53-1.81a1,1,0,0,0-1-.9h0a2.76,2.76,0,0,0-1.9,1.07,3.8,3.8,0,0,0-1,2.44c0,1,.46,1.54,1.33,1.54a4.06,4.06,0,0,0,2.32-1Zm-1-3.39c.21,0,.33.15.33.44a1.57,1.57,0,0,1-1.3,1.51C18.46,50.77,18.77,50.13,19.15,50.13Z"/><path class="cls-2" d="M28.18,49.72h-.56a3.8,3.8,0,0,0-2.31.72,3.93,3.93,0,0,0-1.78,3.16c0,.73.3,1.12.73,1.12s.7-.28,1.27-.8l.56-.52A4.14,4.14,0,0,0,26,54c0,.5.16.73.54.73s1-.46,1.8-1.24l-.21-.2c-.4.39-.66.56-.74.56s-.09,0-.09-.12a1.15,1.15,0,0,1,0-.27Zm-2,3.11-.46.41c-.26.24-.43.4-.67.4s-.47-.3-.47-.78a2.27,2.27,0,0,1,2-2.44h.09Z"/><path class="cls-2" d="M29.11,54.07a1.81,1.81,0,0,0-.06.44c0,.09.12.16.36.16h.43c.47,0,.48-.11.6-.7l.32-1.54c.81-1.06,1.26-1.62,1.51-1.62s.17.07.17.21a1.43,1.43,0,0,1,0,.32L32,53.25a4.42,4.42,0,0,0-.14.88c0,.42.15.6.53.6.64,0,1.22-.47,1.9-1.39l-.24-.2c-.38.49-.65.72-.76.72s-.1-.06-.1-.14a1,1,0,0,1,0-.24l.67-2.55a2.56,2.56,0,0,0,.08-.54c0-.47-.19-.7-.55-.7-.59,0-1.44.65-2.43,2l1-4.6v-.19a.15.15,0,0,0-.13-.15,14,14,0,0,0-2,.71l.1.29a1.36,1.36,0,0,1,.39-.08c.08,0,.12.08.12.22a1.14,1.14,0,0,1,0,.24Z"/><path class="cls-2" d="M34.71,53.11c0,1.11.46,1.7,1.3,1.7a3.3,3.3,0,0,0,2.51-1.39,3.21,3.21,0,0,0,.68-2.06c0-1.07-.48-1.66-1.33-1.66a3.22,3.22,0,0,0-2,.88A3.28,3.28,0,0,0,34.71,53.11Zm2.48-2.86h0c.41,0,.66.52.66,1.51,0,1.46-.68,2.53-1.16,2.53s-.61-.49-.61-1.4C36.07,51.29,36.67,50.25,37.19,50.25Z"/><path class="cls-2" d="M40.44,51.91l-.37,2.48v.09a.35.35,0,0,0,.35.21H41c.21,0,.31-.07.34-.22l.07-.28c.44-2.05.89-3.08,1.51-3.08h.29c.41,0,.64-.33.64-1,0-.3-.14-.47-.42-.47-.68,0-1.14.88-1.84,2.61a15.42,15.42,0,0,0,.25-2.14c0-.34-.08-.49-.32-.49s-1,.5-1.74,1.54l.16.14c.29-.39.47-.59.58-.59s.06.07.06.19A9.52,9.52,0,0,1,40.44,51.91Z"/><path class="cls-2" d="M47.85,50.17c0-.3-.14-.47-.42-.47-.68,0-1.14.88-1.84,2.61a15.14,15.14,0,0,0,.28-2.16c0-.34-.08-.49-.32-.49s-1,.5-1.74,1.54l.24.16c.29-.39.47-.59.57-.59s.06.07.06.19a9.14,9.14,0,0,1-.14,1l-.41,2.44v.09a.36.36,0,0,0,.35.21h.59c.21,0,.31-.07.34-.22l.07-.28c.44-2.05.88-3.08,1.51-3.08h.29C47.62,51.11,47.85,50.78,47.85,50.17Z"/><path class="cls-2" d="M50.41,49.72a3.22,3.22,0,0,0-2,.88,3.28,3.28,0,0,0-1.16,2.52c0,1.11.46,1.7,1.3,1.7a3.3,3.3,0,0,0,2.51-1.39,3.21,3.21,0,0,0,.65-2.06C51.7,50.31,51.23,49.72,50.41,49.72Zm-1.2,4.57c-.37,0-.59-.49-.59-1.39,0-1.61.6-2.64,1.12-2.64s.66.52.66,1.51C50.34,53.24,49.68,54.26,49.21,54.29Z"/><path class="cls-2" d="M13.82,64.84c-.4-.08-.58-.11-.58-.31a11.58,11.58,0,0,1,1.41-3c1-1.66,1.74-2.61,1.74-3.34a.68.68,0,0,0-.68-.67h0a.73.73,0,0,0-.78.68s0,0,0,.06c0,.28.23.39.23.76A10.9,10.9,0,0,1,14,62.12c.06-.77.08-1.33.08-1.71,0-1.9-.4-2.92-1.06-2.92-.49,0-1.11.45-1.59,1.3l.28.12c.2-.27.38-.43.52-.43.29,0,.55,1,.55,2.73a4.76,4.76,0,0,1-.15,1.56,7.43,7.43,0,0,1-.66,1.54c-.27.4-.53.48-1.14.54l-.07.31h3Z"/><path class="cls-2" d="M21,57.55a1.81,1.81,0,0,0-1.9,1.57c0,.61.41,1,1,1.65.38.4.62.65.62.9a.29.29,0,0,1-.26.32h-.07a1,1,0,0,1-.64-.28c-.33-.29-.56-.54-1-.54a.62.62,0,0,0-.62.68c0,.47.4.75,1.14.75,1.31,0,2.15-.74,2.15-1.66a1.9,1.9,0,0,0-.67-1.28c-.48-.54-.82-.87-.82-1.24.06-.22.16-.34.34-.34s.31.27.45.5a.65.65,0,0,0,.6.39.62.62,0,0,0,.63-.61s0,0,0-.06C21.93,57.87,21.55,57.55,21,57.55Z"/><path class="cls-2" d="M25.39,61.35a2.56,2.56,0,0,1-1.27.51c-.55,0-.86-.35-.86-1a3.37,3.37,0,0,1,.06-.61c1.68-.43,2.53-1,2.53-1.81a1,1,0,0,0-1-.91h0a2.75,2.75,0,0,0-1.9,1.07,3.8,3.8,0,0,0-1,2.44c0,1,.46,1.54,1.33,1.54a4.05,4.05,0,0,0,2.32-1Zm-1-3.39c.21,0,.33.15.33.44a1.57,1.57,0,0,1-1.3,1.52C23.67,58.61,24,58,24.36,58Z"/><path class="cls-2" d="M28.33,61.39A2.44,2.44,0,0,0,30,59.22a2.08,2.08,0,0,0-.23-1h.14a2,2,0,0,1,.46,0v-.68A8,8,0,0,0,29,57.43a3.22,3.22,0,0,0-2,.75,2.46,2.46,0,0,0-1,1.83,1.7,1.7,0,0,0,1.12,1.62c-.48.17-.72.45-.72.79a.69.69,0,0,0,.07.29c-1.36.58-2,1.07-2,1.57s1,.88,2.57.88,2.66-.52,2.66-1.19S29,63.1,28.2,62.61c-.59-.35-.88-.61-.88-.74S27.75,61.63,28.33,61.39Zm.08,3h0c0,.22-.45.41-1.27.41s-1.53-.36-1.53-.82.34-.81,1-1C27.58,63.92,28.41,64.06,28.41,64.41ZM27.27,60.2c0-1.35.59-2.28,1-2.28s.49.3.49,1a4.63,4.63,0,0,1-.43,1.88h0c-.14.3-.28.46-.49.46S27.27,60.86,27.27,60.2Z"/><path class="cls-2" d="M34.79,61.53c-.06,0-.1-.06-.1-.17v-.27l.56-2.85a3,3,0,0,0,.07-.46c0-.09-.12-.15-.36-.15h-.34c-.48,0-.48.12-.61.7l-.2.89c-.71,1.46-1.38,2.16-1.55,2.16s-.13-.08-.13-.21a1.64,1.64,0,0,1,0-.32l.38-1.75a6.82,6.82,0,0,0,.16-1c0-.38-.19-.57-.53-.57-.64,0-1.1.5-1.78,1.46l.22.17c.3-.4.48-.61.56-.61s.1,0,.1.14a3,3,0,0,1-.07.41l-.45,2.21a4.2,4.2,0,0,0-.11.77c0,.35.14.53.46.53.49,0,1.41-.75,2.48-2.34l-.25,1.28a2.78,2.78,0,0,0-.07.57c0,.3.14.48.42.48.48,0,1.19-.49,2-1.5l-.15-.28C35.19,61.32,35,61.53,34.79,61.53Z"/><path class="cls-2" d="M39.95,58c0-.3-.14-.47-.42-.47-.68,0-1.14.88-1.84,2.61A15.43,15.43,0,0,0,37.91,58c0-.34-.08-.49-.32-.49s-1,.5-1.74,1.54l.23.17c.29-.39.47-.59.58-.59s.06.07.06.19a9.36,9.36,0,0,1-.14,1l-.43,2.43v.09a.35.35,0,0,0,.35.21h.6c.21,0,.31-.07.34-.22L37.5,62C37.93,60,38.39,59,39,59h.29C39.71,59,39.95,58.62,39.95,58Z"/><path class="cls-2" d="M42.45,57.55a3.23,3.23,0,0,0-2,.88,3.27,3.27,0,0,0-1.16,2.52c0,1.11.46,1.7,1.3,1.7a3.3,3.3,0,0,0,2.51-1.39,3.23,3.23,0,0,0,.66-2C43.75,58.14,43.31,57.55,42.45,57.55Zm-1.19,4.58c-.38,0-.61-.49-.61-1.4,0-1.61.6-2.64,1.12-2.64s.66.52.66,1.51C42.43,61.06,41.75,62.13,41.26,62.13Z"/><path class="cls-2" d="M30.82,89.49H30V85.6h.45c.8,0,1.25.49,1.42,1.9h.29V83.36h-.29s-.06,1.75-1.46,1.72H30V81.4c2.3,0,3.15-.11,3.55,2.71h.25V81H27.49v.43h1.08v8.09H27.41v.43h6.47V86.61h-.32C33.23,89.11,32.6,89.49,30.82,89.49Z"/><path class="cls-2" d="M27.43,85.24H23.89v.36H25.1v2.95c-.21.74-1.29,1-1.62,1-2.26,0-2.1-3.31-2.1-4.19s-.09-4.19,2.1-4.19c1.54,0,2.35,1.53,2.67,2.9h.25V80.86l-1.06.75a2.13,2.13,0,0,0-1.9-.72c-2.67,0-3.64,2.66-3.63,4.52,0,1.7.8,4.59,3.63,4.59a2.17,2.17,0,0,0,1.9-1l1.13.89V85.6h1Z"/><path class="cls-2" d="M66.07,89.48H66V81.4h1.13V81H63.37v.44h1.13v8.08h-.9l-3.3-8.76h-.49s-2.75,8-2.75,8-.21.68-.67.77-.38-.2-.38-.28V87.66a2.75,2.75,0,0,0-.45-1.74,2.4,2.4,0,0,0-1.25-.52,2.53,2.53,0,0,0,2-2.35c0-1.35-1-2-2.51-2.08H49.37v.44h1.14v8.08H49.37v.43H53v-.43H51.89V85.6h1.52c2.64.22-.46,4.33,3,4.32h2.19v-.43c-.12,0-1,0-1-.53a8.49,8.49,0,0,1,.52-1.85h3l1,2.39H61v.43h8.09V86.61H68.8C68.48,89.11,67.85,89.48,66.07,89.48ZM53.35,85.15H51.89V81.4h1.9c1.09.16,1.13,1.43,1.13,1.83C54.89,84.2,54.48,85.15,53.35,85.15Zm5,1.54,1.29-3.87L61,86.69Z"/><path class="cls-2" d="M45.79,89.49H45V85.6h.48c.8,0,1.26.49,1.42,1.9h.29V83.36h-.29s-.06,1.75-1.46,1.72H45V81.4c2.3,0,3.16-.11,3.56,2.71h.25V81H39.62v.43h.24c.32,0,1.09,0,1.13.69v5.16L36.7,81H34.37v.43h.39c.46,0,1.1,0,1.13.69v6.66c0,.65-1,.89-1.37.89V90h3.15V89.6c-.4,0-1.38-.25-1.38-.89V82.89c1.69,2.43,4.89,7,4.93,7h.16V82.09c0-.68.81-.69,1.13-.69h1v8.09H42.38v.43h6.47V86.61h-.34C48.2,89.11,47.56,89.49,45.79,89.49Z"/><polygon class="cls-2" points="69.54 81.4 70.69 81.4 70.69 89.48 69.54 89.48 69.54 89.92 73.19 89.92 73.19 89.48 72.05 89.48 72.05 81.4 73.19 81.4 73.19 80.96 69.54 80.96 69.54 81.4"/><path class="cls-2" d="M16,89c.47-.19.53-.31.51-.63V87.09c.35,1,.69,1.54,1.39,1.54a1.38,1.38,0,0,0,.3,0l.27-.06-.18-.21A1.68,1.68,0,0,1,18,88l-.09-.15a.69.69,0,0,0-.86-.21c-.14-.29-.29-.65-.46-1.1v-.09l-.09-.2a6.44,6.44,0,0,0-.35-.7,4,4,0,0,0-.38-.54,2.3,2.3,0,0,0-1.52-.83,8.2,8.2,0,0,0-1-.1H13L12.16,84l-.62,0a.68.68,0,0,0,0-.15,1,1,0,0,0,0-.19h2.35a1.33,1.33,0,0,0,1.33-.8,1.33,1.33,0,0,0,1.27-.8h.09a1.34,1.34,0,0,0,1.31-.84L18,81H10.11A1.17,1.17,0,0,0,9,81.83,1.66,1.66,0,0,0,8.29,81,1.74,1.74,0,0,0,7,80.72a1.38,1.38,0,0,0-.68.44,2.54,2.54,0,0,0-.27.43.5.5,0,0,0-.1.11l-.1.17a2.23,2.23,0,0,1-.35.55.37.37,0,0,0-.1.31.42.42,0,0,0,.1.2.36.36,0,0,0,0,.18.38.38,0,0,0,.4.36h0a.78.78,0,0,0,.43-.17,1.17,1.17,0,0,1,.26-.14.12.12,0,0,1,.12.11c0,.17-.22.26-.37.28H6c-.23,0-.34.14-.34.25a.28.28,0,0,0,.09.21l.08.08-.34.54a1.26,1.26,0,0,0-.77-.36.54.54,0,0,0-.4.14l-.08.1a.7.7,0,0,0-.59.3.71.71,0,0,0,.07.71l-.86.22v4.07H18.47V89H15.62Zm1.69-1v0l.09.14.1.17a.78.78,0,0,1-.61-.41A.37.37,0,0,1,17.64,88Zm-3.38-3.49a2,2,0,0,1,1.23.68l.19.25a1.78,1.78,0,0,1-1.62-1Zm-.38-1.22H12.3a1.49,1.49,0,0,0,.34-.46H14.8A1,1,0,0,1,13.89,83.29Zm1.27-.78h-1.6a1.48,1.48,0,0,0,.35-.48h2.17A1,1,0,0,1,15.16,82.51Zm.06-1.22h2.16a1,1,0,0,1-.88.42H14.94A1.44,1.44,0,0,0,15.22,81.29Zm-8.48-.11A1.06,1.06,0,0,1,7,81.06a1.14,1.14,0,0,1,.52,0L7,81.41H6.53l0,0A1,1,0,0,1,6.73,81.18Zm-.88,2.76,0-.08h.28c.34,0,.68-.15.72-.5a.45.45,0,0,0-.41-.48,1,1,0,0,0-.44.2.6.6,0,0,1-.26.12s-.08,0-.08,0l.18-.24-.15-.1,0-.07a3,3,0,0,0,.21-.28c0-.07.07-.1.15-.1a.13.13,0,0,1,.13.13s.06.09.12.09.1,0,.13-.09.16-.14.08-.22S6,82.38,6.16,82v0a.79.79,0,0,1,.61-.19h.29l.81-.49A.7.7,0,0,1,7.5,82l-.1.06.07.36a.47.47,0,0,0-.35.43,1.53,1.53,0,0,0,0,.26,2.71,2.71,0,0,1,.06.37c0,.38-.52.63-1,.62A1.13,1.13,0,0,1,5.86,84,.06.06,0,0,1,5.86,83.94Zm.27.37h.24c.59,0,1.21-.34,1.21-1h0a2.86,2.86,0,0,0-.06-.43,1.37,1.37,0,0,1,0-.19c0-.07.09-.13.22-.13H8l-.09-.49a1,1,0,0,0,.43-.84,1.48,1.48,0,0,1,.53,1,1.66,1.66,0,0,1,0,.47v.08a6.05,6.05,0,0,1-.23.72l-.13.13.12.07c.22.12.35.21.35.5a.69.69,0,0,1-.58.64L7.93,85l.33.22a.37.37,0,0,1,.17.3.38.38,0,0,1-.39.37H7.91V86c-.12.39-.26.59-.68.63a2.22,2.22,0,0,0,0-.4v-.55L7,85.94a.81.81,0,0,1-.41.19V85.8l-.85-.22.18-.26-.07-.12L5.71,85Zm-1.85.63h.14V84.8a.2.2,0,0,1,0-.09.24.24,0,0,1,.21-.07,1,1,0,0,1,.64.35,1.66,1.66,0,0,1,.19.26v.1a1.07,1.07,0,0,1,.17.2l-.95-.25-.66.17a.49.49,0,0,1-.18-.4A.38.38,0,0,1,4.28,84.94ZM3.36,89.1l1.33-.34L6,89.1Zm2.85-.29-1.52-.36-1.52.4V86.1l1.52-.4,1.52.4Zm.67.29H6.53V86.49a1.39,1.39,0,0,0,.37-.1,2.67,2.67,0,0,1,0,.32V87H7.1a1.44,1.44,0,0,0,.67-.13v1.09a0,0,0,0,1,0,0h-.1a.77.77,0,0,0-.68.3h0A1,1,0,0,0,6.88,89.1Zm3.41,0h-2a.72.72,0,0,0,.48-.18.6.6,0,0,0,.14-.47s0-.06.12-.1l.17-.08-.1-.16A1.9,1.9,0,0,1,9.1,87a4.58,4.58,0,0,0,1.56-.29l.37-.11.32-.09L12,87.56c.07.1.08.15,0,.29l-.32.35-.53-.1a.74.74,0,0,0-.66.24A.83.83,0,0,0,10.28,89.1Zm.33,0a.57.57,0,0,1,.07-.53.42.42,0,0,1,.36-.13l.62.11h.1l.44-.47a.52.52,0,0,0,.07-.68l-.58-1H12a1.29,1.29,0,0,1,.61.18l.16.34a7.11,7.11,0,0,1,.31.68.28.28,0,0,1-.1.3l-1.11,1.18Zm3.8,0h-2.1l.9-1a.61.61,0,0,0,.16-.64,2.51,2.51,0,0,0-.29-.63,5.84,5.84,0,0,0,2,.41c.13,0,.17.06.19.18l0,.48-.58.13a.56.56,0,0,0-.42.35A.82.82,0,0,0,14.41,89.1Zm.23-.56h0a.23.23,0,0,1,.18-.15l.87-.19-.08-.77a.5.5,0,0,0-.49-.44,4.06,4.06,0,0,1-2.28-.6,1.63,1.63,0,0,0-.84-.26,4.2,4.2,0,0,0-1,.19l-.38.11A4.18,4.18,0,0,1,9,86.71H8.82v.12a2.68,2.68,0,0,0,0,1.37.39.39,0,0,0-.26.26v.23a1.07,1.07,0,0,1-.58.1h-.1l0,.07a.64.64,0,0,1-.64.19.68.68,0,0,1,0-.57.48.48,0,0,1,.42-.14A.37.37,0,0,0,8,88v-1.4a1.56,1.56,0,0,0,.15-.33.7.7,0,0,0,.6-.68.68.68,0,0,0-.11-.37,1,1,0,0,0,.58-.87.77.77,0,0,0-.4-.71,6.34,6.34,0,0,0,.21-.7l.27-1a.86.86,0,0,1,.81-.63h4.76a1,1,0,0,1-.88.42H11.1l-.15.32h2.59a1,1,0,0,1-1,.48h-1.9l-.15.32h1.74a1,1,0,0,1-1,.46h-1l-.15.32h1.07a.33.33,0,0,1,0,.19.38.38,0,0,1-.38.38h0a.62.62,0,0,1-.25-.06l-.14-.06-.25.23.14.06a1.19,1.19,0,0,0,.49.14.69.69,0,0,0,.5-.21l.77.06.84.07h.64a2.3,2.3,0,0,0,2.25,1.35,5,5,0,0,1,.25.5V88.5a1.09,1.09,0,0,1-.3.17l-1.07.4A.59.59,0,0,1,14.64,88.54Z"/><polygon class="cls-2" points="5.88 86.52 4.85 86.25 4.85 86.58 5.88 86.85 5.88 86.52"/><polygon class="cls-2" points="3.5 86.85 4.52 86.58 4.52 86.25 3.5 86.52 3.5 86.85"/><polygon class="cls-2" points="3.5 87.52 4.52 87.26 4.52 86.92 3.5 87.18 3.5 87.52"/><polygon class="cls-2" points="5.88 87.18 4.85 86.92 4.85 87.26 5.88 87.52 5.88 87.18"/><polygon class="cls-2" points="5.88 87.86 4.85 87.59 4.85 87.92 5.88 88.19 5.88 87.86"/><polygon class="cls-2" points="3.5 88.19 4.52 87.92 4.52 87.59 3.5 87.86 3.5 88.19"/><path class="cls-2" d="M170.86,7.5h-50A12.51,12.51,0,0,0,108.35,20V70a12.49,12.49,0,0,0,12.5,12.49h50A12.48,12.48,0,0,0,183.35,70V20A12.51,12.51,0,0,0,170.86,7.5ZM120.43,70H114.6V45h5.84Zm48.75-25h5.51l-5,5h-4.07ZM135.25,69.92a7.48,7.48,0,0,1-3.17.55,6.29,6.29,0,0,1-4.58-1.75c-1.09-1.15-1.6-3.05-1.6-5.57V55.53h-2.66V51.25h2.66V45h5.66v6.25h3.62v4.27h-3.62v6.64c0,2.3.47,3.56,2.49,3.56a3.44,3.44,0,0,0,1.2-.17Zm20,.09h-4.75l-.64-1.95h-.06a7.53,7.53,0,0,1-5.86,2.41c-4.17,0-6.43-2.88-6.43-5.73,0-4.84,4.67-7.3,12.23-7.27v-.2c0-.88-.72-2.61-4.13-2.6A11.87,11.87,0,0,0,140,56.18l-1.09-3.69a15.67,15.67,0,0,1,7.68-1.77c6.46,0,8.66,3.7,8.66,8.21Zm21.88,0h-4.61l-.74-2.66a7.22,7.22,0,0,1-.79,1,6.42,6.42,0,0,1-1.26,1,7.8,7.8,0,0,1-1.79.78,7.7,7.7,0,0,1-2.38.33,8.3,8.3,0,0,1-2.83-.46,5.54,5.54,0,0,1-2.2-1.47A7.18,7.18,0,0,1,159,66a11.57,11.57,0,0,1-.53-3.74v-11h5.69v9.91c0,2.94,1,4.68,3.42,4.68a3.77,3.77,0,0,0,3.51-2.41,3.12,3.12,0,0,0,.2-1.19v-11h5.77Z"/><path class="cls-2" d="M148.74,61.11a15.46,15.46,0,0,0-1.73.15c-2.24.35-3.75,1.26-3.75,3,0,1.58,1.1,2.4,2.7,2.4a4,4,0,0,0,3.73-2.37l0-.09a1.7,1.7,0,0,0,0-.2,4.16,4.16,0,0,0,.1-.94v-2C149.49,61.09,149.11,61.11,148.74,61.11Z"/></g></g></svg>