<svg xmlns="http://www.w3.org/2000/svg" viewBox="0 0 80 94.62"><defs><style>.cls-1{fill:#fff;}</style></defs><title>logo-2</title><g id="Layer_2" data-name="Layer 2"><g id="outline"><path class="cls-1" d="M0,0V80H46.13l2.49-2.49H77.51V48.62L80,46.13V0ZM77,45.18l-32,32H3v-74H77Z"/><path class="cls-1" d="M44.4,48.17a1.71,1.71,0,0,1-1.27.44A4.2,4.2,0,0,1,41.3,48l-.5-.25a1.15,1.15,0,0,0-.54-.09,1.21,1.21,0,0,0-.87.33,1.06,1.06,0,0,0-.3.76c0,.81,1,1.37,2.46,1.37a6,6,0,0,0,4.4-1.59c1.44-1.44,2.14-3.79,2.14-7.19V32.47c0-.87.33-1.45,2-1.45h.5V30H42.62v1h.5a2.31,2.31,0,0,1,1.63.43,1.39,1.39,0,0,1,.33,1v13A3.83,3.83,0,0,1,44.4,48.17Z"/><path class="cls-1" d="M56.4,30.68a2,2,0,0,1-.27.79l-5,10.94c-.55,1.2-.76,1.65-2.47,1.67h-.21v1.1h6.74V44.06l-.32,0c-.29,0-.57,0-.8,0a2,2,0,0,1-1.36-.31.47.47,0,0,1-.13-.35,2.05,2.05,0,0,1,.21-.72l1.85-4H60l1.8,4a2.67,2.67,0,0,1,.24.77.41.41,0,0,1-.12.31,2.39,2.39,0,0,1-1.53.31c-.27,0-.59,0-.93,0l-.28,0v1.11h8.28v-1.1H67c-1.25,0-1.56-.54-2.13-1.78L59.37,30H56.07l.2.33A.78.78,0,0,1,56.4,30.68Zm3,6.68H55.27l2.09-4.56Z"/><path class="cls-1" d="M15,43.33a12.15,12.15,0,0,0,7,1.84H32V44.07l-.32,0c-.29,0-.57,0-.8,0a2.06,2.06,0,0,1-1.36-.31.47.47,0,0,1-.13-.35,2.11,2.11,0,0,1,.21-.72l1.85-4h5.36l1.8,4a2.67,2.67,0,0,1,.24.77.42.42,0,0,1-.11.31,2.41,2.41,0,0,1-1.53.31c-.25,0-.56,0-.88,0l-.33,0v1.11h8.28v-1.1h-.5c-1.26,0-1.56-.54-2.13-1.78L36.12,30H32.83l.2.33a.78.78,0,0,1,.12.36,2,2,0,0,1-.27.79L28.57,41c-1,2-3.26,3.06-6.33,3.06a7.32,7.32,0,0,1-5.32-2A7,7,0,0,1,15,37a5.78,5.78,0,0,1,2-4.44,7.61,7.61,0,0,1,4.79-1.6,6.46,6.46,0,0,1,6.06,3.54l.06.12,1.07,0-.29-3.86-.24.05a2.63,2.63,0,0,1-.52.06,4.06,4.06,0,0,1-.75-.1l-.28,0a31.79,31.79,0,0,0-5.36-.85,9.79,9.79,0,0,0-7.82,3.33,7.1,7.1,0,0,0-1.93,4.74A6.48,6.48,0,0,0,15,43.33ZM34.11,32.79l2.07,4.56H32Z"/><path class="cls-1" d="M43.57,27.43l-.32,0c-.3,0-.57,0-.8,0a2,2,0,0,1-1.36-.31.47.47,0,0,1-.13-.35,2.11,2.11,0,0,1,.21-.72l1.86-4h5.37l1.8,4a2.65,2.65,0,0,1,.24.77.4.4,0,0,1-.12.31,2.38,2.38,0,0,1-1.53.31c-.26,0-.56,0-.88,0l-.33,0v1.11h8.28v-1.1h-.5c-1.25,0-1.56-.55-2.13-1.77L47.71,13.36H44.42l.2.33a.74.74,0,0,1,.12.36,1.92,1.92,0,0,1-.27.79L40,24.72s-1,2.69-3.32,2.69H33.13a1.94,1.94,0,0,1-1.36-.32c-.2-.2-.29-.54-.29-1.18V16.05c0-.91.35-1.47,2.11-1.47.23,0,.49,0,.73,0l.23,0V13.54H25.93V14.6h.5a2.27,2.27,0,0,1,1.63.44,1.36,1.36,0,0,1,.33,1V26a1.35,1.35,0,0,1-.32,1,2.27,2.27,0,0,1-1.64.43h-.5v1.1H43.57Zm2.14-11.27,2.07,4.56H43.62Z"/><path class="cls-1" d="M17.23,49.11a13.84,13.84,0,0,0-2,.76l.14.31a1.68,1.68,0,0,1,.41-.1c.07,0,.12.07.12.17a1.9,1.9,0,0,1,0,.22l-.46,2.12a.78.78,0,0,0-.65-.37,2.4,2.4,0,0,0-1.46.94A4.26,4.26,0,0,0,12,56.09c0,.93.41,1.46.92,1.46s1-.58,1.87-1.7a6.32,6.32,0,0,0-.14,1c0,.43.19.65.54.65s1.11-.47,1.8-1.42l-.22-.19c-.3.42-.55.62-.66.62s-.08,0-.08-.11a.65.65,0,0,1,0-.13l1.38-6.68a1.61,1.61,0,0,0,0-.36A.2.2,0,0,0,17.23,49.11Zm-2.31,6c-.57.86-1,1.31-1.26,1.31s-.25-.2-.25-.58c0-1.74.63-3,1.11-3,.28,0,.48.31.68,1Z"/><path class="cls-1" d="M21.2,56.26a2.66,2.66,0,0,1-1.34.54c-.58,0-.9-.37-.9-1.06A3.47,3.47,0,0,1,19,55.1c1.77-.46,2.66-1,2.66-1.9a1,1,0,0,0-1.09-.94,2.9,2.9,0,0,0-2,1.13,4,4,0,0,0-1,2.57c0,1.07.48,1.62,1.4,1.62a4.27,4.27,0,0,0,2.44-1.1ZM20.13,52.7c.22,0,.35.16.35.46a1.65,1.65,0,0,1-1.37,1.59C19.41,53.38,19.73,52.7,20.13,52.7Z"/><path class="cls-1" d="M29.63,52.27l-.59,0a4,4,0,0,0-2.43.76,4.13,4.13,0,0,0-1.87,3.32c0,.77.32,1.18.77,1.18s.74-.29,1.33-.84l.59-.55a4.36,4.36,0,0,0-.07.67c0,.53.17.77.57.77s1-.48,1.89-1.3l-.22-.21c-.42.41-.69.59-.78.59s-.09,0-.09-.13a1.21,1.21,0,0,1,0-.28Zm-2.06,3.27-.48.43c-.27.25-.45.42-.7.42s-.49-.32-.49-.82A2.39,2.39,0,0,1,28,53h.09Z"/><path class="cls-1" d="M30.6,56.85a1.9,1.9,0,0,0-.06.46c0,.09.13.17.38.17h.45c.49,0,.5-.12.63-.74l.34-1.62c.85-1.11,1.32-1.7,1.59-1.7.12,0,.18.07.18.22a1.5,1.5,0,0,1,0,.34l-.49,2a4.65,4.65,0,0,0-.15.93c0,.44.16.63.56.63.67,0,1.28-.49,2-1.46l-.25-.21c-.4.51-.68.76-.8.76s-.11-.06-.11-.15a1.06,1.06,0,0,1,0-.25l.7-2.68a2.7,2.7,0,0,0,.08-.57c0-.49-.2-.74-.58-.74-.62,0-1.51.68-2.56,2.06l1-4.84c0-.12,0-.19,0-.2a.16.16,0,0,0-.14-.16,14.71,14.71,0,0,0-2.12.75l.1.3a1.43,1.43,0,0,1,.41-.08c.08,0,.13.08.13.23a1.2,1.2,0,0,1,0,.25Z"/><path class="cls-1" d="M36.49,55.84c0,1.17.48,1.79,1.37,1.79a3.47,3.47,0,0,0,2.64-1.46A3.37,3.37,0,0,0,41.21,54c0-1.13-.5-1.75-1.4-1.75a3.39,3.39,0,0,0-2.11.92A3.45,3.45,0,0,0,36.49,55.84Zm2.62-3c.43,0,.69.55.69,1.59,0,1.54-.72,2.66-1.22,2.66s-.64-.51-.64-1.47C37.92,53.92,38.55,52.83,39.1,52.83Z"/><path class="cls-1" d="M42.13,57.19s0,.06,0,.09.1.22.37.22h.62c.22,0,.33-.07.36-.23l.07-.29c.46-2.16.94-3.24,1.59-3.24h.3c.43,0,.67-.35.67-1,0-.32-.15-.49-.44-.49-.71,0-1.2.93-1.93,2.74h0A16.2,16.2,0,0,0,44,52.74c0-.36-.08-.51-.34-.51s-1,.53-1.83,1.62L42,54c.3-.41.49-.62.61-.62s.06.07.06.2a10,10,0,0,1-.15,1Z"/><path class="cls-1" d="M50.31,52.75c0-.32-.15-.49-.44-.49-.71,0-1.2.93-1.93,2.74h0a15.92,15.92,0,0,0,.29-2.27c0-.36-.08-.51-.34-.51s-1.05.53-1.83,1.62l.25.17c.3-.41.49-.62.6-.62s.06.07.06.2a9.6,9.6,0,0,1-.15,1l-.43,2.57s0,.06,0,.09.11.22.37.22h.62c.22,0,.33-.07.36-.23l.07-.29c.46-2.16.93-3.24,1.59-3.24h.31C50.07,53.74,50.31,53.39,50.31,52.75Z"/><path class="cls-1" d="M53,52.27a3.39,3.39,0,0,0-2.11.92,3.45,3.45,0,0,0-1.22,2.65c0,1.17.48,1.79,1.37,1.79a3.47,3.47,0,0,0,2.64-1.46A3.37,3.37,0,0,0,54.36,54C54.36,52.89,53.86,52.27,53,52.27Zm-1.25,4.81c-.4,0-.64-.51-.64-1.47,0-1.69.63-2.78,1.18-2.78s.69.55.69,1.59C52.93,56,52.21,57.08,51.71,57.08Z"/><path class="cls-1" d="M14.53,68.17c-.42-.08-.61-.12-.61-.33a12.17,12.17,0,0,1,1.48-3.18c1-1.74,1.83-2.74,1.83-3.51a.71.71,0,0,0-.77-.7.77.77,0,0,0-.82.78c0,.29.24.41.24.8a11.46,11.46,0,0,1-1.2,3.28c.06-.81.08-1.4.08-1.8,0-2-.42-3.07-1.11-3.07-.51,0-1.17.47-1.67,1.37l.29.13c.21-.28.4-.45.55-.45.31,0,.58,1,.58,2.87A5,5,0,0,1,13.24,66a7.81,7.81,0,0,1-.69,1.62c-.28.42-.56.5-1.2.57l-.07.33h3.2Z"/><path class="cls-1" d="M21.3,61.08c.29,0,.33.28.47.53a.68.68,0,0,0,.63.41.65.65,0,0,0,.66-.7c0-.48-.4-.81-1-.81a1.9,1.9,0,0,0-2,1.65c0,.64.43,1.1,1,1.74.4.42.65.68.65.95a.31.31,0,0,1-.35.34,1.09,1.09,0,0,1-.67-.29c-.35-.3-.59-.57-1-.57a.65.65,0,0,0-.65.72c0,.49.42.79,1.2.79,1.38,0,2.26-.78,2.26-1.75a2,2,0,0,0-.7-1.35c-.5-.57-.86-.91-.86-1.3C21,61.21,21.11,61.08,21.3,61.08Z"/><path class="cls-1" d="M26.69,64.5a2.69,2.69,0,0,1-1.34.54c-.58,0-.9-.37-.9-1.06a3.54,3.54,0,0,1,.06-.64c1.77-.45,2.66-1,2.66-1.9a1,1,0,0,0-1.09-.95,2.89,2.89,0,0,0-2,1.13,4,4,0,0,0-1,2.57c0,1.08.48,1.62,1.4,1.62a4.26,4.26,0,0,0,2.44-1.1Zm-1.08-3.56c.22,0,.35.16.35.46A1.65,1.65,0,0,1,24.59,63C24.89,61.62,25.22,60.94,25.61,60.94Z"/><path class="cls-1" d="M28.33,61.17a2.59,2.59,0,0,0-1.06,1.92,1.79,1.79,0,0,0,1.18,1.7c-.5.18-.76.47-.76.83a.73.73,0,0,0,.07.3c-1.43.61-2.15,1.13-2.15,1.65s1,.93,2.7.93,2.8-.55,2.8-1.25-.62-.91-1.46-1.42c-.62-.37-.92-.64-.92-.78s.45-.25,1.06-.51a2.56,2.56,0,0,0,1.78-2.28,2.19,2.19,0,0,0-.24-1h.15a2.11,2.11,0,0,1,.48,0v-.72a8.46,8.46,0,0,0-1.5-.16A3.39,3.39,0,0,0,28.33,61.17Zm1.54,6.56c0,.23-.47.43-1.33.43s-1.61-.38-1.61-.86.36-.85,1-1.06C29,67.2,29.87,67.35,29.87,67.72Zm-.08-3.85c-.15.32-.29.48-.51.48s-.61-.37-.61-1.07c0-1.42.62-2.4,1.06-2.4s.51.32.51,1A4.87,4.87,0,0,1,29.79,63.87Z"/><path class="cls-1" d="M36.58,64.69c-.06,0-.1-.06-.1-.18s0-.14,0-.28l.59-3a3.14,3.14,0,0,0,.07-.48c0-.09-.13-.16-.38-.16H36.4c-.5,0-.5.13-.64.74l-.21.94c-.75,1.54-1.45,2.27-1.63,2.27s-.14-.08-.14-.22a1.73,1.73,0,0,1,0-.34l.4-1.84a7.17,7.17,0,0,0,.17-1c0-.4-.2-.6-.56-.6-.67,0-1.16.53-1.87,1.53l.23.18c.32-.42.5-.64.59-.64s.1,0,.1.15a3.12,3.12,0,0,1-.07.43l-.47,2.32a4.41,4.41,0,0,0-.12.81c0,.37.15.56.48.56.51,0,1.48-.79,2.61-2.46l-.26,1.35a2.92,2.92,0,0,0-.07.6c0,.32.15.5.44.5.5,0,1.25-.51,2.09-1.58L37.31,64C37,64.47,36.75,64.69,36.58,64.69Z"/><path class="cls-1" d="M42,61c0-.32-.15-.49-.44-.49-.71,0-1.2.93-1.93,2.74h0A16.23,16.23,0,0,0,39.86,61c0-.36-.08-.51-.34-.51s-1.05.53-1.83,1.62l.24.18c.3-.41.49-.62.61-.62s.06.07.06.2a9.84,9.84,0,0,1-.15,1L38,65.43s0,.06,0,.09.1.22.37.22H39c.22,0,.33-.07.36-.23l.07-.29C39.88,63.05,40.36,62,41,62h.3C41.75,62,42,61.63,42,61Z"/><path class="cls-1" d="M44.63,60.51a3.4,3.4,0,0,0-2.11.92,3.44,3.44,0,0,0-1.22,2.65c0,1.17.48,1.79,1.37,1.79a3.47,3.47,0,0,0,2.64-1.46A3.4,3.4,0,0,0,46,62.26C46,61.13,45.53,60.51,44.63,60.51Zm-1.25,4.81c-.4,0-.64-.51-.64-1.47,0-1.69.63-2.78,1.18-2.78s.69.55.69,1.59C44.61,64.2,43.89,65.32,43.38,65.32Z"/><path class="cls-1" d="M32.4,94.09h-.87V90H32c.84,0,1.31.51,1.49,2h.31V87.64h-.3s-.06,1.84-1.53,1.81h-.46V85.58c2.42,0,3.31-.12,3.73,2.85h.26V85.13h-6.6v.45h1.14v8.51H28.82v.45h6.8V91.06h-.34C34.94,93.69,34.27,94.09,32.4,94.09Z"/><path class="cls-1" d="M28.84,89.62H25.12V90h1.27V93.1c-.22.78-1.36,1.1-1.7,1.1-2.38,0-2.21-3.48-2.21-4.41s-.09-4.41,2.21-4.41c1.62,0,2.47,1.61,2.81,3.05h.26c0-.6,0-3.43,0-3.42s-1.11.8-1.11.79a2.24,2.24,0,0,0-2-.76c-2.81,0-3.83,2.8-3.82,4.75,0,1.79.84,4.83,3.82,4.83a2.28,2.28,0,0,0,2-1s1.18.93,1.19.94V90h1Z"/><path class="cls-1" d="M69.46,94.08h-.11v-8.5h1.19v-.46H66.63v.46h1.19v8.5h-.95L63.4,84.87h-.51S60,93.23,60,93.25s-.22.72-.7.81-.4-.21-.4-.29V92.16a2.89,2.89,0,0,0-.47-1.83,2.52,2.52,0,0,0-1.31-.55,2.66,2.66,0,0,0,2.14-2.47c0-1.42-1-2.13-2.64-2.19H51.91v.46h1.2v8.5h-1.2v.45h3.85v-.45h-1.2V90h1.6c2.78.23-.48,4.55,3.16,4.54h2.3v-.45c-.13,0-1,0-1-.56a8.92,8.92,0,0,1,.55-1.95h3.13s1,2.51,1,2.51H64.16v.45h8.51V91.06h-.34C72,93.69,71.33,94.08,69.46,94.08ZM56.09,89.52H54.56V85.58h2c1.15.17,1.19,1.5,1.19,1.92C57.71,88.52,57.28,89.52,56.09,89.52Zm5.27,1.62,1.36-4.07,1.45,4.07Z"/><path class="cls-1" d="M48.14,94.09h-.87V90h.5c.84,0,1.32.51,1.49,2h.31V87.64h-.3s-.06,1.84-1.53,1.81h-.46V85.58c2.42,0,3.32-.12,3.74,2.85h.26V85.13H41.65v.45h.25c.34,0,1.15,0,1.19.73h0v5.43l-4.5-6.61H36.14v.45h.41c.48,0,1.16,0,1.19.73v7c0,.68-1,.94-1.44.94h0v.34h3.31V94.2c-.42,0-1.45-.26-1.45-.94V87.15c1.78,2.55,5.14,7.4,5.18,7.39h.17V86.31c0-.71.85-.73,1.19-.73h1.1v8.51H44.56v.45h6.8V91.06H51C50.68,93.69,50,94.09,48.14,94.09Z"/><polygon class="cls-1" points="73.11 85.58 74.32 85.58 74.32 94.08 73.11 94.08 73.11 94.54 76.95 94.54 76.95 94.08 75.75 94.08 75.75 85.58 76.95 85.58 76.95 85.12 73.11 85.12 73.11 85.58"/><path class="cls-1" d="M16.77,93.55h0c.49-.2.56-.33.54-.66V91.56c.37,1,.73,1.62,1.46,1.62a1.45,1.45,0,0,0,.32,0l.28-.06-.19-.22a1.76,1.76,0,0,1-.25-.37l-.09-.16a.73.73,0,0,0-.9-.22c-.15-.3-.3-.68-.48-1.16l0-.09-.09-.21h0a6.76,6.76,0,0,0-.37-.74,4.2,4.2,0,0,0-.4-.57A2.42,2.42,0,0,0,15,88.51a8.62,8.62,0,0,0-1.1-.1h-.25l-.87-.07-.65-.05a.71.71,0,0,0,0-.16,1,1,0,0,0,0-.2H14.6A1.4,1.4,0,0,0,16,87.09a1.4,1.4,0,0,0,1.34-.84h.09a1.41,1.41,0,0,0,1.38-.88l.11-.24H10.63a1.23,1.23,0,0,0-1.18.9v0a1.75,1.75,0,0,0-.73-.92,1.83,1.83,0,0,0-1.39-.24,1.45,1.45,0,0,0-.71.46,2.67,2.67,0,0,0-.28.45.53.53,0,0,0-.11.12l-.1.18h0a2.35,2.35,0,0,1-.37.58.39.39,0,0,0-.1.33.44.44,0,0,0,.11.21h0a.38.38,0,0,0,0,.19.4.4,0,0,0,.42.38.82.82,0,0,0,.45-.18,1.23,1.23,0,0,1,.27-.15.13.13,0,0,1,.13.12c0,.18-.23.27-.39.29l-.33,0c-.24,0-.36.15-.36.26a.29.29,0,0,0,.09.22l0,0,.08.08-.36.57a1.33,1.33,0,0,0-.81-.38.57.57,0,0,0-.42.15l-.08.1h0a.74.74,0,0,0-.62.32.75.75,0,0,0,.07.75l-.9.23v4.28H19.42v-.85h-3Zm1.77-1,.09.15.1.18a.82.82,0,0,1-.64-.43A.39.39,0,0,1,18.55,92.52ZM15,88.85a2.09,2.09,0,0,1,1.29.71l.2.26a1.87,1.87,0,0,1-1.7-1Zm-.39-1.28H12.93a1.57,1.57,0,0,0,.36-.48h2.27A1.06,1.06,0,0,1,14.6,87.57Zm1.33-.82H14.26a1.56,1.56,0,0,0,.37-.5h2.28A1.05,1.05,0,0,1,15.94,86.75ZM16,85.47h2.27a1.06,1.06,0,0,1-.93.44H15.71A1.51,1.51,0,0,0,16,85.47Zm-9.16.09a1,1,0,0,1,.24-.21,1.12,1.12,0,0,1,.29-.13,1.2,1.2,0,0,1,.55,0l-.6.37H7.15l-.28,0Zm-.66,2.61h.29c.36,0,.72-.16.76-.53a.47.47,0,0,0-.43-.5,1,1,0,0,0-.46.21.63.63,0,0,1-.27.13s-.08,0-.08-.05h0l.19-.25-.16-.11S6,87,6,87s0,0,0,0a3.13,3.13,0,0,0,.22-.29c0-.07.07-.1.16-.1a.14.14,0,0,1,.14.14c0,.05.06.09.13.09s.1,0,.14-.09.17-.15.08-.23-.51.09-.39-.28l0-.05a.83.83,0,0,1,.64-.2l.24,0h.06l.85-.52v0h0a.74.74,0,0,1-.38.71l-.1.06.07.38a.49.49,0,0,0-.37.45,1.61,1.61,0,0,0,0,.27,2.85,2.85,0,0,1,.06.39c0,.4-.55.66-1,.65h0a1.19,1.19,0,0,1-.39-.08.06.06,0,0,1,0-.05A0,0,0,0,1,6.23,88.17ZM4.09,89.46a.4.4,0,0,1,.41-.16l.15,0,0-.14a.21.21,0,0,1,.05-.09A.25.25,0,0,1,4.92,89a1.07,1.07,0,0,1,.67.37,1.74,1.74,0,0,1,.2.27l0,.06,0,.05A1.13,1.13,0,0,1,6,90l.21-.3s0,0,0,0l-.07-.13,0,0h0l0,0L6,89.35l.44-.71a1.33,1.33,0,0,0,.25,0h0c.62,0,1.27-.36,1.27-1H8a3,3,0,0,0-.06-.45,1.46,1.46,0,0,1,0-.2c0-.07.09-.14.23-.14h.2l-.09-.52a1.09,1.09,0,0,0,.45-.88,1.56,1.56,0,0,1,.56,1.08,1.75,1.75,0,0,1-.05.49l0,.08h0a6.38,6.38,0,0,1-.24.76L8.86,88l.13.07c.23.13.37.22.37.53a.73.73,0,0,1-.61.67l-.41.08.35.23a.39.39,0,0,1,.18.32.4.4,0,0,1-.41.39H8.32l0,.12c-.13.41-.27.62-.71.66a2.33,2.33,0,0,0,0-.42s0-.15,0-.19l0-.39-.27.28a.85.85,0,0,1-.43.2v-.34l-1.94-.51-.69.18A.52.52,0,0,1,4.09,89.46Zm-.56,4.22,1.4-.36,1.4.36Zm3-.3L4.93,93l-1.6.42V90.52l1.6-.42,1.6.42Zm.75-.56a1,1,0,0,0-.05.86H6.87V90.93a1.46,1.46,0,0,0,.39-.11,2.8,2.8,0,0,1,0,.34l0,.09,0,.2h.2a1.51,1.51,0,0,0,.7-.14v1.15a.05.05,0,0,1-.05.05H8A.81.81,0,0,0,7.28,92.83Zm3.53.86H8.72a.76.76,0,0,0,.5-.19A.63.63,0,0,0,9.37,93s0-.06.13-.1l.18-.08-.11-.17a2,2,0,0,1,0-1.2h0a4.81,4.81,0,0,0,1.64-.3l.39-.12h0l.34-.09.68,1.12h0c.07.1.08.16,0,.3l-.34.37-.56-.1h0a.78.78,0,0,0-.69.25A.87.87,0,0,0,10.81,93.68Zm.35,0a.6.6,0,0,1,.07-.56.44.44,0,0,1,.38-.14l.65.12h.11l.46-.49h0a.55.55,0,0,0,.07-.72l-.61-1,.3,0h0a1.36,1.36,0,0,1,.64.19l.17.36c.13.26.29.58.33.71a.29.29,0,0,1-.1.32l-1.17,1.24Zm4,0H12.94l.95-1a.64.64,0,0,0,.17-.67c0-.14-.17-.39-.3-.66a6.14,6.14,0,0,0,2.11.43c.14,0,.18.06.2.19l.05.5-.61.14a.59.59,0,0,0-.44.37A.86.86,0,0,0,15.15,93.68Zm.24-.59a.24.24,0,0,1,.19-.16l.91-.2-.08-.81v0a.53.53,0,0,0-.51-.46,4.27,4.27,0,0,1-2.4-.63h0l0,0a1.71,1.71,0,0,0-.88-.27,4.42,4.42,0,0,0-1.09.2l-.4.12a4.4,4.4,0,0,1-1.69.28H9.27l0,.13a2.82,2.82,0,0,0,0,1.44A.41.41,0,0,0,9,93c0,.18,0,.22,0,.24a1.12,1.12,0,0,1-.61.1H8.28l-.05.07a.67.67,0,0,1-.67.2.71.71,0,0,1,0-.6A.5.5,0,0,1,8,92.86H8a.39.39,0,0,0,.39-.39V91a1.64,1.64,0,0,0,.16-.35.74.74,0,0,0,.63-.72.72.72,0,0,0-.12-.39,1,1,0,0,0,.61-.91.81.81,0,0,0-.42-.75,6.66,6.66,0,0,0,.22-.74l.28-1a.9.9,0,0,1,.85-.66h5a1.06,1.06,0,0,1-.93.44h-3l-.16.34h2.72a1.05,1.05,0,0,1-1,.5h-2l-.16.34H12.9a1.05,1.05,0,0,1-1,.48H10.86l-.16.34h1.13a.35.35,0,0,1,0,.2.4.4,0,0,1-.41.4.65.65,0,0,1-.26-.06l-.15-.06-.26.24.15.06h0a1.25,1.25,0,0,0,.52.15.73.73,0,0,0,.53-.22l.81.06.88.07h.25l.42,0a2.42,2.42,0,0,0,2.37,1.42c.1.17.18.35.26.53V92.9h0c0,.1,0,.13,0,.15a1.15,1.15,0,0,1-.32.18l-1.12.42A.62.62,0,0,1,15.39,93.09Z"/><polygon class="cls-1" points="6.18 90.96 5.1 90.68 5.1 91.03 6.18 91.31 6.18 90.96"/><polygon class="cls-1" points="3.68 91.31 4.75 91.03 4.75 90.68 3.68 90.96 3.68 91.31"/><polygon class="cls-1" points="3.68 92.01 4.75 91.74 4.75 91.39 3.68 91.66 3.68 92.01"/><polygon class="cls-1" points="6.18 91.66 5.1 91.39 5.1 91.74 6.18 92.01 6.18 91.66"/><polygon class="cls-1" points="6.18 92.37 5.1 92.09 5.1 92.44 6.18 92.72 6.18 92.37"/><polygon class="cls-1" points="3.68 92.72 4.75 92.44 4.75 92.09 3.68 92.37 3.68 92.72"/></g></g></svg>