<svg xmlns="http://www.w3.org/2000/svg" viewBox="0 0 80 96.04"><defs><style>.cls-1{fill:#193e73;}.cls-2{fill:#fff;}.cls-3{fill:#d53a3e;}.cls-4{fill:#c02126;}</style></defs><title>logo</title><g id="Layer_2" data-name="Layer 2"><g id="Layer_1-2" data-name="Layer 1"><polygon class="cls-1" points="80 45.34 80 0 0 0 0 80 45.34 80 80 45.34"/><path class="cls-2" d="M51.44,30V28.94H42.87V30h.54a2.5,2.5,0,0,1,1.76.47,1.5,1.5,0,0,1,.36,1.1v14c0,1.5-.23,2.44-.74,2.94a1.85,1.85,0,0,1-1.38.48,4.54,4.54,0,0,1-2-.69l-.54-.27a1.24,1.24,0,0,0-.59-.1,1.31,1.31,0,0,0-.94.36,1.15,1.15,0,0,0-.33.82c0,.87,1.1,1.48,2.66,1.48a6.45,6.45,0,0,0,4.76-1.72c1.55-1.55,2.31-4.1,2.31-7.78V31.59c0-.94.36-1.57,2.11-1.57Z"/><path class="cls-2" d="M56.55,36.88,58.81,32,61,36.88Zm12.7,7.27c-1.35,0-1.68-.59-2.3-1.92L61,28.92H57.42l.22.35a.84.84,0,0,1,.13.39,2.18,2.18,0,0,1-.29.85L52.11,42.34c-.59,1.3-.82,1.78-2.67,1.81h-.23v1.18H56.5v-1.2l-.35,0c-.32,0-.62,0-.87,0a2.22,2.22,0,0,1-1.47-.33.5.5,0,0,1-.14-.38,2.22,2.22,0,0,1,.23-.78l2-4.28h5.8l1.95,4.27a2.89,2.89,0,0,1,.26.83.45.45,0,0,1-.13.34,2.59,2.59,0,0,1-1.65.33c-.29,0-.64,0-1,0l-.31,0v1.2h9V44.15Z"/><path class="cls-2" d="M31.41,36.87l2.26-4.93,2.24,4.93ZM37,44.2c-.28,0-.6,0-1,0l-.36,0v1.2h9V44.15h-.54c-1.36,0-1.69-.59-2.3-1.92l-6-13.31H32.28l.21.35a.85.85,0,0,1,.13.39,2.14,2.14,0,0,1-.29.85L27.68,40.79c-1.1,2.14-3.53,3.31-6.84,3.31a7.91,7.91,0,0,1-5.75-2.17A7.52,7.52,0,0,1,13,36.44a6.25,6.25,0,0,1,2.21-4.81,8.23,8.23,0,0,1,5.18-1.73,7,7,0,0,1,6.55,3.83l.07.12,1.16,0-.31-4.18-.26.06a2.85,2.85,0,0,1-.56.06,4.39,4.39,0,0,1-.81-.1l-.3-.05a34.39,34.39,0,0,0-5.8-.91,10.59,10.59,0,0,0-8.46,3.6,7.68,7.68,0,0,0-2.08,5.13,7,7,0,0,0,3.37,5.92,13.14,13.14,0,0,0,7.61,2h10.8v-1.2l-.35,0c-.32,0-.62,0-.87,0a2.23,2.23,0,0,1-1.47-.33.51.51,0,0,1-.14-.38,2.28,2.28,0,0,1,.23-.78l2-4.28h5.8l1.95,4.28a2.89,2.89,0,0,1,.26.84.46.46,0,0,1-.12.33A2.61,2.61,0,0,1,37,44.2"/><path class="cls-2" d="M46.21,14l2.24,4.93h-4.5ZM43.9,26.15l-.34,0c-.32,0-.62,0-.87,0a2.21,2.21,0,0,1-1.47-.33.5.5,0,0,1-.15-.38,2.29,2.29,0,0,1,.23-.78l2-4.29h5.81l1.94,4.27a2.86,2.86,0,0,1,.26.84.44.44,0,0,1-.13.33,2.57,2.57,0,0,1-1.65.33c-.28,0-.61,0-1,0l-.35,0v1.2h9V26.16h-.54c-1.36,0-1.69-.59-2.31-1.92l-6-13.32H44.82l.22.35a.8.8,0,0,1,.13.39,2.08,2.08,0,0,1-.29.85L40,23.21s-1.1,2.9-3.59,2.9H32.6a2.1,2.1,0,0,1-1.47-.34c-.22-.22-.31-.59-.31-1.27V13.84c0-1,.38-1.59,2.28-1.59.25,0,.52,0,.79,0l.25,0V11.12H24.82v1.15h.54a2.46,2.46,0,0,1,1.76.47,1.47,1.47,0,0,1,.35,1.1V24.61a1.46,1.46,0,0,1-.35,1.08,2.45,2.45,0,0,1-1.77.46h-.54v1.19H43.9Z"/><polygon class="cls-3" points="48.01 77.33 77.33 77.33 77.33 48 48.01 77.33"/><path class="cls-2" d="M13.21,54.63c-.21-.69-.43-1-.73-1-.52,0-1.2,1.36-1.2,3.24,0,.42.1.63.27.63s.74-.48,1.36-1.41Zm-2.49,4.09c-.56,0-1-.57-1-1.58A4.61,4.61,0,0,1,11.18,54a2.6,2.6,0,0,1,1.58-1,.84.84,0,0,1,.71.4l.49-2.3a2.06,2.06,0,0,0,0-.24c0-.11-.05-.19-.13-.19a1.82,1.82,0,0,0-.44.11l-.15-.34a15,15,0,0,1,2.15-.82.21.21,0,0,1,.23.19,1.74,1.74,0,0,1-.05.39l-1.49,7.22a.7.7,0,0,0,0,.14c0,.08,0,.11.09.11s.39-.21.72-.67l.24.2c-.75,1-1.42,1.54-1.95,1.54-.38,0-.58-.24-.58-.71a6.83,6.83,0,0,1,.15-1.13c-.91,1.21-1.57,1.84-2,1.84"/><path class="cls-2" d="M18.92,54c0-.32-.14-.49-.37-.49-.43,0-.78.73-1.11,2.21A1.78,1.78,0,0,0,18.92,54m-1.68,4.77c-1,0-1.51-.59-1.51-1.76a4.28,4.28,0,0,1,1.11-2.78A3.13,3.13,0,0,1,19,53a1,1,0,0,1,1.17,1c0,.95-1,1.57-2.88,2.06a3.75,3.75,0,0,0-.06.69c0,.75.34,1.15,1,1.15a2.88,2.88,0,0,0,1.45-.58l.18.23a4.62,4.62,0,0,1-2.64,1.19"/><path class="cls-2" d="M27.16,53.83h-.1a2.58,2.58,0,0,0-2.29,2.75c0,.54.26.88.53.88s.46-.19.76-.46l.52-.46ZM25.8,57.77c-.64.59-1.07.91-1.44.91s-.83-.44-.83-1.28a4.47,4.47,0,0,1,2-3.6A4.38,4.38,0,0,1,28.18,53l.64,0-.94,4.29a1.31,1.31,0,0,0,0,.3c0,.09,0,.14.1.14s.39-.2.84-.64l.24.23c-1,.88-1.55,1.4-2,1.4s-.62-.26-.62-.83a4.73,4.73,0,0,1,.07-.72Z"/><path class="cls-2" d="M33.66,54.49c0-.16-.06-.24-.19-.24-.29,0-.79.64-1.71,1.84l-.37,1.75c-.14.67-.15.79-.68.79h-.49c-.27,0-.41-.09-.41-.19a2,2,0,0,1,.06-.49l1.43-6.78a1.3,1.3,0,0,0,0-.27c0-.16-.05-.25-.14-.25a1.54,1.54,0,0,0-.44.09l-.11-.33a15.9,15.9,0,0,1,2.3-.81.17.17,0,0,1,.15.18s0,.09,0,.21l-1.12,5.24C33.06,53.76,34,53,34.69,53c.41,0,.63.27.63.8a2.92,2.92,0,0,1-.09.62l-.76,2.9a1.15,1.15,0,0,0,0,.27c0,.1.05.16.11.16s.44-.26.87-.82l.27.23c-.78,1-1.45,1.58-2.17,1.58-.43,0-.61-.2-.61-.68a5,5,0,0,1,.16-1l.53-2.21a1.62,1.62,0,0,0,0-.37"/><path class="cls-2" d="M38.48,58.21c.54,0,1.32-1.21,1.32-2.88,0-1.12-.28-1.72-.74-1.72s-1.28,1.18-1.28,3c0,1,.27,1.59.7,1.59M37.55,54a3.67,3.67,0,0,1,2.28-1c1,0,1.51.67,1.51,1.89a3.65,3.65,0,0,1-.78,2.32,3.75,3.75,0,0,1-2.85,1.58c-1,0-1.48-.67-1.48-1.93A3.73,3.73,0,0,1,37.55,54"/><path class="cls-2" d="M42,54.72c.85-1.19,1.56-1.75,2-1.75s.37.16.37.55A17.51,17.51,0,0,1,44,56h.05c.78-2,1.31-3,2.08-3,.32,0,.48.19.48.53,0,.69-.25,1.07-.72,1.07h-.33c-.71,0-1.23,1.17-1.72,3.51l-.07.32c0,.18-.15.25-.39.25h-.67c-.29,0-.4-.06-.4-.24s0-.06,0-.1l.47-2.78a10.81,10.81,0,0,0,.16-1.1c0-.14,0-.22-.06-.22s-.33.23-.66.67Z"/><path class="cls-2" d="M46.54,54.72c.85-1.19,1.57-1.75,2-1.75s.37.16.37.55A17.22,17.22,0,0,1,48.57,56h0c.78-2,1.31-3,2.08-3,.32,0,.48.19.48.53,0,.69-.25,1.07-.72,1.07h-.33c-.71,0-1.22,1.17-1.72,3.51l-.07.32c0,.18-.15.25-.39.25h-.67c-.29,0-.4-.06-.4-.24s0-.06,0-.1l.47-2.78a10.4,10.4,0,0,0,.16-1.1c0-.14,0-.22-.06-.22s-.33.23-.65.67Z"/><path class="cls-2" d="M52.7,58.21c.54,0,1.32-1.21,1.32-2.88,0-1.12-.28-1.72-.74-1.72S52,54.79,52,56.62c0,1,.27,1.59.69,1.59M51.77,54a3.67,3.67,0,0,1,2.28-1c1,0,1.51.67,1.51,1.89a3.65,3.65,0,0,1-.78,2.32,3.75,3.75,0,0,1-2.85,1.58c-1,0-1.48-.67-1.48-1.93A3.73,3.73,0,0,1,51.77,54"/><path class="cls-2" d="M9,70.2c.69-.08,1-.16,1.3-.62a8.45,8.45,0,0,0,.74-1.75,5.45,5.45,0,0,0,.2-1.74c0-2-.29-3.1-.63-3.1-.17,0-.37.19-.6.49l-.32-.14c.54-1,1.25-1.48,1.81-1.48.74,0,1.2,1.15,1.2,3.32,0,.43,0,1.07-.09,1.95A12.39,12.39,0,0,0,14,63.57c0-.43-.26-.56-.26-.87a.83.83,0,0,1,.88-.85.77.77,0,0,1,.83.76c0,.83-.88,1.92-2,3.8a13.16,13.16,0,0,0-1.6,3.44c0,.23.2.26.66.35l-.06.35H9Z"/><path class="cls-2" d="M18.15,66c.39,0,.65.29,1,.62a1.18,1.18,0,0,0,.72.32.33.33,0,0,0,.38-.36c0-.29-.28-.57-.71-1-.66-.69-1.12-1.19-1.12-1.88a2.05,2.05,0,0,1,2.15-1.78c.68,0,1.11.35,1.11.87a.7.7,0,0,1-.71.76.73.73,0,0,1-.68-.44c-.15-.27-.19-.57-.5-.57s-.32.14-.32.38c0,.42.39.78.93,1.4a2.11,2.11,0,0,1,.76,1.46c0,1-1,1.89-2.45,1.89-.85,0-1.3-.33-1.3-.86a.71.71,0,0,1,.71-.78"/><path class="cls-2" d="M24.86,62.88c0-.32-.14-.49-.38-.49-.43,0-.78.73-1.11,2.21a1.78,1.78,0,0,0,1.49-1.72m-1.68,4.77c-1,0-1.52-.59-1.52-1.76a4.29,4.29,0,0,1,1.11-2.78A3.12,3.12,0,0,1,25,61.9a1,1,0,0,1,1.18,1c0,.95-1,1.56-2.88,2.06a3.82,3.82,0,0,0-.06.69c0,.75.34,1.15,1,1.15a2.91,2.91,0,0,0,1.45-.58l.17.23a4.6,4.6,0,0,1-2.64,1.19"/><path class="cls-2" d="M25.9,69.25c0,.52.65.93,1.74.93.93,0,1.44-.21,1.44-.47,0-.41-.94-.57-2.06-1.61-.73.22-1.12.68-1.12,1.15m2.54-3.18c.24,0,.39-.18.56-.52a5.27,5.27,0,0,0,.49-2.18c0-.72-.16-1.06-.55-1.06s-1.15,1.06-1.15,2.6c0,.76.27,1.16.65,1.16m-2.17-1.36a2.8,2.8,0,0,1,1.15-2.08,3.67,3.67,0,0,1,2.3-.8,9.16,9.16,0,0,1,1.63.18v.78a2.28,2.28,0,0,0-.52-.05h-.16a2.37,2.37,0,0,1,.26,1.07A2.77,2.77,0,0,1,29,66.28c-.67.29-1.15.29-1.15.56s.33.44,1,.84c.91.56,1.58.87,1.58,1.54s-1.16,1.35-3,1.35-2.92-.48-2.92-1,.78-1.12,2.33-1.78a.79.79,0,0,1-.08-.33c0-.39.28-.71.82-.9a1.94,1.94,0,0,1-1.27-1.84"/><path class="cls-2" d="M32.15,67.69c-.35,0-.52-.2-.52-.6a4.77,4.77,0,0,1,.13-.87l.5-2.51a3.36,3.36,0,0,0,.07-.47c0-.12,0-.16-.11-.16s-.29.24-.63.7l-.25-.19c.77-1.08,1.3-1.65,2-1.65.39,0,.61.22.61.64a7.77,7.77,0,0,1-.19,1.08l-.43,2a1.87,1.87,0,0,0-.05.37c0,.15.06.24.15.24s1-.79,1.77-2.46l.23-1c.15-.66.15-.8.69-.8h.45c.27,0,.41.08.41.18a3.4,3.4,0,0,1-.08.52l-.64,3.28c0,.15-.05.25-.05.3s.05.19.11.19.41-.24.78-.7l.24.23c-.91,1.15-1.72,1.7-2.26,1.7-.32,0-.48-.19-.48-.54a3.16,3.16,0,0,1,.08-.64L35,65c-1.22,1.81-2.27,2.66-2.83,2.66"/><path class="cls-2" d="M37.54,63.62c.84-1.19,1.56-1.75,2-1.75s.37.16.37.56a17.55,17.55,0,0,1-.32,2.45h0c.78-2,1.31-3,2.08-3,.32,0,.48.19.48.53,0,.69-.25,1.07-.72,1.07h-.33c-.71,0-1.22,1.17-1.72,3.51l-.08.32c0,.18-.15.25-.39.25h-.67c-.29,0-.4-.06-.4-.24s0-.06,0-.1l.47-2.78a10.65,10.65,0,0,0,.17-1.1c0-.14,0-.22-.06-.22s-.33.23-.66.67Z"/><path class="cls-2" d="M43.7,67.12c.54,0,1.33-1.21,1.33-2.88,0-1.12-.28-1.72-.75-1.72S43,63.7,43,65.53c0,1,.27,1.59.7,1.59m-.93-4.2a3.68,3.68,0,0,1,2.28-1c1,0,1.52.67,1.52,1.89a3.68,3.68,0,0,1-.78,2.32,3.76,3.76,0,0,1-2.86,1.58c-1,0-1.48-.67-1.48-1.93a3.72,3.72,0,0,1,1.31-2.86"/><path class="cls-4" d="M30.88,90.44V86.26c2.62,0,3.58-.13,4,3.08h.28V85.76H28.07v.49h1.24v9.2H27.94v.49H35.3V92.18h-.37c-.37,2.84-1.09,3.27-3.11,3.27h-.94V91h.54c.91,0,1.42.55,1.61,2.11h.33V88.48H33s-.06,2-1.65,2Z"/><path class="cls-4" d="M28,90.62h-4v.46h1.38v3.31c-.23.84-1.47,1.19-1.84,1.19-2.57,0-2.39-3.76-2.39-4.77S21,86,23.48,86c1.75,0,2.67,1.74,3,3.3h.28c0-.64,0-3.71,0-3.7s-1.2.86-1.2.85a2.42,2.42,0,0,0-2.12-.82c-3,0-4.15,3-4.14,5.14,0,1.93.91,5.23,4.14,5.23a2.47,2.47,0,0,0,2.12-1.1s1.28,1,1.29,1V91.08H28Z"/><path class="cls-4" d="M75,92.18c-.37,2.84-1.09,3.27-3.11,3.27h-.12v-9.2h1.28v-.5H68.83v.5h1.29v9.2h-1l-3.76-10h-.55s-3.12,9-3.13,9.07-.24.78-.75.88-.44-.23-.44-.31V93.38a3.12,3.12,0,0,0-.51-2,2.73,2.73,0,0,0-1.42-.6,2.87,2.87,0,0,0,2.31-2.67c0-1.54-1.07-2.3-2.86-2.37H52.91v.5h1.3v9.2h-1.3v.49h4.16v-.49h-1.3V91h1.73c3,.25-.52,4.92,3.42,4.91h2.48v-.49c-.14,0-1,0-1.1-.61a9.65,9.65,0,0,1,.6-2.1h3.38s1,2.71,1.06,2.71H66.17v.49h9.21V92.18ZM57.44,90.52H55.78V86.25H57.9c1.24.19,1.29,1.62,1.29,2.08,0,1.1-.46,2.19-1.75,2.19m5.7,1.76,1.47-4.4,1.56,4.4Z"/><path class="cls-4" d="M47.91,86.25c2.62,0,3.59-.13,4,3.09h.28V85.76H41.82v.49h.27c.37,0,1.24,0,1.29.79h0v5.87l-4.86-7.15H35.87v.49h.44c.52,0,1.25,0,1.29.79v7.52c0,.73-1.1,1-1.56,1h0v.36h3.59v-.36c-.46,0-1.56-.28-1.56-1V87.95c1.93,2.75,5.56,8,5.6,8h.18V87c.05-.77.92-.79,1.29-.79h1.19v9.2H45v.49h7.35V92.18h-.37c-.37,2.84-1.09,3.27-3.11,3.27h-.94V91h.54c.91,0,1.42.55,1.61,2.11h.33V88.48h-.33s-.06,2-1.65,2h-.5Z"/><polygon class="cls-4" points="80 86.25 80 85.76 75.85 85.76 75.85 86.25 77.15 86.25 77.16 95.45 75.85 95.45 75.85 95.94 80 95.94 80 95.45 78.7 95.45 78.7 86.25 80 86.25"/><path class="cls-4" d="M14.54,95l.38-.14h0c.53-.22.61-.36.58-.71V92.72c.41,1,.79,1.76,1.58,1.76a1.57,1.57,0,0,0,.34,0l.31-.07-.21-.23a1.9,1.9,0,0,1-.28-.4l-.1-.18a.79.79,0,0,0-1-.24c-.16-.32-.32-.74-.52-1.25l0-.1-.1-.23h0a7.3,7.3,0,0,0-.4-.8,4.54,4.54,0,0,0-.44-.61A2.61,2.61,0,0,0,13,89.43a9.33,9.33,0,0,0-1.19-.11h-.27l-.94-.07-.71-.06A.76.76,0,0,0,10,89a1.07,1.07,0,0,0,0-.22h2.63A1.52,1.52,0,0,0,14,87.89,1.52,1.52,0,0,0,15.48,87h.09a1.52,1.52,0,0,0,1.49-1l.12-.26H8.27a1.33,1.33,0,0,0-1.27,1v0a1.89,1.89,0,0,0-.79-1,2,2,0,0,0-1.5-.26,1.57,1.57,0,0,0-.77.5,2.89,2.89,0,0,0-.3.49.57.57,0,0,0-.12.13l-.11.2h0a2.54,2.54,0,0,1-.41.63.42.42,0,0,0-.11.36A.48.48,0,0,0,3,88H3a.42.42,0,0,0-.05.2.43.43,0,0,0,.46.41.89.89,0,0,0,.49-.19,1.33,1.33,0,0,1,.29-.16.14.14,0,0,1,.14.13c0,.19-.25.3-.43.31l-.36,0c-.26,0-.39.16-.39.29a.31.31,0,0,0,.1.23l0,0,.09.08L3,90.05a1.43,1.43,0,0,0-.88-.42.61.61,0,0,0-.46.16.53.53,0,0,0-.09.11h0a.8.8,0,0,0-.67.34.81.81,0,0,0,.08.81l-1,.25v4.63H17.78V95Zm2.29-1.26.09.16.11.19a.88.88,0,0,1-.69-.46.42.42,0,0,1,.48.11m-3.85-4a2.26,2.26,0,0,1,1.39.77l.22.28a2,2,0,0,1-1.84-1.08l.22,0m-.42-1.38H10.76a1.7,1.7,0,0,0,.39-.52h2.46a1.14,1.14,0,0,1-1,.52M14,87.52H12.2a1.69,1.69,0,0,0,.4-.54h2.46a1.14,1.14,0,0,1-1.05.54m.12-1.39h2.45a1.14,1.14,0,0,1-1,.48H13.77a1.64,1.64,0,0,0,.37-.48m-9.9.09A1.13,1.13,0,0,1,4.49,86a1.21,1.21,0,0,1,.31-.14,1.3,1.3,0,0,1,.59,0l-.65.4H4.51l-.31,0,0,0M3.47,89.1a.05.05,0,0,1,0,0h.32c.39,0,.78-.17.82-.57A.51.51,0,0,0,4.19,88a1,1,0,0,0-.49.22.68.68,0,0,1-.29.14s-.09,0-.09-.06h0l.2-.27-.17-.12s-.1-.07-.1-.1,0,0,0-.05a3.38,3.38,0,0,0,.24-.32c.05-.07.08-.11.17-.11a.15.15,0,0,1,.16.15c0,.06.06.1.14.1s.11-.05.16-.1.18-.17.08-.24-.55.09-.42-.31l0-.06a.9.9,0,0,1,.69-.22l.26,0h.06l.92-.57v0h0a.8.8,0,0,1-.41.77l-.11.06.07.41a.53.53,0,0,0-.4.49,1.75,1.75,0,0,0,0,.29,3.07,3.07,0,0,1,.06.43c0,.43-.59.72-1.1.7h0a1.29,1.29,0,0,1-.42-.09.06.06,0,0,1,0-.06M1.2,90.45a.44.44,0,0,1,.44-.17l.16,0,0-.15a.22.22,0,0,1,.06-.09A.27.27,0,0,1,2.1,90a1.16,1.16,0,0,1,.72.4A1.88,1.88,0,0,1,3,90.7l0,.07,0,.06a1.22,1.22,0,0,1,.11.19l.23-.32s0,0,0,0a1.26,1.26,0,0,0-.08-.14l0,0h0l0,0-.08-.13.48-.77a1.44,1.44,0,0,0,.27,0H4c.68,0,1.38-.39,1.38-1v0A3.29,3.29,0,0,0,5.32,88a1.57,1.57,0,0,1,0-.22c0-.07.1-.15.25-.15h.22l-.1-.57a1.18,1.18,0,0,0,.49-.95,1.68,1.68,0,0,1,.61,1.17,1.89,1.89,0,0,1-.06.53l0,.08h0a6.91,6.91,0,0,1-.26.82l-.05.15.14.08c.25.14.4.24.4.57a.79.79,0,0,1-.66.72l-.44.08.38.25a.42.42,0,0,1,.19.35.44.44,0,0,1-.44.42H5.77l0,.13c-.14.45-.29.67-.77.71a2.52,2.52,0,0,0,0-.45s0-.17,0-.21l0-.42-.3.3a.92.92,0,0,1-.47.22v-.36l-2.1-.55L1.36,91a.56.56,0,0,1-.16-.51M.59,95l1.51-.39L3.62,95Zm3.25-.32L2.1,94.24.37,94.7v-3.1l1.73-.45,1.73.45Zm.81-.6a1,1,0,0,0-.06.93H4.21V92a1.58,1.58,0,0,0,.42-.12,3,3,0,0,1,0,.37l0,.1,0,.22h.22a1.63,1.63,0,0,0,.76-.15V93.7a.06.06,0,0,1-.06.06H5.39a.87.87,0,0,0-.74.33m4,.08a.94.94,0,0,0-.18.85H6.21a.82.82,0,0,0,.54-.21.69.69,0,0,0,.16-.51s0-.06.14-.11l.2-.09-.12-.18a2.12,2.12,0,0,1,0-1.29h0a5.2,5.2,0,0,0,1.78-.33l.43-.13h0l.36-.1.73,1.21h0c.07.1.08.17,0,.33L10,94l-.6-.11h0a.85.85,0,0,0-.75.27m.2.85a.65.65,0,0,1,.08-.6.48.48,0,0,1,.41-.15l.7.13h.12l.49-.53h0a.59.59,0,0,0,.08-.78L10.06,92l.32,0h0a1.47,1.47,0,0,1,.69.2l.19.39c.14.28.31.63.36.77a.31.31,0,0,1-.1.35L10.26,95Zm4.32,0H10.77l1-1.08a.69.69,0,0,0,.19-.72c-.05-.15-.19-.43-.33-.71a6.64,6.64,0,0,0,2.28.46c.15,0,.19.06.22.2l.05.54-.66.15a.63.63,0,0,0-.47.4.93.93,0,0,0,.08.77m.26-.64a.26.26,0,0,1,.2-.17l1-.22-.09-.88v0a.57.57,0,0,0-.55-.5,4.62,4.62,0,0,1-2.59-.68h0l0,0a1.85,1.85,0,0,0-1-.3,4.78,4.78,0,0,0-1.18.21l-.43.14a4.76,4.76,0,0,1-1.82.31H6.8l0,.14a3,3,0,0,0,0,1.56.44.44,0,0,0-.19.35c0,.19,0,.24-.05.26a1.21,1.21,0,0,1-.66.11h-.1l-.06.08A.72.72,0,0,1,5,95a.77.77,0,0,1,0-.65.55.55,0,0,1,.44-.17h.05a.43.43,0,0,0,.42-.43V92.12A1.77,1.77,0,0,0,6,91.74.8.8,0,0,0,6.72,91a.78.78,0,0,0-.12-.42,1.11,1.11,0,0,0,.66-1,.87.87,0,0,0-.45-.81A7.2,7.2,0,0,0,7,88l.31-1.1a1,1,0,0,1,.92-.71H13.7a1.14,1.14,0,0,1-1,.48H9.41L9.24,87h2.95a1.14,1.14,0,0,1-1.05.54H9l-.17.37h1.91a1.14,1.14,0,0,1-1,.52H8.53l-.17.37H9.57a.38.38,0,0,1,0,.22.44.44,0,0,1-.44.43.71.71,0,0,1-.28-.07l-.16-.07-.28.25.16.07h0a1.35,1.35,0,0,0,.57.16.79.79,0,0,0,.57-.24l.87.07,1,.07h.27l.46,0c.74,1.2,1.12,1.36,2.56,1.53.1.19.2.38.28.58v2.34h0c0,.11,0,.14,0,.16a1.25,1.25,0,0,1-.35.19L13.57,95a.67.67,0,0,1-.15-.61"/><polygon class="cls-4" points="3.46 92.07 2.3 91.77 2.3 92.15 3.46 92.45 3.46 92.07"/><polygon class="cls-4" points="0.75 92.45 1.91 92.15 1.91 91.77 0.75 92.07 0.75 92.45"/><polygon class="cls-4" points="0.75 93.21 1.91 92.91 1.91 92.53 0.75 92.83 0.75 93.21"/><polygon class="cls-4" points="3.46 92.83 2.3 92.53 2.3 92.91 3.46 93.21 3.46 92.83"/><polygon class="cls-4" points="3.46 93.6 2.3 93.3 2.3 93.67 3.46 93.98 3.46 93.6"/><polygon class="cls-4" points="0.75 93.98 1.91 93.67 1.91 93.3 0.75 93.6 0.75 93.98"/></g></g></svg>