<?xml version="1.0" encoding="utf-8"?>
<!-- Generator: Adobe Illustrator 19.0.0, SVG Export Plug-In . SVG Version: 6.00 Build 0)  -->
<svg version="1.1" id="Layer_1" xmlns="http://www.w3.org/2000/svg" xmlns:xlink="http://www.w3.org/1999/xlink" x="0px" y="0px"
	 viewBox="0 0 43.9 43.3" style="enable-background:new 0 0 43.9 43.3;" xml:space="preserve">
<style type="text/css">
	.st0{fill:#D93B3F;}
</style>
<g>
	<g>
		<path class="st0" d="M21.9,23.9c-4.4,0-7.9-3.5-7.9-7.9c0-4.4,3.5-7.9,7.9-7.9c4.4,0,7.9,3.5,7.9,7.9
			C29.8,20.3,26.3,23.9,21.9,23.9L21.9,23.9z M21.9,10.1c-3.3,0-5.9,2.6-5.9,5.9c0,3.3,2.6,5.9,5.9,5.9c3.3,0,5.9-2.6,5.9-5.9
			C27.8,12.7,25.2,10.1,21.9,10.1L21.9,10.1z"/>
	</g>
	<path class="st0" d="M21.9,42.8l-0.7-0.6C20.7,41.7,6.5,29.3,6.5,16.1c0-8.6,6.9-15.6,15.5-15.6c8.5,0,15.5,7,15.5,15.6
		c0,13.2-14.2,25.6-14.8,26.1L21.9,42.8L21.9,42.8z M21.9,2.5c-7.4,0-13.5,6.1-13.5,13.6c0,10.7,10.7,21.4,13.5,24
		c2.8-2.6,13.5-13.3,13.5-24C35.4,8.6,29.4,2.5,21.9,2.5L21.9,2.5z"/>
</g>
</svg>
